<?xml version="1.0" encoding="utf-8" standalone="no"?>
<!DOCTYPE svg PUBLIC "-//W3C//DTD SVG 1.1//EN"
  "http://www.w3.org/Graphics/SVG/1.1/DTD/svg11.dtd">
<!-- Created with matplotlib (https://matplotlib.org/) -->
<svg height="493.185625pt" version="1.1" viewBox="0 0 641.540625 493.185625" width="641.540625pt" xmlns="http://www.w3.org/2000/svg" xmlns:xlink="http://www.w3.org/1999/xlink">
 <defs>
  <style type="text/css">
*{stroke-linecap:butt;stroke-linejoin:round;}
  </style>
 </defs>
 <g id="figure_1">
  <g id="patch_1">
   <path d="M 0 493.185625 
L 641.540625 493.185625 
L 641.540625 0 
L 0 0 
z
" style="fill:#ffffff;"/>
  </g>
  <g id="axes_1">
   <g id="patch_2">
    <path d="M 76.340625 192.255319 
L 304.095727 192.255319 
L 304.095727 7.2 
L 76.340625 7.2 
z
" style="fill:#ffffff;"/>
   </g>
   <g id="matplotlib.axis_1">
    <g id="xtick_1">
     <g id="line2d_1">
      <defs>
       <path d="M 0 0 
L 0 3.5 
" id="m2f1134febb" style="stroke:#000000;stroke-width:0.8;"/>
      </defs>
      <g>
       <use style="stroke:#000000;stroke-width:0.8;" x="93.860248" xlink:href="#m2f1134febb" y="192.255319"/>
      </g>
     </g>
     <g id="text_1">
      <!-- 2 -->
      <defs>
       <path d="M 19.1875 8.296875 
L 53.609375 8.296875 
L 53.609375 0 
L 7.328125 0 
L 7.328125 8.296875 
Q 12.9375 14.109375 22.625 23.890625 
Q 32.328125 33.6875 34.8125 36.53125 
Q 39.546875 41.84375 41.421875 45.53125 
Q 43.3125 49.21875 43.3125 52.78125 
Q 43.3125 58.59375 39.234375 62.25 
Q 35.15625 65.921875 28.609375 65.921875 
Q 23.96875 65.921875 18.8125 64.3125 
Q 13.671875 62.703125 7.8125 59.421875 
L 7.8125 69.390625 
Q 13.765625 71.78125 18.9375 73 
Q 24.125 74.21875 28.421875 74.21875 
Q 39.75 74.21875 46.484375 68.546875 
Q 53.21875 62.890625 53.21875 53.421875 
Q 53.21875 48.921875 51.53125 44.890625 
Q 49.859375 40.875 45.40625 35.40625 
Q 44.1875 33.984375 37.640625 27.21875 
Q 31.109375 20.453125 19.1875 8.296875 
z
" id="DejaVuSans-50"/>
      </defs>
      <g transform="translate(88.770248 211.412819)scale(0.16 -0.16)">
       <use xlink:href="#DejaVuSans-50"/>
      </g>
     </g>
    </g>
    <g id="xtick_2">
     <g id="line2d_2">
      <g>
       <use style="stroke:#000000;stroke-width:0.8;" x="117.219746" xlink:href="#m2f1134febb" y="192.255319"/>
      </g>
     </g>
     <g id="text_2">
      <!-- 4 -->
      <defs>
       <path d="M 37.796875 64.3125 
L 12.890625 25.390625 
L 37.796875 25.390625 
z
M 35.203125 72.90625 
L 47.609375 72.90625 
L 47.609375 25.390625 
L 58.015625 25.390625 
L 58.015625 17.1875 
L 47.609375 17.1875 
L 47.609375 0 
L 37.796875 0 
L 37.796875 17.1875 
L 4.890625 17.1875 
L 4.890625 26.703125 
z
" id="DejaVuSans-52"/>
      </defs>
      <g transform="translate(112.129746 211.412819)scale(0.16 -0.16)">
       <use xlink:href="#DejaVuSans-52"/>
      </g>
     </g>
    </g>
    <g id="xtick_3">
     <g id="line2d_3">
      <g>
       <use style="stroke:#000000;stroke-width:0.8;" x="140.579244" xlink:href="#m2f1134febb" y="192.255319"/>
      </g>
     </g>
     <g id="text_3">
      <!-- 6 -->
      <defs>
       <path d="M 33.015625 40.375 
Q 26.375 40.375 22.484375 35.828125 
Q 18.609375 31.296875 18.609375 23.390625 
Q 18.609375 15.53125 22.484375 10.953125 
Q 26.375 6.390625 33.015625 6.390625 
Q 39.65625 6.390625 43.53125 10.953125 
Q 47.40625 15.53125 47.40625 23.390625 
Q 47.40625 31.296875 43.53125 35.828125 
Q 39.65625 40.375 33.015625 40.375 
z
M 52.59375 71.296875 
L 52.59375 62.3125 
Q 48.875 64.0625 45.09375 64.984375 
Q 41.3125 65.921875 37.59375 65.921875 
Q 27.828125 65.921875 22.671875 59.328125 
Q 17.53125 52.734375 16.796875 39.40625 
Q 19.671875 43.65625 24.015625 45.921875 
Q 28.375 48.1875 33.59375 48.1875 
Q 44.578125 48.1875 50.953125 41.515625 
Q 57.328125 34.859375 57.328125 23.390625 
Q 57.328125 12.15625 50.6875 5.359375 
Q 44.046875 -1.421875 33.015625 -1.421875 
Q 20.359375 -1.421875 13.671875 8.265625 
Q 6.984375 17.96875 6.984375 36.375 
Q 6.984375 53.65625 15.1875 63.9375 
Q 23.390625 74.21875 37.203125 74.21875 
Q 40.921875 74.21875 44.703125 73.484375 
Q 48.484375 72.75 52.59375 71.296875 
z
" id="DejaVuSans-54"/>
      </defs>
      <g transform="translate(135.489244 211.412819)scale(0.16 -0.16)">
       <use xlink:href="#DejaVuSans-54"/>
      </g>
     </g>
    </g>
    <g id="xtick_4">
     <g id="line2d_4">
      <g>
       <use style="stroke:#000000;stroke-width:0.8;" x="163.938741" xlink:href="#m2f1134febb" y="192.255319"/>
      </g>
     </g>
     <g id="text_4">
      <!-- 8 -->
      <defs>
       <path d="M 31.78125 34.625 
Q 24.75 34.625 20.71875 30.859375 
Q 16.703125 27.09375 16.703125 20.515625 
Q 16.703125 13.921875 20.71875 10.15625 
Q 24.75 6.390625 31.78125 6.390625 
Q 38.8125 6.390625 42.859375 10.171875 
Q 46.921875 13.96875 46.921875 20.515625 
Q 46.921875 27.09375 42.890625 30.859375 
Q 38.875 34.625 31.78125 34.625 
z
M 21.921875 38.8125 
Q 15.578125 40.375 12.03125 44.71875 
Q 8.5 49.078125 8.5 55.328125 
Q 8.5 64.0625 14.71875 69.140625 
Q 20.953125 74.21875 31.78125 74.21875 
Q 42.671875 74.21875 48.875 69.140625 
Q 55.078125 64.0625 55.078125 55.328125 
Q 55.078125 49.078125 51.53125 44.71875 
Q 48 40.375 41.703125 38.8125 
Q 48.828125 37.15625 52.796875 32.3125 
Q 56.78125 27.484375 56.78125 20.515625 
Q 56.78125 9.90625 50.3125 4.234375 
Q 43.84375 -1.421875 31.78125 -1.421875 
Q 19.734375 -1.421875 13.25 4.234375 
Q 6.78125 9.90625 6.78125 20.515625 
Q 6.78125 27.484375 10.78125 32.3125 
Q 14.796875 37.15625 21.921875 38.8125 
z
M 18.3125 54.390625 
Q 18.3125 48.734375 21.84375 45.5625 
Q 25.390625 42.390625 31.78125 42.390625 
Q 38.140625 42.390625 41.71875 45.5625 
Q 45.3125 48.734375 45.3125 54.390625 
Q 45.3125 60.0625 41.71875 63.234375 
Q 38.140625 66.40625 31.78125 66.40625 
Q 25.390625 66.40625 21.84375 63.234375 
Q 18.3125 60.0625 18.3125 54.390625 
z
" id="DejaVuSans-56"/>
      </defs>
      <g transform="translate(158.848741 211.412819)scale(0.16 -0.16)">
       <use xlink:href="#DejaVuSans-56"/>
      </g>
     </g>
    </g>
    <g id="xtick_5">
     <g id="line2d_5">
      <g>
       <use style="stroke:#000000;stroke-width:0.8;" x="187.298239" xlink:href="#m2f1134febb" y="192.255319"/>
      </g>
     </g>
     <g id="text_5">
      <!-- 10 -->
      <defs>
       <path d="M 12.40625 8.296875 
L 28.515625 8.296875 
L 28.515625 63.921875 
L 10.984375 60.40625 
L 10.984375 69.390625 
L 28.421875 72.90625 
L 38.28125 72.90625 
L 38.28125 8.296875 
L 54.390625 8.296875 
L 54.390625 0 
L 12.40625 0 
z
" id="DejaVuSans-49"/>
       <path d="M 31.78125 66.40625 
Q 24.171875 66.40625 20.328125 58.90625 
Q 16.5 51.421875 16.5 36.375 
Q 16.5 21.390625 20.328125 13.890625 
Q 24.171875 6.390625 31.78125 6.390625 
Q 39.453125 6.390625 43.28125 13.890625 
Q 47.125 21.390625 47.125 36.375 
Q 47.125 51.421875 43.28125 58.90625 
Q 39.453125 66.40625 31.78125 66.40625 
z
M 31.78125 74.21875 
Q 44.046875 74.21875 50.515625 64.515625 
Q 56.984375 54.828125 56.984375 36.375 
Q 56.984375 17.96875 50.515625 8.265625 
Q 44.046875 -1.421875 31.78125 -1.421875 
Q 19.53125 -1.421875 13.0625 8.265625 
Q 6.59375 17.96875 6.59375 36.375 
Q 6.59375 54.828125 13.0625 64.515625 
Q 19.53125 74.21875 31.78125 74.21875 
z
" id="DejaVuSans-48"/>
      </defs>
      <g transform="translate(177.118239 211.412819)scale(0.16 -0.16)">
       <use xlink:href="#DejaVuSans-49"/>
       <use x="63.623047" xlink:href="#DejaVuSans-48"/>
      </g>
     </g>
    </g>
    <g id="xtick_6">
     <g id="line2d_6">
      <g>
       <use style="stroke:#000000;stroke-width:0.8;" x="210.657736" xlink:href="#m2f1134febb" y="192.255319"/>
      </g>
     </g>
     <g id="text_6">
      <!-- 12 -->
      <g transform="translate(200.477736 211.412819)scale(0.16 -0.16)">
       <use xlink:href="#DejaVuSans-49"/>
       <use x="63.623047" xlink:href="#DejaVuSans-50"/>
      </g>
     </g>
    </g>
    <g id="xtick_7">
     <g id="line2d_7">
      <g>
       <use style="stroke:#000000;stroke-width:0.8;" x="234.017234" xlink:href="#m2f1134febb" y="192.255319"/>
      </g>
     </g>
     <g id="text_7">
      <!-- 14 -->
      <g transform="translate(223.837234 211.412819)scale(0.16 -0.16)">
       <use xlink:href="#DejaVuSans-49"/>
       <use x="63.623047" xlink:href="#DejaVuSans-52"/>
      </g>
     </g>
    </g>
    <g id="xtick_8">
     <g id="line2d_8">
      <g>
       <use style="stroke:#000000;stroke-width:0.8;" x="257.376732" xlink:href="#m2f1134febb" y="192.255319"/>
      </g>
     </g>
     <g id="text_8">
      <!-- 16 -->
      <g transform="translate(247.196732 211.412819)scale(0.16 -0.16)">
       <use xlink:href="#DejaVuSans-49"/>
       <use x="63.623047" xlink:href="#DejaVuSans-54"/>
      </g>
     </g>
    </g>
    <g id="xtick_9">
     <g id="line2d_9">
      <g>
       <use style="stroke:#000000;stroke-width:0.8;" x="280.736229" xlink:href="#m2f1134febb" y="192.255319"/>
      </g>
     </g>
     <g id="text_9">
      <!-- 18 -->
      <g transform="translate(270.556229 211.412819)scale(0.16 -0.16)">
       <use xlink:href="#DejaVuSans-49"/>
       <use x="63.623047" xlink:href="#DejaVuSans-56"/>
      </g>
     </g>
    </g>
    <g id="text_10">
     <!-- Number of variables -->
     <defs>
      <path d="M 9.8125 72.90625 
L 23.09375 72.90625 
L 55.421875 11.921875 
L 55.421875 72.90625 
L 64.984375 72.90625 
L 64.984375 0 
L 51.703125 0 
L 19.390625 60.984375 
L 19.390625 0 
L 9.8125 0 
z
" id="DejaVuSans-78"/>
      <path d="M 8.5 21.578125 
L 8.5 54.6875 
L 17.484375 54.6875 
L 17.484375 21.921875 
Q 17.484375 14.15625 20.5 10.265625 
Q 23.53125 6.390625 29.59375 6.390625 
Q 36.859375 6.390625 41.078125 11.03125 
Q 45.3125 15.671875 45.3125 23.6875 
L 45.3125 54.6875 
L 54.296875 54.6875 
L 54.296875 0 
L 45.3125 0 
L 45.3125 8.40625 
Q 42.046875 3.421875 37.71875 1 
Q 33.40625 -1.421875 27.6875 -1.421875 
Q 18.265625 -1.421875 13.375 4.4375 
Q 8.5 10.296875 8.5 21.578125 
z
M 31.109375 56 
z
" id="DejaVuSans-117"/>
      <path d="M 52 44.1875 
Q 55.375 50.25 60.0625 53.125 
Q 64.75 56 71.09375 56 
Q 79.640625 56 84.28125 50.015625 
Q 88.921875 44.046875 88.921875 33.015625 
L 88.921875 0 
L 79.890625 0 
L 79.890625 32.71875 
Q 79.890625 40.578125 77.09375 44.375 
Q 74.3125 48.1875 68.609375 48.1875 
Q 61.625 48.1875 57.5625 43.546875 
Q 53.515625 38.921875 53.515625 30.90625 
L 53.515625 0 
L 44.484375 0 
L 44.484375 32.71875 
Q 44.484375 40.625 41.703125 44.40625 
Q 38.921875 48.1875 33.109375 48.1875 
Q 26.21875 48.1875 22.15625 43.53125 
Q 18.109375 38.875 18.109375 30.90625 
L 18.109375 0 
L 9.078125 0 
L 9.078125 54.6875 
L 18.109375 54.6875 
L 18.109375 46.1875 
Q 21.1875 51.21875 25.484375 53.609375 
Q 29.78125 56 35.6875 56 
Q 41.65625 56 45.828125 52.96875 
Q 50 49.953125 52 44.1875 
z
" id="DejaVuSans-109"/>
      <path d="M 48.6875 27.296875 
Q 48.6875 37.203125 44.609375 42.84375 
Q 40.53125 48.484375 33.40625 48.484375 
Q 26.265625 48.484375 22.1875 42.84375 
Q 18.109375 37.203125 18.109375 27.296875 
Q 18.109375 17.390625 22.1875 11.75 
Q 26.265625 6.109375 33.40625 6.109375 
Q 40.53125 6.109375 44.609375 11.75 
Q 48.6875 17.390625 48.6875 27.296875 
z
M 18.109375 46.390625 
Q 20.953125 51.265625 25.265625 53.625 
Q 29.59375 56 35.59375 56 
Q 45.5625 56 51.78125 48.09375 
Q 58.015625 40.1875 58.015625 27.296875 
Q 58.015625 14.40625 51.78125 6.484375 
Q 45.5625 -1.421875 35.59375 -1.421875 
Q 29.59375 -1.421875 25.265625 0.953125 
Q 20.953125 3.328125 18.109375 8.203125 
L 18.109375 0 
L 9.078125 0 
L 9.078125 75.984375 
L 18.109375 75.984375 
z
" id="DejaVuSans-98"/>
      <path d="M 56.203125 29.59375 
L 56.203125 25.203125 
L 14.890625 25.203125 
Q 15.484375 15.921875 20.484375 11.0625 
Q 25.484375 6.203125 34.421875 6.203125 
Q 39.59375 6.203125 44.453125 7.46875 
Q 49.3125 8.734375 54.109375 11.28125 
L 54.109375 2.78125 
Q 49.265625 0.734375 44.1875 -0.34375 
Q 39.109375 -1.421875 33.890625 -1.421875 
Q 20.796875 -1.421875 13.15625 6.1875 
Q 5.515625 13.8125 5.515625 26.8125 
Q 5.515625 40.234375 12.765625 48.109375 
Q 20.015625 56 32.328125 56 
Q 43.359375 56 49.78125 48.890625 
Q 56.203125 41.796875 56.203125 29.59375 
z
M 47.21875 32.234375 
Q 47.125 39.59375 43.09375 43.984375 
Q 39.0625 48.390625 32.421875 48.390625 
Q 24.90625 48.390625 20.390625 44.140625 
Q 15.875 39.890625 15.1875 32.171875 
z
" id="DejaVuSans-101"/>
      <path d="M 41.109375 46.296875 
Q 39.59375 47.171875 37.8125 47.578125 
Q 36.03125 48 33.890625 48 
Q 26.265625 48 22.1875 43.046875 
Q 18.109375 38.09375 18.109375 28.8125 
L 18.109375 0 
L 9.078125 0 
L 9.078125 54.6875 
L 18.109375 54.6875 
L 18.109375 46.1875 
Q 20.953125 51.171875 25.484375 53.578125 
Q 30.03125 56 36.53125 56 
Q 37.453125 56 38.578125 55.875 
Q 39.703125 55.765625 41.0625 55.515625 
z
" id="DejaVuSans-114"/>
      <path id="DejaVuSans-32"/>
      <path d="M 30.609375 48.390625 
Q 23.390625 48.390625 19.1875 42.75 
Q 14.984375 37.109375 14.984375 27.296875 
Q 14.984375 17.484375 19.15625 11.84375 
Q 23.34375 6.203125 30.609375 6.203125 
Q 37.796875 6.203125 41.984375 11.859375 
Q 46.1875 17.53125 46.1875 27.296875 
Q 46.1875 37.015625 41.984375 42.703125 
Q 37.796875 48.390625 30.609375 48.390625 
z
M 30.609375 56 
Q 42.328125 56 49.015625 48.375 
Q 55.71875 40.765625 55.71875 27.296875 
Q 55.71875 13.875 49.015625 6.21875 
Q 42.328125 -1.421875 30.609375 -1.421875 
Q 18.84375 -1.421875 12.171875 6.21875 
Q 5.515625 13.875 5.515625 27.296875 
Q 5.515625 40.765625 12.171875 48.375 
Q 18.84375 56 30.609375 56 
z
" id="DejaVuSans-111"/>
      <path d="M 37.109375 75.984375 
L 37.109375 68.5 
L 28.515625 68.5 
Q 23.6875 68.5 21.796875 66.546875 
Q 19.921875 64.59375 19.921875 59.515625 
L 19.921875 54.6875 
L 34.71875 54.6875 
L 34.71875 47.703125 
L 19.921875 47.703125 
L 19.921875 0 
L 10.890625 0 
L 10.890625 47.703125 
L 2.296875 47.703125 
L 2.296875 54.6875 
L 10.890625 54.6875 
L 10.890625 58.5 
Q 10.890625 67.625 15.140625 71.796875 
Q 19.390625 75.984375 28.609375 75.984375 
z
" id="DejaVuSans-102"/>
      <path d="M 2.984375 54.6875 
L 12.5 54.6875 
L 29.59375 8.796875 
L 46.6875 54.6875 
L 56.203125 54.6875 
L 35.6875 0 
L 23.484375 0 
z
" id="DejaVuSans-118"/>
      <path d="M 34.28125 27.484375 
Q 23.390625 27.484375 19.1875 25 
Q 14.984375 22.515625 14.984375 16.5 
Q 14.984375 11.71875 18.140625 8.90625 
Q 21.296875 6.109375 26.703125 6.109375 
Q 34.1875 6.109375 38.703125 11.40625 
Q 43.21875 16.703125 43.21875 25.484375 
L 43.21875 27.484375 
z
M 52.203125 31.203125 
L 52.203125 0 
L 43.21875 0 
L 43.21875 8.296875 
Q 40.140625 3.328125 35.546875 0.953125 
Q 30.953125 -1.421875 24.3125 -1.421875 
Q 15.921875 -1.421875 10.953125 3.296875 
Q 6 8.015625 6 15.921875 
Q 6 25.140625 12.171875 29.828125 
Q 18.359375 34.515625 30.609375 34.515625 
L 43.21875 34.515625 
L 43.21875 35.40625 
Q 43.21875 41.609375 39.140625 45 
Q 35.0625 48.390625 27.6875 48.390625 
Q 23 48.390625 18.546875 47.265625 
Q 14.109375 46.140625 10.015625 43.890625 
L 10.015625 52.203125 
Q 14.9375 54.109375 19.578125 55.046875 
Q 24.21875 56 28.609375 56 
Q 40.484375 56 46.34375 49.84375 
Q 52.203125 43.703125 52.203125 31.203125 
z
" id="DejaVuSans-97"/>
      <path d="M 9.421875 54.6875 
L 18.40625 54.6875 
L 18.40625 0 
L 9.421875 0 
z
M 9.421875 75.984375 
L 18.40625 75.984375 
L 18.40625 64.59375 
L 9.421875 64.59375 
z
" id="DejaVuSans-105"/>
      <path d="M 9.421875 75.984375 
L 18.40625 75.984375 
L 18.40625 0 
L 9.421875 0 
z
" id="DejaVuSans-108"/>
      <path d="M 44.28125 53.078125 
L 44.28125 44.578125 
Q 40.484375 46.53125 36.375 47.5 
Q 32.28125 48.484375 27.875 48.484375 
Q 21.1875 48.484375 17.84375 46.4375 
Q 14.5 44.390625 14.5 40.28125 
Q 14.5 37.15625 16.890625 35.375 
Q 19.28125 33.59375 26.515625 31.984375 
L 29.59375 31.296875 
Q 39.15625 29.25 43.1875 25.515625 
Q 47.21875 21.78125 47.21875 15.09375 
Q 47.21875 7.46875 41.1875 3.015625 
Q 35.15625 -1.421875 24.609375 -1.421875 
Q 20.21875 -1.421875 15.453125 -0.5625 
Q 10.6875 0.296875 5.421875 2 
L 5.421875 11.28125 
Q 10.40625 8.6875 15.234375 7.390625 
Q 20.0625 6.109375 24.8125 6.109375 
Q 31.15625 6.109375 34.5625 8.28125 
Q 37.984375 10.453125 37.984375 14.40625 
Q 37.984375 18.0625 35.515625 20.015625 
Q 33.0625 21.96875 24.703125 23.78125 
L 21.578125 24.515625 
Q 13.234375 26.265625 9.515625 29.90625 
Q 5.8125 33.546875 5.8125 39.890625 
Q 5.8125 47.609375 11.28125 51.796875 
Q 16.75 56 26.8125 56 
Q 31.78125 56 36.171875 55.265625 
Q 40.578125 54.546875 44.28125 53.078125 
z
" id="DejaVuSans-115"/>
     </defs>
     <g transform="translate(98.669895 232.417507)scale(0.18 -0.18)">
      <use xlink:href="#DejaVuSans-78"/>
      <use x="74.804688" xlink:href="#DejaVuSans-117"/>
      <use x="138.183594" xlink:href="#DejaVuSans-109"/>
      <use x="235.595703" xlink:href="#DejaVuSans-98"/>
      <use x="299.072266" xlink:href="#DejaVuSans-101"/>
      <use x="360.595703" xlink:href="#DejaVuSans-114"/>
      <use x="401.708984" xlink:href="#DejaVuSans-32"/>
      <use x="433.496094" xlink:href="#DejaVuSans-111"/>
      <use x="494.677734" xlink:href="#DejaVuSans-102"/>
      <use x="529.882812" xlink:href="#DejaVuSans-32"/>
      <use x="561.669922" xlink:href="#DejaVuSans-118"/>
      <use x="620.849609" xlink:href="#DejaVuSans-97"/>
      <use x="682.128906" xlink:href="#DejaVuSans-114"/>
      <use x="723.242188" xlink:href="#DejaVuSans-105"/>
      <use x="751.025391" xlink:href="#DejaVuSans-97"/>
      <use x="812.304688" xlink:href="#DejaVuSans-98"/>
      <use x="875.78125" xlink:href="#DejaVuSans-108"/>
      <use x="903.564453" xlink:href="#DejaVuSans-101"/>
      <use x="965.087891" xlink:href="#DejaVuSans-115"/>
     </g>
    </g>
   </g>
   <g id="matplotlib.axis_2">
    <g id="ytick_1">
     <g id="line2d_10">
      <defs>
       <path d="M 0 0 
L -3.5 0 
" id="m448f2c95a1" style="stroke:#000000;stroke-width:0.8;"/>
      </defs>
      <g>
       <use style="stroke:#000000;stroke-width:0.8;" x="76.340625" xlink:href="#m448f2c95a1" y="114.470729"/>
      </g>
     </g>
     <g id="text_11">
      <!-- 0.4 -->
      <defs>
       <path d="M 10.6875 12.40625 
L 21 12.40625 
L 21 0 
L 10.6875 0 
z
" id="DejaVuSans-46"/>
      </defs>
      <g transform="translate(43.895625 120.549479)scale(0.16 -0.16)">
       <use xlink:href="#DejaVuSans-48"/>
       <use x="63.623047" xlink:href="#DejaVuSans-46"/>
       <use x="95.410156" xlink:href="#DejaVuSans-52"/>
      </g>
     </g>
    </g>
    <g id="ytick_2">
     <g id="line2d_11">
      <g>
       <use style="stroke:#000000;stroke-width:0.8;" x="76.340625" xlink:href="#m448f2c95a1" y="33.815873"/>
      </g>
     </g>
     <g id="text_12">
      <!-- 0.5 -->
      <defs>
       <path d="M 10.796875 72.90625 
L 49.515625 72.90625 
L 49.515625 64.59375 
L 19.828125 64.59375 
L 19.828125 46.734375 
Q 21.96875 47.46875 24.109375 47.828125 
Q 26.265625 48.1875 28.421875 48.1875 
Q 40.625 48.1875 47.75 41.5 
Q 54.890625 34.8125 54.890625 23.390625 
Q 54.890625 11.625 47.5625 5.09375 
Q 40.234375 -1.421875 26.90625 -1.421875 
Q 22.3125 -1.421875 17.546875 -0.640625 
Q 12.796875 0.140625 7.71875 1.703125 
L 7.71875 11.625 
Q 12.109375 9.234375 16.796875 8.0625 
Q 21.484375 6.890625 26.703125 6.890625 
Q 35.15625 6.890625 40.078125 11.328125 
Q 45.015625 15.765625 45.015625 23.390625 
Q 45.015625 31 40.078125 35.4375 
Q 35.15625 39.890625 26.703125 39.890625 
Q 22.75 39.890625 18.8125 39.015625 
Q 14.890625 38.140625 10.796875 36.28125 
z
" id="DejaVuSans-53"/>
      </defs>
      <g transform="translate(43.895625 39.894623)scale(0.16 -0.16)">
       <use xlink:href="#DejaVuSans-48"/>
       <use x="63.623047" xlink:href="#DejaVuSans-46"/>
       <use x="95.410156" xlink:href="#DejaVuSans-53"/>
      </g>
     </g>
    </g>
    <g id="text_13">
     <!-- Adjusted R2 -->
     <defs>
      <path d="M 34.1875 63.1875 
L 20.796875 26.90625 
L 47.609375 26.90625 
z
M 28.609375 72.90625 
L 39.796875 72.90625 
L 67.578125 0 
L 57.328125 0 
L 50.6875 18.703125 
L 17.828125 18.703125 
L 11.1875 0 
L 0.78125 0 
z
" id="DejaVuSans-65"/>
      <path d="M 45.40625 46.390625 
L 45.40625 75.984375 
L 54.390625 75.984375 
L 54.390625 0 
L 45.40625 0 
L 45.40625 8.203125 
Q 42.578125 3.328125 38.25 0.953125 
Q 33.9375 -1.421875 27.875 -1.421875 
Q 17.96875 -1.421875 11.734375 6.484375 
Q 5.515625 14.40625 5.515625 27.296875 
Q 5.515625 40.1875 11.734375 48.09375 
Q 17.96875 56 27.875 56 
Q 33.9375 56 38.25 53.625 
Q 42.578125 51.265625 45.40625 46.390625 
z
M 14.796875 27.296875 
Q 14.796875 17.390625 18.875 11.75 
Q 22.953125 6.109375 30.078125 6.109375 
Q 37.203125 6.109375 41.296875 11.75 
Q 45.40625 17.390625 45.40625 27.296875 
Q 45.40625 37.203125 41.296875 42.84375 
Q 37.203125 48.484375 30.078125 48.484375 
Q 22.953125 48.484375 18.875 42.84375 
Q 14.796875 37.203125 14.796875 27.296875 
z
" id="DejaVuSans-100"/>
      <path d="M 9.421875 54.6875 
L 18.40625 54.6875 
L 18.40625 -0.984375 
Q 18.40625 -11.421875 14.421875 -16.109375 
Q 10.453125 -20.796875 1.609375 -20.796875 
L -1.8125 -20.796875 
L -1.8125 -13.1875 
L 0.59375 -13.1875 
Q 5.71875 -13.1875 7.5625 -10.8125 
Q 9.421875 -8.453125 9.421875 -0.984375 
z
M 9.421875 75.984375 
L 18.40625 75.984375 
L 18.40625 64.59375 
L 9.421875 64.59375 
z
" id="DejaVuSans-106"/>
      <path d="M 18.3125 70.21875 
L 18.3125 54.6875 
L 36.8125 54.6875 
L 36.8125 47.703125 
L 18.3125 47.703125 
L 18.3125 18.015625 
Q 18.3125 11.328125 20.140625 9.421875 
Q 21.96875 7.515625 27.59375 7.515625 
L 36.8125 7.515625 
L 36.8125 0 
L 27.59375 0 
Q 17.1875 0 13.234375 3.875 
Q 9.28125 7.765625 9.28125 18.015625 
L 9.28125 47.703125 
L 2.6875 47.703125 
L 2.6875 54.6875 
L 9.28125 54.6875 
L 9.28125 70.21875 
z
" id="DejaVuSans-116"/>
      <path d="M 44.390625 34.1875 
Q 47.5625 33.109375 50.5625 29.59375 
Q 53.5625 26.078125 56.59375 19.921875 
L 66.609375 0 
L 56 0 
L 46.6875 18.703125 
Q 43.0625 26.03125 39.671875 28.421875 
Q 36.28125 30.8125 30.421875 30.8125 
L 19.671875 30.8125 
L 19.671875 0 
L 9.8125 0 
L 9.8125 72.90625 
L 32.078125 72.90625 
Q 44.578125 72.90625 50.734375 67.671875 
Q 56.890625 62.453125 56.890625 51.90625 
Q 56.890625 45.015625 53.6875 40.46875 
Q 50.484375 35.9375 44.390625 34.1875 
z
M 19.671875 64.796875 
L 19.671875 38.921875 
L 32.078125 38.921875 
Q 39.203125 38.921875 42.84375 42.21875 
Q 46.484375 45.515625 46.484375 51.90625 
Q 46.484375 58.296875 42.84375 61.546875 
Q 39.203125 64.796875 32.078125 64.796875 
z
" id="DejaVuSans-82"/>
     </defs>
     <g transform="translate(36.152187 154.108753)rotate(-90)scale(0.18 -0.18)">
      <use xlink:href="#DejaVuSans-65"/>
      <use x="68.392578" xlink:href="#DejaVuSans-100"/>
      <use x="131.869141" xlink:href="#DejaVuSans-106"/>
      <use x="159.652344" xlink:href="#DejaVuSans-117"/>
      <use x="223.03125" xlink:href="#DejaVuSans-115"/>
      <use x="275.130859" xlink:href="#DejaVuSans-116"/>
      <use x="314.339844" xlink:href="#DejaVuSans-101"/>
      <use x="375.863281" xlink:href="#DejaVuSans-100"/>
      <use x="439.339844" xlink:href="#DejaVuSans-32"/>
      <use x="471.126953" xlink:href="#DejaVuSans-82"/>
      <use x="540.609375" xlink:href="#DejaVuSans-50"/>
     </g>
    </g>
   </g>
   <g id="line2d_12">
    <path clip-path="url(#paffdedce47)" d="M 82.180499 183.843714 
L 93.860248 106.181513 
L 105.539997 80.533023 
L 117.219746 67.584203 
L 128.899495 54.769125 
L 140.579244 43.492644 
L 152.258992 33.601537 
L 163.938741 23.107511 
L 175.61849 19.251897 
L 187.298239 15.861599 
L 198.977988 15.611605 
L 210.657736 16.294042 
L 222.337485 17.141574 
L 234.017234 18.053425 
L 245.696983 19.405958 
L 257.376732 20.73216 
L 269.056481 22.164131 
L 280.736229 23.645544 
L 292.415978 25.244699 
" style="fill:none;stroke:#1f77b4;stroke-linecap:square;stroke-width:1.5;"/>
    <defs>
     <path d="M 0 4 
C 1.060812 4 2.078319 3.578535 2.828427 2.828427 
C 3.578535 2.078319 4 1.060812 4 0 
C 4 -1.060812 3.578535 -2.078319 2.828427 -2.828427 
C 2.078319 -3.578535 1.060812 -4 0 -4 
C -1.060812 -4 -2.078319 -3.578535 -2.828427 -2.828427 
C -3.578535 -2.078319 -4 -1.060812 -4 0 
C -4 1.060812 -3.578535 2.078319 -2.828427 2.828427 
C -2.078319 3.578535 -1.060812 4 0 4 
z
" id="m65279f7e0e" style="stroke:#1f77b4;"/>
    </defs>
    <g clip-path="url(#paffdedce47)">
     <use style="fill:#1f77b4;stroke:#1f77b4;" x="82.180499" xlink:href="#m65279f7e0e" y="183.843714"/>
     <use style="fill:#1f77b4;stroke:#1f77b4;" x="93.860248" xlink:href="#m65279f7e0e" y="106.181513"/>
     <use style="fill:#1f77b4;stroke:#1f77b4;" x="105.539997" xlink:href="#m65279f7e0e" y="80.533023"/>
     <use style="fill:#1f77b4;stroke:#1f77b4;" x="117.219746" xlink:href="#m65279f7e0e" y="67.584203"/>
     <use style="fill:#1f77b4;stroke:#1f77b4;" x="128.899495" xlink:href="#m65279f7e0e" y="54.769125"/>
     <use style="fill:#1f77b4;stroke:#1f77b4;" x="140.579244" xlink:href="#m65279f7e0e" y="43.492644"/>
     <use style="fill:#1f77b4;stroke:#1f77b4;" x="152.258992" xlink:href="#m65279f7e0e" y="33.601537"/>
     <use style="fill:#1f77b4;stroke:#1f77b4;" x="163.938741" xlink:href="#m65279f7e0e" y="23.107511"/>
     <use style="fill:#1f77b4;stroke:#1f77b4;" x="175.61849" xlink:href="#m65279f7e0e" y="19.251897"/>
     <use style="fill:#1f77b4;stroke:#1f77b4;" x="187.298239" xlink:href="#m65279f7e0e" y="15.861599"/>
     <use style="fill:#1f77b4;stroke:#1f77b4;" x="198.977988" xlink:href="#m65279f7e0e" y="15.611605"/>
     <use style="fill:#1f77b4;stroke:#1f77b4;" x="210.657736" xlink:href="#m65279f7e0e" y="16.294042"/>
     <use style="fill:#1f77b4;stroke:#1f77b4;" x="222.337485" xlink:href="#m65279f7e0e" y="17.141574"/>
     <use style="fill:#1f77b4;stroke:#1f77b4;" x="234.017234" xlink:href="#m65279f7e0e" y="18.053425"/>
     <use style="fill:#1f77b4;stroke:#1f77b4;" x="245.696983" xlink:href="#m65279f7e0e" y="19.405958"/>
     <use style="fill:#1f77b4;stroke:#1f77b4;" x="257.376732" xlink:href="#m65279f7e0e" y="20.73216"/>
     <use style="fill:#1f77b4;stroke:#1f77b4;" x="269.056481" xlink:href="#m65279f7e0e" y="22.164131"/>
     <use style="fill:#1f77b4;stroke:#1f77b4;" x="280.736229" xlink:href="#m65279f7e0e" y="23.645544"/>
     <use style="fill:#1f77b4;stroke:#1f77b4;" x="292.415978" xlink:href="#m65279f7e0e" y="25.244699"/>
    </g>
   </g>
   <g id="patch_3">
    <path d="M 76.340625 192.255319 
L 76.340625 7.2 
" style="fill:none;stroke:#000000;stroke-linecap:square;stroke-linejoin:miter;stroke-width:0.8;"/>
   </g>
   <g id="patch_4">
    <path d="M 304.095727 192.255319 
L 304.095727 7.2 
" style="fill:none;stroke:#000000;stroke-linecap:square;stroke-linejoin:miter;stroke-width:0.8;"/>
   </g>
   <g id="patch_5">
    <path d="M 76.340625 192.255319 
L 304.095727 192.255319 
" style="fill:none;stroke:#000000;stroke-linecap:square;stroke-linejoin:miter;stroke-width:0.8;"/>
   </g>
   <g id="patch_6">
    <path d="M 76.340625 7.2 
L 304.095727 7.2 
" style="fill:none;stroke:#000000;stroke-linecap:square;stroke-linejoin:miter;stroke-width:0.8;"/>
   </g>
  </g>
  <g id="axes_2">
   <g id="patch_7">
    <path d="M 406.585523 192.255319 
L 634.340625 192.255319 
L 634.340625 7.2 
L 406.585523 7.2 
z
" style="fill:#ffffff;"/>
   </g>
   <g id="matplotlib.axis_3">
    <g id="xtick_10">
     <g id="line2d_13">
      <g>
       <use style="stroke:#000000;stroke-width:0.8;" x="424.105146" xlink:href="#m2f1134febb" y="192.255319"/>
      </g>
     </g>
     <g id="text_14">
      <!-- 2 -->
      <g transform="translate(419.015146 211.412819)scale(0.16 -0.16)">
       <use xlink:href="#DejaVuSans-50"/>
      </g>
     </g>
    </g>
    <g id="xtick_11">
     <g id="line2d_14">
      <g>
       <use style="stroke:#000000;stroke-width:0.8;" x="447.464644" xlink:href="#m2f1134febb" y="192.255319"/>
      </g>
     </g>
     <g id="text_15">
      <!-- 4 -->
      <g transform="translate(442.374644 211.412819)scale(0.16 -0.16)">
       <use xlink:href="#DejaVuSans-52"/>
      </g>
     </g>
    </g>
    <g id="xtick_12">
     <g id="line2d_15">
      <g>
       <use style="stroke:#000000;stroke-width:0.8;" x="470.824141" xlink:href="#m2f1134febb" y="192.255319"/>
      </g>
     </g>
     <g id="text_16">
      <!-- 6 -->
      <g transform="translate(465.734141 211.412819)scale(0.16 -0.16)">
       <use xlink:href="#DejaVuSans-54"/>
      </g>
     </g>
    </g>
    <g id="xtick_13">
     <g id="line2d_16">
      <g>
       <use style="stroke:#000000;stroke-width:0.8;" x="494.183639" xlink:href="#m2f1134febb" y="192.255319"/>
      </g>
     </g>
     <g id="text_17">
      <!-- 8 -->
      <g transform="translate(489.093639 211.412819)scale(0.16 -0.16)">
       <use xlink:href="#DejaVuSans-56"/>
      </g>
     </g>
    </g>
    <g id="xtick_14">
     <g id="line2d_17">
      <g>
       <use style="stroke:#000000;stroke-width:0.8;" x="517.543137" xlink:href="#m2f1134febb" y="192.255319"/>
      </g>
     </g>
     <g id="text_18">
      <!-- 10 -->
      <g transform="translate(507.363137 211.412819)scale(0.16 -0.16)">
       <use xlink:href="#DejaVuSans-49"/>
       <use x="63.623047" xlink:href="#DejaVuSans-48"/>
      </g>
     </g>
    </g>
    <g id="xtick_15">
     <g id="line2d_18">
      <g>
       <use style="stroke:#000000;stroke-width:0.8;" x="540.902634" xlink:href="#m2f1134febb" y="192.255319"/>
      </g>
     </g>
     <g id="text_19">
      <!-- 12 -->
      <g transform="translate(530.722634 211.412819)scale(0.16 -0.16)">
       <use xlink:href="#DejaVuSans-49"/>
       <use x="63.623047" xlink:href="#DejaVuSans-50"/>
      </g>
     </g>
    </g>
    <g id="xtick_16">
     <g id="line2d_19">
      <g>
       <use style="stroke:#000000;stroke-width:0.8;" x="564.262132" xlink:href="#m2f1134febb" y="192.255319"/>
      </g>
     </g>
     <g id="text_20">
      <!-- 14 -->
      <g transform="translate(554.082132 211.412819)scale(0.16 -0.16)">
       <use xlink:href="#DejaVuSans-49"/>
       <use x="63.623047" xlink:href="#DejaVuSans-52"/>
      </g>
     </g>
    </g>
    <g id="xtick_17">
     <g id="line2d_20">
      <g>
       <use style="stroke:#000000;stroke-width:0.8;" x="587.62163" xlink:href="#m2f1134febb" y="192.255319"/>
      </g>
     </g>
     <g id="text_21">
      <!-- 16 -->
      <g transform="translate(577.44163 211.412819)scale(0.16 -0.16)">
       <use xlink:href="#DejaVuSans-49"/>
       <use x="63.623047" xlink:href="#DejaVuSans-54"/>
      </g>
     </g>
    </g>
    <g id="xtick_18">
     <g id="line2d_21">
      <g>
       <use style="stroke:#000000;stroke-width:0.8;" x="610.981127" xlink:href="#m2f1134febb" y="192.255319"/>
      </g>
     </g>
     <g id="text_22">
      <!-- 18 -->
      <g transform="translate(600.801127 211.412819)scale(0.16 -0.16)">
       <use xlink:href="#DejaVuSans-49"/>
       <use x="63.623047" xlink:href="#DejaVuSans-56"/>
      </g>
     </g>
    </g>
    <g id="text_23">
     <!-- Number of variables -->
     <g transform="translate(428.914793 232.417507)scale(0.18 -0.18)">
      <use xlink:href="#DejaVuSans-78"/>
      <use x="74.804688" xlink:href="#DejaVuSans-117"/>
      <use x="138.183594" xlink:href="#DejaVuSans-109"/>
      <use x="235.595703" xlink:href="#DejaVuSans-98"/>
      <use x="299.072266" xlink:href="#DejaVuSans-101"/>
      <use x="360.595703" xlink:href="#DejaVuSans-114"/>
      <use x="401.708984" xlink:href="#DejaVuSans-32"/>
      <use x="433.496094" xlink:href="#DejaVuSans-111"/>
      <use x="494.677734" xlink:href="#DejaVuSans-102"/>
      <use x="529.882812" xlink:href="#DejaVuSans-32"/>
      <use x="561.669922" xlink:href="#DejaVuSans-118"/>
      <use x="620.849609" xlink:href="#DejaVuSans-97"/>
      <use x="682.128906" xlink:href="#DejaVuSans-114"/>
      <use x="723.242188" xlink:href="#DejaVuSans-105"/>
      <use x="751.025391" xlink:href="#DejaVuSans-97"/>
      <use x="812.304688" xlink:href="#DejaVuSans-98"/>
      <use x="875.78125" xlink:href="#DejaVuSans-108"/>
      <use x="903.564453" xlink:href="#DejaVuSans-101"/>
      <use x="965.087891" xlink:href="#DejaVuSans-115"/>
     </g>
    </g>
   </g>
   <g id="matplotlib.axis_4">
    <g id="ytick_3">
     <g id="line2d_22">
      <g>
       <use style="stroke:#000000;stroke-width:0.8;" x="406.585523" xlink:href="#m448f2c95a1" y="148.553381"/>
      </g>
     </g>
     <g id="text_24">
      <!-- 3825 -->
      <defs>
       <path d="M 40.578125 39.3125 
Q 47.65625 37.796875 51.625 33 
Q 55.609375 28.21875 55.609375 21.1875 
Q 55.609375 10.40625 48.1875 4.484375 
Q 40.765625 -1.421875 27.09375 -1.421875 
Q 22.515625 -1.421875 17.65625 -0.515625 
Q 12.796875 0.390625 7.625 2.203125 
L 7.625 11.71875 
Q 11.71875 9.328125 16.59375 8.109375 
Q 21.484375 6.890625 26.8125 6.890625 
Q 36.078125 6.890625 40.9375 10.546875 
Q 45.796875 14.203125 45.796875 21.1875 
Q 45.796875 27.640625 41.28125 31.265625 
Q 36.765625 34.90625 28.71875 34.90625 
L 20.21875 34.90625 
L 20.21875 43.015625 
L 29.109375 43.015625 
Q 36.375 43.015625 40.234375 45.921875 
Q 44.09375 48.828125 44.09375 54.296875 
Q 44.09375 59.90625 40.109375 62.90625 
Q 36.140625 65.921875 28.71875 65.921875 
Q 24.65625 65.921875 20.015625 65.03125 
Q 15.375 64.15625 9.8125 62.3125 
L 9.8125 71.09375 
Q 15.4375 72.65625 20.34375 73.4375 
Q 25.25 74.21875 29.59375 74.21875 
Q 40.828125 74.21875 47.359375 69.109375 
Q 53.90625 64.015625 53.90625 55.328125 
Q 53.90625 49.265625 50.4375 45.09375 
Q 46.96875 40.921875 40.578125 39.3125 
z
" id="DejaVuSans-51"/>
      </defs>
      <g transform="translate(358.865523 154.632131)scale(0.16 -0.16)">
       <use xlink:href="#DejaVuSans-51"/>
       <use x="63.623047" xlink:href="#DejaVuSans-56"/>
       <use x="127.246094" xlink:href="#DejaVuSans-50"/>
       <use x="190.869141" xlink:href="#DejaVuSans-53"/>
      </g>
     </g>
    </g>
    <g id="ytick_4">
     <g id="line2d_23">
      <g>
       <use style="stroke:#000000;stroke-width:0.8;" x="406.585523" xlink:href="#m448f2c95a1" y="76.544105"/>
      </g>
     </g>
     <g id="text_25">
      <!-- 3850 -->
      <g transform="translate(358.865523 82.622855)scale(0.16 -0.16)">
       <use xlink:href="#DejaVuSans-51"/>
       <use x="63.623047" xlink:href="#DejaVuSans-56"/>
       <use x="127.246094" xlink:href="#DejaVuSans-53"/>
       <use x="190.869141" xlink:href="#DejaVuSans-48"/>
      </g>
     </g>
    </g>
    <g id="text_26">
     <!-- BIC -->
     <defs>
      <path d="M 19.671875 34.8125 
L 19.671875 8.109375 
L 35.5 8.109375 
Q 43.453125 8.109375 47.28125 11.40625 
Q 51.125 14.703125 51.125 21.484375 
Q 51.125 28.328125 47.28125 31.5625 
Q 43.453125 34.8125 35.5 34.8125 
z
M 19.671875 64.796875 
L 19.671875 42.828125 
L 34.28125 42.828125 
Q 41.5 42.828125 45.03125 45.53125 
Q 48.578125 48.25 48.578125 53.8125 
Q 48.578125 59.328125 45.03125 62.0625 
Q 41.5 64.796875 34.28125 64.796875 
z
M 9.8125 72.90625 
L 35.015625 72.90625 
Q 46.296875 72.90625 52.390625 68.21875 
Q 58.5 63.53125 58.5 54.890625 
Q 58.5 48.1875 55.375 44.234375 
Q 52.25 40.28125 46.1875 39.3125 
Q 53.46875 37.75 57.5 32.78125 
Q 61.53125 27.828125 61.53125 20.40625 
Q 61.53125 10.640625 54.890625 5.3125 
Q 48.25 0 35.984375 0 
L 9.8125 0 
z
" id="DejaVuSans-66"/>
      <path d="M 9.8125 72.90625 
L 19.671875 72.90625 
L 19.671875 0 
L 9.8125 0 
z
" id="DejaVuSans-73"/>
      <path d="M 64.40625 67.28125 
L 64.40625 56.890625 
Q 59.421875 61.53125 53.78125 63.8125 
Q 48.140625 66.109375 41.796875 66.109375 
Q 29.296875 66.109375 22.65625 58.46875 
Q 16.015625 50.828125 16.015625 36.375 
Q 16.015625 21.96875 22.65625 14.328125 
Q 29.296875 6.6875 41.796875 6.6875 
Q 48.140625 6.6875 53.78125 8.984375 
Q 59.421875 11.28125 64.40625 15.921875 
L 64.40625 5.609375 
Q 59.234375 2.09375 53.4375 0.328125 
Q 47.65625 -1.421875 41.21875 -1.421875 
Q 24.65625 -1.421875 15.125 8.703125 
Q 5.609375 18.84375 5.609375 36.375 
Q 5.609375 53.953125 15.125 64.078125 
Q 24.65625 74.21875 41.21875 74.21875 
Q 47.75 74.21875 53.53125 72.484375 
Q 59.328125 70.75 64.40625 67.28125 
z
" id="DejaVuSans-67"/>
     </defs>
     <g transform="translate(351.122085 114.842035)rotate(-90)scale(0.18 -0.18)">
      <use xlink:href="#DejaVuSans-66"/>
      <use x="68.603516" xlink:href="#DejaVuSans-73"/>
      <use x="98.095703" xlink:href="#DejaVuSans-67"/>
     </g>
    </g>
   </g>
   <g id="line2d_24">
    <path clip-path="url(#pa24cae3d1f)" d="M 412.425397 15.611605 
L 424.105146 117.042074 
L 435.784895 145.903673 
L 447.464644 154.902782 
L 459.144393 164.339696 
L 470.824141 171.65192 
L 482.50389 176.932541 
L 494.183639 183.843714 
L 505.863388 178.259148 
L 517.543137 171.84559 
L 529.222886 159.299447 
L 540.902634 144.932331 
L 552.582383 130.256136 
L 564.262132 115.470054 
L 575.941881 99.841515 
L 587.62163 84.285674 
L 599.301379 68.546481 
L 610.981127 52.734753 
L 622.660876 36.720497 
" style="fill:none;stroke:#1f77b4;stroke-linecap:square;stroke-width:1.5;"/>
    <g clip-path="url(#pa24cae3d1f)">
     <use style="fill:#1f77b4;stroke:#1f77b4;" x="412.425397" xlink:href="#m65279f7e0e" y="15.611605"/>
     <use style="fill:#1f77b4;stroke:#1f77b4;" x="424.105146" xlink:href="#m65279f7e0e" y="117.042074"/>
     <use style="fill:#1f77b4;stroke:#1f77b4;" x="435.784895" xlink:href="#m65279f7e0e" y="145.903673"/>
     <use style="fill:#1f77b4;stroke:#1f77b4;" x="447.464644" xlink:href="#m65279f7e0e" y="154.902782"/>
     <use style="fill:#1f77b4;stroke:#1f77b4;" x="459.144393" xlink:href="#m65279f7e0e" y="164.339696"/>
     <use style="fill:#1f77b4;stroke:#1f77b4;" x="470.824141" xlink:href="#m65279f7e0e" y="171.65192"/>
     <use style="fill:#1f77b4;stroke:#1f77b4;" x="482.50389" xlink:href="#m65279f7e0e" y="176.932541"/>
     <use style="fill:#1f77b4;stroke:#1f77b4;" x="494.183639" xlink:href="#m65279f7e0e" y="183.843714"/>
     <use style="fill:#1f77b4;stroke:#1f77b4;" x="505.863388" xlink:href="#m65279f7e0e" y="178.259148"/>
     <use style="fill:#1f77b4;stroke:#1f77b4;" x="517.543137" xlink:href="#m65279f7e0e" y="171.84559"/>
     <use style="fill:#1f77b4;stroke:#1f77b4;" x="529.222886" xlink:href="#m65279f7e0e" y="159.299447"/>
     <use style="fill:#1f77b4;stroke:#1f77b4;" x="540.902634" xlink:href="#m65279f7e0e" y="144.932331"/>
     <use style="fill:#1f77b4;stroke:#1f77b4;" x="552.582383" xlink:href="#m65279f7e0e" y="130.256136"/>
     <use style="fill:#1f77b4;stroke:#1f77b4;" x="564.262132" xlink:href="#m65279f7e0e" y="115.470054"/>
     <use style="fill:#1f77b4;stroke:#1f77b4;" x="575.941881" xlink:href="#m65279f7e0e" y="99.841515"/>
     <use style="fill:#1f77b4;stroke:#1f77b4;" x="587.62163" xlink:href="#m65279f7e0e" y="84.285674"/>
     <use style="fill:#1f77b4;stroke:#1f77b4;" x="599.301379" xlink:href="#m65279f7e0e" y="68.546481"/>
     <use style="fill:#1f77b4;stroke:#1f77b4;" x="610.981127" xlink:href="#m65279f7e0e" y="52.734753"/>
     <use style="fill:#1f77b4;stroke:#1f77b4;" x="622.660876" xlink:href="#m65279f7e0e" y="36.720497"/>
    </g>
   </g>
   <g id="patch_8">
    <path d="M 406.585523 192.255319 
L 406.585523 7.2 
" style="fill:none;stroke:#000000;stroke-linecap:square;stroke-linejoin:miter;stroke-width:0.8;"/>
   </g>
   <g id="patch_9">
    <path d="M 634.340625 192.255319 
L 634.340625 7.2 
" style="fill:none;stroke:#000000;stroke-linecap:square;stroke-linejoin:miter;stroke-width:0.8;"/>
   </g>
   <g id="patch_10">
    <path d="M 406.585523 192.255319 
L 634.340625 192.255319 
" style="fill:none;stroke:#000000;stroke-linecap:square;stroke-linejoin:miter;stroke-width:0.8;"/>
   </g>
   <g id="patch_11">
    <path d="M 406.585523 7.2 
L 634.340625 7.2 
" style="fill:none;stroke:#000000;stroke-linecap:square;stroke-linejoin:miter;stroke-width:0.8;"/>
   </g>
  </g>
  <g id="axes_3">
   <g id="patch_12">
    <path d="M 76.340625 442.08 
L 304.095727 442.08 
L 304.095727 257.024681 
L 76.340625 257.024681 
z
" style="fill:#ffffff;"/>
   </g>
   <g id="matplotlib.axis_5">
    <g id="xtick_19">
     <g id="line2d_25">
      <g>
       <use style="stroke:#000000;stroke-width:0.8;" x="93.860248" xlink:href="#m2f1134febb" y="442.08"/>
      </g>
     </g>
     <g id="text_27">
      <!-- 2 -->
      <g transform="translate(88.770248 461.2375)scale(0.16 -0.16)">
       <use xlink:href="#DejaVuSans-50"/>
      </g>
     </g>
    </g>
    <g id="xtick_20">
     <g id="line2d_26">
      <g>
       <use style="stroke:#000000;stroke-width:0.8;" x="117.219746" xlink:href="#m2f1134febb" y="442.08"/>
      </g>
     </g>
     <g id="text_28">
      <!-- 4 -->
      <g transform="translate(112.129746 461.2375)scale(0.16 -0.16)">
       <use xlink:href="#DejaVuSans-52"/>
      </g>
     </g>
    </g>
    <g id="xtick_21">
     <g id="line2d_27">
      <g>
       <use style="stroke:#000000;stroke-width:0.8;" x="140.579244" xlink:href="#m2f1134febb" y="442.08"/>
      </g>
     </g>
     <g id="text_29">
      <!-- 6 -->
      <g transform="translate(135.489244 461.2375)scale(0.16 -0.16)">
       <use xlink:href="#DejaVuSans-54"/>
      </g>
     </g>
    </g>
    <g id="xtick_22">
     <g id="line2d_28">
      <g>
       <use style="stroke:#000000;stroke-width:0.8;" x="163.938741" xlink:href="#m2f1134febb" y="442.08"/>
      </g>
     </g>
     <g id="text_30">
      <!-- 8 -->
      <g transform="translate(158.848741 461.2375)scale(0.16 -0.16)">
       <use xlink:href="#DejaVuSans-56"/>
      </g>
     </g>
    </g>
    <g id="xtick_23">
     <g id="line2d_29">
      <g>
       <use style="stroke:#000000;stroke-width:0.8;" x="187.298239" xlink:href="#m2f1134febb" y="442.08"/>
      </g>
     </g>
     <g id="text_31">
      <!-- 10 -->
      <g transform="translate(177.118239 461.2375)scale(0.16 -0.16)">
       <use xlink:href="#DejaVuSans-49"/>
       <use x="63.623047" xlink:href="#DejaVuSans-48"/>
      </g>
     </g>
    </g>
    <g id="xtick_24">
     <g id="line2d_30">
      <g>
       <use style="stroke:#000000;stroke-width:0.8;" x="210.657736" xlink:href="#m2f1134febb" y="442.08"/>
      </g>
     </g>
     <g id="text_32">
      <!-- 12 -->
      <g transform="translate(200.477736 461.2375)scale(0.16 -0.16)">
       <use xlink:href="#DejaVuSans-49"/>
       <use x="63.623047" xlink:href="#DejaVuSans-50"/>
      </g>
     </g>
    </g>
    <g id="xtick_25">
     <g id="line2d_31">
      <g>
       <use style="stroke:#000000;stroke-width:0.8;" x="234.017234" xlink:href="#m2f1134febb" y="442.08"/>
      </g>
     </g>
     <g id="text_33">
      <!-- 14 -->
      <g transform="translate(223.837234 461.2375)scale(0.16 -0.16)">
       <use xlink:href="#DejaVuSans-49"/>
       <use x="63.623047" xlink:href="#DejaVuSans-52"/>
      </g>
     </g>
    </g>
    <g id="xtick_26">
     <g id="line2d_32">
      <g>
       <use style="stroke:#000000;stroke-width:0.8;" x="257.376732" xlink:href="#m2f1134febb" y="442.08"/>
      </g>
     </g>
     <g id="text_34">
      <!-- 16 -->
      <g transform="translate(247.196732 461.2375)scale(0.16 -0.16)">
       <use xlink:href="#DejaVuSans-49"/>
       <use x="63.623047" xlink:href="#DejaVuSans-54"/>
      </g>
     </g>
    </g>
    <g id="xtick_27">
     <g id="line2d_33">
      <g>
       <use style="stroke:#000000;stroke-width:0.8;" x="280.736229" xlink:href="#m2f1134febb" y="442.08"/>
      </g>
     </g>
     <g id="text_35">
      <!-- 18 -->
      <g transform="translate(270.556229 461.2375)scale(0.16 -0.16)">
       <use xlink:href="#DejaVuSans-49"/>
       <use x="63.623047" xlink:href="#DejaVuSans-56"/>
      </g>
     </g>
    </g>
    <g id="text_36">
     <!-- Number of variables -->
     <g transform="translate(98.669895 482.242187)scale(0.18 -0.18)">
      <use xlink:href="#DejaVuSans-78"/>
      <use x="74.804688" xlink:href="#DejaVuSans-117"/>
      <use x="138.183594" xlink:href="#DejaVuSans-109"/>
      <use x="235.595703" xlink:href="#DejaVuSans-98"/>
      <use x="299.072266" xlink:href="#DejaVuSans-101"/>
      <use x="360.595703" xlink:href="#DejaVuSans-114"/>
      <use x="401.708984" xlink:href="#DejaVuSans-32"/>
      <use x="433.496094" xlink:href="#DejaVuSans-111"/>
      <use x="494.677734" xlink:href="#DejaVuSans-102"/>
      <use x="529.882812" xlink:href="#DejaVuSans-32"/>
      <use x="561.669922" xlink:href="#DejaVuSans-118"/>
      <use x="620.849609" xlink:href="#DejaVuSans-97"/>
      <use x="682.128906" xlink:href="#DejaVuSans-114"/>
      <use x="723.242188" xlink:href="#DejaVuSans-105"/>
      <use x="751.025391" xlink:href="#DejaVuSans-97"/>
      <use x="812.304688" xlink:href="#DejaVuSans-98"/>
      <use x="875.78125" xlink:href="#DejaVuSans-108"/>
      <use x="903.564453" xlink:href="#DejaVuSans-101"/>
      <use x="965.087891" xlink:href="#DejaVuSans-115"/>
     </g>
    </g>
   </g>
   <g id="matplotlib.axis_6">
    <g id="ytick_5">
     <g id="line2d_34">
      <g>
       <use style="stroke:#000000;stroke-width:0.8;" x="76.340625" xlink:href="#m448f2c95a1" y="390.086279"/>
      </g>
     </g>
     <g id="text_37">
      <!-- 3800 -->
      <g transform="translate(28.620625 396.165029)scale(0.16 -0.16)">
       <use xlink:href="#DejaVuSans-51"/>
       <use x="63.623047" xlink:href="#DejaVuSans-56"/>
       <use x="127.246094" xlink:href="#DejaVuSans-48"/>
       <use x="190.869141" xlink:href="#DejaVuSans-48"/>
      </g>
     </g>
    </g>
    <g id="ytick_6">
     <g id="line2d_35">
      <g>
       <use style="stroke:#000000;stroke-width:0.8;" x="76.340625" xlink:href="#m448f2c95a1" y="292.718814"/>
      </g>
     </g>
     <g id="text_38">
      <!-- 3850 -->
      <g transform="translate(28.620625 298.797564)scale(0.16 -0.16)">
       <use xlink:href="#DejaVuSans-51"/>
       <use x="63.623047" xlink:href="#DejaVuSans-56"/>
       <use x="127.246094" xlink:href="#DejaVuSans-53"/>
       <use x="190.869141" xlink:href="#DejaVuSans-48"/>
      </g>
     </g>
    </g>
    <g id="text_39">
     <!-- AIC -->
     <g transform="translate(20.877188 364.648434)rotate(-90)scale(0.18 -0.18)">
      <use xlink:href="#DejaVuSans-65"/>
      <use x="68.408203" xlink:href="#DejaVuSans-73"/>
      <use x="97.900391" xlink:href="#DejaVuSans-67"/>
     </g>
    </g>
   </g>
   <g id="line2d_36">
    <path clip-path="url(#pcdde774f5f)" d="M 82.180499 265.436286 
L 93.860248 340.967208 
L 105.539997 367.43607 
L 117.219746 380.476381 
L 128.899495 393.812683 
L 140.579244 405.712532 
L 152.258992 416.238864 
L 163.938741 427.867573 
L 175.61849 431.048215 
L 187.298239 433.668395 
L 198.977988 432.142482 
L 210.657736 429.385454 
L 222.337485 426.419464 
L 234.017234 423.379183 
L 245.696983 419.769337 
L 257.376732 416.20864 
L 269.056481 412.523984 
L 280.736229 408.790288 
L 292.415978 404.919668 
" style="fill:none;stroke:#1f77b4;stroke-linecap:square;stroke-width:1.5;"/>
    <g clip-path="url(#pcdde774f5f)">
     <use style="fill:#1f77b4;stroke:#1f77b4;" x="82.180499" xlink:href="#m65279f7e0e" y="265.436286"/>
     <use style="fill:#1f77b4;stroke:#1f77b4;" x="93.860248" xlink:href="#m65279f7e0e" y="340.967208"/>
     <use style="fill:#1f77b4;stroke:#1f77b4;" x="105.539997" xlink:href="#m65279f7e0e" y="367.43607"/>
     <use style="fill:#1f77b4;stroke:#1f77b4;" x="117.219746" xlink:href="#m65279f7e0e" y="380.476381"/>
     <use style="fill:#1f77b4;stroke:#1f77b4;" x="128.899495" xlink:href="#m65279f7e0e" y="393.812683"/>
     <use style="fill:#1f77b4;stroke:#1f77b4;" x="140.579244" xlink:href="#m65279f7e0e" y="405.712532"/>
     <use style="fill:#1f77b4;stroke:#1f77b4;" x="152.258992" xlink:href="#m65279f7e0e" y="416.238864"/>
     <use style="fill:#1f77b4;stroke:#1f77b4;" x="163.938741" xlink:href="#m65279f7e0e" y="427.867573"/>
     <use style="fill:#1f77b4;stroke:#1f77b4;" x="175.61849" xlink:href="#m65279f7e0e" y="431.048215"/>
     <use style="fill:#1f77b4;stroke:#1f77b4;" x="187.298239" xlink:href="#m65279f7e0e" y="433.668395"/>
     <use style="fill:#1f77b4;stroke:#1f77b4;" x="198.977988" xlink:href="#m65279f7e0e" y="432.142482"/>
     <use style="fill:#1f77b4;stroke:#1f77b4;" x="210.657736" xlink:href="#m65279f7e0e" y="429.385454"/>
     <use style="fill:#1f77b4;stroke:#1f77b4;" x="222.337485" xlink:href="#m65279f7e0e" y="426.419464"/>
     <use style="fill:#1f77b4;stroke:#1f77b4;" x="234.017234" xlink:href="#m65279f7e0e" y="423.379183"/>
     <use style="fill:#1f77b4;stroke:#1f77b4;" x="245.696983" xlink:href="#m65279f7e0e" y="419.769337"/>
     <use style="fill:#1f77b4;stroke:#1f77b4;" x="257.376732" xlink:href="#m65279f7e0e" y="416.20864"/>
     <use style="fill:#1f77b4;stroke:#1f77b4;" x="269.056481" xlink:href="#m65279f7e0e" y="412.523984"/>
     <use style="fill:#1f77b4;stroke:#1f77b4;" x="280.736229" xlink:href="#m65279f7e0e" y="408.790288"/>
     <use style="fill:#1f77b4;stroke:#1f77b4;" x="292.415978" xlink:href="#m65279f7e0e" y="404.919668"/>
    </g>
   </g>
   <g id="patch_13">
    <path d="M 76.340625 442.08 
L 76.340625 257.024681 
" style="fill:none;stroke:#000000;stroke-linecap:square;stroke-linejoin:miter;stroke-width:0.8;"/>
   </g>
   <g id="patch_14">
    <path d="M 304.095727 442.08 
L 304.095727 257.024681 
" style="fill:none;stroke:#000000;stroke-linecap:square;stroke-linejoin:miter;stroke-width:0.8;"/>
   </g>
   <g id="patch_15">
    <path d="M 76.340625 442.08 
L 304.095727 442.08 
" style="fill:none;stroke:#000000;stroke-linecap:square;stroke-linejoin:miter;stroke-width:0.8;"/>
   </g>
   <g id="patch_16">
    <path d="M 76.340625 257.024681 
L 304.095727 257.024681 
" style="fill:none;stroke:#000000;stroke-linecap:square;stroke-linejoin:miter;stroke-width:0.8;"/>
   </g>
  </g>
  <g id="axes_4">
   <g id="patch_17">
    <path d="M 406.585523 442.08 
L 634.340625 442.08 
L 634.340625 257.024681 
L 406.585523 257.024681 
z
" style="fill:#ffffff;"/>
   </g>
   <g id="matplotlib.axis_7">
    <g id="xtick_28">
     <g id="line2d_37">
      <g>
       <use style="stroke:#000000;stroke-width:0.8;" x="424.105146" xlink:href="#m2f1134febb" y="442.08"/>
      </g>
     </g>
     <g id="text_40">
      <!-- 2 -->
      <g transform="translate(419.015146 461.2375)scale(0.16 -0.16)">
       <use xlink:href="#DejaVuSans-50"/>
      </g>
     </g>
    </g>
    <g id="xtick_29">
     <g id="line2d_38">
      <g>
       <use style="stroke:#000000;stroke-width:0.8;" x="447.464644" xlink:href="#m2f1134febb" y="442.08"/>
      </g>
     </g>
     <g id="text_41">
      <!-- 4 -->
      <g transform="translate(442.374644 461.2375)scale(0.16 -0.16)">
       <use xlink:href="#DejaVuSans-52"/>
      </g>
     </g>
    </g>
    <g id="xtick_30">
     <g id="line2d_39">
      <g>
       <use style="stroke:#000000;stroke-width:0.8;" x="470.824141" xlink:href="#m2f1134febb" y="442.08"/>
      </g>
     </g>
     <g id="text_42">
      <!-- 6 -->
      <g transform="translate(465.734141 461.2375)scale(0.16 -0.16)">
       <use xlink:href="#DejaVuSans-54"/>
      </g>
     </g>
    </g>
    <g id="xtick_31">
     <g id="line2d_40">
      <g>
       <use style="stroke:#000000;stroke-width:0.8;" x="494.183639" xlink:href="#m2f1134febb" y="442.08"/>
      </g>
     </g>
     <g id="text_43">
      <!-- 8 -->
      <g transform="translate(489.093639 461.2375)scale(0.16 -0.16)">
       <use xlink:href="#DejaVuSans-56"/>
      </g>
     </g>
    </g>
    <g id="xtick_32">
     <g id="line2d_41">
      <g>
       <use style="stroke:#000000;stroke-width:0.8;" x="517.543137" xlink:href="#m2f1134febb" y="442.08"/>
      </g>
     </g>
     <g id="text_44">
      <!-- 10 -->
      <g transform="translate(507.363137 461.2375)scale(0.16 -0.16)">
       <use xlink:href="#DejaVuSans-49"/>
       <use x="63.623047" xlink:href="#DejaVuSans-48"/>
      </g>
     </g>
    </g>
    <g id="xtick_33">
     <g id="line2d_42">
      <g>
       <use style="stroke:#000000;stroke-width:0.8;" x="540.902634" xlink:href="#m2f1134febb" y="442.08"/>
      </g>
     </g>
     <g id="text_45">
      <!-- 12 -->
      <g transform="translate(530.722634 461.2375)scale(0.16 -0.16)">
       <use xlink:href="#DejaVuSans-49"/>
       <use x="63.623047" xlink:href="#DejaVuSans-50"/>
      </g>
     </g>
    </g>
    <g id="xtick_34">
     <g id="line2d_43">
      <g>
       <use style="stroke:#000000;stroke-width:0.8;" x="564.262132" xlink:href="#m2f1134febb" y="442.08"/>
      </g>
     </g>
     <g id="text_46">
      <!-- 14 -->
      <g transform="translate(554.082132 461.2375)scale(0.16 -0.16)">
       <use xlink:href="#DejaVuSans-49"/>
       <use x="63.623047" xlink:href="#DejaVuSans-52"/>
      </g>
     </g>
    </g>
    <g id="xtick_35">
     <g id="line2d_44">
      <g>
       <use style="stroke:#000000;stroke-width:0.8;" x="587.62163" xlink:href="#m2f1134febb" y="442.08"/>
      </g>
     </g>
     <g id="text_47">
      <!-- 16 -->
      <g transform="translate(577.44163 461.2375)scale(0.16 -0.16)">
       <use xlink:href="#DejaVuSans-49"/>
       <use x="63.623047" xlink:href="#DejaVuSans-54"/>
      </g>
     </g>
    </g>
    <g id="xtick_36">
     <g id="line2d_45">
      <g>
       <use style="stroke:#000000;stroke-width:0.8;" x="610.981127" xlink:href="#m2f1134febb" y="442.08"/>
      </g>
     </g>
     <g id="text_48">
      <!-- 18 -->
      <g transform="translate(600.801127 461.2375)scale(0.16 -0.16)">
       <use xlink:href="#DejaVuSans-49"/>
       <use x="63.623047" xlink:href="#DejaVuSans-56"/>
      </g>
     </g>
    </g>
    <g id="text_49">
     <!-- Number of variables -->
     <g transform="translate(428.914793 482.242187)scale(0.18 -0.18)">
      <use xlink:href="#DejaVuSans-78"/>
      <use x="74.804688" xlink:href="#DejaVuSans-117"/>
      <use x="138.183594" xlink:href="#DejaVuSans-109"/>
      <use x="235.595703" xlink:href="#DejaVuSans-98"/>
      <use x="299.072266" xlink:href="#DejaVuSans-101"/>
      <use x="360.595703" xlink:href="#DejaVuSans-114"/>
      <use x="401.708984" xlink:href="#DejaVuSans-32"/>
      <use x="433.496094" xlink:href="#DejaVuSans-111"/>
      <use x="494.677734" xlink:href="#DejaVuSans-102"/>
      <use x="529.882812" xlink:href="#DejaVuSans-32"/>
      <use x="561.669922" xlink:href="#DejaVuSans-118"/>
      <use x="620.849609" xlink:href="#DejaVuSans-97"/>
      <use x="682.128906" xlink:href="#DejaVuSans-114"/>
      <use x="723.242188" xlink:href="#DejaVuSans-105"/>
      <use x="751.025391" xlink:href="#DejaVuSans-97"/>
      <use x="812.304688" xlink:href="#DejaVuSans-98"/>
      <use x="875.78125" xlink:href="#DejaVuSans-108"/>
      <use x="903.564453" xlink:href="#DejaVuSans-101"/>
      <use x="965.087891" xlink:href="#DejaVuSans-115"/>
     </g>
    </g>
   </g>
   <g id="matplotlib.axis_8">
    <g id="ytick_7">
     <g id="line2d_46">
      <g>
       <use style="stroke:#000000;stroke-width:0.8;" x="406.585523" xlink:href="#m448f2c95a1" y="404.808176"/>
      </g>
     </g>
     <g id="text_50">
      <!-- 100000 -->
      <g transform="translate(338.505523 410.886926)scale(0.16 -0.16)">
       <use xlink:href="#DejaVuSans-49"/>
       <use x="63.623047" xlink:href="#DejaVuSans-48"/>
       <use x="127.246094" xlink:href="#DejaVuSans-48"/>
       <use x="190.869141" xlink:href="#DejaVuSans-48"/>
       <use x="254.492188" xlink:href="#DejaVuSans-48"/>
       <use x="318.115234" xlink:href="#DejaVuSans-48"/>
      </g>
     </g>
    </g>
    <g id="ytick_8">
     <g id="line2d_47">
      <g>
       <use style="stroke:#000000;stroke-width:0.8;" x="406.585523" xlink:href="#m448f2c95a1" y="332.496113"/>
      </g>
     </g>
     <g id="text_51">
      <!-- 120000 -->
      <g transform="translate(338.505523 338.574863)scale(0.16 -0.16)">
       <use xlink:href="#DejaVuSans-49"/>
       <use x="63.623047" xlink:href="#DejaVuSans-50"/>
       <use x="127.246094" xlink:href="#DejaVuSans-48"/>
       <use x="190.869141" xlink:href="#DejaVuSans-48"/>
       <use x="254.492188" xlink:href="#DejaVuSans-48"/>
       <use x="318.115234" xlink:href="#DejaVuSans-48"/>
      </g>
     </g>
    </g>
    <g id="ytick_9">
     <g id="line2d_48">
      <g>
       <use style="stroke:#000000;stroke-width:0.8;" x="406.585523" xlink:href="#m448f2c95a1" y="260.184049"/>
      </g>
     </g>
     <g id="text_52">
      <!-- 140000 -->
      <g transform="translate(338.505523 266.262799)scale(0.16 -0.16)">
       <use xlink:href="#DejaVuSans-49"/>
       <use x="63.623047" xlink:href="#DejaVuSans-52"/>
       <use x="127.246094" xlink:href="#DejaVuSans-48"/>
       <use x="190.869141" xlink:href="#DejaVuSans-48"/>
       <use x="254.492188" xlink:href="#DejaVuSans-48"/>
       <use x="318.115234" xlink:href="#DejaVuSans-48"/>
      </g>
     </g>
    </g>
    <g id="text_53">
     <!-- MSE -->
     <defs>
      <path d="M 9.8125 72.90625 
L 24.515625 72.90625 
L 43.109375 23.296875 
L 61.8125 72.90625 
L 76.515625 72.90625 
L 76.515625 0 
L 66.890625 0 
L 66.890625 64.015625 
L 48.09375 14.015625 
L 38.1875 14.015625 
L 19.390625 64.015625 
L 19.390625 0 
L 9.8125 0 
z
" id="DejaVuSans-77"/>
      <path d="M 53.515625 70.515625 
L 53.515625 60.890625 
Q 47.90625 63.578125 42.921875 64.890625 
Q 37.9375 66.21875 33.296875 66.21875 
Q 25.25 66.21875 20.875 63.09375 
Q 16.5 59.96875 16.5 54.203125 
Q 16.5 49.359375 19.40625 46.890625 
Q 22.3125 44.4375 30.421875 42.921875 
L 36.375 41.703125 
Q 47.40625 39.59375 52.65625 34.296875 
Q 57.90625 29 57.90625 20.125 
Q 57.90625 9.515625 50.796875 4.046875 
Q 43.703125 -1.421875 29.984375 -1.421875 
Q 24.8125 -1.421875 18.96875 -0.25 
Q 13.140625 0.921875 6.890625 3.21875 
L 6.890625 13.375 
Q 12.890625 10.015625 18.65625 8.296875 
Q 24.421875 6.59375 29.984375 6.59375 
Q 38.421875 6.59375 43.015625 9.90625 
Q 47.609375 13.234375 47.609375 19.390625 
Q 47.609375 24.75 44.3125 27.78125 
Q 41.015625 30.8125 33.5 32.328125 
L 27.484375 33.5 
Q 16.453125 35.6875 11.515625 40.375 
Q 6.59375 45.0625 6.59375 53.421875 
Q 6.59375 63.09375 13.40625 68.65625 
Q 20.21875 74.21875 32.171875 74.21875 
Q 37.3125 74.21875 42.625 73.28125 
Q 47.953125 72.359375 53.515625 70.515625 
z
" id="DejaVuSans-83"/>
      <path d="M 9.8125 72.90625 
L 55.90625 72.90625 
L 55.90625 64.59375 
L 19.671875 64.59375 
L 19.671875 43.015625 
L 54.390625 43.015625 
L 54.390625 34.71875 
L 19.671875 34.71875 
L 19.671875 8.296875 
L 56.78125 8.296875 
L 56.78125 0 
L 9.8125 0 
z
" id="DejaVuSans-69"/>
     </defs>
     <g transform="translate(330.762085 368.718122)rotate(-90)scale(0.18 -0.18)">
      <use xlink:href="#DejaVuSans-77"/>
      <use x="86.279297" xlink:href="#DejaVuSans-83"/>
      <use x="149.755859" xlink:href="#DejaVuSans-69"/>
     </g>
    </g>
   </g>
   <g id="line2d_49">
    <path clip-path="url(#pb27ba03ba4)" d="M 412.425397 265.436286 
L 424.105146 337.397666 
L 435.784895 362.090483 
L 447.464644 375.23987 
L 459.144393 388.180195 
L 470.824141 399.665332 
L 482.50389 409.846823 
L 494.183639 420.490905 
L 505.863388 425.236315 
L 517.543137 429.548229 
L 529.222886 431.102478 
L 540.902634 431.846394 
L 552.582383 432.452448 
L 564.262132 433.009051 
L 575.941881 433.19441 
L 587.62163 433.411619 
L 599.301379 433.548142 
L 610.981127 433.652753 
L 622.660876 433.668395 
" style="fill:none;stroke:#1f77b4;stroke-linecap:square;stroke-width:1.5;"/>
    <g clip-path="url(#pb27ba03ba4)">
     <use style="fill:#1f77b4;stroke:#1f77b4;" x="412.425397" xlink:href="#m65279f7e0e" y="265.436286"/>
     <use style="fill:#1f77b4;stroke:#1f77b4;" x="424.105146" xlink:href="#m65279f7e0e" y="337.397666"/>
     <use style="fill:#1f77b4;stroke:#1f77b4;" x="435.784895" xlink:href="#m65279f7e0e" y="362.090483"/>
     <use style="fill:#1f77b4;stroke:#1f77b4;" x="447.464644" xlink:href="#m65279f7e0e" y="375.23987"/>
     <use style="fill:#1f77b4;stroke:#1f77b4;" x="459.144393" xlink:href="#m65279f7e0e" y="388.180195"/>
     <use style="fill:#1f77b4;stroke:#1f77b4;" x="470.824141" xlink:href="#m65279f7e0e" y="399.665332"/>
     <use style="fill:#1f77b4;stroke:#1f77b4;" x="482.50389" xlink:href="#m65279f7e0e" y="409.846823"/>
     <use style="fill:#1f77b4;stroke:#1f77b4;" x="494.183639" xlink:href="#m65279f7e0e" y="420.490905"/>
     <use style="fill:#1f77b4;stroke:#1f77b4;" x="505.863388" xlink:href="#m65279f7e0e" y="425.236315"/>
     <use style="fill:#1f77b4;stroke:#1f77b4;" x="517.543137" xlink:href="#m65279f7e0e" y="429.548229"/>
     <use style="fill:#1f77b4;stroke:#1f77b4;" x="529.222886" xlink:href="#m65279f7e0e" y="431.102478"/>
     <use style="fill:#1f77b4;stroke:#1f77b4;" x="540.902634" xlink:href="#m65279f7e0e" y="431.846394"/>
     <use style="fill:#1f77b4;stroke:#1f77b4;" x="552.582383" xlink:href="#m65279f7e0e" y="432.452448"/>
     <use style="fill:#1f77b4;stroke:#1f77b4;" x="564.262132" xlink:href="#m65279f7e0e" y="433.009051"/>
     <use style="fill:#1f77b4;stroke:#1f77b4;" x="575.941881" xlink:href="#m65279f7e0e" y="433.19441"/>
     <use style="fill:#1f77b4;stroke:#1f77b4;" x="587.62163" xlink:href="#m65279f7e0e" y="433.411619"/>
     <use style="fill:#1f77b4;stroke:#1f77b4;" x="599.301379" xlink:href="#m65279f7e0e" y="433.548142"/>
     <use style="fill:#1f77b4;stroke:#1f77b4;" x="610.981127" xlink:href="#m65279f7e0e" y="433.652753"/>
     <use style="fill:#1f77b4;stroke:#1f77b4;" x="622.660876" xlink:href="#m65279f7e0e" y="433.668395"/>
    </g>
   </g>
   <g id="patch_18">
    <path d="M 406.585523 442.08 
L 406.585523 257.024681 
" style="fill:none;stroke:#000000;stroke-linecap:square;stroke-linejoin:miter;stroke-width:0.8;"/>
   </g>
   <g id="patch_19">
    <path d="M 634.340625 442.08 
L 634.340625 257.024681 
" style="fill:none;stroke:#000000;stroke-linecap:square;stroke-linejoin:miter;stroke-width:0.8;"/>
   </g>
   <g id="patch_20">
    <path d="M 406.585523 442.08 
L 634.340625 442.08 
" style="fill:none;stroke:#000000;stroke-linecap:square;stroke-linejoin:miter;stroke-width:0.8;"/>
   </g>
   <g id="patch_21">
    <path d="M 406.585523 257.024681 
L 634.340625 257.024681 
" style="fill:none;stroke:#000000;stroke-linecap:square;stroke-linejoin:miter;stroke-width:0.8;"/>
   </g>
  </g>
 </g>
 <defs>
  <clipPath id="paffdedce47">
   <rect height="185.055319" width="227.755102" x="76.340625" y="7.2"/>
  </clipPath>
  <clipPath id="pa24cae3d1f">
   <rect height="185.055319" width="227.755102" x="406.585523" y="7.2"/>
  </clipPath>
  <clipPath id="pcdde774f5f">
   <rect height="185.055319" width="227.755102" x="76.340625" y="257.024681"/>
  </clipPath>
  <clipPath id="pb27ba03ba4">
   <rect height="185.055319" width="227.755102" x="406.585523" y="257.024681"/>
  </clipPath>
 </defs>
</svg>
