<?xml version="1.0" encoding="utf-8" standalone="no"?>
<!DOCTYPE svg PUBLIC "-//W3C//DTD SVG 1.1//EN"
  "http://www.w3.org/Graphics/SVG/1.1/DTD/svg11.dtd">
<!-- Created with matplotlib (https://matplotlib.org/) -->
<svg height="277.314375pt" version="1.1" viewBox="0 0 397.345312 277.314375" width="397.345312pt" xmlns="http://www.w3.org/2000/svg" xmlns:xlink="http://www.w3.org/1999/xlink">
 <defs>
  <style type="text/css">
*{stroke-linecap:butt;stroke-linejoin:round;}
  </style>
 </defs>
 <g id="figure_1">
  <g id="patch_1">
   <path d="M 0 277.314375 
L 397.345312 277.314375 
L 397.345312 0 
L 0 0 
z
" style="fill:#ffffff;"/>
  </g>
  <g id="axes_1">
   <g id="patch_2">
    <path d="M 55.345313 239.758125 
L 390.145312 239.758125 
L 390.145312 22.318125 
L 55.345313 22.318125 
z
" style="fill:#ffffff;"/>
   </g>
   <g id="matplotlib.axis_1">
    <g id="xtick_1">
     <g id="line2d_1">
      <defs>
       <path d="M 0 0 
L 0 3.5 
" id="ma80e2482ea" style="stroke:#000000;stroke-width:0.8;"/>
      </defs>
      <g>
       <use style="stroke:#000000;stroke-width:0.8;" x="374.927131" xlink:href="#ma80e2482ea" y="239.758125"/>
      </g>
     </g>
     <g id="text_1">
      <!-- $\mathdefault{10^{-2}}$ -->
      <defs>
       <path d="M 12.40625 8.296875 
L 28.515625 8.296875 
L 28.515625 63.921875 
L 10.984375 60.40625 
L 10.984375 69.390625 
L 28.421875 72.90625 
L 38.28125 72.90625 
L 38.28125 8.296875 
L 54.390625 8.296875 
L 54.390625 0 
L 12.40625 0 
z
" id="DejaVuSans-49"/>
       <path d="M 31.78125 66.40625 
Q 24.171875 66.40625 20.328125 58.90625 
Q 16.5 51.421875 16.5 36.375 
Q 16.5 21.390625 20.328125 13.890625 
Q 24.171875 6.390625 31.78125 6.390625 
Q 39.453125 6.390625 43.28125 13.890625 
Q 47.125 21.390625 47.125 36.375 
Q 47.125 51.421875 43.28125 58.90625 
Q 39.453125 66.40625 31.78125 66.40625 
z
M 31.78125 74.21875 
Q 44.046875 74.21875 50.515625 64.515625 
Q 56.984375 54.828125 56.984375 36.375 
Q 56.984375 17.96875 50.515625 8.265625 
Q 44.046875 -1.421875 31.78125 -1.421875 
Q 19.53125 -1.421875 13.0625 8.265625 
Q 6.59375 17.96875 6.59375 36.375 
Q 6.59375 54.828125 13.0625 64.515625 
Q 19.53125 74.21875 31.78125 74.21875 
z
" id="DejaVuSans-48"/>
       <path d="M 10.59375 35.5 
L 73.1875 35.5 
L 73.1875 27.203125 
L 10.59375 27.203125 
z
" id="DejaVuSans-8722"/>
       <path d="M 19.1875 8.296875 
L 53.609375 8.296875 
L 53.609375 0 
L 7.328125 0 
L 7.328125 8.296875 
Q 12.9375 14.109375 22.625 23.890625 
Q 32.328125 33.6875 34.8125 36.53125 
Q 39.546875 41.84375 41.421875 45.53125 
Q 43.3125 49.21875 43.3125 52.78125 
Q 43.3125 58.59375 39.234375 62.25 
Q 35.15625 65.921875 28.609375 65.921875 
Q 23.96875 65.921875 18.8125 64.3125 
Q 13.671875 62.703125 7.8125 59.421875 
L 7.8125 69.390625 
Q 13.765625 71.78125 18.9375 73 
Q 24.125 74.21875 28.421875 74.21875 
Q 39.75 74.21875 46.484375 68.546875 
Q 53.21875 62.890625 53.21875 53.421875 
Q 53.21875 48.921875 51.53125 44.890625 
Q 49.859375 40.875 45.40625 35.40625 
Q 44.1875 33.984375 37.640625 27.21875 
Q 31.109375 20.453125 19.1875 8.296875 
z
" id="DejaVuSans-50"/>
      </defs>
      <g transform="translate(363.177131 254.356562)scale(0.1 -0.1)">
       <use transform="translate(0 0.765625)" xlink:href="#DejaVuSans-49"/>
       <use transform="translate(63.623047 0.765625)" xlink:href="#DejaVuSans-48"/>
       <use transform="translate(128.203125 39.046875)scale(0.7)" xlink:href="#DejaVuSans-8722"/>
       <use transform="translate(186.855469 39.046875)scale(0.7)" xlink:href="#DejaVuSans-50"/>
      </g>
     </g>
    </g>
    <g id="xtick_2">
     <g id="line2d_2">
      <g>
       <use style="stroke:#000000;stroke-width:0.8;" x="331.446611" xlink:href="#ma80e2482ea" y="239.758125"/>
      </g>
     </g>
     <g id="text_2">
      <!-- $\mathdefault{10^{-1}}$ -->
      <g transform="translate(319.696611 254.356562)scale(0.1 -0.1)">
       <use transform="translate(0 0.684375)" xlink:href="#DejaVuSans-49"/>
       <use transform="translate(63.623047 0.684375)" xlink:href="#DejaVuSans-48"/>
       <use transform="translate(128.203125 38.965625)scale(0.7)" xlink:href="#DejaVuSans-8722"/>
       <use transform="translate(186.855469 38.965625)scale(0.7)" xlink:href="#DejaVuSans-49"/>
      </g>
     </g>
    </g>
    <g id="xtick_3">
     <g id="line2d_3">
      <g>
       <use style="stroke:#000000;stroke-width:0.8;" x="287.966092" xlink:href="#ma80e2482ea" y="239.758125"/>
      </g>
     </g>
     <g id="text_3">
      <!-- $\mathdefault{10^{0}}$ -->
      <g transform="translate(279.166092 254.356562)scale(0.1 -0.1)">
       <use transform="translate(0 0.765625)" xlink:href="#DejaVuSans-49"/>
       <use transform="translate(63.623047 0.765625)" xlink:href="#DejaVuSans-48"/>
       <use transform="translate(128.203125 39.046875)scale(0.7)" xlink:href="#DejaVuSans-48"/>
      </g>
     </g>
    </g>
    <g id="xtick_4">
     <g id="line2d_4">
      <g>
       <use style="stroke:#000000;stroke-width:0.8;" x="244.485572" xlink:href="#ma80e2482ea" y="239.758125"/>
      </g>
     </g>
     <g id="text_4">
      <!-- $\mathdefault{10^{1}}$ -->
      <g transform="translate(235.685572 254.356562)scale(0.1 -0.1)">
       <use transform="translate(0 0.684375)" xlink:href="#DejaVuSans-49"/>
       <use transform="translate(63.623047 0.684375)" xlink:href="#DejaVuSans-48"/>
       <use transform="translate(128.203125 38.965625)scale(0.7)" xlink:href="#DejaVuSans-49"/>
      </g>
     </g>
    </g>
    <g id="xtick_5">
     <g id="line2d_5">
      <g>
       <use style="stroke:#000000;stroke-width:0.8;" x="201.005053" xlink:href="#ma80e2482ea" y="239.758125"/>
      </g>
     </g>
     <g id="text_5">
      <!-- $\mathdefault{10^{2}}$ -->
      <g transform="translate(192.205053 254.356562)scale(0.1 -0.1)">
       <use transform="translate(0 0.765625)" xlink:href="#DejaVuSans-49"/>
       <use transform="translate(63.623047 0.765625)" xlink:href="#DejaVuSans-48"/>
       <use transform="translate(128.203125 39.046875)scale(0.7)" xlink:href="#DejaVuSans-50"/>
      </g>
     </g>
    </g>
    <g id="xtick_6">
     <g id="line2d_6">
      <g>
       <use style="stroke:#000000;stroke-width:0.8;" x="157.524533" xlink:href="#ma80e2482ea" y="239.758125"/>
      </g>
     </g>
     <g id="text_6">
      <!-- $\mathdefault{10^{3}}$ -->
      <defs>
       <path d="M 40.578125 39.3125 
Q 47.65625 37.796875 51.625 33 
Q 55.609375 28.21875 55.609375 21.1875 
Q 55.609375 10.40625 48.1875 4.484375 
Q 40.765625 -1.421875 27.09375 -1.421875 
Q 22.515625 -1.421875 17.65625 -0.515625 
Q 12.796875 0.390625 7.625 2.203125 
L 7.625 11.71875 
Q 11.71875 9.328125 16.59375 8.109375 
Q 21.484375 6.890625 26.8125 6.890625 
Q 36.078125 6.890625 40.9375 10.546875 
Q 45.796875 14.203125 45.796875 21.1875 
Q 45.796875 27.640625 41.28125 31.265625 
Q 36.765625 34.90625 28.71875 34.90625 
L 20.21875 34.90625 
L 20.21875 43.015625 
L 29.109375 43.015625 
Q 36.375 43.015625 40.234375 45.921875 
Q 44.09375 48.828125 44.09375 54.296875 
Q 44.09375 59.90625 40.109375 62.90625 
Q 36.140625 65.921875 28.71875 65.921875 
Q 24.65625 65.921875 20.015625 65.03125 
Q 15.375 64.15625 9.8125 62.3125 
L 9.8125 71.09375 
Q 15.4375 72.65625 20.34375 73.4375 
Q 25.25 74.21875 29.59375 74.21875 
Q 40.828125 74.21875 47.359375 69.109375 
Q 53.90625 64.015625 53.90625 55.328125 
Q 53.90625 49.265625 50.4375 45.09375 
Q 46.96875 40.921875 40.578125 39.3125 
z
" id="DejaVuSans-51"/>
      </defs>
      <g transform="translate(148.724533 254.356562)scale(0.1 -0.1)">
       <use transform="translate(0 0.765625)" xlink:href="#DejaVuSans-49"/>
       <use transform="translate(63.623047 0.765625)" xlink:href="#DejaVuSans-48"/>
       <use transform="translate(128.203125 39.046875)scale(0.7)" xlink:href="#DejaVuSans-51"/>
      </g>
     </g>
    </g>
    <g id="xtick_7">
     <g id="line2d_7">
      <g>
       <use style="stroke:#000000;stroke-width:0.8;" x="114.044014" xlink:href="#ma80e2482ea" y="239.758125"/>
      </g>
     </g>
     <g id="text_7">
      <!-- $\mathdefault{10^{4}}$ -->
      <defs>
       <path d="M 37.796875 64.3125 
L 12.890625 25.390625 
L 37.796875 25.390625 
z
M 35.203125 72.90625 
L 47.609375 72.90625 
L 47.609375 25.390625 
L 58.015625 25.390625 
L 58.015625 17.1875 
L 47.609375 17.1875 
L 47.609375 0 
L 37.796875 0 
L 37.796875 17.1875 
L 4.890625 17.1875 
L 4.890625 26.703125 
z
" id="DejaVuSans-52"/>
      </defs>
      <g transform="translate(105.244014 254.356562)scale(0.1 -0.1)">
       <use transform="translate(0 0.684375)" xlink:href="#DejaVuSans-49"/>
       <use transform="translate(63.623047 0.684375)" xlink:href="#DejaVuSans-48"/>
       <use transform="translate(128.203125 38.965625)scale(0.7)" xlink:href="#DejaVuSans-52"/>
      </g>
     </g>
    </g>
    <g id="xtick_8">
     <g id="line2d_8">
      <g>
       <use style="stroke:#000000;stroke-width:0.8;" x="70.563494" xlink:href="#ma80e2482ea" y="239.758125"/>
      </g>
     </g>
     <g id="text_8">
      <!-- $\mathdefault{10^{5}}$ -->
      <defs>
       <path d="M 10.796875 72.90625 
L 49.515625 72.90625 
L 49.515625 64.59375 
L 19.828125 64.59375 
L 19.828125 46.734375 
Q 21.96875 47.46875 24.109375 47.828125 
Q 26.265625 48.1875 28.421875 48.1875 
Q 40.625 48.1875 47.75 41.5 
Q 54.890625 34.8125 54.890625 23.390625 
Q 54.890625 11.625 47.5625 5.09375 
Q 40.234375 -1.421875 26.90625 -1.421875 
Q 22.3125 -1.421875 17.546875 -0.640625 
Q 12.796875 0.140625 7.71875 1.703125 
L 7.71875 11.625 
Q 12.109375 9.234375 16.796875 8.0625 
Q 21.484375 6.890625 26.703125 6.890625 
Q 35.15625 6.890625 40.078125 11.328125 
Q 45.015625 15.765625 45.015625 23.390625 
Q 45.015625 31 40.078125 35.4375 
Q 35.15625 39.890625 26.703125 39.890625 
Q 22.75 39.890625 18.8125 39.015625 
Q 14.890625 38.140625 10.796875 36.28125 
z
" id="DejaVuSans-53"/>
      </defs>
      <g transform="translate(61.763494 254.356562)scale(0.1 -0.1)">
       <use transform="translate(0 0.684375)" xlink:href="#DejaVuSans-49"/>
       <use transform="translate(63.623047 0.684375)" xlink:href="#DejaVuSans-48"/>
       <use transform="translate(128.203125 38.965625)scale(0.7)" xlink:href="#DejaVuSans-53"/>
      </g>
     </g>
    </g>
    <g id="xtick_9">
     <g id="line2d_9">
      <defs>
       <path d="M 0 0 
L 0 2 
" id="m42762169fe" style="stroke:#000000;stroke-width:0.6;"/>
      </defs>
      <g>
       <use style="stroke:#000000;stroke-width:0.6;" x="388.016071" xlink:href="#m42762169fe" y="239.758125"/>
      </g>
     </g>
    </g>
    <g id="xtick_10">
     <g id="line2d_10">
      <g>
       <use style="stroke:#000000;stroke-width:0.6;" x="384.57323" xlink:href="#m42762169fe" y="239.758125"/>
      </g>
     </g>
    </g>
    <g id="xtick_11">
     <g id="line2d_11">
      <g>
       <use style="stroke:#000000;stroke-width:0.6;" x="381.662348" xlink:href="#m42762169fe" y="239.758125"/>
      </g>
     </g>
    </g>
    <g id="xtick_12">
     <g id="line2d_12">
      <g>
       <use style="stroke:#000000;stroke-width:0.6;" x="379.140828" xlink:href="#m42762169fe" y="239.758125"/>
      </g>
     </g>
    </g>
    <g id="xtick_13">
     <g id="line2d_13">
      <g>
       <use style="stroke:#000000;stroke-width:0.6;" x="376.91669" xlink:href="#m42762169fe" y="239.758125"/>
      </g>
     </g>
    </g>
    <g id="xtick_14">
     <g id="line2d_14">
      <g>
       <use style="stroke:#000000;stroke-width:0.6;" x="361.83819" xlink:href="#m42762169fe" y="239.758125"/>
      </g>
     </g>
    </g>
    <g id="xtick_15">
     <g id="line2d_15">
      <g>
       <use style="stroke:#000000;stroke-width:0.6;" x="354.181651" xlink:href="#m42762169fe" y="239.758125"/>
      </g>
     </g>
    </g>
    <g id="xtick_16">
     <g id="line2d_16">
      <g>
       <use style="stroke:#000000;stroke-width:0.6;" x="348.74925" xlink:href="#m42762169fe" y="239.758125"/>
      </g>
     </g>
    </g>
    <g id="xtick_17">
     <g id="line2d_17">
      <g>
       <use style="stroke:#000000;stroke-width:0.6;" x="344.535552" xlink:href="#m42762169fe" y="239.758125"/>
      </g>
     </g>
    </g>
    <g id="xtick_18">
     <g id="line2d_18">
      <g>
       <use style="stroke:#000000;stroke-width:0.6;" x="341.09271" xlink:href="#m42762169fe" y="239.758125"/>
      </g>
     </g>
    </g>
    <g id="xtick_19">
     <g id="line2d_19">
      <g>
       <use style="stroke:#000000;stroke-width:0.6;" x="338.181829" xlink:href="#m42762169fe" y="239.758125"/>
      </g>
     </g>
    </g>
    <g id="xtick_20">
     <g id="line2d_20">
      <g>
       <use style="stroke:#000000;stroke-width:0.6;" x="335.660309" xlink:href="#m42762169fe" y="239.758125"/>
      </g>
     </g>
    </g>
    <g id="xtick_21">
     <g id="line2d_21">
      <g>
       <use style="stroke:#000000;stroke-width:0.6;" x="333.436171" xlink:href="#m42762169fe" y="239.758125"/>
      </g>
     </g>
    </g>
    <g id="xtick_22">
     <g id="line2d_22">
      <g>
       <use style="stroke:#000000;stroke-width:0.6;" x="318.357671" xlink:href="#m42762169fe" y="239.758125"/>
      </g>
     </g>
    </g>
    <g id="xtick_23">
     <g id="line2d_23">
      <g>
       <use style="stroke:#000000;stroke-width:0.6;" x="310.701131" xlink:href="#m42762169fe" y="239.758125"/>
      </g>
     </g>
    </g>
    <g id="xtick_24">
     <g id="line2d_24">
      <g>
       <use style="stroke:#000000;stroke-width:0.6;" x="305.26873" xlink:href="#m42762169fe" y="239.758125"/>
      </g>
     </g>
    </g>
    <g id="xtick_25">
     <g id="line2d_25">
      <g>
       <use style="stroke:#000000;stroke-width:0.6;" x="301.055032" xlink:href="#m42762169fe" y="239.758125"/>
      </g>
     </g>
    </g>
    <g id="xtick_26">
     <g id="line2d_26">
      <g>
       <use style="stroke:#000000;stroke-width:0.6;" x="297.612191" xlink:href="#m42762169fe" y="239.758125"/>
      </g>
     </g>
    </g>
    <g id="xtick_27">
     <g id="line2d_27">
      <g>
       <use style="stroke:#000000;stroke-width:0.6;" x="294.701309" xlink:href="#m42762169fe" y="239.758125"/>
      </g>
     </g>
    </g>
    <g id="xtick_28">
     <g id="line2d_28">
      <g>
       <use style="stroke:#000000;stroke-width:0.6;" x="292.179789" xlink:href="#m42762169fe" y="239.758125"/>
      </g>
     </g>
    </g>
    <g id="xtick_29">
     <g id="line2d_29">
      <g>
       <use style="stroke:#000000;stroke-width:0.6;" x="289.955651" xlink:href="#m42762169fe" y="239.758125"/>
      </g>
     </g>
    </g>
    <g id="xtick_30">
     <g id="line2d_30">
      <g>
       <use style="stroke:#000000;stroke-width:0.6;" x="274.877151" xlink:href="#m42762169fe" y="239.758125"/>
      </g>
     </g>
    </g>
    <g id="xtick_31">
     <g id="line2d_31">
      <g>
       <use style="stroke:#000000;stroke-width:0.6;" x="267.220612" xlink:href="#m42762169fe" y="239.758125"/>
      </g>
     </g>
    </g>
    <g id="xtick_32">
     <g id="line2d_32">
      <g>
       <use style="stroke:#000000;stroke-width:0.6;" x="261.788211" xlink:href="#m42762169fe" y="239.758125"/>
      </g>
     </g>
    </g>
    <g id="xtick_33">
     <g id="line2d_33">
      <g>
       <use style="stroke:#000000;stroke-width:0.6;" x="257.574513" xlink:href="#m42762169fe" y="239.758125"/>
      </g>
     </g>
    </g>
    <g id="xtick_34">
     <g id="line2d_34">
      <g>
       <use style="stroke:#000000;stroke-width:0.6;" x="254.131671" xlink:href="#m42762169fe" y="239.758125"/>
      </g>
     </g>
    </g>
    <g id="xtick_35">
     <g id="line2d_35">
      <g>
       <use style="stroke:#000000;stroke-width:0.6;" x="251.22079" xlink:href="#m42762169fe" y="239.758125"/>
      </g>
     </g>
    </g>
    <g id="xtick_36">
     <g id="line2d_36">
      <g>
       <use style="stroke:#000000;stroke-width:0.6;" x="248.69927" xlink:href="#m42762169fe" y="239.758125"/>
      </g>
     </g>
    </g>
    <g id="xtick_37">
     <g id="line2d_37">
      <g>
       <use style="stroke:#000000;stroke-width:0.6;" x="246.475132" xlink:href="#m42762169fe" y="239.758125"/>
      </g>
     </g>
    </g>
    <g id="xtick_38">
     <g id="line2d_38">
      <g>
       <use style="stroke:#000000;stroke-width:0.6;" x="231.396632" xlink:href="#m42762169fe" y="239.758125"/>
      </g>
     </g>
    </g>
    <g id="xtick_39">
     <g id="line2d_39">
      <g>
       <use style="stroke:#000000;stroke-width:0.6;" x="223.740092" xlink:href="#m42762169fe" y="239.758125"/>
      </g>
     </g>
    </g>
    <g id="xtick_40">
     <g id="line2d_40">
      <g>
       <use style="stroke:#000000;stroke-width:0.6;" x="218.307691" xlink:href="#m42762169fe" y="239.758125"/>
      </g>
     </g>
    </g>
    <g id="xtick_41">
     <g id="line2d_41">
      <g>
       <use style="stroke:#000000;stroke-width:0.6;" x="214.093993" xlink:href="#m42762169fe" y="239.758125"/>
      </g>
     </g>
    </g>
    <g id="xtick_42">
     <g id="line2d_42">
      <g>
       <use style="stroke:#000000;stroke-width:0.6;" x="210.651152" xlink:href="#m42762169fe" y="239.758125"/>
      </g>
     </g>
    </g>
    <g id="xtick_43">
     <g id="line2d_43">
      <g>
       <use style="stroke:#000000;stroke-width:0.6;" x="207.74027" xlink:href="#m42762169fe" y="239.758125"/>
      </g>
     </g>
    </g>
    <g id="xtick_44">
     <g id="line2d_44">
      <g>
       <use style="stroke:#000000;stroke-width:0.6;" x="205.21875" xlink:href="#m42762169fe" y="239.758125"/>
      </g>
     </g>
    </g>
    <g id="xtick_45">
     <g id="line2d_45">
      <g>
       <use style="stroke:#000000;stroke-width:0.6;" x="202.994612" xlink:href="#m42762169fe" y="239.758125"/>
      </g>
     </g>
    </g>
    <g id="xtick_46">
     <g id="line2d_46">
      <g>
       <use style="stroke:#000000;stroke-width:0.6;" x="187.916112" xlink:href="#m42762169fe" y="239.758125"/>
      </g>
     </g>
    </g>
    <g id="xtick_47">
     <g id="line2d_47">
      <g>
       <use style="stroke:#000000;stroke-width:0.6;" x="180.259573" xlink:href="#m42762169fe" y="239.758125"/>
      </g>
     </g>
    </g>
    <g id="xtick_48">
     <g id="line2d_48">
      <g>
       <use style="stroke:#000000;stroke-width:0.6;" x="174.827172" xlink:href="#m42762169fe" y="239.758125"/>
      </g>
     </g>
    </g>
    <g id="xtick_49">
     <g id="line2d_49">
      <g>
       <use style="stroke:#000000;stroke-width:0.6;" x="170.613474" xlink:href="#m42762169fe" y="239.758125"/>
      </g>
     </g>
    </g>
    <g id="xtick_50">
     <g id="line2d_50">
      <g>
       <use style="stroke:#000000;stroke-width:0.6;" x="167.170632" xlink:href="#m42762169fe" y="239.758125"/>
      </g>
     </g>
    </g>
    <g id="xtick_51">
     <g id="line2d_51">
      <g>
       <use style="stroke:#000000;stroke-width:0.6;" x="164.259751" xlink:href="#m42762169fe" y="239.758125"/>
      </g>
     </g>
    </g>
    <g id="xtick_52">
     <g id="line2d_52">
      <g>
       <use style="stroke:#000000;stroke-width:0.6;" x="161.738231" xlink:href="#m42762169fe" y="239.758125"/>
      </g>
     </g>
    </g>
    <g id="xtick_53">
     <g id="line2d_53">
      <g>
       <use style="stroke:#000000;stroke-width:0.6;" x="159.514093" xlink:href="#m42762169fe" y="239.758125"/>
      </g>
     </g>
    </g>
    <g id="xtick_54">
     <g id="line2d_54">
      <g>
       <use style="stroke:#000000;stroke-width:0.6;" x="144.435593" xlink:href="#m42762169fe" y="239.758125"/>
      </g>
     </g>
    </g>
    <g id="xtick_55">
     <g id="line2d_55">
      <g>
       <use style="stroke:#000000;stroke-width:0.6;" x="136.779053" xlink:href="#m42762169fe" y="239.758125"/>
      </g>
     </g>
    </g>
    <g id="xtick_56">
     <g id="line2d_56">
      <g>
       <use style="stroke:#000000;stroke-width:0.6;" x="131.346652" xlink:href="#m42762169fe" y="239.758125"/>
      </g>
     </g>
    </g>
    <g id="xtick_57">
     <g id="line2d_57">
      <g>
       <use style="stroke:#000000;stroke-width:0.6;" x="127.132954" xlink:href="#m42762169fe" y="239.758125"/>
      </g>
     </g>
    </g>
    <g id="xtick_58">
     <g id="line2d_58">
      <g>
       <use style="stroke:#000000;stroke-width:0.6;" x="123.690113" xlink:href="#m42762169fe" y="239.758125"/>
      </g>
     </g>
    </g>
    <g id="xtick_59">
     <g id="line2d_59">
      <g>
       <use style="stroke:#000000;stroke-width:0.6;" x="120.779231" xlink:href="#m42762169fe" y="239.758125"/>
      </g>
     </g>
    </g>
    <g id="xtick_60">
     <g id="line2d_60">
      <g>
       <use style="stroke:#000000;stroke-width:0.6;" x="118.257712" xlink:href="#m42762169fe" y="239.758125"/>
      </g>
     </g>
    </g>
    <g id="xtick_61">
     <g id="line2d_61">
      <g>
       <use style="stroke:#000000;stroke-width:0.6;" x="116.033573" xlink:href="#m42762169fe" y="239.758125"/>
      </g>
     </g>
    </g>
    <g id="xtick_62">
     <g id="line2d_62">
      <g>
       <use style="stroke:#000000;stroke-width:0.6;" x="100.955073" xlink:href="#m42762169fe" y="239.758125"/>
      </g>
     </g>
    </g>
    <g id="xtick_63">
     <g id="line2d_63">
      <g>
       <use style="stroke:#000000;stroke-width:0.6;" x="93.298534" xlink:href="#m42762169fe" y="239.758125"/>
      </g>
     </g>
    </g>
    <g id="xtick_64">
     <g id="line2d_64">
      <g>
       <use style="stroke:#000000;stroke-width:0.6;" x="87.866133" xlink:href="#m42762169fe" y="239.758125"/>
      </g>
     </g>
    </g>
    <g id="xtick_65">
     <g id="line2d_65">
      <g>
       <use style="stroke:#000000;stroke-width:0.6;" x="83.652435" xlink:href="#m42762169fe" y="239.758125"/>
      </g>
     </g>
    </g>
    <g id="xtick_66">
     <g id="line2d_66">
      <g>
       <use style="stroke:#000000;stroke-width:0.6;" x="80.209593" xlink:href="#m42762169fe" y="239.758125"/>
      </g>
     </g>
    </g>
    <g id="xtick_67">
     <g id="line2d_67">
      <g>
       <use style="stroke:#000000;stroke-width:0.6;" x="77.298712" xlink:href="#m42762169fe" y="239.758125"/>
      </g>
     </g>
    </g>
    <g id="xtick_68">
     <g id="line2d_68">
      <g>
       <use style="stroke:#000000;stroke-width:0.6;" x="74.777192" xlink:href="#m42762169fe" y="239.758125"/>
      </g>
     </g>
    </g>
    <g id="xtick_69">
     <g id="line2d_69">
      <g>
       <use style="stroke:#000000;stroke-width:0.6;" x="72.553054" xlink:href="#m42762169fe" y="239.758125"/>
      </g>
     </g>
    </g>
    <g id="xtick_70">
     <g id="line2d_70">
      <g>
       <use style="stroke:#000000;stroke-width:0.6;" x="57.474554" xlink:href="#m42762169fe" y="239.758125"/>
      </g>
     </g>
    </g>
    <g id="text_9">
     <!-- alpha -->
     <defs>
      <path d="M 34.28125 27.484375 
Q 23.390625 27.484375 19.1875 25 
Q 14.984375 22.515625 14.984375 16.5 
Q 14.984375 11.71875 18.140625 8.90625 
Q 21.296875 6.109375 26.703125 6.109375 
Q 34.1875 6.109375 38.703125 11.40625 
Q 43.21875 16.703125 43.21875 25.484375 
L 43.21875 27.484375 
z
M 52.203125 31.203125 
L 52.203125 0 
L 43.21875 0 
L 43.21875 8.296875 
Q 40.140625 3.328125 35.546875 0.953125 
Q 30.953125 -1.421875 24.3125 -1.421875 
Q 15.921875 -1.421875 10.953125 3.296875 
Q 6 8.015625 6 15.921875 
Q 6 25.140625 12.171875 29.828125 
Q 18.359375 34.515625 30.609375 34.515625 
L 43.21875 34.515625 
L 43.21875 35.40625 
Q 43.21875 41.609375 39.140625 45 
Q 35.0625 48.390625 27.6875 48.390625 
Q 23 48.390625 18.546875 47.265625 
Q 14.109375 46.140625 10.015625 43.890625 
L 10.015625 52.203125 
Q 14.9375 54.109375 19.578125 55.046875 
Q 24.21875 56 28.609375 56 
Q 40.484375 56 46.34375 49.84375 
Q 52.203125 43.703125 52.203125 31.203125 
z
" id="DejaVuSans-97"/>
      <path d="M 9.421875 75.984375 
L 18.40625 75.984375 
L 18.40625 0 
L 9.421875 0 
z
" id="DejaVuSans-108"/>
      <path d="M 18.109375 8.203125 
L 18.109375 -20.796875 
L 9.078125 -20.796875 
L 9.078125 54.6875 
L 18.109375 54.6875 
L 18.109375 46.390625 
Q 20.953125 51.265625 25.265625 53.625 
Q 29.59375 56 35.59375 56 
Q 45.5625 56 51.78125 48.09375 
Q 58.015625 40.1875 58.015625 27.296875 
Q 58.015625 14.40625 51.78125 6.484375 
Q 45.5625 -1.421875 35.59375 -1.421875 
Q 29.59375 -1.421875 25.265625 0.953125 
Q 20.953125 3.328125 18.109375 8.203125 
z
M 48.6875 27.296875 
Q 48.6875 37.203125 44.609375 42.84375 
Q 40.53125 48.484375 33.40625 48.484375 
Q 26.265625 48.484375 22.1875 42.84375 
Q 18.109375 37.203125 18.109375 27.296875 
Q 18.109375 17.390625 22.1875 11.75 
Q 26.265625 6.109375 33.40625 6.109375 
Q 40.53125 6.109375 44.609375 11.75 
Q 48.6875 17.390625 48.6875 27.296875 
z
" id="DejaVuSans-112"/>
      <path d="M 54.890625 33.015625 
L 54.890625 0 
L 45.90625 0 
L 45.90625 32.71875 
Q 45.90625 40.484375 42.875 44.328125 
Q 39.84375 48.1875 33.796875 48.1875 
Q 26.515625 48.1875 22.3125 43.546875 
Q 18.109375 38.921875 18.109375 30.90625 
L 18.109375 0 
L 9.078125 0 
L 9.078125 75.984375 
L 18.109375 75.984375 
L 18.109375 46.1875 
Q 21.34375 51.125 25.703125 53.5625 
Q 30.078125 56 35.796875 56 
Q 45.21875 56 50.046875 50.171875 
Q 54.890625 44.34375 54.890625 33.015625 
z
" id="DejaVuSans-104"/>
     </defs>
     <g transform="translate(208.885156 268.034687)scale(0.1 -0.1)">
      <use xlink:href="#DejaVuSans-97"/>
      <use x="61.279297" xlink:href="#DejaVuSans-108"/>
      <use x="89.0625" xlink:href="#DejaVuSans-112"/>
      <use x="152.539062" xlink:href="#DejaVuSans-104"/>
      <use x="215.917969" xlink:href="#DejaVuSans-97"/>
     </g>
    </g>
   </g>
   <g id="matplotlib.axis_2">
    <g id="ytick_1">
     <g id="line2d_71">
      <defs>
       <path d="M 0 0 
L -3.5 0 
" id="m5fff8a6ab3" style="stroke:#000000;stroke-width:0.8;"/>
      </defs>
      <g>
       <use style="stroke:#000000;stroke-width:0.8;" x="55.345313" xlink:href="#m5fff8a6ab3" y="232.56676"/>
      </g>
     </g>
     <g id="text_10">
      <!-- −400 -->
      <g transform="translate(20.878125 236.365979)scale(0.1 -0.1)">
       <use xlink:href="#DejaVuSans-8722"/>
       <use x="83.789062" xlink:href="#DejaVuSans-52"/>
       <use x="147.412109" xlink:href="#DejaVuSans-48"/>
       <use x="211.035156" xlink:href="#DejaVuSans-48"/>
      </g>
     </g>
    </g>
    <g id="ytick_2">
     <g id="line2d_72">
      <g>
       <use style="stroke:#000000;stroke-width:0.8;" x="55.345313" xlink:href="#m5fff8a6ab3" y="186.998529"/>
      </g>
     </g>
     <g id="text_11">
      <!-- −200 -->
      <g transform="translate(20.878125 190.797748)scale(0.1 -0.1)">
       <use xlink:href="#DejaVuSans-8722"/>
       <use x="83.789062" xlink:href="#DejaVuSans-50"/>
       <use x="147.412109" xlink:href="#DejaVuSans-48"/>
       <use x="211.035156" xlink:href="#DejaVuSans-48"/>
      </g>
     </g>
    </g>
    <g id="ytick_3">
     <g id="line2d_73">
      <g>
       <use style="stroke:#000000;stroke-width:0.8;" x="55.345313" xlink:href="#m5fff8a6ab3" y="141.430298"/>
      </g>
     </g>
     <g id="text_12">
      <!-- 0 -->
      <g transform="translate(41.982813 145.229517)scale(0.1 -0.1)">
       <use xlink:href="#DejaVuSans-48"/>
      </g>
     </g>
    </g>
    <g id="ytick_4">
     <g id="line2d_74">
      <g>
       <use style="stroke:#000000;stroke-width:0.8;" x="55.345313" xlink:href="#m5fff8a6ab3" y="95.862067"/>
      </g>
     </g>
     <g id="text_13">
      <!-- 200 -->
      <g transform="translate(29.257813 99.661286)scale(0.1 -0.1)">
       <use xlink:href="#DejaVuSans-50"/>
       <use x="63.623047" xlink:href="#DejaVuSans-48"/>
       <use x="127.246094" xlink:href="#DejaVuSans-48"/>
      </g>
     </g>
    </g>
    <g id="ytick_5">
     <g id="line2d_75">
      <g>
       <use style="stroke:#000000;stroke-width:0.8;" x="55.345313" xlink:href="#m5fff8a6ab3" y="50.293836"/>
      </g>
     </g>
     <g id="text_14">
      <!-- 400 -->
      <g transform="translate(29.257813 54.093055)scale(0.1 -0.1)">
       <use xlink:href="#DejaVuSans-52"/>
       <use x="63.623047" xlink:href="#DejaVuSans-48"/>
       <use x="127.246094" xlink:href="#DejaVuSans-48"/>
      </g>
     </g>
    </g>
    <g id="text_15">
     <!-- weights -->
     <defs>
      <path d="M 4.203125 54.6875 
L 13.1875 54.6875 
L 24.421875 12.015625 
L 35.59375 54.6875 
L 46.1875 54.6875 
L 57.421875 12.015625 
L 68.609375 54.6875 
L 77.59375 54.6875 
L 63.28125 0 
L 52.6875 0 
L 40.921875 44.828125 
L 29.109375 0 
L 18.5 0 
z
" id="DejaVuSans-119"/>
      <path d="M 56.203125 29.59375 
L 56.203125 25.203125 
L 14.890625 25.203125 
Q 15.484375 15.921875 20.484375 11.0625 
Q 25.484375 6.203125 34.421875 6.203125 
Q 39.59375 6.203125 44.453125 7.46875 
Q 49.3125 8.734375 54.109375 11.28125 
L 54.109375 2.78125 
Q 49.265625 0.734375 44.1875 -0.34375 
Q 39.109375 -1.421875 33.890625 -1.421875 
Q 20.796875 -1.421875 13.15625 6.1875 
Q 5.515625 13.8125 5.515625 26.8125 
Q 5.515625 40.234375 12.765625 48.109375 
Q 20.015625 56 32.328125 56 
Q 43.359375 56 49.78125 48.890625 
Q 56.203125 41.796875 56.203125 29.59375 
z
M 47.21875 32.234375 
Q 47.125 39.59375 43.09375 43.984375 
Q 39.0625 48.390625 32.421875 48.390625 
Q 24.90625 48.390625 20.390625 44.140625 
Q 15.875 39.890625 15.1875 32.171875 
z
" id="DejaVuSans-101"/>
      <path d="M 9.421875 54.6875 
L 18.40625 54.6875 
L 18.40625 0 
L 9.421875 0 
z
M 9.421875 75.984375 
L 18.40625 75.984375 
L 18.40625 64.59375 
L 9.421875 64.59375 
z
" id="DejaVuSans-105"/>
      <path d="M 45.40625 27.984375 
Q 45.40625 37.75 41.375 43.109375 
Q 37.359375 48.484375 30.078125 48.484375 
Q 22.859375 48.484375 18.828125 43.109375 
Q 14.796875 37.75 14.796875 27.984375 
Q 14.796875 18.265625 18.828125 12.890625 
Q 22.859375 7.515625 30.078125 7.515625 
Q 37.359375 7.515625 41.375 12.890625 
Q 45.40625 18.265625 45.40625 27.984375 
z
M 54.390625 6.78125 
Q 54.390625 -7.171875 48.1875 -13.984375 
Q 42 -20.796875 29.203125 -20.796875 
Q 24.46875 -20.796875 20.265625 -20.09375 
Q 16.0625 -19.390625 12.109375 -17.921875 
L 12.109375 -9.1875 
Q 16.0625 -11.328125 19.921875 -12.34375 
Q 23.78125 -13.375 27.78125 -13.375 
Q 36.625 -13.375 41.015625 -8.765625 
Q 45.40625 -4.15625 45.40625 5.171875 
L 45.40625 9.625 
Q 42.625 4.78125 38.28125 2.390625 
Q 33.9375 0 27.875 0 
Q 17.828125 0 11.671875 7.65625 
Q 5.515625 15.328125 5.515625 27.984375 
Q 5.515625 40.671875 11.671875 48.328125 
Q 17.828125 56 27.875 56 
Q 33.9375 56 38.28125 53.609375 
Q 42.625 51.21875 45.40625 46.390625 
L 45.40625 54.6875 
L 54.390625 54.6875 
z
" id="DejaVuSans-103"/>
      <path d="M 18.3125 70.21875 
L 18.3125 54.6875 
L 36.8125 54.6875 
L 36.8125 47.703125 
L 18.3125 47.703125 
L 18.3125 18.015625 
Q 18.3125 11.328125 20.140625 9.421875 
Q 21.96875 7.515625 27.59375 7.515625 
L 36.8125 7.515625 
L 36.8125 0 
L 27.59375 0 
Q 17.1875 0 13.234375 3.875 
Q 9.28125 7.765625 9.28125 18.015625 
L 9.28125 47.703125 
L 2.6875 47.703125 
L 2.6875 54.6875 
L 9.28125 54.6875 
L 9.28125 70.21875 
z
" id="DejaVuSans-116"/>
      <path d="M 44.28125 53.078125 
L 44.28125 44.578125 
Q 40.484375 46.53125 36.375 47.5 
Q 32.28125 48.484375 27.875 48.484375 
Q 21.1875 48.484375 17.84375 46.4375 
Q 14.5 44.390625 14.5 40.28125 
Q 14.5 37.15625 16.890625 35.375 
Q 19.28125 33.59375 26.515625 31.984375 
L 29.59375 31.296875 
Q 39.15625 29.25 43.1875 25.515625 
Q 47.21875 21.78125 47.21875 15.09375 
Q 47.21875 7.46875 41.1875 3.015625 
Q 35.15625 -1.421875 24.609375 -1.421875 
Q 20.21875 -1.421875 15.453125 -0.5625 
Q 10.6875 0.296875 5.421875 2 
L 5.421875 11.28125 
Q 10.40625 8.6875 15.234375 7.390625 
Q 20.0625 6.109375 24.8125 6.109375 
Q 31.15625 6.109375 34.5625 8.28125 
Q 37.984375 10.453125 37.984375 14.40625 
Q 37.984375 18.0625 35.515625 20.015625 
Q 33.0625 21.96875 24.703125 23.78125 
L 21.578125 24.515625 
Q 13.234375 26.265625 9.515625 29.90625 
Q 5.8125 33.546875 5.8125 39.890625 
Q 5.8125 47.609375 11.28125 51.796875 
Q 16.75 56 26.8125 56 
Q 31.78125 56 36.171875 55.265625 
Q 40.578125 54.546875 44.28125 53.078125 
z
" id="DejaVuSans-115"/>
     </defs>
     <g transform="translate(14.798438 150.500625)rotate(-90)scale(0.1 -0.1)">
      <use xlink:href="#DejaVuSans-119"/>
      <use x="81.787109" xlink:href="#DejaVuSans-101"/>
      <use x="143.310547" xlink:href="#DejaVuSans-105"/>
      <use x="171.09375" xlink:href="#DejaVuSans-103"/>
      <use x="234.570312" xlink:href="#DejaVuSans-104"/>
      <use x="297.949219" xlink:href="#DejaVuSans-116"/>
      <use x="337.158203" xlink:href="#DejaVuSans-115"/>
     </g>
    </g>
   </g>
   <g id="line2d_76">
    <path clip-path="url(#p111acfa2cb)" d="M 70.563494 141.430298 
L 246.666869 141.430298 
L 247.684808 143.992431 
L 251.756562 156.687343 
L 254.810378 165.427595 
L 256.846255 170.876889 
L 258.882132 175.769238 
L 260.918009 180.161566 
L 262.953887 184.104976 
L 264.989764 187.645351 
L 267.025641 190.823883 
L 269.061518 193.677553 
L 271.097395 196.239564 
L 274.151211 199.663306 
L 275.16915 200.628964 
L 278.222965 202.319645 
L 281.276781 203.604007 
L 285.348535 205.023243 
L 289.42029 206.167198 
L 293.492044 207.057859 
L 297.563798 207.55723 
L 302.653491 208.384694 
L 305.707307 208.3234 
L 318.940509 208.028154 
L 337.263403 207.856612 
L 374.927131 207.767633 
L 374.927131 207.767633 
" style="fill:none;stroke:#1f77b4;stroke-linecap:square;stroke-width:1.5;"/>
   </g>
   <g id="line2d_77">
    <path clip-path="url(#p111acfa2cb)" d="M 70.563494 141.430298 
L 189.662309 141.430298 
L 190.680247 140.006413 
L 191.698186 138.330918 
L 193.734063 136.002503 
L 195.76994 133.994368 
L 198.823756 131.36035 
L 200.859633 129.845885 
L 203.913449 128.367979 
L 206.967264 127.110754 
L 211.039019 125.721507 
L 215.110773 124.601724 
L 219.182527 123.699138 
L 222.236343 123.199113 
L 228.343975 122.54207 
L 235.469545 122.001255 
L 240.559238 121.612437 
L 246.666869 120.942867 
L 247.684808 118.520747 
L 249.720685 112.950531 
L 251.756562 108.272001 
L 253.792439 104.141267 
L 255.828316 100.2704 
L 257.864194 96.772559 
L 259.900071 93.632215 
L 261.935948 90.812829 
L 263.971825 88.281598 
L 266.007702 86.009071 
L 268.043579 83.968808 
L 271.097395 81.292648 
L 273.133272 79.742207 
L 275.16915 78.440659 
L 277.205027 77.828189 
L 278.222965 77.35405 
L 281.276781 75.393952 
L 284.330597 73.726537 
L 287.384413 72.308102 
L 290.438228 71.101469 
L 296.54586 68.885914 
L 299.599676 67.648443 
L 302.653491 66.595751 
L 304.689368 66.386029 
L 312.832877 65.911353 
L 334.209587 65.040655 
L 347.442789 64.747418 
L 366.783622 64.562314 
L 374.927131 64.525987 
L 374.927131 64.525987 
" style="fill:none;stroke:#ff7f0e;stroke-linecap:square;stroke-width:1.5;"/>
   </g>
   <g id="line2d_78">
    <path clip-path="url(#p111acfa2cb)" d="M 70.563494 141.430298 
L 273.133272 141.400772 
L 278.222965 140.738154 
L 282.29472 139.85133 
L 287.384413 138.980629 
L 292.474105 138.318005 
L 293.492044 138.209106 
L 296.54586 137.333948 
L 301.635553 136.525195 
L 311.814939 135.242876 
L 318.940509 134.663232 
L 338.281342 133.508777 
L 350.496605 133.173855 
L 367.801561 132.952905 
L 374.927131 132.906615 
L 374.927131 132.906615 
" style="fill:none;stroke:#2ca02c;stroke-linecap:square;stroke-width:1.5;"/>
   </g>
   <g id="line2d_79">
    <path clip-path="url(#p111acfa2cb)" d="M 70.563494 141.430298 
L 277.205027 141.430298 
L 278.222965 141.749316 
L 281.276781 143.743478 
L 284.330597 145.439871 
L 287.384413 146.882958 
L 290.438228 148.110562 
L 297.563798 150.610313 
L 301.635553 151.730757 
L 303.67143 152.134929 
L 309.779061 152.822139 
L 316.904631 153.387785 
L 335.227526 154.462685 
L 346.42485 154.806457 
L 361.693929 155.041986 
L 374.927131 155.137314 
L 374.927131 155.137314 
" style="fill:none;stroke:#d62728;stroke-linecap:square;stroke-width:1.5;"/>
   </g>
   <g id="line2d_80">
    <path clip-path="url(#p111acfa2cb)" d="M 70.563494 141.430298 
L 293.492044 141.430298 
L 297.563798 142.611628 
L 302.653491 143.556734 
L 308.761123 144.530065 
L 314.868754 145.238794 
L 324.030202 146.004094 
L 332.17371 146.556447 
L 342.353096 146.98333 
L 355.586298 147.284372 
L 374.927131 147.474403 
L 374.927131 147.474403 
" style="fill:none;stroke:#9467bd;stroke-linecap:square;stroke-width:1.5;"/>
   </g>
   <g id="line2d_81">
    <path clip-path="url(#p111acfa2cb)" d="M 70.563494 141.430298 
L 191.698186 141.430298 
L 193.734063 140.012872 
L 196.787879 137.930409 
L 199.841694 136.1589 
L 200.859633 135.644995 
L 204.931387 134.357747 
L 209.003142 133.320178 
L 214.092835 132.301473 
L 219.182527 131.523452 
L 223.254282 131.087682 
L 230.379852 130.573204 
L 239.541299 130.151061 
L 246.666869 130.038695 
L 249.720685 129.42734 
L 250.738624 128.787045 
L 253.792439 126.320921 
L 256.846255 124.099375 
L 259.900071 122.198908 
L 262.953887 120.58222 
L 266.007702 119.206937 
L 269.061518 118.037012 
L 273.133272 116.744743 
L 275.16915 116.223564 
L 278.222965 115.830053 
L 282.29472 114.911737 
L 287.384413 114.010117 
L 295.527921 112.894498 
L 301.635553 112.14834 
L 304.689368 111.909409 
L 313.850816 111.476138 
L 328.101956 111.072837 
L 344.388973 110.831316 
L 370.855376 110.698339 
L 374.927131 110.689914 
L 374.927131 110.689914 
" style="fill:none;stroke:#8c564b;stroke-linecap:square;stroke-width:1.5;"/>
   </g>
   <g id="line2d_82">
    <path clip-path="url(#p111acfa2cb)" d="M 70.563494 141.430298 
L 247.684808 141.454276 
L 249.720685 143.516188 
L 250.738624 144.274912 
L 253.792439 146.006642 
L 256.846255 147.533257 
L 259.900071 148.836517 
L 263.971825 150.276635 
L 268.043579 151.437423 
L 272.115334 152.373059 
L 274.151211 152.777115 
L 275.16915 152.8483 
L 279.240904 151.494005 
L 283.312658 150.395228 
L 287.384413 149.509574 
L 292.474105 148.644199 
L 298.581737 147.87037 
L 315.886693 146.336602 
L 324.030202 145.933837 
L 336.245465 145.600361 
L 353.55042 145.380366 
L 374.927131 145.281003 
L 374.927131 145.281003 
" style="fill:none;stroke:#e377c2;stroke-linecap:square;stroke-width:1.5;"/>
   </g>
   <g id="line2d_83">
    <path clip-path="url(#p111acfa2cb)" d="M 70.563494 141.430298 
L 274.151211 141.430298 
L 275.16915 142.196917 
L 278.222965 152.493489 
L 280.258842 159.078497 
L 282.29472 164.990485 
L 284.330597 170.298239 
L 286.366474 175.063515 
L 288.402351 179.341757 
L 290.438228 183.182742 
L 292.474105 186.611654 
L 296.54586 192.920011 
L 299.599676 195.607326 
L 302.653491 197.893369 
L 304.689368 201.162951 
L 306.725246 204.33777 
L 308.761123 207.188107 
L 310.797 209.747126 
L 312.832877 212.044601 
L 314.868754 214.107262 
L 317.92257 216.812801 
L 320.976386 219.114346 
L 323.012263 220.357064 
L 326.066079 221.875346 
L 329.119894 223.166918 
L 333.191649 224.594119 
L 337.263403 225.744495 
L 341.335157 226.67174 
L 346.42485 227.582126 
L 351.514543 228.277421 
L 357.622175 228.898527 
L 364.747745 229.409762 
L 373.909192 229.83846 
L 374.927131 229.874489 
L 374.927131 229.874489 
" style="fill:none;stroke:#7f7f7f;stroke-linecap:square;stroke-width:1.5;"/>
   </g>
   <g id="line2d_84">
    <path clip-path="url(#p111acfa2cb)" d="M 70.563494 141.430298 
L 302.653491 141.430298 
L 303.67143 140.330977 
L 305.707307 137.677477 
L 307.743184 135.295178 
L 309.779061 133.156361 
L 312.832877 130.350932 
L 315.886693 127.964412 
L 318.940509 125.934248 
L 320.976386 124.752164 
L 321.994324 124.243971 
L 328.101956 123.535236 
L 335.227526 122.951872 
L 343.371035 122.50608 
L 354.568359 122.136242 
L 369.837438 121.882854 
L 374.927131 121.83476 
L 374.927131 121.83476 
" style="fill:none;stroke:#bcbd22;stroke-linecap:square;stroke-width:1.5;"/>
   </g>
   <g id="line2d_85">
    <path clip-path="url(#p111acfa2cb)" d="M 70.563494 141.430298 
L 246.666869 141.430298 
L 247.684808 141.052199 
L 249.720685 140.739413 
L 251.756562 139.855163 
L 253.792439 138.93096 
L 258.882132 135.881235 
L 261.935948 134.375501 
L 264.989764 133.094604 
L 269.061518 131.679199 
L 272.115334 130.800915 
L 274.151211 130.425964 
L 275.16915 130.492956 
L 278.222965 132.812123 
L 281.276781 134.788432 
L 284.330597 136.469637 
L 287.384413 137.899803 
L 290.438228 139.116416 
L 295.527921 141.033238 
L 296.54586 141.430298 
L 321.994324 141.446537 
L 327.084017 142.206112 
L 333.191649 142.884639 
L 340.317219 143.443138 
L 349.478666 143.91147 
L 360.675991 144.246962 
L 374.927131 144.466592 
L 374.927131 144.466592 
" style="fill:none;stroke:#17becf;stroke-linecap:square;stroke-width:1.5;"/>
   </g>
   <g id="line2d_86">
    <path clip-path="url(#p111acfa2cb)" d="M 70.563494 141.430298 
L 185.590554 141.430298 
L 186.608493 140.797873 
L 188.64437 138.232582 
L 189.662309 137.049998 
L 191.698186 135.789391 
L 193.734063 135.022326 
L 197.805817 133.771186 
L 200.859633 132.956898 
L 203.913449 131.242942 
L 206.967264 129.784914 
L 210.02108 128.544601 
L 214.092835 127.17404 
L 218.164589 126.069318 
L 221.218405 125.442824 
L 235.469545 125.160819 
L 246.666869 124.962565 
L 247.684808 124.821353 
L 249.720685 123.539818 
L 250.738624 121.710526 
L 252.774501 116.948069 
L 255.828316 110.507135 
L 257.864194 106.668547 
L 259.900071 103.222281 
L 261.935948 100.12824 
L 263.971825 97.350425 
L 266.007702 94.856517 
L 268.043579 92.617498 
L 270.079457 90.607317 
L 273.133272 87.957352 
L 274.151211 87.142098 
L 275.16915 85.93404 
L 281.276781 69.696817 
L 283.312658 64.939399 
L 285.348535 60.668213 
L 287.384413 56.833563 
L 289.42029 53.390833 
L 291.456167 50.299967 
L 293.492044 47.538608 
L 295.527921 45.043763 
L 296.54586 43.897599 
L 299.599676 41.26153 
L 302.653491 39.019081 
L 303.67143 38.739525 
L 309.779061 37.945483 
L 316.904631 37.291904 
L 321.994324 36.935098 
L 326.066079 35.957757 
L 331.155772 34.998183 
L 336.245465 34.265323 
L 342.353096 33.61066 
L 349.478666 33.071805 
L 358.640113 32.619945 
L 370.855376 32.275264 
L 374.927131 32.201761 
L 374.927131 32.201761 
" style="fill:none;stroke:#1f77b4;stroke-linecap:square;stroke-width:1.5;"/>
   </g>
   <g id="line2d_87">
    <path clip-path="url(#p111acfa2cb)" d="M 70.563494 141.430298 
L 182.536738 141.430298 
L 183.554677 140.674206 
L 185.590554 134.806864 
L 186.608493 132.700124 
L 188.64437 130.134834 
L 192.716124 125.482356 
L 194.752001 123.463755 
L 197.805817 120.81601 
L 199.841694 119.274332 
L 200.859633 118.599008 
L 204.931387 117.386497 
L 209.003142 116.409168 
L 214.092835 115.449609 
L 219.182527 114.716759 
L 221.218405 114.418647 
L 225.290159 113.385288 
L 230.379852 112.370715 
L 235.469545 111.595849 
L 239.541299 111.137157 
L 246.666869 110.768846 
L 247.684808 111.150025 
L 249.720685 110.605392 
L 250.738624 110.574251 
L 254.810378 111.039908 
L 259.900071 112.011676 
L 264.989764 112.75385 
L 271.097395 113.416832 
L 274.151211 113.612299 
L 275.16915 113.24463 
L 277.205027 109.715166 
L 279.240904 106.792138 
L 281.276781 104.258844 
L 283.312658 101.984465 
L 285.348535 99.942539 
L 288.402351 97.264198 
L 291.456167 94.98579 
L 293.492044 93.662399 
L 296.54586 90.992064 
L 301.635553 90.063327 
L 306.725246 89.362836 
L 312.832877 88.740026 
L 319.958447 88.227388 
L 321.994324 88.08759 
L 326.066079 86.913492 
L 330.137833 85.967127 
L 335.227526 85.037968 
L 340.317219 84.328335 
L 346.42485 83.694422 
L 353.55042 83.172645 
L 362.711868 82.735107 
L 374.927131 82.401351 
L 374.927131 82.401351 
" style="fill:none;stroke:#ff7f0e;stroke-linecap:square;stroke-width:1.5;"/>
   </g>
   <g id="line2d_88">
    <path clip-path="url(#p111acfa2cb)" d="M 70.563494 141.430298 
L 249.720685 141.430298 
L 250.738624 142.992985 
L 252.774501 147.626469 
L 256.846255 156.001406 
L 258.882132 159.66238 
L 260.918009 162.949185 
L 262.953887 165.900063 
L 264.989764 168.549347 
L 267.025641 170.927861 
L 269.061518 173.063279 
L 272.115334 175.864251 
L 274.151211 177.494339 
L 276.187088 178.85593 
L 281.276781 181.758934 
L 284.330597 183.216225 
L 287.384413 184.455913 
L 291.456167 185.825781 
L 299.599676 188.166853 
L 302.653491 188.903212 
L 305.707307 189.040668 
L 319.958447 189.3224 
L 326.066079 189.508583 
L 338.281342 189.820658 
L 356.604236 190.033736 
L 374.927131 190.114484 
L 374.927131 190.114484 
" style="fill:none;stroke:#2ca02c;stroke-linecap:square;stroke-width:1.5;"/>
   </g>
   <g id="line2d_89">
    <path clip-path="url(#p111acfa2cb)" d="M 70.563494 141.430298 
L 200.859633 141.339674 
L 203.913449 138.822764 
L 206.967264 136.68168 
L 210.02108 134.860304 
L 213.074896 133.310898 
L 216.128712 131.992849 
L 219.182527 130.871613 
L 223.254282 129.645442 
L 227.326036 128.665413 
L 232.415729 127.703202 
L 237.505422 126.968327 
L 243.613053 126.304872 
L 251.756562 125.676569 
L 255.828316 125.267948 
L 261.935948 124.580586 
L 269.061518 124.014815 
L 277.205027 123.600805 
L 284.330597 123.512109 
L 309.779061 123.405315 
L 371.873315 123.481503 
L 374.927131 123.48206 
L 374.927131 123.48206 
" style="fill:none;stroke:#d62728;stroke-linecap:square;stroke-width:1.5;"/>
   </g>
   <g id="line2d_90">
    <path clip-path="url(#p111acfa2cb)" d="M 70.563494 141.430298 
L 253.792439 141.430298 
L 255.828316 140.498426 
L 258.882132 139.0866 
L 261.935948 137.885588 
L 266.007702 136.558457 
L 270.079457 135.488741 
L 283.312658 132.556819 
L 288.402351 131.80311 
L 294.509983 131.137779 
L 301.635553 130.612872 
L 317.92257 129.759553 
L 329.119894 129.494755 
L 348.460728 129.298036 
L 374.927131 129.21496 
L 374.927131 129.21496 
" style="fill:none;stroke:#9467bd;stroke-linecap:square;stroke-width:1.5;"/>
   </g>
   <g id="line2d_91">
    <path clip-path="url(#p111acfa2cb)" d="M 70.563494 141.430298 
L 238.523361 141.430298 
L 240.559238 141.734711 
L 246.666869 142.728514 
L 249.720685 142.552179 
L 253.792439 142.087295 
L 255.828316 142.438583 
L 260.918009 143.347661 
L 266.007702 144.041956 
L 272.115334 144.662168 
L 280.258842 145.276278 
L 289.42029 145.693241 
L 300.617614 145.972756 
L 338.281342 146.417941 
L 374.927131 146.47062 
L 374.927131 146.47062 
" style="fill:none;stroke:#8c564b;stroke-linecap:square;stroke-width:1.5;"/>
   </g>
   <g id="line2d_92">
    <path clip-path="url(#p111acfa2cb)" d="M 70.563494 141.430298 
L 245.648931 141.330266 
L 247.684808 140.344004 
L 252.774501 138.665157 
L 256.846255 137.577954 
L 260.918009 136.703969 
L 266.007702 135.845873 
L 272.115334 135.079338 
L 276.187088 134.536885 
L 279.240904 134.081941 
L 285.348535 133.473032 
L 292.474105 132.834965 
L 296.54586 131.791049 
L 300.617614 130.943388 
L 307.743184 129.751711 
L 313.850816 129.004629 
L 320.976386 128.389703 
L 328.101956 128.001464 
L 339.29928 127.628449 
L 354.568359 127.372885 
L 374.927131 127.237426 
L 374.927131 127.237426 
" style="fill:none;stroke:#e377c2;stroke-linecap:square;stroke-width:1.5;"/>
   </g>
   <g id="line2d_93">
    <path clip-path="url(#p111acfa2cb)" d="M 70.563494 141.430298 
L 220.200466 141.430298 
L 221.218405 141.955265 
L 223.254282 145.022444 
L 225.290159 147.776142 
L 227.326036 150.248399 
L 229.361913 152.467979 
L 231.39779 154.460708 
L 234.451606 157.074516 
L 237.505422 159.298029 
L 240.559238 161.176068 
L 243.613053 162.762521 
L 246.666869 164.100797 
L 249.720685 164.787987 
L 254.810378 165.765579 
L 259.900071 166.458158 
L 266.007702 167.076838 
L 273.133272 167.585186 
L 275.16915 167.680141 
L 281.276781 167.54935 
L 295.527921 167.520883 
L 310.797 167.787976 
L 331.155772 167.963687 
L 371.873315 168.042984 
L 374.927131 168.044534 
L 374.927131 168.044534 
" style="fill:none;stroke:#7f7f7f;stroke-linecap:square;stroke-width:1.5;"/>
   </g>
   <g id="line2d_94">
    <path clip-path="url(#p111acfa2cb)" d="M 70.563494 141.430298 
L 291.456167 141.430298 
L 293.492044 141.85534 
L 297.563798 142.782546 
L 302.653491 143.674664 
L 308.761123 144.642466 
L 314.868754 145.34861 
L 321.994324 145.92921 
L 331.155772 146.368567 
L 343.371035 146.703711 
L 360.675991 146.924807 
L 374.927131 147.002889 
L 374.927131 147.002889 
" style="fill:none;stroke:#bcbd22;stroke-linecap:square;stroke-width:1.5;"/>
   </g>
   <g id="patch_3">
    <path d="M 55.345313 239.758125 
L 55.345313 22.318125 
" style="fill:none;stroke:#000000;stroke-linecap:square;stroke-linejoin:miter;stroke-width:0.8;"/>
   </g>
   <g id="patch_4">
    <path d="M 390.145312 239.758125 
L 390.145312 22.318125 
" style="fill:none;stroke:#000000;stroke-linecap:square;stroke-linejoin:miter;stroke-width:0.8;"/>
   </g>
   <g id="patch_5">
    <path d="M 55.345313 239.758125 
L 390.145312 239.758125 
" style="fill:none;stroke:#000000;stroke-linecap:square;stroke-linejoin:miter;stroke-width:0.8;"/>
   </g>
   <g id="patch_6">
    <path d="M 55.345313 22.318125 
L 390.145312 22.318125 
" style="fill:none;stroke:#000000;stroke-linecap:square;stroke-linejoin:miter;stroke-width:0.8;"/>
   </g>
   <g id="text_16">
    <!-- Lasso coefficients as a function of the regularization -->
    <defs>
     <path d="M 9.8125 72.90625 
L 19.671875 72.90625 
L 19.671875 8.296875 
L 55.171875 8.296875 
L 55.171875 0 
L 9.8125 0 
z
" id="DejaVuSans-76"/>
     <path d="M 30.609375 48.390625 
Q 23.390625 48.390625 19.1875 42.75 
Q 14.984375 37.109375 14.984375 27.296875 
Q 14.984375 17.484375 19.15625 11.84375 
Q 23.34375 6.203125 30.609375 6.203125 
Q 37.796875 6.203125 41.984375 11.859375 
Q 46.1875 17.53125 46.1875 27.296875 
Q 46.1875 37.015625 41.984375 42.703125 
Q 37.796875 48.390625 30.609375 48.390625 
z
M 30.609375 56 
Q 42.328125 56 49.015625 48.375 
Q 55.71875 40.765625 55.71875 27.296875 
Q 55.71875 13.875 49.015625 6.21875 
Q 42.328125 -1.421875 30.609375 -1.421875 
Q 18.84375 -1.421875 12.171875 6.21875 
Q 5.515625 13.875 5.515625 27.296875 
Q 5.515625 40.765625 12.171875 48.375 
Q 18.84375 56 30.609375 56 
z
" id="DejaVuSans-111"/>
     <path id="DejaVuSans-32"/>
     <path d="M 48.78125 52.59375 
L 48.78125 44.1875 
Q 44.96875 46.296875 41.140625 47.34375 
Q 37.3125 48.390625 33.40625 48.390625 
Q 24.65625 48.390625 19.8125 42.84375 
Q 14.984375 37.3125 14.984375 27.296875 
Q 14.984375 17.28125 19.8125 11.734375 
Q 24.65625 6.203125 33.40625 6.203125 
Q 37.3125 6.203125 41.140625 7.25 
Q 44.96875 8.296875 48.78125 10.40625 
L 48.78125 2.09375 
Q 45.015625 0.34375 40.984375 -0.53125 
Q 36.96875 -1.421875 32.421875 -1.421875 
Q 20.0625 -1.421875 12.78125 6.34375 
Q 5.515625 14.109375 5.515625 27.296875 
Q 5.515625 40.671875 12.859375 48.328125 
Q 20.21875 56 33.015625 56 
Q 37.15625 56 41.109375 55.140625 
Q 45.0625 54.296875 48.78125 52.59375 
z
" id="DejaVuSans-99"/>
     <path d="M 37.109375 75.984375 
L 37.109375 68.5 
L 28.515625 68.5 
Q 23.6875 68.5 21.796875 66.546875 
Q 19.921875 64.59375 19.921875 59.515625 
L 19.921875 54.6875 
L 34.71875 54.6875 
L 34.71875 47.703125 
L 19.921875 47.703125 
L 19.921875 0 
L 10.890625 0 
L 10.890625 47.703125 
L 2.296875 47.703125 
L 2.296875 54.6875 
L 10.890625 54.6875 
L 10.890625 58.5 
Q 10.890625 67.625 15.140625 71.796875 
Q 19.390625 75.984375 28.609375 75.984375 
z
" id="DejaVuSans-102"/>
     <path d="M 54.890625 33.015625 
L 54.890625 0 
L 45.90625 0 
L 45.90625 32.71875 
Q 45.90625 40.484375 42.875 44.328125 
Q 39.84375 48.1875 33.796875 48.1875 
Q 26.515625 48.1875 22.3125 43.546875 
Q 18.109375 38.921875 18.109375 30.90625 
L 18.109375 0 
L 9.078125 0 
L 9.078125 54.6875 
L 18.109375 54.6875 
L 18.109375 46.1875 
Q 21.34375 51.125 25.703125 53.5625 
Q 30.078125 56 35.796875 56 
Q 45.21875 56 50.046875 50.171875 
Q 54.890625 44.34375 54.890625 33.015625 
z
" id="DejaVuSans-110"/>
     <path d="M 8.5 21.578125 
L 8.5 54.6875 
L 17.484375 54.6875 
L 17.484375 21.921875 
Q 17.484375 14.15625 20.5 10.265625 
Q 23.53125 6.390625 29.59375 6.390625 
Q 36.859375 6.390625 41.078125 11.03125 
Q 45.3125 15.671875 45.3125 23.6875 
L 45.3125 54.6875 
L 54.296875 54.6875 
L 54.296875 0 
L 45.3125 0 
L 45.3125 8.40625 
Q 42.046875 3.421875 37.71875 1 
Q 33.40625 -1.421875 27.6875 -1.421875 
Q 18.265625 -1.421875 13.375 4.4375 
Q 8.5 10.296875 8.5 21.578125 
z
M 31.109375 56 
z
" id="DejaVuSans-117"/>
     <path d="M 41.109375 46.296875 
Q 39.59375 47.171875 37.8125 47.578125 
Q 36.03125 48 33.890625 48 
Q 26.265625 48 22.1875 43.046875 
Q 18.109375 38.09375 18.109375 28.8125 
L 18.109375 0 
L 9.078125 0 
L 9.078125 54.6875 
L 18.109375 54.6875 
L 18.109375 46.1875 
Q 20.953125 51.171875 25.484375 53.578125 
Q 30.03125 56 36.53125 56 
Q 37.453125 56 38.578125 55.875 
Q 39.703125 55.765625 41.0625 55.515625 
z
" id="DejaVuSans-114"/>
     <path d="M 5.515625 54.6875 
L 48.1875 54.6875 
L 48.1875 46.484375 
L 14.40625 7.171875 
L 48.1875 7.171875 
L 48.1875 0 
L 4.296875 0 
L 4.296875 8.203125 
L 38.09375 47.515625 
L 5.515625 47.515625 
z
" id="DejaVuSans-122"/>
    </defs>
    <g transform="translate(65.780625 16.318125)scale(0.12 -0.12)">
     <use xlink:href="#DejaVuSans-76"/>
     <use x="55.712891" xlink:href="#DejaVuSans-97"/>
     <use x="116.992188" xlink:href="#DejaVuSans-115"/>
     <use x="169.091797" xlink:href="#DejaVuSans-115"/>
     <use x="221.191406" xlink:href="#DejaVuSans-111"/>
     <use x="282.373047" xlink:href="#DejaVuSans-32"/>
     <use x="314.160156" xlink:href="#DejaVuSans-99"/>
     <use x="369.140625" xlink:href="#DejaVuSans-111"/>
     <use x="430.322266" xlink:href="#DejaVuSans-101"/>
     <use x="491.845703" xlink:href="#DejaVuSans-102"/>
     <use x="527.050781" xlink:href="#DejaVuSans-102"/>
     <use x="562.255859" xlink:href="#DejaVuSans-105"/>
     <use x="590.039062" xlink:href="#DejaVuSans-99"/>
     <use x="645.019531" xlink:href="#DejaVuSans-105"/>
     <use x="672.802734" xlink:href="#DejaVuSans-101"/>
     <use x="734.326172" xlink:href="#DejaVuSans-110"/>
     <use x="797.705078" xlink:href="#DejaVuSans-116"/>
     <use x="836.914062" xlink:href="#DejaVuSans-115"/>
     <use x="889.013672" xlink:href="#DejaVuSans-32"/>
     <use x="920.800781" xlink:href="#DejaVuSans-97"/>
     <use x="982.080078" xlink:href="#DejaVuSans-115"/>
     <use x="1034.179688" xlink:href="#DejaVuSans-32"/>
     <use x="1065.966797" xlink:href="#DejaVuSans-97"/>
     <use x="1127.246094" xlink:href="#DejaVuSans-32"/>
     <use x="1159.033203" xlink:href="#DejaVuSans-102"/>
     <use x="1194.238281" xlink:href="#DejaVuSans-117"/>
     <use x="1257.617188" xlink:href="#DejaVuSans-110"/>
     <use x="1320.996094" xlink:href="#DejaVuSans-99"/>
     <use x="1375.976562" xlink:href="#DejaVuSans-116"/>
     <use x="1415.185547" xlink:href="#DejaVuSans-105"/>
     <use x="1442.96875" xlink:href="#DejaVuSans-111"/>
     <use x="1504.150391" xlink:href="#DejaVuSans-110"/>
     <use x="1567.529297" xlink:href="#DejaVuSans-32"/>
     <use x="1599.316406" xlink:href="#DejaVuSans-111"/>
     <use x="1660.498047" xlink:href="#DejaVuSans-102"/>
     <use x="1695.703125" xlink:href="#DejaVuSans-32"/>
     <use x="1727.490234" xlink:href="#DejaVuSans-116"/>
     <use x="1766.699219" xlink:href="#DejaVuSans-104"/>
     <use x="1830.078125" xlink:href="#DejaVuSans-101"/>
     <use x="1891.601562" xlink:href="#DejaVuSans-32"/>
     <use x="1923.388672" xlink:href="#DejaVuSans-114"/>
     <use x="1964.470703" xlink:href="#DejaVuSans-101"/>
     <use x="2025.994141" xlink:href="#DejaVuSans-103"/>
     <use x="2089.470703" xlink:href="#DejaVuSans-117"/>
     <use x="2152.849609" xlink:href="#DejaVuSans-108"/>
     <use x="2180.632812" xlink:href="#DejaVuSans-97"/>
     <use x="2241.912109" xlink:href="#DejaVuSans-114"/>
     <use x="2283.025391" xlink:href="#DejaVuSans-105"/>
     <use x="2310.808594" xlink:href="#DejaVuSans-122"/>
     <use x="2363.298828" xlink:href="#DejaVuSans-97"/>
     <use x="2424.578125" xlink:href="#DejaVuSans-116"/>
     <use x="2463.787109" xlink:href="#DejaVuSans-105"/>
     <use x="2491.570312" xlink:href="#DejaVuSans-111"/>
     <use x="2552.751953" xlink:href="#DejaVuSans-110"/>
    </g>
   </g>
  </g>
 </g>
 <defs>
  <clipPath id="p111acfa2cb">
   <rect height="217.44" width="334.8" x="55.345313" y="22.318125"/>
  </clipPath>
 </defs>
</svg>
