<?xml version="1.0" encoding="utf-8" standalone="no"?>
<!DOCTYPE svg PUBLIC "-//W3C//DTD SVG 1.1//EN"
  "http://www.w3.org/Graphics/SVG/1.1/DTD/svg11.dtd">
<!-- Created with matplotlib (https://matplotlib.org/) -->
<svg height="425.8985pt" version="1.1" viewBox="0 0 767.8305 425.8985" width="767.8305pt" xmlns="http://www.w3.org/2000/svg" xmlns:xlink="http://www.w3.org/1999/xlink">
 <defs>
  <style type="text/css">
*{stroke-linecap:butt;stroke-linejoin:round;}
  </style>
 </defs>
 <g id="figure_1">
  <g id="patch_1">
   <path d="M 0 425.8985 
L 767.8305 425.8985 
L 767.8305 0 
L 0 0 
z
" style="fill:#ffffff;"/>
  </g>
  <g id="axes_1">
   <g id="patch_2">
    <path d="M 188.61525 361.2435 
L 579.21525 361.2435 
L 579.21525 35.0835 
L 188.61525 35.0835 
z
" style="fill:#ffffff;"/>
   </g>
   <g id="matplotlib.axis_1">
    <g id="xtick_1">
     <g id="line2d_1">
      <defs>
       <path d="M 0 0 
L 0 3.5 
" id="m74394a9723" style="stroke:#000000;stroke-width:0.8;"/>
      </defs>
      <g>
       <use style="stroke:#000000;stroke-width:0.8;" x="510.733432" xlink:href="#m74394a9723" y="361.2435"/>
      </g>
     </g>
     <g id="text_1">
      <!-- $\mathdefault{10^{-1}}$ -->
      <defs>
       <path d="M 12.40625 8.296875 
L 28.515625 8.296875 
L 28.515625 63.921875 
L 10.984375 60.40625 
L 10.984375 69.390625 
L 28.421875 72.90625 
L 38.28125 72.90625 
L 38.28125 8.296875 
L 54.390625 8.296875 
L 54.390625 0 
L 12.40625 0 
z
" id="DejaVuSans-49"/>
       <path d="M 31.78125 66.40625 
Q 24.171875 66.40625 20.328125 58.90625 
Q 16.5 51.421875 16.5 36.375 
Q 16.5 21.390625 20.328125 13.890625 
Q 24.171875 6.390625 31.78125 6.390625 
Q 39.453125 6.390625 43.28125 13.890625 
Q 47.125 21.390625 47.125 36.375 
Q 47.125 51.421875 43.28125 58.90625 
Q 39.453125 66.40625 31.78125 66.40625 
z
M 31.78125 74.21875 
Q 44.046875 74.21875 50.515625 64.515625 
Q 56.984375 54.828125 56.984375 36.375 
Q 56.984375 17.96875 50.515625 8.265625 
Q 44.046875 -1.421875 31.78125 -1.421875 
Q 19.53125 -1.421875 13.0625 8.265625 
Q 6.59375 17.96875 6.59375 36.375 
Q 6.59375 54.828125 13.0625 64.515625 
Q 19.53125 74.21875 31.78125 74.21875 
z
" id="DejaVuSans-48"/>
       <path d="M 10.59375 35.5 
L 73.1875 35.5 
L 73.1875 27.203125 
L 10.59375 27.203125 
z
" id="DejaVuSans-8722"/>
      </defs>
      <g transform="translate(482.533432 386.47975)scale(0.24 -0.24)">
       <use transform="translate(0 0.684375)" xlink:href="#DejaVuSans-49"/>
       <use transform="translate(63.623047 0.684375)" xlink:href="#DejaVuSans-48"/>
       <use transform="translate(128.203125 38.965625)scale(0.7)" xlink:href="#DejaVuSans-8722"/>
       <use transform="translate(186.855469 38.965625)scale(0.7)" xlink:href="#DejaVuSans-49"/>
      </g>
     </g>
    </g>
    <g id="xtick_2">
     <g id="line2d_2">
      <g>
       <use style="stroke:#000000;stroke-width:0.8;" x="409.278886" xlink:href="#m74394a9723" y="361.2435"/>
      </g>
     </g>
     <g id="text_2">
      <!-- $\mathdefault{10^{1}}$ -->
      <g transform="translate(388.158886 386.47975)scale(0.24 -0.24)">
       <use transform="translate(0 0.684375)" xlink:href="#DejaVuSans-49"/>
       <use transform="translate(63.623047 0.684375)" xlink:href="#DejaVuSans-48"/>
       <use transform="translate(128.203125 38.965625)scale(0.7)" xlink:href="#DejaVuSans-49"/>
      </g>
     </g>
    </g>
    <g id="xtick_3">
     <g id="line2d_3">
      <g>
       <use style="stroke:#000000;stroke-width:0.8;" x="307.824341" xlink:href="#m74394a9723" y="361.2435"/>
      </g>
     </g>
     <g id="text_3">
      <!-- $\mathdefault{10^{3}}$ -->
      <defs>
       <path d="M 40.578125 39.3125 
Q 47.65625 37.796875 51.625 33 
Q 55.609375 28.21875 55.609375 21.1875 
Q 55.609375 10.40625 48.1875 4.484375 
Q 40.765625 -1.421875 27.09375 -1.421875 
Q 22.515625 -1.421875 17.65625 -0.515625 
Q 12.796875 0.390625 7.625 2.203125 
L 7.625 11.71875 
Q 11.71875 9.328125 16.59375 8.109375 
Q 21.484375 6.890625 26.8125 6.890625 
Q 36.078125 6.890625 40.9375 10.546875 
Q 45.796875 14.203125 45.796875 21.1875 
Q 45.796875 27.640625 41.28125 31.265625 
Q 36.765625 34.90625 28.71875 34.90625 
L 20.21875 34.90625 
L 20.21875 43.015625 
L 29.109375 43.015625 
Q 36.375 43.015625 40.234375 45.921875 
Q 44.09375 48.828125 44.09375 54.296875 
Q 44.09375 59.90625 40.109375 62.90625 
Q 36.140625 65.921875 28.71875 65.921875 
Q 24.65625 65.921875 20.015625 65.03125 
Q 15.375 64.15625 9.8125 62.3125 
L 9.8125 71.09375 
Q 15.4375 72.65625 20.34375 73.4375 
Q 25.25 74.21875 29.59375 74.21875 
Q 40.828125 74.21875 47.359375 69.109375 
Q 53.90625 64.015625 53.90625 55.328125 
Q 53.90625 49.265625 50.4375 45.09375 
Q 46.96875 40.921875 40.578125 39.3125 
z
" id="DejaVuSans-51"/>
      </defs>
      <g transform="translate(286.704341 386.47975)scale(0.24 -0.24)">
       <use transform="translate(0 0.765625)" xlink:href="#DejaVuSans-49"/>
       <use transform="translate(63.623047 0.765625)" xlink:href="#DejaVuSans-48"/>
       <use transform="translate(128.203125 39.046875)scale(0.7)" xlink:href="#DejaVuSans-51"/>
      </g>
     </g>
    </g>
    <g id="xtick_4">
     <g id="line2d_4">
      <g>
       <use style="stroke:#000000;stroke-width:0.8;" x="206.369795" xlink:href="#m74394a9723" y="361.2435"/>
      </g>
     </g>
     <g id="text_4">
      <!-- $\mathdefault{10^{5}}$ -->
      <defs>
       <path d="M 10.796875 72.90625 
L 49.515625 72.90625 
L 49.515625 64.59375 
L 19.828125 64.59375 
L 19.828125 46.734375 
Q 21.96875 47.46875 24.109375 47.828125 
Q 26.265625 48.1875 28.421875 48.1875 
Q 40.625 48.1875 47.75 41.5 
Q 54.890625 34.8125 54.890625 23.390625 
Q 54.890625 11.625 47.5625 5.09375 
Q 40.234375 -1.421875 26.90625 -1.421875 
Q 22.3125 -1.421875 17.546875 -0.640625 
Q 12.796875 0.140625 7.71875 1.703125 
L 7.71875 11.625 
Q 12.109375 9.234375 16.796875 8.0625 
Q 21.484375 6.890625 26.703125 6.890625 
Q 35.15625 6.890625 40.078125 11.328125 
Q 45.015625 15.765625 45.015625 23.390625 
Q 45.015625 31 40.078125 35.4375 
Q 35.15625 39.890625 26.703125 39.890625 
Q 22.75 39.890625 18.8125 39.015625 
Q 14.890625 38.140625 10.796875 36.28125 
z
" id="DejaVuSans-53"/>
      </defs>
      <g transform="translate(185.249795 386.47975)scale(0.24 -0.24)">
       <use transform="translate(0 0.684375)" xlink:href="#DejaVuSans-49"/>
       <use transform="translate(63.623047 0.684375)" xlink:href="#DejaVuSans-48"/>
       <use transform="translate(128.203125 38.965625)scale(0.7)" xlink:href="#DejaVuSans-53"/>
      </g>
     </g>
    </g>
    <g id="text_5">
     <!-- alpha -->
     <defs>
      <path d="M 34.28125 27.484375 
Q 23.390625 27.484375 19.1875 25 
Q 14.984375 22.515625 14.984375 16.5 
Q 14.984375 11.71875 18.140625 8.90625 
Q 21.296875 6.109375 26.703125 6.109375 
Q 34.1875 6.109375 38.703125 11.40625 
Q 43.21875 16.703125 43.21875 25.484375 
L 43.21875 27.484375 
z
M 52.203125 31.203125 
L 52.203125 0 
L 43.21875 0 
L 43.21875 8.296875 
Q 40.140625 3.328125 35.546875 0.953125 
Q 30.953125 -1.421875 24.3125 -1.421875 
Q 15.921875 -1.421875 10.953125 3.296875 
Q 6 8.015625 6 15.921875 
Q 6 25.140625 12.171875 29.828125 
Q 18.359375 34.515625 30.609375 34.515625 
L 43.21875 34.515625 
L 43.21875 35.40625 
Q 43.21875 41.609375 39.140625 45 
Q 35.0625 48.390625 27.6875 48.390625 
Q 23 48.390625 18.546875 47.265625 
Q 14.109375 46.140625 10.015625 43.890625 
L 10.015625 52.203125 
Q 14.9375 54.109375 19.578125 55.046875 
Q 24.21875 56 28.609375 56 
Q 40.484375 56 46.34375 49.84375 
Q 52.203125 43.703125 52.203125 31.203125 
z
" id="DejaVuSans-97"/>
      <path d="M 9.421875 75.984375 
L 18.40625 75.984375 
L 18.40625 0 
L 9.421875 0 
z
" id="DejaVuSans-108"/>
      <path d="M 18.109375 8.203125 
L 18.109375 -20.796875 
L 9.078125 -20.796875 
L 9.078125 54.6875 
L 18.109375 54.6875 
L 18.109375 46.390625 
Q 20.953125 51.265625 25.265625 53.625 
Q 29.59375 56 35.59375 56 
Q 45.5625 56 51.78125 48.09375 
Q 58.015625 40.1875 58.015625 27.296875 
Q 58.015625 14.40625 51.78125 6.484375 
Q 45.5625 -1.421875 35.59375 -1.421875 
Q 29.59375 -1.421875 25.265625 0.953125 
Q 20.953125 3.328125 18.109375 8.203125 
z
M 48.6875 27.296875 
Q 48.6875 37.203125 44.609375 42.84375 
Q 40.53125 48.484375 33.40625 48.484375 
Q 26.265625 48.484375 22.1875 42.84375 
Q 18.109375 37.203125 18.109375 27.296875 
Q 18.109375 17.390625 22.1875 11.75 
Q 26.265625 6.109375 33.40625 6.109375 
Q 40.53125 6.109375 44.609375 11.75 
Q 48.6875 17.390625 48.6875 27.296875 
z
" id="DejaVuSans-112"/>
      <path d="M 54.890625 33.015625 
L 54.890625 0 
L 45.90625 0 
L 45.90625 32.71875 
Q 45.90625 40.484375 42.875 44.328125 
Q 39.84375 48.1875 33.796875 48.1875 
Q 26.515625 48.1875 22.3125 43.546875 
Q 18.109375 38.921875 18.109375 30.90625 
L 18.109375 0 
L 9.078125 0 
L 9.078125 75.984375 
L 18.109375 75.984375 
L 18.109375 46.1875 
Q 21.34375 51.125 25.703125 53.5625 
Q 30.078125 56 35.796875 56 
Q 45.21875 56 50.046875 50.171875 
Q 54.890625 44.34375 54.890625 33.015625 
z
" id="DejaVuSans-104"/>
     </defs>
     <g transform="translate(350.650875 413.70725)scale(0.24 -0.24)">
      <use xlink:href="#DejaVuSans-97"/>
      <use x="61.279297" xlink:href="#DejaVuSans-108"/>
      <use x="89.0625" xlink:href="#DejaVuSans-112"/>
      <use x="152.539062" xlink:href="#DejaVuSans-104"/>
      <use x="215.917969" xlink:href="#DejaVuSans-97"/>
     </g>
    </g>
   </g>
   <g id="matplotlib.axis_2">
    <g id="ytick_1">
     <g id="line2d_5">
      <defs>
       <path d="M 0 0 
L -3.5 0 
" id="mc401675892" style="stroke:#000000;stroke-width:0.8;"/>
      </defs>
      <g>
       <use style="stroke:#000000;stroke-width:0.8;" x="188.61525" xlink:href="#mc401675892" y="350.456453"/>
      </g>
     </g>
     <g id="text_6">
      <!-- −400 -->
      <defs>
       <path d="M 37.796875 64.3125 
L 12.890625 25.390625 
L 37.796875 25.390625 
z
M 35.203125 72.90625 
L 47.609375 72.90625 
L 47.609375 25.390625 
L 58.015625 25.390625 
L 58.015625 17.1875 
L 47.609375 17.1875 
L 47.609375 0 
L 37.796875 0 
L 37.796875 17.1875 
L 4.890625 17.1875 
L 4.890625 26.703125 
z
" id="DejaVuSans-52"/>
      </defs>
      <g transform="translate(115.694 359.574578)scale(0.24 -0.24)">
       <use xlink:href="#DejaVuSans-8722"/>
       <use x="83.789062" xlink:href="#DejaVuSans-52"/>
       <use x="147.412109" xlink:href="#DejaVuSans-48"/>
       <use x="211.035156" xlink:href="#DejaVuSans-48"/>
      </g>
     </g>
    </g>
    <g id="ytick_2">
     <g id="line2d_6">
      <g>
       <use style="stroke:#000000;stroke-width:0.8;" x="188.61525" xlink:href="#mc401675892" y="282.104106"/>
      </g>
     </g>
     <g id="text_7">
      <!-- −200 -->
      <defs>
       <path d="M 19.1875 8.296875 
L 53.609375 8.296875 
L 53.609375 0 
L 7.328125 0 
L 7.328125 8.296875 
Q 12.9375 14.109375 22.625 23.890625 
Q 32.328125 33.6875 34.8125 36.53125 
Q 39.546875 41.84375 41.421875 45.53125 
Q 43.3125 49.21875 43.3125 52.78125 
Q 43.3125 58.59375 39.234375 62.25 
Q 35.15625 65.921875 28.609375 65.921875 
Q 23.96875 65.921875 18.8125 64.3125 
Q 13.671875 62.703125 7.8125 59.421875 
L 7.8125 69.390625 
Q 13.765625 71.78125 18.9375 73 
Q 24.125 74.21875 28.421875 74.21875 
Q 39.75 74.21875 46.484375 68.546875 
Q 53.21875 62.890625 53.21875 53.421875 
Q 53.21875 48.921875 51.53125 44.890625 
Q 49.859375 40.875 45.40625 35.40625 
Q 44.1875 33.984375 37.640625 27.21875 
Q 31.109375 20.453125 19.1875 8.296875 
z
" id="DejaVuSans-50"/>
      </defs>
      <g transform="translate(115.694 291.222231)scale(0.24 -0.24)">
       <use xlink:href="#DejaVuSans-8722"/>
       <use x="83.789062" xlink:href="#DejaVuSans-50"/>
       <use x="147.412109" xlink:href="#DejaVuSans-48"/>
       <use x="211.035156" xlink:href="#DejaVuSans-48"/>
      </g>
     </g>
    </g>
    <g id="ytick_3">
     <g id="line2d_7">
      <g>
       <use style="stroke:#000000;stroke-width:0.8;" x="188.61525" xlink:href="#mc401675892" y="213.751759"/>
      </g>
     </g>
     <g id="text_8">
      <!-- 0 -->
      <g transform="translate(166.34525 222.869884)scale(0.24 -0.24)">
       <use xlink:href="#DejaVuSans-48"/>
      </g>
     </g>
    </g>
    <g id="ytick_4">
     <g id="line2d_8">
      <g>
       <use style="stroke:#000000;stroke-width:0.8;" x="188.61525" xlink:href="#mc401675892" y="145.399413"/>
      </g>
     </g>
     <g id="text_9">
      <!-- 200 -->
      <g transform="translate(135.80525 154.517538)scale(0.24 -0.24)">
       <use xlink:href="#DejaVuSans-50"/>
       <use x="63.623047" xlink:href="#DejaVuSans-48"/>
       <use x="127.246094" xlink:href="#DejaVuSans-48"/>
      </g>
     </g>
    </g>
    <g id="ytick_5">
     <g id="line2d_9">
      <g>
       <use style="stroke:#000000;stroke-width:0.8;" x="188.61525" xlink:href="#mc401675892" y="77.047066"/>
      </g>
     </g>
     <g id="text_10">
      <!-- 400 -->
      <g transform="translate(135.80525 86.165191)scale(0.24 -0.24)">
       <use xlink:href="#DejaVuSans-52"/>
       <use x="63.623047" xlink:href="#DejaVuSans-48"/>
       <use x="127.246094" xlink:href="#DejaVuSans-48"/>
      </g>
     </g>
    </g>
    <g id="text_11">
     <!-- weights -->
     <defs>
      <path d="M 4.203125 54.6875 
L 13.1875 54.6875 
L 24.421875 12.015625 
L 35.59375 54.6875 
L 46.1875 54.6875 
L 57.421875 12.015625 
L 68.609375 54.6875 
L 77.59375 54.6875 
L 63.28125 0 
L 52.6875 0 
L 40.921875 44.828125 
L 29.109375 0 
L 18.5 0 
z
" id="DejaVuSans-119"/>
      <path d="M 56.203125 29.59375 
L 56.203125 25.203125 
L 14.890625 25.203125 
Q 15.484375 15.921875 20.484375 11.0625 
Q 25.484375 6.203125 34.421875 6.203125 
Q 39.59375 6.203125 44.453125 7.46875 
Q 49.3125 8.734375 54.109375 11.28125 
L 54.109375 2.78125 
Q 49.265625 0.734375 44.1875 -0.34375 
Q 39.109375 -1.421875 33.890625 -1.421875 
Q 20.796875 -1.421875 13.15625 6.1875 
Q 5.515625 13.8125 5.515625 26.8125 
Q 5.515625 40.234375 12.765625 48.109375 
Q 20.015625 56 32.328125 56 
Q 43.359375 56 49.78125 48.890625 
Q 56.203125 41.796875 56.203125 29.59375 
z
M 47.21875 32.234375 
Q 47.125 39.59375 43.09375 43.984375 
Q 39.0625 48.390625 32.421875 48.390625 
Q 24.90625 48.390625 20.390625 44.140625 
Q 15.875 39.890625 15.1875 32.171875 
z
" id="DejaVuSans-101"/>
      <path d="M 9.421875 54.6875 
L 18.40625 54.6875 
L 18.40625 0 
L 9.421875 0 
z
M 9.421875 75.984375 
L 18.40625 75.984375 
L 18.40625 64.59375 
L 9.421875 64.59375 
z
" id="DejaVuSans-105"/>
      <path d="M 45.40625 27.984375 
Q 45.40625 37.75 41.375 43.109375 
Q 37.359375 48.484375 30.078125 48.484375 
Q 22.859375 48.484375 18.828125 43.109375 
Q 14.796875 37.75 14.796875 27.984375 
Q 14.796875 18.265625 18.828125 12.890625 
Q 22.859375 7.515625 30.078125 7.515625 
Q 37.359375 7.515625 41.375 12.890625 
Q 45.40625 18.265625 45.40625 27.984375 
z
M 54.390625 6.78125 
Q 54.390625 -7.171875 48.1875 -13.984375 
Q 42 -20.796875 29.203125 -20.796875 
Q 24.46875 -20.796875 20.265625 -20.09375 
Q 16.0625 -19.390625 12.109375 -17.921875 
L 12.109375 -9.1875 
Q 16.0625 -11.328125 19.921875 -12.34375 
Q 23.78125 -13.375 27.78125 -13.375 
Q 36.625 -13.375 41.015625 -8.765625 
Q 45.40625 -4.15625 45.40625 5.171875 
L 45.40625 9.625 
Q 42.625 4.78125 38.28125 2.390625 
Q 33.9375 0 27.875 0 
Q 17.828125 0 11.671875 7.65625 
Q 5.515625 15.328125 5.515625 27.984375 
Q 5.515625 40.671875 11.671875 48.328125 
Q 17.828125 56 27.875 56 
Q 33.9375 56 38.28125 53.609375 
Q 42.625 51.21875 45.40625 46.390625 
L 45.40625 54.6875 
L 54.390625 54.6875 
z
" id="DejaVuSans-103"/>
      <path d="M 18.3125 70.21875 
L 18.3125 54.6875 
L 36.8125 54.6875 
L 36.8125 47.703125 
L 18.3125 47.703125 
L 18.3125 18.015625 
Q 18.3125 11.328125 20.140625 9.421875 
Q 21.96875 7.515625 27.59375 7.515625 
L 36.8125 7.515625 
L 36.8125 0 
L 27.59375 0 
Q 17.1875 0 13.234375 3.875 
Q 9.28125 7.765625 9.28125 18.015625 
L 9.28125 47.703125 
L 2.6875 47.703125 
L 2.6875 54.6875 
L 9.28125 54.6875 
L 9.28125 70.21875 
z
" id="DejaVuSans-116"/>
      <path d="M 44.28125 53.078125 
L 44.28125 44.578125 
Q 40.484375 46.53125 36.375 47.5 
Q 32.28125 48.484375 27.875 48.484375 
Q 21.1875 48.484375 17.84375 46.4375 
Q 14.5 44.390625 14.5 40.28125 
Q 14.5 37.15625 16.890625 35.375 
Q 19.28125 33.59375 26.515625 31.984375 
L 29.59375 31.296875 
Q 39.15625 29.25 43.1875 25.515625 
Q 47.21875 21.78125 47.21875 15.09375 
Q 47.21875 7.46875 41.1875 3.015625 
Q 35.15625 -1.421875 24.609375 -1.421875 
Q 20.21875 -1.421875 15.453125 -0.5625 
Q 10.6875 0.296875 5.421875 2 
L 5.421875 11.28125 
Q 10.40625 8.6875 15.234375 7.390625 
Q 20.0625 6.109375 24.8125 6.109375 
Q 31.15625 6.109375 34.5625 8.28125 
Q 37.984375 10.453125 37.984375 14.40625 
Q 37.984375 18.0625 35.515625 20.015625 
Q 33.0625 21.96875 24.703125 23.78125 
L 21.578125 24.515625 
Q 13.234375 26.265625 9.515625 29.90625 
Q 5.8125 33.546875 5.8125 39.890625 
Q 5.8125 47.609375 11.28125 51.796875 
Q 16.75 56 26.8125 56 
Q 31.78125 56 36.171875 55.265625 
Q 40.578125 54.546875 44.28125 53.078125 
z
" id="DejaVuSans-115"/>
     </defs>
     <g transform="translate(106.70275 244.8735)rotate(-90)scale(0.24 -0.24)">
      <use xlink:href="#DejaVuSans-119"/>
      <use x="81.787109" xlink:href="#DejaVuSans-101"/>
      <use x="143.310547" xlink:href="#DejaVuSans-105"/>
      <use x="171.09375" xlink:href="#DejaVuSans-103"/>
      <use x="234.570312" xlink:href="#DejaVuSans-104"/>
      <use x="297.949219" xlink:href="#DejaVuSans-116"/>
      <use x="337.158203" xlink:href="#DejaVuSans-115"/>
     </g>
    </g>
   </g>
   <g id="line2d_10">
    <path clip-path="url(#pd6620770f5)" d="M 206.369795 213.751759 
L 411.823733 213.751759 
L 413.011328 217.594959 
L 416.574113 231.879001 
L 418.949303 241.145939 
L 423.699683 257.921646 
L 426.074873 265.26017 
L 428.450063 271.848661 
L 430.825253 277.763777 
L 433.200443 283.074339 
L 435.575633 287.842136 
L 437.950823 292.122641 
L 440.326013 295.965658 
L 443.888798 301.101271 
L 445.076393 302.549759 
L 447.451583 304.31483 
L 449.826773 305.762873 
L 453.389558 307.588312 
L 456.952343 309.141176 
L 460.515128 310.462166 
L 464.077913 311.585904 
L 466.453103 312.193101 
L 471.203484 312.942158 
L 475.953864 313.961132 
L 477.141459 314.183354 
L 479.516649 314.140099 
L 491.392599 313.753506 
L 506.831334 313.487701 
L 531.770829 313.317643 
L 561.460705 313.257762 
L 561.460705 313.257762 
" style="fill:none;stroke:#1f77b4;stroke-linecap:square;stroke-width:1.5;"/>
   </g>
   <g id="line2d_11">
    <path clip-path="url(#pd6620770f5)" d="M 206.369795 213.751759 
L 345.318412 213.751759 
L 346.506007 211.615932 
L 347.693602 209.10269 
L 348.881197 207.242418 
L 351.256387 204.063381 
L 353.631577 201.209257 
L 356.006767 198.646838 
L 358.381957 196.37514 
L 361.944742 194.158281 
L 365.507527 192.272444 
L 369.070312 190.668202 
L 372.633097 189.303507 
L 376.195882 188.142588 
L 380.946262 186.85976 
L 383.321452 186.404982 
L 389.259428 185.562362 
L 396.384998 184.809651 
L 404.698163 184.024968 
L 411.823733 183.020613 
L 413.011328 179.387434 
L 415.386518 171.032108 
L 417.761708 164.014314 
L 420.136898 157.818213 
L 422.512088 152.011912 
L 424.887278 146.765151 
L 427.262468 142.054635 
L 429.637658 137.825556 
L 432.012848 134.02871 
L 434.388038 130.619919 
L 436.763228 127.559524 
L 439.138418 124.811916 
L 441.513608 122.345127 
L 443.888798 120.163843 
L 445.076393 119.267301 
L 447.451583 118.348596 
L 448.639178 117.637387 
L 451.014368 115.624958 
L 453.389558 113.818209 
L 456.952343 111.448345 
L 460.515128 109.43235 
L 464.077913 107.717385 
L 467.640698 106.110421 
L 475.953864 101.99818 
L 477.141459 101.49994 
L 479.516649 101.185356 
L 487.829814 100.546482 
L 497.330574 100.05827 
L 503.268549 99.712467 
L 512.769309 99.21565 
L 524.645259 98.831687 
L 541.271589 98.546918 
L 561.460705 98.395292 
L 561.460705 98.395292 
" style="fill:none;stroke:#ff7f0e;stroke-linecap:square;stroke-width:1.5;"/>
   </g>
   <g id="line2d_12">
    <path clip-path="url(#pd6620770f5)" d="M 206.369795 213.751759 
L 442.701203 213.70747 
L 447.451583 212.978151 
L 449.826773 212.35363 
L 454.577153 211.093204 
L 459.327533 210.077256 
L 464.077913 209.258364 
L 466.453103 208.919971 
L 470.015888 207.607235 
L 474.766269 206.611301 
L 484.267029 204.956175 
L 490.205004 204.187912 
L 497.330574 203.501623 
L 504.456144 202.828815 
L 512.769309 202.195756 
L 522.270069 201.711987 
L 534.146019 201.338109 
L 550.772349 201.060818 
L 561.460705 200.966236 
L 561.460705 200.966236 
" style="fill:none;stroke:#2ca02c;stroke-linecap:square;stroke-width:1.5;"/>
   </g>
   <g id="line2d_13">
    <path clip-path="url(#pd6620770f5)" d="M 206.369795 213.751759 
L 447.451583 213.751759 
L 448.639178 214.230286 
L 451.014368 216.277689 
L 453.389558 218.115838 
L 456.952343 220.526889 
L 460.515128 222.57792 
L 464.077913 224.32269 
L 472.391079 227.976509 
L 475.953864 229.202448 
L 477.141459 229.568974 
L 480.704244 230.189949 
L 486.642219 230.981182 
L 493.767789 231.687989 
L 513.956904 233.236492 
L 524.645259 233.704163 
L 537.708804 234.039183 
L 556.710324 234.278393 
L 561.460705 234.312283 
L 561.460705 234.312283 
" style="fill:none;stroke:#d62728;stroke-linecap:square;stroke-width:1.5;"/>
   </g>
   <g id="line2d_14">
    <path clip-path="url(#pd6620770f5)" d="M 206.369795 213.751759 
L 466.453103 213.751759 
L 470.015888 215.19142 
L 474.766269 216.419725 
L 483.079434 218.188341 
L 489.017409 219.147586 
L 494.955384 219.880196 
L 509.206524 221.266053 
L 517.519689 221.804033 
L 528.208044 222.255158 
L 542.459184 222.59928 
L 561.460705 222.817917 
L 561.460705 222.817917 
" style="fill:none;stroke:#9467bd;stroke-linecap:square;stroke-width:1.5;"/>
   </g>
   <g id="line2d_15">
    <path clip-path="url(#pd6620770f5)" d="M 206.369795 213.751759 
L 347.693602 213.751759 
L 348.881197 212.784264 
L 351.256387 210.527783 
L 353.631577 208.501926 
L 356.006767 206.683121 
L 358.381957 205.073805 
L 361.944742 203.587347 
L 365.507527 202.322848 
L 370.257907 200.925562 
L 375.008287 199.799299 
L 379.758667 198.89149 
L 383.321452 198.373818 
L 390.447023 197.657764 
L 398.760188 197.068377 
L 405.885758 196.771754 
L 411.823733 196.664354 
L 415.386518 195.747322 
L 416.574113 194.78688 
L 418.949303 192.254915 
L 422.512088 188.812758 
L 424.887278 186.753482 
L 427.262468 184.904674 
L 430.825253 182.479642 
L 434.388038 180.416718 
L 437.950823 178.66183 
L 441.513608 177.168984 
L 445.076393 175.941659 
L 448.639178 175.351392 
L 453.389558 173.973919 
L 458.139938 172.863625 
L 462.890318 171.968689 
L 477.141459 169.674138 
L 483.079434 169.21797 
L 492.580194 168.714146 
L 508.018929 168.182669 
L 523.457664 167.88341 
L 546.021969 167.694504 
L 561.460705 167.641184 
L 561.460705 167.641184 
" style="fill:none;stroke:#8c564b;stroke-linecap:square;stroke-width:1.5;"/>
   </g>
   <g id="line2d_16">
    <path clip-path="url(#pd6620770f5)" d="M 206.369795 213.751759 
L 413.011328 213.787727 
L 415.386518 216.880594 
L 416.574113 218.01868 
L 418.949303 219.796645 
L 422.512088 222.181088 
L 426.074873 224.244253 
L 429.637658 225.999345 
L 433.200443 227.492365 
L 436.763228 228.762446 
L 441.513608 230.165901 
L 443.888798 230.771985 
L 445.076393 230.878762 
L 448.639178 229.317952 
L 452.201963 227.978857 
L 455.764748 226.839717 
L 460.515128 225.580954 
L 465.265508 224.572611 
L 472.391079 223.411867 
L 491.392599 221.208442 
L 499.705764 220.626618 
L 510.394119 220.176981 
L 524.645259 219.833995 
L 544.834374 219.607726 
L 561.460705 219.527817 
L 561.460705 219.527817 
" style="fill:none;stroke:#e377c2;stroke-linecap:square;stroke-width:1.5;"/>
   </g>
   <g id="line2d_17">
    <path clip-path="url(#pd6620770f5)" d="M 206.369795 213.751759 
L 443.888798 213.751759 
L 445.076393 214.901689 
L 447.451583 225.309358 
L 451.014368 240.224057 
L 453.389558 249.09204 
L 455.764748 257.053671 
L 458.139938 264.201586 
L 460.515128 270.618948 
L 462.890318 276.380426 
L 465.265508 281.523794 
L 470.015888 290.986329 
L 472.391079 293.745391 
L 474.766269 296.222463 
L 477.141459 298.446367 
L 478.329054 300.770027 
L 480.704244 305.796017 
L 483.079434 310.308326 
L 485.454624 314.359455 
L 487.829814 317.99654 
L 490.205004 321.261897 
L 492.580194 324.193518 
L 494.955384 326.825513 
L 497.330574 329.188506 
L 499.705764 331.297165 
L 503.268549 333.700726 
L 506.831334 335.745386 
L 510.394119 337.484736 
L 513.956904 338.964365 
L 517.519689 340.223055 
L 522.270069 341.613922 
L 527.020449 342.735011 
L 531.770829 343.638649 
L 537.708804 344.525859 
L 544.834374 345.318401 
L 553.147539 345.970746 
L 561.460705 346.418045 
L 561.460705 346.418045 
" style="fill:none;stroke:#7f7f7f;stroke-linecap:square;stroke-width:1.5;"/>
   </g>
   <g id="line2d_18">
    <path clip-path="url(#pd6620770f5)" d="M 206.369795 213.751759 
L 477.141459 213.751759 
L 478.329054 212.102778 
L 480.704244 208.122528 
L 483.079434 204.549079 
L 485.454624 201.340854 
L 487.829814 198.460525 
L 490.205004 195.874579 
L 492.580194 193.55293 
L 494.955384 191.468565 
L 497.330574 189.597231 
L 499.705764 187.97227 
L 505.643739 187.063356 
L 511.581714 186.369187 
L 518.707284 185.749087 
L 527.020449 185.238679 
L 537.708804 184.810675 
L 551.959944 184.484191 
L 561.460705 184.358452 
L 561.460705 184.358452 
" style="fill:none;stroke:#bcbd22;stroke-linecap:square;stroke-width:1.5;"/>
   </g>
   <g id="line2d_19">
    <path clip-path="url(#pd6620770f5)" d="M 206.369795 213.751759 
L 411.823733 213.751759 
L 413.011328 213.184611 
L 415.386518 212.715432 
L 416.574113 212.140312 
L 421.324493 209.068036 
L 423.699683 207.150089 
L 427.262468 204.634369 
L 430.825253 202.494298 
L 434.388038 200.673784 
L 437.950823 199.12511 
L 441.513608 197.807686 
L 442.701203 197.458877 
L 443.888798 197.245258 
L 445.076393 197.345747 
L 447.451583 199.726177 
L 449.826773 201.866372 
L 452.201963 203.78896 
L 455.764748 206.310767 
L 459.327533 208.456017 
L 462.890318 210.280937 
L 467.640698 212.511571 
L 470.015888 213.751759 
L 499.705764 213.776117 
L 504.456144 214.711491 
L 510.394119 215.629859 
L 516.332094 216.33125 
L 523.457664 216.957801 
L 531.770829 217.473517 
L 542.459184 217.905974 
L 556.710324 218.235854 
L 561.460705 218.3062 
L 561.460705 218.3062 
" style="fill:none;stroke:#17becf;stroke-linecap:square;stroke-width:1.5;"/>
   </g>
   <g id="line2d_20">
    <path clip-path="url(#pd6620770f5)" d="M 206.369795 213.751759 
L 340.568032 213.751759 
L 341.755627 212.803121 
L 344.130817 208.955185 
L 345.318412 207.18131 
L 346.506007 206.135637 
L 347.693602 205.290398 
L 350.068792 204.139802 
L 353.631577 202.695039 
L 358.381957 201.04166 
L 360.757147 199.281944 
L 364.319932 196.973771 
L 367.882717 195.010256 
L 371.445502 193.339934 
L 375.008287 191.919026 
L 378.571072 190.710289 
L 380.946262 190.006489 
L 382.133857 189.770548 
L 395.197403 189.413427 
L 411.823733 189.05016 
L 413.011328 188.838342 
L 415.386518 186.91604 
L 416.574113 184.172102 
L 418.949303 177.028416 
L 422.512088 167.367015 
L 424.887278 161.609133 
L 427.262468 156.439734 
L 429.637658 151.798673 
L 432.012848 147.631951 
L 434.388038 143.891088 
L 436.763228 140.532559 
L 439.138418 137.517288 
L 441.513608 134.810193 
L 443.888798 132.319459 
L 445.076393 130.507372 
L 452.201963 106.151537 
L 454.577153 99.015412 
L 456.952343 92.608633 
L 459.327533 86.856658 
L 461.702723 81.692562 
L 464.077913 77.056262 
L 466.453103 72.914225 
L 468.828293 69.171958 
L 470.015888 67.452712 
L 472.391079 64.746264 
L 474.766269 62.316428 
L 477.141459 60.134933 
L 478.329054 59.7156 
L 484.267029 58.697287 
L 490.205004 57.919564 
L 497.330574 57.224826 
L 499.705764 57.00896 
L 503.268549 55.880369 
L 508.018929 54.633262 
L 512.769309 53.628049 
L 518.707284 52.641111 
L 524.645259 51.887351 
L 531.770829 51.214019 
L 540.083994 50.659797 
L 550.772349 50.195051 
L 561.460705 49.908955 
L 561.460705 49.908955 
" style="fill:none;stroke:#1f77b4;stroke-linecap:square;stroke-width:1.5;"/>
   </g>
   <g id="line2d_21">
    <path clip-path="url(#pd6620770f5)" d="M 206.369795 213.751759 
L 337.005247 213.751759 
L 338.192842 212.617622 
L 340.568032 203.816608 
L 341.755627 200.656499 
L 344.130817 196.808563 
L 348.881197 189.829846 
L 351.256387 186.801945 
L 353.631577 184.083509 
L 356.006767 181.642911 
L 358.381957 179.504825 
L 361.944742 178.104669 
L 365.507527 176.913586 
L 370.257907 175.597425 
L 375.008287 174.536552 
L 379.758667 173.68145 
L 382.133857 173.234284 
L 385.696643 172.041005 
L 390.447023 170.722418 
L 395.197403 169.659589 
L 399.947783 168.802911 
L 403.510568 168.312047 
L 411.823733 167.759582 
L 413.011328 168.33135 
L 415.386518 167.514401 
L 416.574113 167.467689 
L 420.136898 167.881456 
L 429.637658 170.105409 
L 435.575633 171.104889 
L 441.513608 171.868228 
L 443.888798 172.024761 
L 445.076393 171.473257 
L 447.451583 166.179062 
L 448.639178 163.853756 
L 451.014368 159.843351 
L 453.389558 156.242829 
L 455.764748 153.010298 
L 458.139938 150.108147 
L 460.515128 147.50261 
L 462.890318 145.163372 
L 465.265508 143.065043 
L 466.453103 142.09991 
L 470.015888 138.094409 
L 474.766269 136.950723 
L 479.516649 136.035414 
L 485.454624 135.14577 
L 492.580194 134.351054 
L 499.705764 133.737698 
L 503.268549 132.381901 
L 506.831334 131.228553 
L 511.581714 129.95409 
L 516.332094 128.926827 
L 522.270069 127.91824 
L 528.208044 127.147946 
L 535.333614 126.459844 
L 543.646779 125.893464 
L 554.335134 125.418524 
L 561.460705 125.208339 
L 561.460705 125.208339 
" style="fill:none;stroke:#ff7f0e;stroke-linecap:square;stroke-width:1.5;"/>
   </g>
   <g id="line2d_22">
    <path clip-path="url(#pd6620770f5)" d="M 206.369795 213.751759 
L 415.386518 213.751759 
L 416.574113 216.09579 
L 418.949303 223.046017 
L 423.699683 235.608421 
L 426.074873 241.099883 
L 428.450063 246.03009 
L 430.825253 250.456407 
L 433.200443 254.430333 
L 435.575633 257.998104 
L 437.950823 261.201232 
L 440.326013 264.076984 
L 442.701203 266.657614 
L 445.076393 268.94803 
L 449.826773 272.578188 
L 453.389558 275.012972 
L 456.952343 277.084191 
L 460.515128 278.846135 
L 464.077913 280.344985 
L 472.391079 283.446895 
L 475.953864 284.612611 
L 477.141459 284.961131 
L 479.516649 285.12314 
L 492.580194 285.499675 
L 503.268549 285.814756 
L 513.956904 286.213454 
L 528.208044 286.517584 
L 549.584754 286.725237 
L 561.460705 286.778039 
L 561.460705 286.778039 
" style="fill:none;stroke:#2ca02c;stroke-linecap:square;stroke-width:1.5;"/>
   </g>
   <g id="line2d_23">
    <path clip-path="url(#pd6620770f5)" d="M 206.369795 213.751759 
L 357.194362 213.751759 
L 358.381957 213.615824 
L 360.757147 211.031716 
L 363.132337 208.711717 
L 365.507527 206.628832 
L 367.882717 204.758829 
L 371.445502 202.305996 
L 375.008287 200.219421 
L 378.571072 198.444415 
L 382.133857 196.937262 
L 385.696643 195.676736 
L 390.447023 194.28384 
L 395.197403 193.161116 
L 399.947783 192.25616 
L 405.885758 191.36143 
L 410.636138 190.803061 
L 415.386518 190.3558 
L 421.324493 189.71488 
L 427.262468 188.784554 
L 433.200443 188.074031 
L 440.326013 187.439322 
L 447.451583 187.00752 
L 453.389558 186.902247 
L 479.516649 186.687534 
L 525.832854 186.810178 
L 561.460705 186.829403 
L 561.460705 186.829403 
" style="fill:none;stroke:#d62728;stroke-linecap:square;stroke-width:1.5;"/>
   </g>
   <g id="line2d_24">
    <path clip-path="url(#pd6620770f5)" d="M 206.369795 213.751759 
L 420.136898 213.751759 
L 421.324493 213.139465 
L 424.887278 210.904432 
L 428.450063 209.003136 
L 432.012848 207.385742 
L 435.575633 206.009859 
L 439.138418 204.839424 
L 447.451583 202.290655 
L 451.014368 201.281486 
L 455.764748 200.190418 
L 460.515128 199.310978 
L 466.453103 198.455772 
L 472.391079 197.822848 
L 485.454624 196.764565 
L 494.955384 196.245642 
L 505.643739 195.900856 
L 522.270069 195.629148 
L 548.397159 195.461696 
L 561.460705 195.428753 
L 561.460705 195.428753 
" style="fill:none;stroke:#9467bd;stroke-linecap:square;stroke-width:1.5;"/>
   </g>
   <g id="line2d_25">
    <path clip-path="url(#pd6620770f5)" d="M 206.369795 213.751759 
L 402.322973 213.751759 
L 403.510568 213.923908 
L 408.260948 214.975313 
L 411.823733 215.699084 
L 414.198923 215.539037 
L 416.574113 215.273431 
L 420.136898 214.737255 
L 422.512088 215.264187 
L 427.262468 216.383664 
L 432.012848 217.286002 
L 437.950823 218.171936 
L 446.263988 219.120212 
L 453.389558 219.687024 
L 462.890318 220.198739 
L 473.578674 220.542101 
L 512.769309 221.204679 
L 551.959944 221.305098 
L 561.460705 221.312243 
L 561.460705 221.312243 
" style="fill:none;stroke:#8c564b;stroke-linecap:square;stroke-width:1.5;"/>
   </g>
   <g id="line2d_26">
    <path clip-path="url(#pd6620770f5)" d="M 206.369795 213.751759 
L 409.448543 213.751759 
L 410.636138 213.601712 
L 413.011328 212.122319 
L 417.761708 210.072163 
L 421.324493 208.742672 
L 424.887278 207.618541 
L 429.637658 206.376362 
L 434.388038 205.375122 
L 440.326013 204.392084 
L 445.076393 203.696963 
L 448.639178 202.912284 
L 454.577153 202.088142 
L 461.702723 201.351937 
L 464.077913 201.154899 
L 465.265508 200.85876 
L 468.828293 199.65252 
L 473.578674 198.314044 
L 479.516649 196.945687 
L 484.267029 196.021067 
L 490.205004 195.113257 
L 496.142979 194.419929 
L 502.080954 193.909508 
L 511.581714 193.365891 
L 523.457664 192.945759 
L 538.896399 192.649478 
L 561.460705 192.462452 
L 561.460705 192.462452 
" style="fill:none;stroke:#e377c2;stroke-linecap:square;stroke-width:1.5;"/>
   </g>
   <g id="line2d_27">
    <path clip-path="url(#pd6620770f5)" d="M 206.369795 213.751759 
L 380.946262 213.751759 
L 382.133857 214.53921 
L 384.509048 219.139978 
L 386.884238 223.270526 
L 389.259428 226.978911 
L 391.634618 230.308281 
L 394.009808 233.297374 
L 396.384998 235.980967 
L 398.760188 238.390283 
L 401.135378 240.553356 
L 403.510568 242.487742 
L 407.073353 244.999223 
L 410.636138 247.133007 
L 411.823733 247.757507 
L 414.198923 248.476326 
L 421.324493 250.25468 
L 426.074873 251.107553 
L 432.012848 251.944919 
L 439.138418 252.692937 
L 445.076393 253.126525 
L 451.014368 252.944839 
L 467.640698 252.848377 
L 479.516649 253.134964 
L 494.955384 253.414469 
L 518.707284 253.594125 
L 561.460705 253.673114 
L 561.460705 253.673114 
" style="fill:none;stroke:#7f7f7f;stroke-linecap:square;stroke-width:1.5;"/>
   </g>
   <g id="line2d_28">
    <path clip-path="url(#pd6620770f5)" d="M 206.369795 213.751759 
L 464.077913 213.751759 
L 465.265508 213.991801 
L 470.015888 215.466429 
L 474.766269 216.625869 
L 484.267029 218.570011 
L 490.205004 219.475601 
L 496.142979 220.167232 
L 502.080954 220.675352 
L 511.581714 221.21455 
L 523.457664 221.631268 
L 538.896399 221.925141 
L 561.460705 222.110646 
L 561.460705 222.110646 
" style="fill:none;stroke:#bcbd22;stroke-linecap:square;stroke-width:1.5;"/>
   </g>
   <g id="patch_3">
    <path d="M 188.61525 361.2435 
L 188.61525 35.0835 
" style="fill:none;stroke:#000000;stroke-linecap:square;stroke-linejoin:miter;stroke-width:0.8;"/>
   </g>
   <g id="patch_4">
    <path d="M 579.21525 361.2435 
L 579.21525 35.0835 
" style="fill:none;stroke:#000000;stroke-linecap:square;stroke-linejoin:miter;stroke-width:0.8;"/>
   </g>
   <g id="patch_5">
    <path d="M 188.61525 361.2435 
L 579.21525 361.2435 
" style="fill:none;stroke:#000000;stroke-linecap:square;stroke-linejoin:miter;stroke-width:0.8;"/>
   </g>
   <g id="patch_6">
    <path d="M 188.61525 35.0835 
L 579.21525 35.0835 
" style="fill:none;stroke:#000000;stroke-linecap:square;stroke-linejoin:miter;stroke-width:0.8;"/>
   </g>
   <g id="text_12">
    <!-- Lasso coefficients as a function of the regularization -->
    <defs>
     <path d="M 9.8125 72.90625 
L 19.671875 72.90625 
L 19.671875 8.296875 
L 55.171875 8.296875 
L 55.171875 0 
L 9.8125 0 
z
" id="DejaVuSans-76"/>
     <path d="M 30.609375 48.390625 
Q 23.390625 48.390625 19.1875 42.75 
Q 14.984375 37.109375 14.984375 27.296875 
Q 14.984375 17.484375 19.15625 11.84375 
Q 23.34375 6.203125 30.609375 6.203125 
Q 37.796875 6.203125 41.984375 11.859375 
Q 46.1875 17.53125 46.1875 27.296875 
Q 46.1875 37.015625 41.984375 42.703125 
Q 37.796875 48.390625 30.609375 48.390625 
z
M 30.609375 56 
Q 42.328125 56 49.015625 48.375 
Q 55.71875 40.765625 55.71875 27.296875 
Q 55.71875 13.875 49.015625 6.21875 
Q 42.328125 -1.421875 30.609375 -1.421875 
Q 18.84375 -1.421875 12.171875 6.21875 
Q 5.515625 13.875 5.515625 27.296875 
Q 5.515625 40.765625 12.171875 48.375 
Q 18.84375 56 30.609375 56 
z
" id="DejaVuSans-111"/>
     <path id="DejaVuSans-32"/>
     <path d="M 48.78125 52.59375 
L 48.78125 44.1875 
Q 44.96875 46.296875 41.140625 47.34375 
Q 37.3125 48.390625 33.40625 48.390625 
Q 24.65625 48.390625 19.8125 42.84375 
Q 14.984375 37.3125 14.984375 27.296875 
Q 14.984375 17.28125 19.8125 11.734375 
Q 24.65625 6.203125 33.40625 6.203125 
Q 37.3125 6.203125 41.140625 7.25 
Q 44.96875 8.296875 48.78125 10.40625 
L 48.78125 2.09375 
Q 45.015625 0.34375 40.984375 -0.53125 
Q 36.96875 -1.421875 32.421875 -1.421875 
Q 20.0625 -1.421875 12.78125 6.34375 
Q 5.515625 14.109375 5.515625 27.296875 
Q 5.515625 40.671875 12.859375 48.328125 
Q 20.21875 56 33.015625 56 
Q 37.15625 56 41.109375 55.140625 
Q 45.0625 54.296875 48.78125 52.59375 
z
" id="DejaVuSans-99"/>
     <path d="M 37.109375 75.984375 
L 37.109375 68.5 
L 28.515625 68.5 
Q 23.6875 68.5 21.796875 66.546875 
Q 19.921875 64.59375 19.921875 59.515625 
L 19.921875 54.6875 
L 34.71875 54.6875 
L 34.71875 47.703125 
L 19.921875 47.703125 
L 19.921875 0 
L 10.890625 0 
L 10.890625 47.703125 
L 2.296875 47.703125 
L 2.296875 54.6875 
L 10.890625 54.6875 
L 10.890625 58.5 
Q 10.890625 67.625 15.140625 71.796875 
Q 19.390625 75.984375 28.609375 75.984375 
z
" id="DejaVuSans-102"/>
     <path d="M 54.890625 33.015625 
L 54.890625 0 
L 45.90625 0 
L 45.90625 32.71875 
Q 45.90625 40.484375 42.875 44.328125 
Q 39.84375 48.1875 33.796875 48.1875 
Q 26.515625 48.1875 22.3125 43.546875 
Q 18.109375 38.921875 18.109375 30.90625 
L 18.109375 0 
L 9.078125 0 
L 9.078125 54.6875 
L 18.109375 54.6875 
L 18.109375 46.1875 
Q 21.34375 51.125 25.703125 53.5625 
Q 30.078125 56 35.796875 56 
Q 45.21875 56 50.046875 50.171875 
Q 54.890625 44.34375 54.890625 33.015625 
z
" id="DejaVuSans-110"/>
     <path d="M 8.5 21.578125 
L 8.5 54.6875 
L 17.484375 54.6875 
L 17.484375 21.921875 
Q 17.484375 14.15625 20.5 10.265625 
Q 23.53125 6.390625 29.59375 6.390625 
Q 36.859375 6.390625 41.078125 11.03125 
Q 45.3125 15.671875 45.3125 23.6875 
L 45.3125 54.6875 
L 54.296875 54.6875 
L 54.296875 0 
L 45.3125 0 
L 45.3125 8.40625 
Q 42.046875 3.421875 37.71875 1 
Q 33.40625 -1.421875 27.6875 -1.421875 
Q 18.265625 -1.421875 13.375 4.4375 
Q 8.5 10.296875 8.5 21.578125 
z
M 31.109375 56 
z
" id="DejaVuSans-117"/>
     <path d="M 41.109375 46.296875 
Q 39.59375 47.171875 37.8125 47.578125 
Q 36.03125 48 33.890625 48 
Q 26.265625 48 22.1875 43.046875 
Q 18.109375 38.09375 18.109375 28.8125 
L 18.109375 0 
L 9.078125 0 
L 9.078125 54.6875 
L 18.109375 54.6875 
L 18.109375 46.1875 
Q 20.953125 51.171875 25.484375 53.578125 
Q 30.03125 56 36.53125 56 
Q 37.453125 56 38.578125 55.875 
Q 39.703125 55.765625 41.0625 55.515625 
z
" id="DejaVuSans-114"/>
     <path d="M 5.515625 54.6875 
L 48.1875 54.6875 
L 48.1875 46.484375 
L 14.40625 7.171875 
L 48.1875 7.171875 
L 48.1875 0 
L 4.296875 0 
L 4.296875 8.203125 
L 38.09375 47.515625 
L 5.515625 47.515625 
z
" id="DejaVuSans-122"/>
    </defs>
    <g transform="translate(7.2 29.0835)scale(0.288 -0.288)">
     <use xlink:href="#DejaVuSans-76"/>
     <use x="55.712891" xlink:href="#DejaVuSans-97"/>
     <use x="116.992188" xlink:href="#DejaVuSans-115"/>
     <use x="169.091797" xlink:href="#DejaVuSans-115"/>
     <use x="221.191406" xlink:href="#DejaVuSans-111"/>
     <use x="282.373047" xlink:href="#DejaVuSans-32"/>
     <use x="314.160156" xlink:href="#DejaVuSans-99"/>
     <use x="369.140625" xlink:href="#DejaVuSans-111"/>
     <use x="430.322266" xlink:href="#DejaVuSans-101"/>
     <use x="491.845703" xlink:href="#DejaVuSans-102"/>
     <use x="527.050781" xlink:href="#DejaVuSans-102"/>
     <use x="562.255859" xlink:href="#DejaVuSans-105"/>
     <use x="590.039062" xlink:href="#DejaVuSans-99"/>
     <use x="645.019531" xlink:href="#DejaVuSans-105"/>
     <use x="672.802734" xlink:href="#DejaVuSans-101"/>
     <use x="734.326172" xlink:href="#DejaVuSans-110"/>
     <use x="797.705078" xlink:href="#DejaVuSans-116"/>
     <use x="836.914062" xlink:href="#DejaVuSans-115"/>
     <use x="889.013672" xlink:href="#DejaVuSans-32"/>
     <use x="920.800781" xlink:href="#DejaVuSans-97"/>
     <use x="982.080078" xlink:href="#DejaVuSans-115"/>
     <use x="1034.179688" xlink:href="#DejaVuSans-32"/>
     <use x="1065.966797" xlink:href="#DejaVuSans-97"/>
     <use x="1127.246094" xlink:href="#DejaVuSans-32"/>
     <use x="1159.033203" xlink:href="#DejaVuSans-102"/>
     <use x="1194.238281" xlink:href="#DejaVuSans-117"/>
     <use x="1257.617188" xlink:href="#DejaVuSans-110"/>
     <use x="1320.996094" xlink:href="#DejaVuSans-99"/>
     <use x="1375.976562" xlink:href="#DejaVuSans-116"/>
     <use x="1415.185547" xlink:href="#DejaVuSans-105"/>
     <use x="1442.96875" xlink:href="#DejaVuSans-111"/>
     <use x="1504.150391" xlink:href="#DejaVuSans-110"/>
     <use x="1567.529297" xlink:href="#DejaVuSans-32"/>
     <use x="1599.316406" xlink:href="#DejaVuSans-111"/>
     <use x="1660.498047" xlink:href="#DejaVuSans-102"/>
     <use x="1695.703125" xlink:href="#DejaVuSans-32"/>
     <use x="1727.490234" xlink:href="#DejaVuSans-116"/>
     <use x="1766.699219" xlink:href="#DejaVuSans-104"/>
     <use x="1830.078125" xlink:href="#DejaVuSans-101"/>
     <use x="1891.601562" xlink:href="#DejaVuSans-32"/>
     <use x="1923.388672" xlink:href="#DejaVuSans-114"/>
     <use x="1964.470703" xlink:href="#DejaVuSans-101"/>
     <use x="2025.994141" xlink:href="#DejaVuSans-103"/>
     <use x="2089.470703" xlink:href="#DejaVuSans-117"/>
     <use x="2152.849609" xlink:href="#DejaVuSans-108"/>
     <use x="2180.632812" xlink:href="#DejaVuSans-97"/>
     <use x="2241.912109" xlink:href="#DejaVuSans-114"/>
     <use x="2283.025391" xlink:href="#DejaVuSans-105"/>
     <use x="2310.808594" xlink:href="#DejaVuSans-122"/>
     <use x="2363.298828" xlink:href="#DejaVuSans-97"/>
     <use x="2424.578125" xlink:href="#DejaVuSans-116"/>
     <use x="2463.787109" xlink:href="#DejaVuSans-105"/>
     <use x="2491.570312" xlink:href="#DejaVuSans-111"/>
     <use x="2552.751953" xlink:href="#DejaVuSans-110"/>
    </g>
   </g>
  </g>
 </g>
 <defs>
  <clipPath id="pd6620770f5">
   <rect height="326.16" width="390.6" x="188.61525" y="35.0835"/>
  </clipPath>
 </defs>
</svg>
