<?xml version="1.0" encoding="utf-8" standalone="no"?>
<!DOCTYPE svg PUBLIC "-//W3C//DTD SVG 1.1//EN"
  "http://www.w3.org/Graphics/SVG/1.1/DTD/svg11.dtd">
<!-- Created with matplotlib (https://matplotlib.org/) -->
<svg height="277.314375pt" version="1.1" viewBox="0 0 397.345312 277.314375" width="397.345312pt" xmlns="http://www.w3.org/2000/svg" xmlns:xlink="http://www.w3.org/1999/xlink">
 <defs>
  <style type="text/css">
*{stroke-linecap:butt;stroke-linejoin:round;}
  </style>
 </defs>
 <g id="figure_1">
  <g id="patch_1">
   <path d="M 0 277.314375 
L 397.345312 277.314375 
L 397.345312 0 
L 0 0 
z
" style="fill:#ffffff;"/>
  </g>
  <g id="axes_1">
   <g id="patch_2">
    <path d="M 55.345313 239.758125 
L 390.145312 239.758125 
L 390.145312 22.318125 
L 55.345313 22.318125 
z
" style="fill:#ffffff;"/>
   </g>
   <g id="matplotlib.axis_1">
    <g id="xtick_1">
     <g id="line2d_1">
      <defs>
       <path d="M 0 0 
L 0 3.5 
" id="m515c48e347" style="stroke:#000000;stroke-width:0.8;"/>
      </defs>
      <g>
       <use style="stroke:#000000;stroke-width:0.8;" x="374.927131" xlink:href="#m515c48e347" y="239.758125"/>
      </g>
     </g>
     <g id="text_1">
      <!-- $\mathdefault{10^{-2}}$ -->
      <defs>
       <path d="M 12.40625 8.296875 
L 28.515625 8.296875 
L 28.515625 63.921875 
L 10.984375 60.40625 
L 10.984375 69.390625 
L 28.421875 72.90625 
L 38.28125 72.90625 
L 38.28125 8.296875 
L 54.390625 8.296875 
L 54.390625 0 
L 12.40625 0 
z
" id="DejaVuSans-49"/>
       <path d="M 31.78125 66.40625 
Q 24.171875 66.40625 20.328125 58.90625 
Q 16.5 51.421875 16.5 36.375 
Q 16.5 21.390625 20.328125 13.890625 
Q 24.171875 6.390625 31.78125 6.390625 
Q 39.453125 6.390625 43.28125 13.890625 
Q 47.125 21.390625 47.125 36.375 
Q 47.125 51.421875 43.28125 58.90625 
Q 39.453125 66.40625 31.78125 66.40625 
z
M 31.78125 74.21875 
Q 44.046875 74.21875 50.515625 64.515625 
Q 56.984375 54.828125 56.984375 36.375 
Q 56.984375 17.96875 50.515625 8.265625 
Q 44.046875 -1.421875 31.78125 -1.421875 
Q 19.53125 -1.421875 13.0625 8.265625 
Q 6.59375 17.96875 6.59375 36.375 
Q 6.59375 54.828125 13.0625 64.515625 
Q 19.53125 74.21875 31.78125 74.21875 
z
" id="DejaVuSans-48"/>
       <path d="M 10.59375 35.5 
L 73.1875 35.5 
L 73.1875 27.203125 
L 10.59375 27.203125 
z
" id="DejaVuSans-8722"/>
       <path d="M 19.1875 8.296875 
L 53.609375 8.296875 
L 53.609375 0 
L 7.328125 0 
L 7.328125 8.296875 
Q 12.9375 14.109375 22.625 23.890625 
Q 32.328125 33.6875 34.8125 36.53125 
Q 39.546875 41.84375 41.421875 45.53125 
Q 43.3125 49.21875 43.3125 52.78125 
Q 43.3125 58.59375 39.234375 62.25 
Q 35.15625 65.921875 28.609375 65.921875 
Q 23.96875 65.921875 18.8125 64.3125 
Q 13.671875 62.703125 7.8125 59.421875 
L 7.8125 69.390625 
Q 13.765625 71.78125 18.9375 73 
Q 24.125 74.21875 28.421875 74.21875 
Q 39.75 74.21875 46.484375 68.546875 
Q 53.21875 62.890625 53.21875 53.421875 
Q 53.21875 48.921875 51.53125 44.890625 
Q 49.859375 40.875 45.40625 35.40625 
Q 44.1875 33.984375 37.640625 27.21875 
Q 31.109375 20.453125 19.1875 8.296875 
z
" id="DejaVuSans-50"/>
      </defs>
      <g transform="translate(363.177131 254.356562)scale(0.1 -0.1)">
       <use transform="translate(0 0.765625)" xlink:href="#DejaVuSans-49"/>
       <use transform="translate(63.623047 0.765625)" xlink:href="#DejaVuSans-48"/>
       <use transform="translate(128.203125 39.046875)scale(0.7)" xlink:href="#DejaVuSans-8722"/>
       <use transform="translate(186.855469 39.046875)scale(0.7)" xlink:href="#DejaVuSans-50"/>
      </g>
     </g>
    </g>
    <g id="xtick_2">
     <g id="line2d_2">
      <g>
       <use style="stroke:#000000;stroke-width:0.8;" x="331.446611" xlink:href="#m515c48e347" y="239.758125"/>
      </g>
     </g>
     <g id="text_2">
      <!-- $\mathdefault{10^{-1}}$ -->
      <g transform="translate(319.696611 254.356562)scale(0.1 -0.1)">
       <use transform="translate(0 0.684375)" xlink:href="#DejaVuSans-49"/>
       <use transform="translate(63.623047 0.684375)" xlink:href="#DejaVuSans-48"/>
       <use transform="translate(128.203125 38.965625)scale(0.7)" xlink:href="#DejaVuSans-8722"/>
       <use transform="translate(186.855469 38.965625)scale(0.7)" xlink:href="#DejaVuSans-49"/>
      </g>
     </g>
    </g>
    <g id="xtick_3">
     <g id="line2d_3">
      <g>
       <use style="stroke:#000000;stroke-width:0.8;" x="287.966092" xlink:href="#m515c48e347" y="239.758125"/>
      </g>
     </g>
     <g id="text_3">
      <!-- $\mathdefault{10^{0}}$ -->
      <g transform="translate(279.166092 254.356562)scale(0.1 -0.1)">
       <use transform="translate(0 0.765625)" xlink:href="#DejaVuSans-49"/>
       <use transform="translate(63.623047 0.765625)" xlink:href="#DejaVuSans-48"/>
       <use transform="translate(128.203125 39.046875)scale(0.7)" xlink:href="#DejaVuSans-48"/>
      </g>
     </g>
    </g>
    <g id="xtick_4">
     <g id="line2d_4">
      <g>
       <use style="stroke:#000000;stroke-width:0.8;" x="244.485572" xlink:href="#m515c48e347" y="239.758125"/>
      </g>
     </g>
     <g id="text_4">
      <!-- $\mathdefault{10^{1}}$ -->
      <g transform="translate(235.685572 254.356562)scale(0.1 -0.1)">
       <use transform="translate(0 0.684375)" xlink:href="#DejaVuSans-49"/>
       <use transform="translate(63.623047 0.684375)" xlink:href="#DejaVuSans-48"/>
       <use transform="translate(128.203125 38.965625)scale(0.7)" xlink:href="#DejaVuSans-49"/>
      </g>
     </g>
    </g>
    <g id="xtick_5">
     <g id="line2d_5">
      <g>
       <use style="stroke:#000000;stroke-width:0.8;" x="201.005053" xlink:href="#m515c48e347" y="239.758125"/>
      </g>
     </g>
     <g id="text_5">
      <!-- $\mathdefault{10^{2}}$ -->
      <g transform="translate(192.205053 254.356562)scale(0.1 -0.1)">
       <use transform="translate(0 0.765625)" xlink:href="#DejaVuSans-49"/>
       <use transform="translate(63.623047 0.765625)" xlink:href="#DejaVuSans-48"/>
       <use transform="translate(128.203125 39.046875)scale(0.7)" xlink:href="#DejaVuSans-50"/>
      </g>
     </g>
    </g>
    <g id="xtick_6">
     <g id="line2d_6">
      <g>
       <use style="stroke:#000000;stroke-width:0.8;" x="157.524533" xlink:href="#m515c48e347" y="239.758125"/>
      </g>
     </g>
     <g id="text_6">
      <!-- $\mathdefault{10^{3}}$ -->
      <defs>
       <path d="M 40.578125 39.3125 
Q 47.65625 37.796875 51.625 33 
Q 55.609375 28.21875 55.609375 21.1875 
Q 55.609375 10.40625 48.1875 4.484375 
Q 40.765625 -1.421875 27.09375 -1.421875 
Q 22.515625 -1.421875 17.65625 -0.515625 
Q 12.796875 0.390625 7.625 2.203125 
L 7.625 11.71875 
Q 11.71875 9.328125 16.59375 8.109375 
Q 21.484375 6.890625 26.8125 6.890625 
Q 36.078125 6.890625 40.9375 10.546875 
Q 45.796875 14.203125 45.796875 21.1875 
Q 45.796875 27.640625 41.28125 31.265625 
Q 36.765625 34.90625 28.71875 34.90625 
L 20.21875 34.90625 
L 20.21875 43.015625 
L 29.109375 43.015625 
Q 36.375 43.015625 40.234375 45.921875 
Q 44.09375 48.828125 44.09375 54.296875 
Q 44.09375 59.90625 40.109375 62.90625 
Q 36.140625 65.921875 28.71875 65.921875 
Q 24.65625 65.921875 20.015625 65.03125 
Q 15.375 64.15625 9.8125 62.3125 
L 9.8125 71.09375 
Q 15.4375 72.65625 20.34375 73.4375 
Q 25.25 74.21875 29.59375 74.21875 
Q 40.828125 74.21875 47.359375 69.109375 
Q 53.90625 64.015625 53.90625 55.328125 
Q 53.90625 49.265625 50.4375 45.09375 
Q 46.96875 40.921875 40.578125 39.3125 
z
" id="DejaVuSans-51"/>
      </defs>
      <g transform="translate(148.724533 254.356562)scale(0.1 -0.1)">
       <use transform="translate(0 0.765625)" xlink:href="#DejaVuSans-49"/>
       <use transform="translate(63.623047 0.765625)" xlink:href="#DejaVuSans-48"/>
       <use transform="translate(128.203125 39.046875)scale(0.7)" xlink:href="#DejaVuSans-51"/>
      </g>
     </g>
    </g>
    <g id="xtick_7">
     <g id="line2d_7">
      <g>
       <use style="stroke:#000000;stroke-width:0.8;" x="114.044014" xlink:href="#m515c48e347" y="239.758125"/>
      </g>
     </g>
     <g id="text_7">
      <!-- $\mathdefault{10^{4}}$ -->
      <defs>
       <path d="M 37.796875 64.3125 
L 12.890625 25.390625 
L 37.796875 25.390625 
z
M 35.203125 72.90625 
L 47.609375 72.90625 
L 47.609375 25.390625 
L 58.015625 25.390625 
L 58.015625 17.1875 
L 47.609375 17.1875 
L 47.609375 0 
L 37.796875 0 
L 37.796875 17.1875 
L 4.890625 17.1875 
L 4.890625 26.703125 
z
" id="DejaVuSans-52"/>
      </defs>
      <g transform="translate(105.244014 254.356562)scale(0.1 -0.1)">
       <use transform="translate(0 0.684375)" xlink:href="#DejaVuSans-49"/>
       <use transform="translate(63.623047 0.684375)" xlink:href="#DejaVuSans-48"/>
       <use transform="translate(128.203125 38.965625)scale(0.7)" xlink:href="#DejaVuSans-52"/>
      </g>
     </g>
    </g>
    <g id="xtick_8">
     <g id="line2d_8">
      <g>
       <use style="stroke:#000000;stroke-width:0.8;" x="70.563494" xlink:href="#m515c48e347" y="239.758125"/>
      </g>
     </g>
     <g id="text_8">
      <!-- $\mathdefault{10^{5}}$ -->
      <defs>
       <path d="M 10.796875 72.90625 
L 49.515625 72.90625 
L 49.515625 64.59375 
L 19.828125 64.59375 
L 19.828125 46.734375 
Q 21.96875 47.46875 24.109375 47.828125 
Q 26.265625 48.1875 28.421875 48.1875 
Q 40.625 48.1875 47.75 41.5 
Q 54.890625 34.8125 54.890625 23.390625 
Q 54.890625 11.625 47.5625 5.09375 
Q 40.234375 -1.421875 26.90625 -1.421875 
Q 22.3125 -1.421875 17.546875 -0.640625 
Q 12.796875 0.140625 7.71875 1.703125 
L 7.71875 11.625 
Q 12.109375 9.234375 16.796875 8.0625 
Q 21.484375 6.890625 26.703125 6.890625 
Q 35.15625 6.890625 40.078125 11.328125 
Q 45.015625 15.765625 45.015625 23.390625 
Q 45.015625 31 40.078125 35.4375 
Q 35.15625 39.890625 26.703125 39.890625 
Q 22.75 39.890625 18.8125 39.015625 
Q 14.890625 38.140625 10.796875 36.28125 
z
" id="DejaVuSans-53"/>
      </defs>
      <g transform="translate(61.763494 254.356562)scale(0.1 -0.1)">
       <use transform="translate(0 0.684375)" xlink:href="#DejaVuSans-49"/>
       <use transform="translate(63.623047 0.684375)" xlink:href="#DejaVuSans-48"/>
       <use transform="translate(128.203125 38.965625)scale(0.7)" xlink:href="#DejaVuSans-53"/>
      </g>
     </g>
    </g>
    <g id="xtick_9">
     <g id="line2d_9">
      <defs>
       <path d="M 0 0 
L 0 2 
" id="m6b21828bfb" style="stroke:#000000;stroke-width:0.6;"/>
      </defs>
      <g>
       <use style="stroke:#000000;stroke-width:0.6;" x="388.016071" xlink:href="#m6b21828bfb" y="239.758125"/>
      </g>
     </g>
    </g>
    <g id="xtick_10">
     <g id="line2d_10">
      <g>
       <use style="stroke:#000000;stroke-width:0.6;" x="384.57323" xlink:href="#m6b21828bfb" y="239.758125"/>
      </g>
     </g>
    </g>
    <g id="xtick_11">
     <g id="line2d_11">
      <g>
       <use style="stroke:#000000;stroke-width:0.6;" x="381.662348" xlink:href="#m6b21828bfb" y="239.758125"/>
      </g>
     </g>
    </g>
    <g id="xtick_12">
     <g id="line2d_12">
      <g>
       <use style="stroke:#000000;stroke-width:0.6;" x="379.140828" xlink:href="#m6b21828bfb" y="239.758125"/>
      </g>
     </g>
    </g>
    <g id="xtick_13">
     <g id="line2d_13">
      <g>
       <use style="stroke:#000000;stroke-width:0.6;" x="376.91669" xlink:href="#m6b21828bfb" y="239.758125"/>
      </g>
     </g>
    </g>
    <g id="xtick_14">
     <g id="line2d_14">
      <g>
       <use style="stroke:#000000;stroke-width:0.6;" x="361.83819" xlink:href="#m6b21828bfb" y="239.758125"/>
      </g>
     </g>
    </g>
    <g id="xtick_15">
     <g id="line2d_15">
      <g>
       <use style="stroke:#000000;stroke-width:0.6;" x="354.181651" xlink:href="#m6b21828bfb" y="239.758125"/>
      </g>
     </g>
    </g>
    <g id="xtick_16">
     <g id="line2d_16">
      <g>
       <use style="stroke:#000000;stroke-width:0.6;" x="348.74925" xlink:href="#m6b21828bfb" y="239.758125"/>
      </g>
     </g>
    </g>
    <g id="xtick_17">
     <g id="line2d_17">
      <g>
       <use style="stroke:#000000;stroke-width:0.6;" x="344.535552" xlink:href="#m6b21828bfb" y="239.758125"/>
      </g>
     </g>
    </g>
    <g id="xtick_18">
     <g id="line2d_18">
      <g>
       <use style="stroke:#000000;stroke-width:0.6;" x="341.09271" xlink:href="#m6b21828bfb" y="239.758125"/>
      </g>
     </g>
    </g>
    <g id="xtick_19">
     <g id="line2d_19">
      <g>
       <use style="stroke:#000000;stroke-width:0.6;" x="338.181829" xlink:href="#m6b21828bfb" y="239.758125"/>
      </g>
     </g>
    </g>
    <g id="xtick_20">
     <g id="line2d_20">
      <g>
       <use style="stroke:#000000;stroke-width:0.6;" x="335.660309" xlink:href="#m6b21828bfb" y="239.758125"/>
      </g>
     </g>
    </g>
    <g id="xtick_21">
     <g id="line2d_21">
      <g>
       <use style="stroke:#000000;stroke-width:0.6;" x="333.436171" xlink:href="#m6b21828bfb" y="239.758125"/>
      </g>
     </g>
    </g>
    <g id="xtick_22">
     <g id="line2d_22">
      <g>
       <use style="stroke:#000000;stroke-width:0.6;" x="318.357671" xlink:href="#m6b21828bfb" y="239.758125"/>
      </g>
     </g>
    </g>
    <g id="xtick_23">
     <g id="line2d_23">
      <g>
       <use style="stroke:#000000;stroke-width:0.6;" x="310.701131" xlink:href="#m6b21828bfb" y="239.758125"/>
      </g>
     </g>
    </g>
    <g id="xtick_24">
     <g id="line2d_24">
      <g>
       <use style="stroke:#000000;stroke-width:0.6;" x="305.26873" xlink:href="#m6b21828bfb" y="239.758125"/>
      </g>
     </g>
    </g>
    <g id="xtick_25">
     <g id="line2d_25">
      <g>
       <use style="stroke:#000000;stroke-width:0.6;" x="301.055032" xlink:href="#m6b21828bfb" y="239.758125"/>
      </g>
     </g>
    </g>
    <g id="xtick_26">
     <g id="line2d_26">
      <g>
       <use style="stroke:#000000;stroke-width:0.6;" x="297.612191" xlink:href="#m6b21828bfb" y="239.758125"/>
      </g>
     </g>
    </g>
    <g id="xtick_27">
     <g id="line2d_27">
      <g>
       <use style="stroke:#000000;stroke-width:0.6;" x="294.701309" xlink:href="#m6b21828bfb" y="239.758125"/>
      </g>
     </g>
    </g>
    <g id="xtick_28">
     <g id="line2d_28">
      <g>
       <use style="stroke:#000000;stroke-width:0.6;" x="292.179789" xlink:href="#m6b21828bfb" y="239.758125"/>
      </g>
     </g>
    </g>
    <g id="xtick_29">
     <g id="line2d_29">
      <g>
       <use style="stroke:#000000;stroke-width:0.6;" x="289.955651" xlink:href="#m6b21828bfb" y="239.758125"/>
      </g>
     </g>
    </g>
    <g id="xtick_30">
     <g id="line2d_30">
      <g>
       <use style="stroke:#000000;stroke-width:0.6;" x="274.877151" xlink:href="#m6b21828bfb" y="239.758125"/>
      </g>
     </g>
    </g>
    <g id="xtick_31">
     <g id="line2d_31">
      <g>
       <use style="stroke:#000000;stroke-width:0.6;" x="267.220612" xlink:href="#m6b21828bfb" y="239.758125"/>
      </g>
     </g>
    </g>
    <g id="xtick_32">
     <g id="line2d_32">
      <g>
       <use style="stroke:#000000;stroke-width:0.6;" x="261.788211" xlink:href="#m6b21828bfb" y="239.758125"/>
      </g>
     </g>
    </g>
    <g id="xtick_33">
     <g id="line2d_33">
      <g>
       <use style="stroke:#000000;stroke-width:0.6;" x="257.574513" xlink:href="#m6b21828bfb" y="239.758125"/>
      </g>
     </g>
    </g>
    <g id="xtick_34">
     <g id="line2d_34">
      <g>
       <use style="stroke:#000000;stroke-width:0.6;" x="254.131671" xlink:href="#m6b21828bfb" y="239.758125"/>
      </g>
     </g>
    </g>
    <g id="xtick_35">
     <g id="line2d_35">
      <g>
       <use style="stroke:#000000;stroke-width:0.6;" x="251.22079" xlink:href="#m6b21828bfb" y="239.758125"/>
      </g>
     </g>
    </g>
    <g id="xtick_36">
     <g id="line2d_36">
      <g>
       <use style="stroke:#000000;stroke-width:0.6;" x="248.69927" xlink:href="#m6b21828bfb" y="239.758125"/>
      </g>
     </g>
    </g>
    <g id="xtick_37">
     <g id="line2d_37">
      <g>
       <use style="stroke:#000000;stroke-width:0.6;" x="246.475132" xlink:href="#m6b21828bfb" y="239.758125"/>
      </g>
     </g>
    </g>
    <g id="xtick_38">
     <g id="line2d_38">
      <g>
       <use style="stroke:#000000;stroke-width:0.6;" x="231.396632" xlink:href="#m6b21828bfb" y="239.758125"/>
      </g>
     </g>
    </g>
    <g id="xtick_39">
     <g id="line2d_39">
      <g>
       <use style="stroke:#000000;stroke-width:0.6;" x="223.740092" xlink:href="#m6b21828bfb" y="239.758125"/>
      </g>
     </g>
    </g>
    <g id="xtick_40">
     <g id="line2d_40">
      <g>
       <use style="stroke:#000000;stroke-width:0.6;" x="218.307691" xlink:href="#m6b21828bfb" y="239.758125"/>
      </g>
     </g>
    </g>
    <g id="xtick_41">
     <g id="line2d_41">
      <g>
       <use style="stroke:#000000;stroke-width:0.6;" x="214.093993" xlink:href="#m6b21828bfb" y="239.758125"/>
      </g>
     </g>
    </g>
    <g id="xtick_42">
     <g id="line2d_42">
      <g>
       <use style="stroke:#000000;stroke-width:0.6;" x="210.651152" xlink:href="#m6b21828bfb" y="239.758125"/>
      </g>
     </g>
    </g>
    <g id="xtick_43">
     <g id="line2d_43">
      <g>
       <use style="stroke:#000000;stroke-width:0.6;" x="207.74027" xlink:href="#m6b21828bfb" y="239.758125"/>
      </g>
     </g>
    </g>
    <g id="xtick_44">
     <g id="line2d_44">
      <g>
       <use style="stroke:#000000;stroke-width:0.6;" x="205.21875" xlink:href="#m6b21828bfb" y="239.758125"/>
      </g>
     </g>
    </g>
    <g id="xtick_45">
     <g id="line2d_45">
      <g>
       <use style="stroke:#000000;stroke-width:0.6;" x="202.994612" xlink:href="#m6b21828bfb" y="239.758125"/>
      </g>
     </g>
    </g>
    <g id="xtick_46">
     <g id="line2d_46">
      <g>
       <use style="stroke:#000000;stroke-width:0.6;" x="187.916112" xlink:href="#m6b21828bfb" y="239.758125"/>
      </g>
     </g>
    </g>
    <g id="xtick_47">
     <g id="line2d_47">
      <g>
       <use style="stroke:#000000;stroke-width:0.6;" x="180.259573" xlink:href="#m6b21828bfb" y="239.758125"/>
      </g>
     </g>
    </g>
    <g id="xtick_48">
     <g id="line2d_48">
      <g>
       <use style="stroke:#000000;stroke-width:0.6;" x="174.827172" xlink:href="#m6b21828bfb" y="239.758125"/>
      </g>
     </g>
    </g>
    <g id="xtick_49">
     <g id="line2d_49">
      <g>
       <use style="stroke:#000000;stroke-width:0.6;" x="170.613474" xlink:href="#m6b21828bfb" y="239.758125"/>
      </g>
     </g>
    </g>
    <g id="xtick_50">
     <g id="line2d_50">
      <g>
       <use style="stroke:#000000;stroke-width:0.6;" x="167.170632" xlink:href="#m6b21828bfb" y="239.758125"/>
      </g>
     </g>
    </g>
    <g id="xtick_51">
     <g id="line2d_51">
      <g>
       <use style="stroke:#000000;stroke-width:0.6;" x="164.259751" xlink:href="#m6b21828bfb" y="239.758125"/>
      </g>
     </g>
    </g>
    <g id="xtick_52">
     <g id="line2d_52">
      <g>
       <use style="stroke:#000000;stroke-width:0.6;" x="161.738231" xlink:href="#m6b21828bfb" y="239.758125"/>
      </g>
     </g>
    </g>
    <g id="xtick_53">
     <g id="line2d_53">
      <g>
       <use style="stroke:#000000;stroke-width:0.6;" x="159.514093" xlink:href="#m6b21828bfb" y="239.758125"/>
      </g>
     </g>
    </g>
    <g id="xtick_54">
     <g id="line2d_54">
      <g>
       <use style="stroke:#000000;stroke-width:0.6;" x="144.435593" xlink:href="#m6b21828bfb" y="239.758125"/>
      </g>
     </g>
    </g>
    <g id="xtick_55">
     <g id="line2d_55">
      <g>
       <use style="stroke:#000000;stroke-width:0.6;" x="136.779053" xlink:href="#m6b21828bfb" y="239.758125"/>
      </g>
     </g>
    </g>
    <g id="xtick_56">
     <g id="line2d_56">
      <g>
       <use style="stroke:#000000;stroke-width:0.6;" x="131.346652" xlink:href="#m6b21828bfb" y="239.758125"/>
      </g>
     </g>
    </g>
    <g id="xtick_57">
     <g id="line2d_57">
      <g>
       <use style="stroke:#000000;stroke-width:0.6;" x="127.132954" xlink:href="#m6b21828bfb" y="239.758125"/>
      </g>
     </g>
    </g>
    <g id="xtick_58">
     <g id="line2d_58">
      <g>
       <use style="stroke:#000000;stroke-width:0.6;" x="123.690113" xlink:href="#m6b21828bfb" y="239.758125"/>
      </g>
     </g>
    </g>
    <g id="xtick_59">
     <g id="line2d_59">
      <g>
       <use style="stroke:#000000;stroke-width:0.6;" x="120.779231" xlink:href="#m6b21828bfb" y="239.758125"/>
      </g>
     </g>
    </g>
    <g id="xtick_60">
     <g id="line2d_60">
      <g>
       <use style="stroke:#000000;stroke-width:0.6;" x="118.257712" xlink:href="#m6b21828bfb" y="239.758125"/>
      </g>
     </g>
    </g>
    <g id="xtick_61">
     <g id="line2d_61">
      <g>
       <use style="stroke:#000000;stroke-width:0.6;" x="116.033573" xlink:href="#m6b21828bfb" y="239.758125"/>
      </g>
     </g>
    </g>
    <g id="xtick_62">
     <g id="line2d_62">
      <g>
       <use style="stroke:#000000;stroke-width:0.6;" x="100.955073" xlink:href="#m6b21828bfb" y="239.758125"/>
      </g>
     </g>
    </g>
    <g id="xtick_63">
     <g id="line2d_63">
      <g>
       <use style="stroke:#000000;stroke-width:0.6;" x="93.298534" xlink:href="#m6b21828bfb" y="239.758125"/>
      </g>
     </g>
    </g>
    <g id="xtick_64">
     <g id="line2d_64">
      <g>
       <use style="stroke:#000000;stroke-width:0.6;" x="87.866133" xlink:href="#m6b21828bfb" y="239.758125"/>
      </g>
     </g>
    </g>
    <g id="xtick_65">
     <g id="line2d_65">
      <g>
       <use style="stroke:#000000;stroke-width:0.6;" x="83.652435" xlink:href="#m6b21828bfb" y="239.758125"/>
      </g>
     </g>
    </g>
    <g id="xtick_66">
     <g id="line2d_66">
      <g>
       <use style="stroke:#000000;stroke-width:0.6;" x="80.209593" xlink:href="#m6b21828bfb" y="239.758125"/>
      </g>
     </g>
    </g>
    <g id="xtick_67">
     <g id="line2d_67">
      <g>
       <use style="stroke:#000000;stroke-width:0.6;" x="77.298712" xlink:href="#m6b21828bfb" y="239.758125"/>
      </g>
     </g>
    </g>
    <g id="xtick_68">
     <g id="line2d_68">
      <g>
       <use style="stroke:#000000;stroke-width:0.6;" x="74.777192" xlink:href="#m6b21828bfb" y="239.758125"/>
      </g>
     </g>
    </g>
    <g id="xtick_69">
     <g id="line2d_69">
      <g>
       <use style="stroke:#000000;stroke-width:0.6;" x="72.553054" xlink:href="#m6b21828bfb" y="239.758125"/>
      </g>
     </g>
    </g>
    <g id="xtick_70">
     <g id="line2d_70">
      <g>
       <use style="stroke:#000000;stroke-width:0.6;" x="57.474554" xlink:href="#m6b21828bfb" y="239.758125"/>
      </g>
     </g>
    </g>
    <g id="text_9">
     <!-- alpha -->
     <defs>
      <path d="M 34.28125 27.484375 
Q 23.390625 27.484375 19.1875 25 
Q 14.984375 22.515625 14.984375 16.5 
Q 14.984375 11.71875 18.140625 8.90625 
Q 21.296875 6.109375 26.703125 6.109375 
Q 34.1875 6.109375 38.703125 11.40625 
Q 43.21875 16.703125 43.21875 25.484375 
L 43.21875 27.484375 
z
M 52.203125 31.203125 
L 52.203125 0 
L 43.21875 0 
L 43.21875 8.296875 
Q 40.140625 3.328125 35.546875 0.953125 
Q 30.953125 -1.421875 24.3125 -1.421875 
Q 15.921875 -1.421875 10.953125 3.296875 
Q 6 8.015625 6 15.921875 
Q 6 25.140625 12.171875 29.828125 
Q 18.359375 34.515625 30.609375 34.515625 
L 43.21875 34.515625 
L 43.21875 35.40625 
Q 43.21875 41.609375 39.140625 45 
Q 35.0625 48.390625 27.6875 48.390625 
Q 23 48.390625 18.546875 47.265625 
Q 14.109375 46.140625 10.015625 43.890625 
L 10.015625 52.203125 
Q 14.9375 54.109375 19.578125 55.046875 
Q 24.21875 56 28.609375 56 
Q 40.484375 56 46.34375 49.84375 
Q 52.203125 43.703125 52.203125 31.203125 
z
" id="DejaVuSans-97"/>
      <path d="M 9.421875 75.984375 
L 18.40625 75.984375 
L 18.40625 0 
L 9.421875 0 
z
" id="DejaVuSans-108"/>
      <path d="M 18.109375 8.203125 
L 18.109375 -20.796875 
L 9.078125 -20.796875 
L 9.078125 54.6875 
L 18.109375 54.6875 
L 18.109375 46.390625 
Q 20.953125 51.265625 25.265625 53.625 
Q 29.59375 56 35.59375 56 
Q 45.5625 56 51.78125 48.09375 
Q 58.015625 40.1875 58.015625 27.296875 
Q 58.015625 14.40625 51.78125 6.484375 
Q 45.5625 -1.421875 35.59375 -1.421875 
Q 29.59375 -1.421875 25.265625 0.953125 
Q 20.953125 3.328125 18.109375 8.203125 
z
M 48.6875 27.296875 
Q 48.6875 37.203125 44.609375 42.84375 
Q 40.53125 48.484375 33.40625 48.484375 
Q 26.265625 48.484375 22.1875 42.84375 
Q 18.109375 37.203125 18.109375 27.296875 
Q 18.109375 17.390625 22.1875 11.75 
Q 26.265625 6.109375 33.40625 6.109375 
Q 40.53125 6.109375 44.609375 11.75 
Q 48.6875 17.390625 48.6875 27.296875 
z
" id="DejaVuSans-112"/>
      <path d="M 54.890625 33.015625 
L 54.890625 0 
L 45.90625 0 
L 45.90625 32.71875 
Q 45.90625 40.484375 42.875 44.328125 
Q 39.84375 48.1875 33.796875 48.1875 
Q 26.515625 48.1875 22.3125 43.546875 
Q 18.109375 38.921875 18.109375 30.90625 
L 18.109375 0 
L 9.078125 0 
L 9.078125 75.984375 
L 18.109375 75.984375 
L 18.109375 46.1875 
Q 21.34375 51.125 25.703125 53.5625 
Q 30.078125 56 35.796875 56 
Q 45.21875 56 50.046875 50.171875 
Q 54.890625 44.34375 54.890625 33.015625 
z
" id="DejaVuSans-104"/>
     </defs>
     <g transform="translate(208.885156 268.034687)scale(0.1 -0.1)">
      <use xlink:href="#DejaVuSans-97"/>
      <use x="61.279297" xlink:href="#DejaVuSans-108"/>
      <use x="89.0625" xlink:href="#DejaVuSans-112"/>
      <use x="152.539062" xlink:href="#DejaVuSans-104"/>
      <use x="215.917969" xlink:href="#DejaVuSans-97"/>
     </g>
    </g>
   </g>
   <g id="matplotlib.axis_2">
    <g id="ytick_1">
     <g id="line2d_71">
      <defs>
       <path d="M 0 0 
L -3.5 0 
" id="m42da34ecf9" style="stroke:#000000;stroke-width:0.8;"/>
      </defs>
      <g>
       <use style="stroke:#000000;stroke-width:0.8;" x="55.345313" xlink:href="#m42da34ecf9" y="232.436345"/>
      </g>
     </g>
     <g id="text_10">
      <!-- −400 -->
      <g transform="translate(20.878125 236.235564)scale(0.1 -0.1)">
       <use xlink:href="#DejaVuSans-8722"/>
       <use x="83.789062" xlink:href="#DejaVuSans-52"/>
       <use x="147.412109" xlink:href="#DejaVuSans-48"/>
       <use x="211.035156" xlink:href="#DejaVuSans-48"/>
      </g>
     </g>
    </g>
    <g id="ytick_2">
     <g id="line2d_72">
      <g>
       <use style="stroke:#000000;stroke-width:0.8;" x="55.345313" xlink:href="#m42da34ecf9" y="186.804885"/>
      </g>
     </g>
     <g id="text_11">
      <!-- −200 -->
      <g transform="translate(20.878125 190.604104)scale(0.1 -0.1)">
       <use xlink:href="#DejaVuSans-8722"/>
       <use x="83.789062" xlink:href="#DejaVuSans-50"/>
       <use x="147.412109" xlink:href="#DejaVuSans-48"/>
       <use x="211.035156" xlink:href="#DejaVuSans-48"/>
      </g>
     </g>
    </g>
    <g id="ytick_3">
     <g id="line2d_73">
      <g>
       <use style="stroke:#000000;stroke-width:0.8;" x="55.345313" xlink:href="#m42da34ecf9" y="141.173424"/>
      </g>
     </g>
     <g id="text_12">
      <!-- 0 -->
      <g transform="translate(41.982813 144.972643)scale(0.1 -0.1)">
       <use xlink:href="#DejaVuSans-48"/>
      </g>
     </g>
    </g>
    <g id="ytick_4">
     <g id="line2d_74">
      <g>
       <use style="stroke:#000000;stroke-width:0.8;" x="55.345313" xlink:href="#m42da34ecf9" y="95.541964"/>
      </g>
     </g>
     <g id="text_13">
      <!-- 200 -->
      <g transform="translate(29.257813 99.341183)scale(0.1 -0.1)">
       <use xlink:href="#DejaVuSans-50"/>
       <use x="63.623047" xlink:href="#DejaVuSans-48"/>
       <use x="127.246094" xlink:href="#DejaVuSans-48"/>
      </g>
     </g>
    </g>
    <g id="ytick_5">
     <g id="line2d_75">
      <g>
       <use style="stroke:#000000;stroke-width:0.8;" x="55.345313" xlink:href="#m42da34ecf9" y="49.910504"/>
      </g>
     </g>
     <g id="text_14">
      <!-- 400 -->
      <g transform="translate(29.257813 53.709723)scale(0.1 -0.1)">
       <use xlink:href="#DejaVuSans-52"/>
       <use x="63.623047" xlink:href="#DejaVuSans-48"/>
       <use x="127.246094" xlink:href="#DejaVuSans-48"/>
      </g>
     </g>
    </g>
    <g id="text_15">
     <!-- weights -->
     <defs>
      <path d="M 4.203125 54.6875 
L 13.1875 54.6875 
L 24.421875 12.015625 
L 35.59375 54.6875 
L 46.1875 54.6875 
L 57.421875 12.015625 
L 68.609375 54.6875 
L 77.59375 54.6875 
L 63.28125 0 
L 52.6875 0 
L 40.921875 44.828125 
L 29.109375 0 
L 18.5 0 
z
" id="DejaVuSans-119"/>
      <path d="M 56.203125 29.59375 
L 56.203125 25.203125 
L 14.890625 25.203125 
Q 15.484375 15.921875 20.484375 11.0625 
Q 25.484375 6.203125 34.421875 6.203125 
Q 39.59375 6.203125 44.453125 7.46875 
Q 49.3125 8.734375 54.109375 11.28125 
L 54.109375 2.78125 
Q 49.265625 0.734375 44.1875 -0.34375 
Q 39.109375 -1.421875 33.890625 -1.421875 
Q 20.796875 -1.421875 13.15625 6.1875 
Q 5.515625 13.8125 5.515625 26.8125 
Q 5.515625 40.234375 12.765625 48.109375 
Q 20.015625 56 32.328125 56 
Q 43.359375 56 49.78125 48.890625 
Q 56.203125 41.796875 56.203125 29.59375 
z
M 47.21875 32.234375 
Q 47.125 39.59375 43.09375 43.984375 
Q 39.0625 48.390625 32.421875 48.390625 
Q 24.90625 48.390625 20.390625 44.140625 
Q 15.875 39.890625 15.1875 32.171875 
z
" id="DejaVuSans-101"/>
      <path d="M 9.421875 54.6875 
L 18.40625 54.6875 
L 18.40625 0 
L 9.421875 0 
z
M 9.421875 75.984375 
L 18.40625 75.984375 
L 18.40625 64.59375 
L 9.421875 64.59375 
z
" id="DejaVuSans-105"/>
      <path d="M 45.40625 27.984375 
Q 45.40625 37.75 41.375 43.109375 
Q 37.359375 48.484375 30.078125 48.484375 
Q 22.859375 48.484375 18.828125 43.109375 
Q 14.796875 37.75 14.796875 27.984375 
Q 14.796875 18.265625 18.828125 12.890625 
Q 22.859375 7.515625 30.078125 7.515625 
Q 37.359375 7.515625 41.375 12.890625 
Q 45.40625 18.265625 45.40625 27.984375 
z
M 54.390625 6.78125 
Q 54.390625 -7.171875 48.1875 -13.984375 
Q 42 -20.796875 29.203125 -20.796875 
Q 24.46875 -20.796875 20.265625 -20.09375 
Q 16.0625 -19.390625 12.109375 -17.921875 
L 12.109375 -9.1875 
Q 16.0625 -11.328125 19.921875 -12.34375 
Q 23.78125 -13.375 27.78125 -13.375 
Q 36.625 -13.375 41.015625 -8.765625 
Q 45.40625 -4.15625 45.40625 5.171875 
L 45.40625 9.625 
Q 42.625 4.78125 38.28125 2.390625 
Q 33.9375 0 27.875 0 
Q 17.828125 0 11.671875 7.65625 
Q 5.515625 15.328125 5.515625 27.984375 
Q 5.515625 40.671875 11.671875 48.328125 
Q 17.828125 56 27.875 56 
Q 33.9375 56 38.28125 53.609375 
Q 42.625 51.21875 45.40625 46.390625 
L 45.40625 54.6875 
L 54.390625 54.6875 
z
" id="DejaVuSans-103"/>
      <path d="M 18.3125 70.21875 
L 18.3125 54.6875 
L 36.8125 54.6875 
L 36.8125 47.703125 
L 18.3125 47.703125 
L 18.3125 18.015625 
Q 18.3125 11.328125 20.140625 9.421875 
Q 21.96875 7.515625 27.59375 7.515625 
L 36.8125 7.515625 
L 36.8125 0 
L 27.59375 0 
Q 17.1875 0 13.234375 3.875 
Q 9.28125 7.765625 9.28125 18.015625 
L 9.28125 47.703125 
L 2.6875 47.703125 
L 2.6875 54.6875 
L 9.28125 54.6875 
L 9.28125 70.21875 
z
" id="DejaVuSans-116"/>
      <path d="M 44.28125 53.078125 
L 44.28125 44.578125 
Q 40.484375 46.53125 36.375 47.5 
Q 32.28125 48.484375 27.875 48.484375 
Q 21.1875 48.484375 17.84375 46.4375 
Q 14.5 44.390625 14.5 40.28125 
Q 14.5 37.15625 16.890625 35.375 
Q 19.28125 33.59375 26.515625 31.984375 
L 29.59375 31.296875 
Q 39.15625 29.25 43.1875 25.515625 
Q 47.21875 21.78125 47.21875 15.09375 
Q 47.21875 7.46875 41.1875 3.015625 
Q 35.15625 -1.421875 24.609375 -1.421875 
Q 20.21875 -1.421875 15.453125 -0.5625 
Q 10.6875 0.296875 5.421875 2 
L 5.421875 11.28125 
Q 10.40625 8.6875 15.234375 7.390625 
Q 20.0625 6.109375 24.8125 6.109375 
Q 31.15625 6.109375 34.5625 8.28125 
Q 37.984375 10.453125 37.984375 14.40625 
Q 37.984375 18.0625 35.515625 20.015625 
Q 33.0625 21.96875 24.703125 23.78125 
L 21.578125 24.515625 
Q 13.234375 26.265625 9.515625 29.90625 
Q 5.8125 33.546875 5.8125 39.890625 
Q 5.8125 47.609375 11.28125 51.796875 
Q 16.75 56 26.8125 56 
Q 31.78125 56 36.171875 55.265625 
Q 40.578125 54.546875 44.28125 53.078125 
z
" id="DejaVuSans-115"/>
     </defs>
     <g transform="translate(14.798438 150.500625)rotate(-90)scale(0.1 -0.1)">
      <use xlink:href="#DejaVuSans-119"/>
      <use x="81.787109" xlink:href="#DejaVuSans-101"/>
      <use x="143.310547" xlink:href="#DejaVuSans-105"/>
      <use x="171.09375" xlink:href="#DejaVuSans-103"/>
      <use x="234.570312" xlink:href="#DejaVuSans-104"/>
      <use x="297.949219" xlink:href="#DejaVuSans-116"/>
      <use x="337.158203" xlink:href="#DejaVuSans-115"/>
     </g>
    </g>
   </g>
   <g id="line2d_76">
    <path clip-path="url(#pa5fd3937eb)" d="M 70.563494 141.068718 
L 93.976082 140.827243 
L 109.24516 140.451099 
L 121.460423 139.93808 
L 134.693625 139.143771 
L 158.106212 137.643516 
L 166.249721 137.395569 
L 172.357353 137.407583 
L 178.464984 137.641574 
L 183.554677 138.044494 
L 188.64437 138.675169 
L 192.716124 139.372459 
L 196.787879 140.268254 
L 200.859633 141.390205 
L 204.931387 142.767387 
L 209.003142 144.428698 
L 213.074896 146.40056 
L 216.128712 148.09619 
L 219.182527 149.984259 
L 223.254282 152.804033 
L 227.326036 155.961382 
L 231.39779 159.431611 
L 235.469545 163.171538 
L 240.559238 168.130553 
L 256.846255 184.261116 
L 260.918009 187.887164 
L 264.989764 191.200297 
L 269.061518 194.155594 
L 272.115334 196.122404 
L 275.16915 197.872384 
L 278.222965 199.409622 
L 281.276781 200.743427 
L 284.330597 201.887253 
L 288.402351 203.145523 
L 292.474105 204.138949 
L 296.54586 204.912314 
L 301.635553 205.633989 
L 307.743184 206.234746 
L 314.868754 206.690619 
L 324.030202 207.044798 
L 337.263403 207.316986 
L 357.622175 207.494134 
L 374.927131 207.550478 
L 374.927131 207.550478 
" style="fill:none;stroke:#1f77b4;stroke-linecap:square;stroke-width:1.5;"/>
   </g>
   <g id="line2d_77">
    <path clip-path="url(#pa5fd3937eb)" d="M 70.563494 141.056832 
L 91.940205 140.823668 
L 106.191345 140.46785 
L 117.388669 139.988949 
L 127.568055 139.349466 
L 137.747441 138.500843 
L 149.962704 137.256793 
L 168.285598 135.147169 
L 180.500861 133.570259 
L 188.64437 132.322048 
L 195.76994 130.993891 
L 201.877572 129.597891 
L 206.967264 128.192412 
L 211.039019 126.871495 
L 215.110773 125.343994 
L 219.182527 123.579885 
L 223.254282 121.550998 
L 227.326036 119.23437 
L 231.39779 116.616454 
L 235.469545 113.697672 
L 239.541299 110.496435 
L 244.630992 106.158768 
L 250.738624 100.623983 
L 260.918009 91.328774 
L 266.007702 86.999157 
L 270.079457 83.812433 
L 274.151211 80.919672 
L 278.222965 78.343443 
L 282.29472 76.087638 
L 286.366474 74.140821 
L 290.438228 72.480455 
L 294.509983 71.077244 
L 298.581737 69.899005 
L 303.67143 68.693956 
L 308.761123 67.733172 
L 314.868754 66.83451 
L 321.994324 66.053665 
L 330.137833 65.419868 
L 339.29928 64.939615 
L 350.496605 64.575659 
L 365.765683 64.313985 
L 374.927131 64.230791 
L 374.927131 64.230791 
" style="fill:none;stroke:#ff7f0e;stroke-linecap:square;stroke-width:1.5;"/>
   </g>
   <g id="line2d_78">
    <path clip-path="url(#pa5fd3937eb)" d="M 70.563494 141.082631 
L 94.99402 140.859394 
L 111.281038 140.496301 
L 125.532178 139.953855 
L 157.088274 138.609678 
L 165.231783 138.605089 
L 172.357353 138.830126 
L 179.482923 139.281141 
L 187.626431 140.046514 
L 197.805817 141.263672 
L 214.092835 143.254212 
L 221.218405 143.886631 
L 227.326036 144.204239 
L 232.415729 144.274679 
L 237.505422 144.153331 
L 242.595115 143.841162 
L 248.702746 143.238017 
L 255.828316 142.284754 
L 266.007702 140.648189 
L 286.366474 137.308522 
L 295.527921 136.043936 
L 304.689368 135.013292 
L 313.850816 134.225525 
L 323.012263 133.655839 
L 334.209587 133.193681 
L 347.442789 132.876694 
L 366.783622 132.662404 
L 374.927131 132.618884 
L 374.927131 132.618884 
" style="fill:none;stroke:#2ca02c;stroke-linecap:square;stroke-width:1.5;"/>
   </g>
   <g id="line2d_79">
    <path clip-path="url(#pa5fd3937eb)" d="M 70.563494 141.061928 
L 92.958143 140.822054 
L 107.209283 140.468668 
L 119.424546 139.947011 
L 130.621871 139.243181 
L 143.855072 138.162786 
L 169.303537 136.012088 
L 181.5188 135.241671 
L 195.76994 134.5731 
L 210.02108 134.122227 
L 219.182527 134.027615 
L 226.308098 134.162737 
L 232.415729 134.505276 
L 237.505422 134.99972 
L 242.595115 135.713829 
L 247.684808 136.657377 
L 252.774501 137.817699 
L 258.882132 139.445697 
L 268.043579 142.172692 
L 280.258842 145.806112 
L 287.384413 147.695039 
L 293.492044 149.111367 
L 299.599676 150.324956 
L 305.707307 151.339081 
L 312.832877 152.290117 
L 319.958447 153.023552 
L 328.101956 153.643254 
L 337.263403 154.1255 
L 348.460728 154.496933 
L 363.729806 154.766518 
L 374.927131 154.866817 
L 374.927131 154.866817 
" style="fill:none;stroke:#d62728;stroke-linecap:square;stroke-width:1.5;"/>
   </g>
   <g id="line2d_80">
    <path clip-path="url(#pa5fd3937eb)" d="M 70.563494 141.054207 
L 91.940205 140.817293 
L 106.191345 140.459888 
L 118.406608 139.93453 
L 129.603932 139.232506 
L 143.855072 138.097219 
L 160.14209 136.834303 
L 170.321475 136.284396 
L 180.500861 135.973551 
L 193.734063 135.827435 
L 216.128712 135.82951 
L 226.308098 136.012154 
L 234.451606 136.382129 
L 241.577176 136.927485 
L 248.702746 137.682319 
L 257.864194 138.888569 
L 294.509983 144.006158 
L 303.67143 144.960473 
L 312.832877 145.703993 
L 323.012263 146.298336 
L 334.209587 146.725248 
L 348.460728 147.034179 
L 368.819499 147.22816 
L 374.927131 147.25669 
L 374.927131 147.25669 
" style="fill:none;stroke:#9467bd;stroke-linecap:square;stroke-width:1.5;"/>
   </g>
   <g id="line2d_81">
    <path clip-path="url(#pa5fd3937eb)" d="M 70.563494 141.055483 
L 91.940205 140.819803 
L 106.191345 140.460615 
L 117.388669 139.978068 
L 127.568055 139.335307 
L 138.765379 138.389936 
L 151.998581 137.027347 
L 205.949326 131.039861 
L 213.074896 129.980294 
L 220.200466 128.682628 
L 226.308098 127.350312 
L 233.433668 125.547834 
L 241.577176 123.244046 
L 258.882132 118.266586 
L 266.007702 116.496099 
L 272.115334 115.196476 
L 278.222965 114.112297 
L 284.330597 113.235538 
L 291.456167 112.444879 
L 299.599676 111.790267 
L 308.761123 111.288638 
L 319.958447 110.901794 
L 335.227526 110.613344 
L 357.622175 110.437728 
L 374.927131 110.388745 
L 374.927131 110.388745 
" style="fill:none;stroke:#8c564b;stroke-linecap:square;stroke-width:1.5;"/>
   </g>
   <g id="line2d_82">
    <path clip-path="url(#pa5fd3937eb)" d="M 70.563494 141.067479 
L 93.976082 140.82567 
L 109.24516 140.456417 
L 122.478362 139.919848 
L 139.783318 138.962502 
L 153.01652 138.309885 
L 161.160028 138.110615 
L 168.285598 138.138166 
L 175.411168 138.40016 
L 181.5188 138.840538 
L 187.626431 139.502735 
L 193.734063 140.402534 
L 199.841694 141.544194 
L 205.949326 142.912556 
L 213.074896 144.738422 
L 233.433668 150.148172 
L 238.523361 151.221179 
L 243.613053 152.07417 
L 248.702746 152.674734 
L 253.792439 153.007822 
L 258.882132 153.076169 
L 263.971825 152.899076 
L 269.061518 152.509817 
L 275.16915 151.824552 
L 284.330597 150.530986 
L 299.599676 148.333711 
L 307.743184 147.384986 
L 315.886693 146.649881 
L 325.04814 146.057968 
L 335.227526 145.628762 
L 348.460728 145.309402 
L 366.783622 145.107554 
L 374.927131 145.063805 
L 374.927131 145.063805 
" style="fill:none;stroke:#e377c2;stroke-linecap:square;stroke-width:1.5;"/>
   </g>
   <g id="line2d_83">
    <path clip-path="url(#pa5fd3937eb)" d="M 70.563494 141.034045 
L 90.922266 140.778708 
L 105.173406 140.383229 
L 116.370731 139.861827 
L 127.568055 139.110298 
L 140.801257 137.973092 
L 159.124151 136.387818 
L 169.303537 135.749326 
L 178.464984 135.399196 
L 187.626431 135.281442 
L 195.76994 135.389921 
L 202.89551 135.677014 
L 210.02108 136.190212 
L 216.128712 136.868963 
L 221.218405 137.660594 
L 225.290159 138.484762 
L 229.361913 139.519282 
L 233.433668 140.806819 
L 236.487483 141.965796 
L 239.541299 143.311913 
L 242.595115 144.863656 
L 245.648931 146.637832 
L 248.702746 148.648652 
L 251.756562 150.90678 
L 254.810378 153.418398 
L 257.864194 156.184297 
L 260.918009 159.199051 
L 264.989764 163.583436 
L 269.061518 168.337604 
L 274.151211 174.686142 
L 283.312658 186.645032 
L 289.42029 194.441611 
L 293.492044 199.333019 
L 297.563798 203.871045 
L 300.617614 207.002701 
L 303.67143 209.881681 
L 306.725246 212.499765 
L 309.779061 214.856691 
L 312.832877 216.958983 
L 315.886693 218.818564 
L 318.940509 220.451291 
L 321.994324 221.875557 
L 326.066079 223.484397 
L 330.137833 224.804756 
L 334.209587 225.881538 
L 338.281342 226.755554 
L 343.371035 227.616967 
L 349.478666 228.38733 
L 356.604236 229.020543 
L 364.747745 229.502987 
L 374.927131 229.874489 
L 374.927131 229.874489 
" style="fill:none;stroke:#7f7f7f;stroke-linecap:square;stroke-width:1.5;"/>
   </g>
   <g id="line2d_84">
    <path clip-path="url(#pa5fd3937eb)" d="M 70.563494 141.027903 
L 90.922266 140.760714 
L 104.155468 140.384218 
L 115.352792 139.853644 
L 125.532178 139.154047 
L 136.729502 138.146306 
L 156.070335 136.103771 
L 195.76994 131.818221 
L 202.89551 130.711005 
L 209.003142 129.556887 
L 215.110773 128.179599 
L 221.218405 126.568606 
L 228.343975 124.423484 
L 238.523361 121.059797 
L 248.702746 117.763817 
L 254.810378 116.026568 
L 259.900071 114.794576 
L 264.989764 113.793891 
L 270.079457 113.042484 
L 275.16915 112.545965 
L 280.258842 112.30022 
L 285.348535 112.293569 
L 290.438228 112.507786 
L 296.54586 113.020903 
L 302.653491 113.759548 
L 310.797 114.973259 
L 329.119894 117.800797 
L 337.263403 118.804246 
L 345.406912 119.584251 
L 354.568359 120.217082 
L 364.747745 120.68103 
L 374.927131 120.968846 
L 374.927131 120.968846 
" style="fill:none;stroke:#bcbd22;stroke-linecap:square;stroke-width:1.5;"/>
   </g>
   <g id="line2d_85">
    <path clip-path="url(#pa5fd3937eb)" d="M 70.563494 141.034295 
L 90.922266 140.779037 
L 105.173406 140.382608 
L 116.370731 139.857613 
L 126.550116 139.17415 
L 138.765379 138.113269 
L 171.339414 135.118632 
L 192.716124 133.289338 
L 203.913449 132.05785 
L 232.415729 128.727776 
L 240.559238 128.075976 
L 247.684808 127.696677 
L 253.792439 127.559494 
L 259.900071 127.656966 
L 264.989764 127.965438 
L 270.079457 128.513529 
L 275.16915 129.312584 
L 280.258842 130.347424 
L 286.366474 131.839263 
L 296.54586 134.635315 
L 305.707307 137.092434 
L 312.832877 138.770421 
L 318.940509 139.991502 
L 325.04814 141.003913 
L 332.17371 141.938288 
L 339.29928 142.642602 
L 347.442789 143.221825 
L 357.622175 143.697212 
L 369.837438 144.0291 
L 374.927131 144.117402 
L 374.927131 144.117402 
" style="fill:none;stroke:#17becf;stroke-linecap:square;stroke-width:1.5;"/>
   </g>
   <g id="line2d_86">
    <path clip-path="url(#pa5fd3937eb)" d="M 70.563494 141.02425 
L 89.904327 140.77142 
L 103.137529 140.402692 
L 114.334853 139.879827 
L 124.514239 139.184637 
L 134.693625 138.273364 
L 149.962704 136.644143 
L 173.375291 134.170196 
L 188.64437 132.50624 
L 196.787879 131.402073 
L 203.913449 130.195059 
L 210.02108 128.908135 
L 215.110773 127.60795 
L 220.200466 126.056413 
L 224.27222 124.603892 
L 228.343975 122.936625 
L 232.415729 121.028225 
L 236.487483 118.851478 
L 240.559238 116.379709 
L 244.630992 113.589104 
L 248.702746 110.461972 
L 252.774501 106.990577 
L 256.846255 103.180887 
L 260.918009 99.055403 
L 266.007702 93.517424 
L 272.115334 86.469684 
L 287.384413 68.624851 
L 292.474105 63.151701 
L 296.54586 59.090634 
L 300.617614 55.354836 
L 304.689368 51.966859 
L 308.761123 48.934364 
L 312.832877 46.252454 
L 316.904631 43.906457 
L 320.976386 41.874724 
L 325.04814 40.131139 
L 329.119894 38.647216 
L 333.191649 37.393762 
L 337.263403 36.342135 
L 342.353096 35.270208 
L 347.442789 34.422878 
L 353.55042 33.643224 
L 360.675991 32.984235 
L 368.819499 32.469496 
L 374.927131 32.201761 
L 374.927131 32.201761 
" style="fill:none;stroke:#1f77b4;stroke-linecap:square;stroke-width:1.5;"/>
   </g>
   <g id="line2d_87">
    <path clip-path="url(#pa5fd3937eb)" d="M 70.563494 141.023112 
L 89.904327 140.768348 
L 103.137529 140.396786 
L 114.334853 139.869872 
L 124.514239 139.169226 
L 134.693625 138.250611 
L 149.962704 136.606811 
L 193.734063 131.62661 
L 200.859633 130.483699 
L 207.985203 129.12909 
L 215.110773 127.563311 
L 224.27222 125.30815 
L 248.702746 119.136669 
L 258.882132 116.574773 
L 263.971825 115.099929 
L 269.061518 113.387795 
L 273.133272 111.809362 
L 278.222965 109.563229 
L 283.312658 107.046319 
L 290.438228 103.224564 
L 301.635553 97.192957 
L 306.725246 94.691967 
L 311.814939 92.437186 
L 316.904631 90.459375 
L 321.994324 88.764857 
L 327.084017 87.341986 
L 332.17371 86.167554 
L 337.263403 85.21221 
L 343.371035 84.310828 
L 349.478666 83.627381 
L 356.604236 83.043442 
L 365.765683 82.537787 
L 374.927131 82.218823 
L 374.927131 82.218823 
" style="fill:none;stroke:#ff7f0e;stroke-linecap:square;stroke-width:1.5;"/>
   </g>
   <g id="line2d_88">
    <path clip-path="url(#pa5fd3937eb)" d="M 70.563494 141.04374 
L 91.940205 140.787482 
L 106.191345 140.404747 
L 118.406608 139.851294 
L 130.621871 139.056818 
L 159.124151 137.027744 
L 167.26766 136.772802 
L 174.39323 136.798306 
L 180.500861 137.05307 
L 185.590554 137.463444 
L 190.680247 138.08585 
L 195.76994 138.95375 
L 199.841694 139.848299 
L 203.913449 140.9395 
L 207.985203 142.242213 
L 212.056957 143.767066 
L 216.128712 145.518322 
L 220.200466 147.49181 
L 225.290159 150.248486 
L 230.379852 153.278066 
L 237.505422 157.831811 
L 251.756562 167.080922 
L 257.864194 170.731466 
L 262.953887 173.517644 
L 268.043579 176.035948 
L 273.133272 178.271424 
L 278.222965 180.223739 
L 283.312658 181.904398 
L 288.402351 183.333678 
L 293.492044 184.53736 
L 299.599676 185.723591 
L 305.707307 186.673095 
L 312.832877 187.538338 
L 320.976386 188.275385 
L 330.137833 188.860927 
L 341.335157 189.325046 
L 354.568359 189.639599 
L 373.909192 189.850988 
L 374.927131 189.857374 
L 374.927131 189.857374 
" style="fill:none;stroke:#2ca02c;stroke-linecap:square;stroke-width:1.5;"/>
   </g>
   <g id="line2d_89">
    <path clip-path="url(#pa5fd3937eb)" d="M 70.563494 141.093108 
L 96.011959 140.873275 
L 111.281038 140.529776 
L 122.478362 140.076547 
L 132.657748 139.442221 
L 141.819195 138.636093 
L 149.962704 137.697668 
L 158.106212 136.529369 
L 166.249721 135.129742 
L 175.411168 133.321575 
L 199.841694 128.338594 
L 207.985203 127.01454 
L 215.110773 126.074204 
L 223.254282 125.237815 
L 232.415729 124.553895 
L 242.595115 124.035492 
L 254.810378 123.640975 
L 271.097395 123.352022 
L 292.474105 123.215073 
L 346.42485 123.202578 
L 374.927131 123.203301 
L 374.927131 123.203301 
" style="fill:none;stroke:#d62728;stroke-linecap:square;stroke-width:1.5;"/>
   </g>
   <g id="line2d_90">
    <path clip-path="url(#pa5fd3937eb)" d="M 70.563494 141.166635 
L 132.657748 141.034151 
L 167.26766 140.727517 
L 182.536738 140.392957 
L 192.716124 139.965133 
L 201.877572 139.378564 
L 211.039019 138.58638 
L 221.218405 137.490798 
L 235.469545 135.705005 
L 256.846255 133.023222 
L 268.043579 131.853516 
L 279.240904 130.911892 
L 290.438228 130.198983 
L 302.653491 129.659771 
L 315.886693 129.30364 
L 333.191649 129.072209 
L 361.693929 128.948733 
L 374.927131 128.931176 
L 374.927131 128.931176 
" style="fill:none;stroke:#9467bd;stroke-linecap:square;stroke-width:1.5;"/>
   </g>
   <g id="line2d_91">
    <path clip-path="url(#pa5fd3937eb)" d="M 70.563494 141.174927 
L 139.783318 141.283782 
L 156.070335 141.51843 
L 168.285598 141.912537 
L 179.482923 142.506373 
L 191.698186 143.403921 
L 225.290159 146.083589 
L 235.469545 146.568537 
L 245.648931 146.825543 
L 257.864194 146.884554 
L 277.205027 146.697353 
L 312.832877 146.365745 
L 353.55042 146.25034 
L 374.927131 146.236519 
L 374.927131 146.236519 
" style="fill:none;stroke:#8c564b;stroke-linecap:square;stroke-width:1.5;"/>
   </g>
   <g id="line2d_92">
    <path clip-path="url(#pa5fd3937eb)" d="M 70.563494 141.175155 
L 139.783318 141.079264 
L 154.034458 140.836842 
L 165.231783 140.441812 
L 175.411168 139.875855 
L 186.608493 139.02039 
L 199.841694 137.758676 
L 215.110773 136.06922 
L 228.343975 134.39624 
L 246.666869 131.80959 
L 258.882132 130.197063 
L 268.043579 129.207362 
L 277.205027 128.444093 
L 287.384413 127.841093 
L 298.581737 127.415661 
L 312.832877 127.121772 
L 333.191649 126.958727 
L 374.927131 126.89721 
L 374.927131 126.89721 
" style="fill:none;stroke:#e377c2;stroke-linecap:square;stroke-width:1.5;"/>
   </g>
   <g id="line2d_93">
    <path clip-path="url(#pa5fd3937eb)" d="M 70.563494 141.199303 
L 108.227222 141.358454 
L 126.550116 141.641544 
L 138.765379 142.026493 
L 148.944765 142.562228 
L 157.088274 143.207007 
L 164.213844 143.992423 
L 170.321475 144.877881 
L 176.429107 146.000813 
L 181.5188 147.142339 
L 186.608493 148.483151 
L 192.716124 150.351769 
L 198.823756 152.468576 
L 207.985203 155.934888 
L 218.164589 159.772436 
L 224.27222 161.847769 
L 229.361913 163.367524 
L 234.451606 164.667563 
L 239.541299 165.740373 
L 244.630992 166.593681 
L 249.720685 167.245895 
L 255.828316 167.798202 
L 262.953887 168.185629 
L 271.097395 168.381672 
L 282.29472 168.393625 
L 310.797 168.073821 
L 340.317219 167.89471 
L 374.927131 167.843751 
L 374.927131 167.843751 
" style="fill:none;stroke:#7f7f7f;stroke-linecap:square;stroke-width:1.5;"/>
   </g>
   <g id="line2d_94">
    <path clip-path="url(#pa5fd3937eb)" d="M 70.563494 141.17367 
L 140.801257 141.064985 
L 157.088274 140.813046 
L 171.339414 140.373694 
L 199.841694 139.374431 
L 207.985203 139.387444 
L 215.110773 139.626183 
L 222.236343 140.104153 
L 229.361913 140.813008 
L 238.523361 141.984257 
L 258.882132 144.727316 
L 267.025641 145.546947 
L 275.16915 146.134019 
L 284.330597 146.548571 
L 295.527921 146.800391 
L 310.797 146.897635 
L 356.604236 146.842944 
L 374.927131 146.831164 
L 374.927131 146.831164 
" style="fill:none;stroke:#bcbd22;stroke-linecap:square;stroke-width:1.5;"/>
   </g>
   <g id="patch_3">
    <path d="M 55.345313 239.758125 
L 55.345313 22.318125 
" style="fill:none;stroke:#000000;stroke-linecap:square;stroke-linejoin:miter;stroke-width:0.8;"/>
   </g>
   <g id="patch_4">
    <path d="M 390.145312 239.758125 
L 390.145312 22.318125 
" style="fill:none;stroke:#000000;stroke-linecap:square;stroke-linejoin:miter;stroke-width:0.8;"/>
   </g>
   <g id="patch_5">
    <path d="M 55.345313 239.758125 
L 390.145312 239.758125 
" style="fill:none;stroke:#000000;stroke-linecap:square;stroke-linejoin:miter;stroke-width:0.8;"/>
   </g>
   <g id="patch_6">
    <path d="M 55.345313 22.318125 
L 390.145312 22.318125 
" style="fill:none;stroke:#000000;stroke-linecap:square;stroke-linejoin:miter;stroke-width:0.8;"/>
   </g>
   <g id="text_16">
    <!-- Ridge coefficients as a function of the regularization -->
    <defs>
     <path d="M 44.390625 34.1875 
Q 47.5625 33.109375 50.5625 29.59375 
Q 53.5625 26.078125 56.59375 19.921875 
L 66.609375 0 
L 56 0 
L 46.6875 18.703125 
Q 43.0625 26.03125 39.671875 28.421875 
Q 36.28125 30.8125 30.421875 30.8125 
L 19.671875 30.8125 
L 19.671875 0 
L 9.8125 0 
L 9.8125 72.90625 
L 32.078125 72.90625 
Q 44.578125 72.90625 50.734375 67.671875 
Q 56.890625 62.453125 56.890625 51.90625 
Q 56.890625 45.015625 53.6875 40.46875 
Q 50.484375 35.9375 44.390625 34.1875 
z
M 19.671875 64.796875 
L 19.671875 38.921875 
L 32.078125 38.921875 
Q 39.203125 38.921875 42.84375 42.21875 
Q 46.484375 45.515625 46.484375 51.90625 
Q 46.484375 58.296875 42.84375 61.546875 
Q 39.203125 64.796875 32.078125 64.796875 
z
" id="DejaVuSans-82"/>
     <path d="M 45.40625 46.390625 
L 45.40625 75.984375 
L 54.390625 75.984375 
L 54.390625 0 
L 45.40625 0 
L 45.40625 8.203125 
Q 42.578125 3.328125 38.25 0.953125 
Q 33.9375 -1.421875 27.875 -1.421875 
Q 17.96875 -1.421875 11.734375 6.484375 
Q 5.515625 14.40625 5.515625 27.296875 
Q 5.515625 40.1875 11.734375 48.09375 
Q 17.96875 56 27.875 56 
Q 33.9375 56 38.25 53.625 
Q 42.578125 51.265625 45.40625 46.390625 
z
M 14.796875 27.296875 
Q 14.796875 17.390625 18.875 11.75 
Q 22.953125 6.109375 30.078125 6.109375 
Q 37.203125 6.109375 41.296875 11.75 
Q 45.40625 17.390625 45.40625 27.296875 
Q 45.40625 37.203125 41.296875 42.84375 
Q 37.203125 48.484375 30.078125 48.484375 
Q 22.953125 48.484375 18.875 42.84375 
Q 14.796875 37.203125 14.796875 27.296875 
z
" id="DejaVuSans-100"/>
     <path id="DejaVuSans-32"/>
     <path d="M 48.78125 52.59375 
L 48.78125 44.1875 
Q 44.96875 46.296875 41.140625 47.34375 
Q 37.3125 48.390625 33.40625 48.390625 
Q 24.65625 48.390625 19.8125 42.84375 
Q 14.984375 37.3125 14.984375 27.296875 
Q 14.984375 17.28125 19.8125 11.734375 
Q 24.65625 6.203125 33.40625 6.203125 
Q 37.3125 6.203125 41.140625 7.25 
Q 44.96875 8.296875 48.78125 10.40625 
L 48.78125 2.09375 
Q 45.015625 0.34375 40.984375 -0.53125 
Q 36.96875 -1.421875 32.421875 -1.421875 
Q 20.0625 -1.421875 12.78125 6.34375 
Q 5.515625 14.109375 5.515625 27.296875 
Q 5.515625 40.671875 12.859375 48.328125 
Q 20.21875 56 33.015625 56 
Q 37.15625 56 41.109375 55.140625 
Q 45.0625 54.296875 48.78125 52.59375 
z
" id="DejaVuSans-99"/>
     <path d="M 30.609375 48.390625 
Q 23.390625 48.390625 19.1875 42.75 
Q 14.984375 37.109375 14.984375 27.296875 
Q 14.984375 17.484375 19.15625 11.84375 
Q 23.34375 6.203125 30.609375 6.203125 
Q 37.796875 6.203125 41.984375 11.859375 
Q 46.1875 17.53125 46.1875 27.296875 
Q 46.1875 37.015625 41.984375 42.703125 
Q 37.796875 48.390625 30.609375 48.390625 
z
M 30.609375 56 
Q 42.328125 56 49.015625 48.375 
Q 55.71875 40.765625 55.71875 27.296875 
Q 55.71875 13.875 49.015625 6.21875 
Q 42.328125 -1.421875 30.609375 -1.421875 
Q 18.84375 -1.421875 12.171875 6.21875 
Q 5.515625 13.875 5.515625 27.296875 
Q 5.515625 40.765625 12.171875 48.375 
Q 18.84375 56 30.609375 56 
z
" id="DejaVuSans-111"/>
     <path d="M 37.109375 75.984375 
L 37.109375 68.5 
L 28.515625 68.5 
Q 23.6875 68.5 21.796875 66.546875 
Q 19.921875 64.59375 19.921875 59.515625 
L 19.921875 54.6875 
L 34.71875 54.6875 
L 34.71875 47.703125 
L 19.921875 47.703125 
L 19.921875 0 
L 10.890625 0 
L 10.890625 47.703125 
L 2.296875 47.703125 
L 2.296875 54.6875 
L 10.890625 54.6875 
L 10.890625 58.5 
Q 10.890625 67.625 15.140625 71.796875 
Q 19.390625 75.984375 28.609375 75.984375 
z
" id="DejaVuSans-102"/>
     <path d="M 54.890625 33.015625 
L 54.890625 0 
L 45.90625 0 
L 45.90625 32.71875 
Q 45.90625 40.484375 42.875 44.328125 
Q 39.84375 48.1875 33.796875 48.1875 
Q 26.515625 48.1875 22.3125 43.546875 
Q 18.109375 38.921875 18.109375 30.90625 
L 18.109375 0 
L 9.078125 0 
L 9.078125 54.6875 
L 18.109375 54.6875 
L 18.109375 46.1875 
Q 21.34375 51.125 25.703125 53.5625 
Q 30.078125 56 35.796875 56 
Q 45.21875 56 50.046875 50.171875 
Q 54.890625 44.34375 54.890625 33.015625 
z
" id="DejaVuSans-110"/>
     <path d="M 8.5 21.578125 
L 8.5 54.6875 
L 17.484375 54.6875 
L 17.484375 21.921875 
Q 17.484375 14.15625 20.5 10.265625 
Q 23.53125 6.390625 29.59375 6.390625 
Q 36.859375 6.390625 41.078125 11.03125 
Q 45.3125 15.671875 45.3125 23.6875 
L 45.3125 54.6875 
L 54.296875 54.6875 
L 54.296875 0 
L 45.3125 0 
L 45.3125 8.40625 
Q 42.046875 3.421875 37.71875 1 
Q 33.40625 -1.421875 27.6875 -1.421875 
Q 18.265625 -1.421875 13.375 4.4375 
Q 8.5 10.296875 8.5 21.578125 
z
M 31.109375 56 
z
" id="DejaVuSans-117"/>
     <path d="M 41.109375 46.296875 
Q 39.59375 47.171875 37.8125 47.578125 
Q 36.03125 48 33.890625 48 
Q 26.265625 48 22.1875 43.046875 
Q 18.109375 38.09375 18.109375 28.8125 
L 18.109375 0 
L 9.078125 0 
L 9.078125 54.6875 
L 18.109375 54.6875 
L 18.109375 46.1875 
Q 20.953125 51.171875 25.484375 53.578125 
Q 30.03125 56 36.53125 56 
Q 37.453125 56 38.578125 55.875 
Q 39.703125 55.765625 41.0625 55.515625 
z
" id="DejaVuSans-114"/>
     <path d="M 5.515625 54.6875 
L 48.1875 54.6875 
L 48.1875 46.484375 
L 14.40625 7.171875 
L 48.1875 7.171875 
L 48.1875 0 
L 4.296875 0 
L 4.296875 8.203125 
L 38.09375 47.515625 
L 5.515625 47.515625 
z
" id="DejaVuSans-122"/>
    </defs>
    <g transform="translate(65.577187 16.318125)scale(0.12 -0.12)">
     <use xlink:href="#DejaVuSans-82"/>
     <use x="69.482422" xlink:href="#DejaVuSans-105"/>
     <use x="97.265625" xlink:href="#DejaVuSans-100"/>
     <use x="160.742188" xlink:href="#DejaVuSans-103"/>
     <use x="224.21875" xlink:href="#DejaVuSans-101"/>
     <use x="285.742188" xlink:href="#DejaVuSans-32"/>
     <use x="317.529297" xlink:href="#DejaVuSans-99"/>
     <use x="372.509766" xlink:href="#DejaVuSans-111"/>
     <use x="433.691406" xlink:href="#DejaVuSans-101"/>
     <use x="495.214844" xlink:href="#DejaVuSans-102"/>
     <use x="530.419922" xlink:href="#DejaVuSans-102"/>
     <use x="565.625" xlink:href="#DejaVuSans-105"/>
     <use x="593.408203" xlink:href="#DejaVuSans-99"/>
     <use x="648.388672" xlink:href="#DejaVuSans-105"/>
     <use x="676.171875" xlink:href="#DejaVuSans-101"/>
     <use x="737.695312" xlink:href="#DejaVuSans-110"/>
     <use x="801.074219" xlink:href="#DejaVuSans-116"/>
     <use x="840.283203" xlink:href="#DejaVuSans-115"/>
     <use x="892.382812" xlink:href="#DejaVuSans-32"/>
     <use x="924.169922" xlink:href="#DejaVuSans-97"/>
     <use x="985.449219" xlink:href="#DejaVuSans-115"/>
     <use x="1037.548828" xlink:href="#DejaVuSans-32"/>
     <use x="1069.335938" xlink:href="#DejaVuSans-97"/>
     <use x="1130.615234" xlink:href="#DejaVuSans-32"/>
     <use x="1162.402344" xlink:href="#DejaVuSans-102"/>
     <use x="1197.607422" xlink:href="#DejaVuSans-117"/>
     <use x="1260.986328" xlink:href="#DejaVuSans-110"/>
     <use x="1324.365234" xlink:href="#DejaVuSans-99"/>
     <use x="1379.345703" xlink:href="#DejaVuSans-116"/>
     <use x="1418.554688" xlink:href="#DejaVuSans-105"/>
     <use x="1446.337891" xlink:href="#DejaVuSans-111"/>
     <use x="1507.519531" xlink:href="#DejaVuSans-110"/>
     <use x="1570.898438" xlink:href="#DejaVuSans-32"/>
     <use x="1602.685547" xlink:href="#DejaVuSans-111"/>
     <use x="1663.867188" xlink:href="#DejaVuSans-102"/>
     <use x="1699.072266" xlink:href="#DejaVuSans-32"/>
     <use x="1730.859375" xlink:href="#DejaVuSans-116"/>
     <use x="1770.068359" xlink:href="#DejaVuSans-104"/>
     <use x="1833.447266" xlink:href="#DejaVuSans-101"/>
     <use x="1894.970703" xlink:href="#DejaVuSans-32"/>
     <use x="1926.757812" xlink:href="#DejaVuSans-114"/>
     <use x="1967.839844" xlink:href="#DejaVuSans-101"/>
     <use x="2029.363281" xlink:href="#DejaVuSans-103"/>
     <use x="2092.839844" xlink:href="#DejaVuSans-117"/>
     <use x="2156.21875" xlink:href="#DejaVuSans-108"/>
     <use x="2184.001953" xlink:href="#DejaVuSans-97"/>
     <use x="2245.28125" xlink:href="#DejaVuSans-114"/>
     <use x="2286.394531" xlink:href="#DejaVuSans-105"/>
     <use x="2314.177734" xlink:href="#DejaVuSans-122"/>
     <use x="2366.667969" xlink:href="#DejaVuSans-97"/>
     <use x="2427.947266" xlink:href="#DejaVuSans-116"/>
     <use x="2467.15625" xlink:href="#DejaVuSans-105"/>
     <use x="2494.939453" xlink:href="#DejaVuSans-111"/>
     <use x="2556.121094" xlink:href="#DejaVuSans-110"/>
    </g>
   </g>
  </g>
 </g>
 <defs>
  <clipPath id="pa5fd3937eb">
   <rect height="217.44" width="334.8" x="55.345313" y="22.318125"/>
  </clipPath>
 </defs>
</svg>
