<?xml version="1.0" encoding="utf-8" standalone="no"?>
<!DOCTYPE svg PUBLIC "-//W3C//DTD SVG 1.1//EN"
  "http://www.w3.org/Graphics/SVG/1.1/DTD/svg11.dtd">
<!-- Created with matplotlib (https://matplotlib.org/) -->
<svg height="425.8985pt" version="1.1" viewBox="0 0 768.807 425.8985" width="768.807pt" xmlns="http://www.w3.org/2000/svg" xmlns:xlink="http://www.w3.org/1999/xlink">
 <defs>
  <style type="text/css">
*{stroke-linecap:butt;stroke-linejoin:round;}
  </style>
 </defs>
 <g id="figure_1">
  <g id="patch_1">
   <path d="M -0 425.8985 
L 768.807 425.8985 
L 768.807 0 
L -0 0 
z
" style="fill:#ffffff;"/>
  </g>
  <g id="axes_1">
   <g id="patch_2">
    <path d="M 189.1035 361.2435 
L 579.7035 361.2435 
L 579.7035 35.0835 
L 189.1035 35.0835 
z
" style="fill:#ffffff;"/>
   </g>
   <g id="matplotlib.axis_1">
    <g id="xtick_1">
     <g id="line2d_1">
      <defs>
       <path d="M 0 0 
L 0 3.5 
" id="mec8fb1903c" style="stroke:#000000;stroke-width:0.8;"/>
      </defs>
      <g>
       <use style="stroke:#000000;stroke-width:0.8;" x="511.221682" xlink:href="#mec8fb1903c" y="361.2435"/>
      </g>
     </g>
     <g id="text_1">
      <!-- $\mathdefault{10^{-1}}$ -->
      <defs>
       <path d="M 12.40625 8.296875 
L 28.515625 8.296875 
L 28.515625 63.921875 
L 10.984375 60.40625 
L 10.984375 69.390625 
L 28.421875 72.90625 
L 38.28125 72.90625 
L 38.28125 8.296875 
L 54.390625 8.296875 
L 54.390625 0 
L 12.40625 0 
z
" id="DejaVuSans-49"/>
       <path d="M 31.78125 66.40625 
Q 24.171875 66.40625 20.328125 58.90625 
Q 16.5 51.421875 16.5 36.375 
Q 16.5 21.390625 20.328125 13.890625 
Q 24.171875 6.390625 31.78125 6.390625 
Q 39.453125 6.390625 43.28125 13.890625 
Q 47.125 21.390625 47.125 36.375 
Q 47.125 51.421875 43.28125 58.90625 
Q 39.453125 66.40625 31.78125 66.40625 
z
M 31.78125 74.21875 
Q 44.046875 74.21875 50.515625 64.515625 
Q 56.984375 54.828125 56.984375 36.375 
Q 56.984375 17.96875 50.515625 8.265625 
Q 44.046875 -1.421875 31.78125 -1.421875 
Q 19.53125 -1.421875 13.0625 8.265625 
Q 6.59375 17.96875 6.59375 36.375 
Q 6.59375 54.828125 13.0625 64.515625 
Q 19.53125 74.21875 31.78125 74.21875 
z
" id="DejaVuSans-48"/>
       <path d="M 10.59375 35.5 
L 73.1875 35.5 
L 73.1875 27.203125 
L 10.59375 27.203125 
z
" id="DejaVuSans-8722"/>
      </defs>
      <g transform="translate(483.021682 386.47975)scale(0.24 -0.24)">
       <use transform="translate(0 0.684375)" xlink:href="#DejaVuSans-49"/>
       <use transform="translate(63.623047 0.684375)" xlink:href="#DejaVuSans-48"/>
       <use transform="translate(128.203125 38.965625)scale(0.7)" xlink:href="#DejaVuSans-8722"/>
       <use transform="translate(186.855469 38.965625)scale(0.7)" xlink:href="#DejaVuSans-49"/>
      </g>
     </g>
    </g>
    <g id="xtick_2">
     <g id="line2d_2">
      <g>
       <use style="stroke:#000000;stroke-width:0.8;" x="409.767136" xlink:href="#mec8fb1903c" y="361.2435"/>
      </g>
     </g>
     <g id="text_2">
      <!-- $\mathdefault{10^{1}}$ -->
      <g transform="translate(388.647136 386.47975)scale(0.24 -0.24)">
       <use transform="translate(0 0.684375)" xlink:href="#DejaVuSans-49"/>
       <use transform="translate(63.623047 0.684375)" xlink:href="#DejaVuSans-48"/>
       <use transform="translate(128.203125 38.965625)scale(0.7)" xlink:href="#DejaVuSans-49"/>
      </g>
     </g>
    </g>
    <g id="xtick_3">
     <g id="line2d_3">
      <g>
       <use style="stroke:#000000;stroke-width:0.8;" x="308.312591" xlink:href="#mec8fb1903c" y="361.2435"/>
      </g>
     </g>
     <g id="text_3">
      <!-- $\mathdefault{10^{3}}$ -->
      <defs>
       <path d="M 40.578125 39.3125 
Q 47.65625 37.796875 51.625 33 
Q 55.609375 28.21875 55.609375 21.1875 
Q 55.609375 10.40625 48.1875 4.484375 
Q 40.765625 -1.421875 27.09375 -1.421875 
Q 22.515625 -1.421875 17.65625 -0.515625 
Q 12.796875 0.390625 7.625 2.203125 
L 7.625 11.71875 
Q 11.71875 9.328125 16.59375 8.109375 
Q 21.484375 6.890625 26.8125 6.890625 
Q 36.078125 6.890625 40.9375 10.546875 
Q 45.796875 14.203125 45.796875 21.1875 
Q 45.796875 27.640625 41.28125 31.265625 
Q 36.765625 34.90625 28.71875 34.90625 
L 20.21875 34.90625 
L 20.21875 43.015625 
L 29.109375 43.015625 
Q 36.375 43.015625 40.234375 45.921875 
Q 44.09375 48.828125 44.09375 54.296875 
Q 44.09375 59.90625 40.109375 62.90625 
Q 36.140625 65.921875 28.71875 65.921875 
Q 24.65625 65.921875 20.015625 65.03125 
Q 15.375 64.15625 9.8125 62.3125 
L 9.8125 71.09375 
Q 15.4375 72.65625 20.34375 73.4375 
Q 25.25 74.21875 29.59375 74.21875 
Q 40.828125 74.21875 47.359375 69.109375 
Q 53.90625 64.015625 53.90625 55.328125 
Q 53.90625 49.265625 50.4375 45.09375 
Q 46.96875 40.921875 40.578125 39.3125 
z
" id="DejaVuSans-51"/>
      </defs>
      <g transform="translate(287.192591 386.47975)scale(0.24 -0.24)">
       <use transform="translate(0 0.765625)" xlink:href="#DejaVuSans-49"/>
       <use transform="translate(63.623047 0.765625)" xlink:href="#DejaVuSans-48"/>
       <use transform="translate(128.203125 39.046875)scale(0.7)" xlink:href="#DejaVuSans-51"/>
      </g>
     </g>
    </g>
    <g id="xtick_4">
     <g id="line2d_4">
      <g>
       <use style="stroke:#000000;stroke-width:0.8;" x="206.858045" xlink:href="#mec8fb1903c" y="361.2435"/>
      </g>
     </g>
     <g id="text_4">
      <!-- $\mathdefault{10^{5}}$ -->
      <defs>
       <path d="M 10.796875 72.90625 
L 49.515625 72.90625 
L 49.515625 64.59375 
L 19.828125 64.59375 
L 19.828125 46.734375 
Q 21.96875 47.46875 24.109375 47.828125 
Q 26.265625 48.1875 28.421875 48.1875 
Q 40.625 48.1875 47.75 41.5 
Q 54.890625 34.8125 54.890625 23.390625 
Q 54.890625 11.625 47.5625 5.09375 
Q 40.234375 -1.421875 26.90625 -1.421875 
Q 22.3125 -1.421875 17.546875 -0.640625 
Q 12.796875 0.140625 7.71875 1.703125 
L 7.71875 11.625 
Q 12.109375 9.234375 16.796875 8.0625 
Q 21.484375 6.890625 26.703125 6.890625 
Q 35.15625 6.890625 40.078125 11.328125 
Q 45.015625 15.765625 45.015625 23.390625 
Q 45.015625 31 40.078125 35.4375 
Q 35.15625 39.890625 26.703125 39.890625 
Q 22.75 39.890625 18.8125 39.015625 
Q 14.890625 38.140625 10.796875 36.28125 
z
" id="DejaVuSans-53"/>
      </defs>
      <g transform="translate(185.738045 386.47975)scale(0.24 -0.24)">
       <use transform="translate(0 0.684375)" xlink:href="#DejaVuSans-49"/>
       <use transform="translate(63.623047 0.684375)" xlink:href="#DejaVuSans-48"/>
       <use transform="translate(128.203125 38.965625)scale(0.7)" xlink:href="#DejaVuSans-53"/>
      </g>
     </g>
    </g>
    <g id="text_5">
     <!-- alpha -->
     <defs>
      <path d="M 34.28125 27.484375 
Q 23.390625 27.484375 19.1875 25 
Q 14.984375 22.515625 14.984375 16.5 
Q 14.984375 11.71875 18.140625 8.90625 
Q 21.296875 6.109375 26.703125 6.109375 
Q 34.1875 6.109375 38.703125 11.40625 
Q 43.21875 16.703125 43.21875 25.484375 
L 43.21875 27.484375 
z
M 52.203125 31.203125 
L 52.203125 0 
L 43.21875 0 
L 43.21875 8.296875 
Q 40.140625 3.328125 35.546875 0.953125 
Q 30.953125 -1.421875 24.3125 -1.421875 
Q 15.921875 -1.421875 10.953125 3.296875 
Q 6 8.015625 6 15.921875 
Q 6 25.140625 12.171875 29.828125 
Q 18.359375 34.515625 30.609375 34.515625 
L 43.21875 34.515625 
L 43.21875 35.40625 
Q 43.21875 41.609375 39.140625 45 
Q 35.0625 48.390625 27.6875 48.390625 
Q 23 48.390625 18.546875 47.265625 
Q 14.109375 46.140625 10.015625 43.890625 
L 10.015625 52.203125 
Q 14.9375 54.109375 19.578125 55.046875 
Q 24.21875 56 28.609375 56 
Q 40.484375 56 46.34375 49.84375 
Q 52.203125 43.703125 52.203125 31.203125 
z
" id="DejaVuSans-97"/>
      <path d="M 9.421875 75.984375 
L 18.40625 75.984375 
L 18.40625 0 
L 9.421875 0 
z
" id="DejaVuSans-108"/>
      <path d="M 18.109375 8.203125 
L 18.109375 -20.796875 
L 9.078125 -20.796875 
L 9.078125 54.6875 
L 18.109375 54.6875 
L 18.109375 46.390625 
Q 20.953125 51.265625 25.265625 53.625 
Q 29.59375 56 35.59375 56 
Q 45.5625 56 51.78125 48.09375 
Q 58.015625 40.1875 58.015625 27.296875 
Q 58.015625 14.40625 51.78125 6.484375 
Q 45.5625 -1.421875 35.59375 -1.421875 
Q 29.59375 -1.421875 25.265625 0.953125 
Q 20.953125 3.328125 18.109375 8.203125 
z
M 48.6875 27.296875 
Q 48.6875 37.203125 44.609375 42.84375 
Q 40.53125 48.484375 33.40625 48.484375 
Q 26.265625 48.484375 22.1875 42.84375 
Q 18.109375 37.203125 18.109375 27.296875 
Q 18.109375 17.390625 22.1875 11.75 
Q 26.265625 6.109375 33.40625 6.109375 
Q 40.53125 6.109375 44.609375 11.75 
Q 48.6875 17.390625 48.6875 27.296875 
z
" id="DejaVuSans-112"/>
      <path d="M 54.890625 33.015625 
L 54.890625 0 
L 45.90625 0 
L 45.90625 32.71875 
Q 45.90625 40.484375 42.875 44.328125 
Q 39.84375 48.1875 33.796875 48.1875 
Q 26.515625 48.1875 22.3125 43.546875 
Q 18.109375 38.921875 18.109375 30.90625 
L 18.109375 0 
L 9.078125 0 
L 9.078125 75.984375 
L 18.109375 75.984375 
L 18.109375 46.1875 
Q 21.34375 51.125 25.703125 53.5625 
Q 30.078125 56 35.796875 56 
Q 45.21875 56 50.046875 50.171875 
Q 54.890625 44.34375 54.890625 33.015625 
z
" id="DejaVuSans-104"/>
     </defs>
     <g transform="translate(351.139125 413.70725)scale(0.24 -0.24)">
      <use xlink:href="#DejaVuSans-97"/>
      <use x="61.279297" xlink:href="#DejaVuSans-108"/>
      <use x="89.0625" xlink:href="#DejaVuSans-112"/>
      <use x="152.539062" xlink:href="#DejaVuSans-104"/>
      <use x="215.917969" xlink:href="#DejaVuSans-97"/>
     </g>
    </g>
   </g>
   <g id="matplotlib.axis_2">
    <g id="ytick_1">
     <g id="line2d_5">
      <defs>
       <path d="M 0 0 
L -3.5 0 
" id="m63050bfd30" style="stroke:#000000;stroke-width:0.8;"/>
      </defs>
      <g>
       <use style="stroke:#000000;stroke-width:0.8;" x="189.1035" xlink:href="#m63050bfd30" y="350.26083"/>
      </g>
     </g>
     <g id="text_6">
      <!-- −400 -->
      <defs>
       <path d="M 37.796875 64.3125 
L 12.890625 25.390625 
L 37.796875 25.390625 
z
M 35.203125 72.90625 
L 47.609375 72.90625 
L 47.609375 25.390625 
L 58.015625 25.390625 
L 58.015625 17.1875 
L 47.609375 17.1875 
L 47.609375 0 
L 37.796875 0 
L 37.796875 17.1875 
L 4.890625 17.1875 
L 4.890625 26.703125 
z
" id="DejaVuSans-52"/>
      </defs>
      <g transform="translate(116.18225 359.378955)scale(0.24 -0.24)">
       <use xlink:href="#DejaVuSans-8722"/>
       <use x="83.789062" xlink:href="#DejaVuSans-52"/>
       <use x="147.412109" xlink:href="#DejaVuSans-48"/>
       <use x="211.035156" xlink:href="#DejaVuSans-48"/>
      </g>
     </g>
    </g>
    <g id="ytick_2">
     <g id="line2d_6">
      <g>
       <use style="stroke:#000000;stroke-width:0.8;" x="189.1035" xlink:href="#m63050bfd30" y="281.81364"/>
      </g>
     </g>
     <g id="text_7">
      <!-- −200 -->
      <defs>
       <path d="M 19.1875 8.296875 
L 53.609375 8.296875 
L 53.609375 0 
L 7.328125 0 
L 7.328125 8.296875 
Q 12.9375 14.109375 22.625 23.890625 
Q 32.328125 33.6875 34.8125 36.53125 
Q 39.546875 41.84375 41.421875 45.53125 
Q 43.3125 49.21875 43.3125 52.78125 
Q 43.3125 58.59375 39.234375 62.25 
Q 35.15625 65.921875 28.609375 65.921875 
Q 23.96875 65.921875 18.8125 64.3125 
Q 13.671875 62.703125 7.8125 59.421875 
L 7.8125 69.390625 
Q 13.765625 71.78125 18.9375 73 
Q 24.125 74.21875 28.421875 74.21875 
Q 39.75 74.21875 46.484375 68.546875 
Q 53.21875 62.890625 53.21875 53.421875 
Q 53.21875 48.921875 51.53125 44.890625 
Q 49.859375 40.875 45.40625 35.40625 
Q 44.1875 33.984375 37.640625 27.21875 
Q 31.109375 20.453125 19.1875 8.296875 
z
" id="DejaVuSans-50"/>
      </defs>
      <g transform="translate(116.18225 290.931765)scale(0.24 -0.24)">
       <use xlink:href="#DejaVuSans-8722"/>
       <use x="83.789062" xlink:href="#DejaVuSans-50"/>
       <use x="147.412109" xlink:href="#DejaVuSans-48"/>
       <use x="211.035156" xlink:href="#DejaVuSans-48"/>
      </g>
     </g>
    </g>
    <g id="ytick_3">
     <g id="line2d_7">
      <g>
       <use style="stroke:#000000;stroke-width:0.8;" x="189.1035" xlink:href="#m63050bfd30" y="213.366449"/>
      </g>
     </g>
     <g id="text_8">
      <!-- 0 -->
      <g transform="translate(166.8335 222.484574)scale(0.24 -0.24)">
       <use xlink:href="#DejaVuSans-48"/>
      </g>
     </g>
    </g>
    <g id="ytick_4">
     <g id="line2d_8">
      <g>
       <use style="stroke:#000000;stroke-width:0.8;" x="189.1035" xlink:href="#m63050bfd30" y="144.919259"/>
      </g>
     </g>
     <g id="text_9">
      <!-- 200 -->
      <g transform="translate(136.2935 154.037384)scale(0.24 -0.24)">
       <use xlink:href="#DejaVuSans-50"/>
       <use x="63.623047" xlink:href="#DejaVuSans-48"/>
       <use x="127.246094" xlink:href="#DejaVuSans-48"/>
      </g>
     </g>
    </g>
    <g id="ytick_5">
     <g id="line2d_9">
      <g>
       <use style="stroke:#000000;stroke-width:0.8;" x="189.1035" xlink:href="#m63050bfd30" y="76.472068"/>
      </g>
     </g>
     <g id="text_10">
      <!-- 400 -->
      <g transform="translate(136.2935 85.590193)scale(0.24 -0.24)">
       <use xlink:href="#DejaVuSans-52"/>
       <use x="63.623047" xlink:href="#DejaVuSans-48"/>
       <use x="127.246094" xlink:href="#DejaVuSans-48"/>
      </g>
     </g>
    </g>
    <g id="text_11">
     <!-- weights -->
     <defs>
      <path d="M 4.203125 54.6875 
L 13.1875 54.6875 
L 24.421875 12.015625 
L 35.59375 54.6875 
L 46.1875 54.6875 
L 57.421875 12.015625 
L 68.609375 54.6875 
L 77.59375 54.6875 
L 63.28125 0 
L 52.6875 0 
L 40.921875 44.828125 
L 29.109375 0 
L 18.5 0 
z
" id="DejaVuSans-119"/>
      <path d="M 56.203125 29.59375 
L 56.203125 25.203125 
L 14.890625 25.203125 
Q 15.484375 15.921875 20.484375 11.0625 
Q 25.484375 6.203125 34.421875 6.203125 
Q 39.59375 6.203125 44.453125 7.46875 
Q 49.3125 8.734375 54.109375 11.28125 
L 54.109375 2.78125 
Q 49.265625 0.734375 44.1875 -0.34375 
Q 39.109375 -1.421875 33.890625 -1.421875 
Q 20.796875 -1.421875 13.15625 6.1875 
Q 5.515625 13.8125 5.515625 26.8125 
Q 5.515625 40.234375 12.765625 48.109375 
Q 20.015625 56 32.328125 56 
Q 43.359375 56 49.78125 48.890625 
Q 56.203125 41.796875 56.203125 29.59375 
z
M 47.21875 32.234375 
Q 47.125 39.59375 43.09375 43.984375 
Q 39.0625 48.390625 32.421875 48.390625 
Q 24.90625 48.390625 20.390625 44.140625 
Q 15.875 39.890625 15.1875 32.171875 
z
" id="DejaVuSans-101"/>
      <path d="M 9.421875 54.6875 
L 18.40625 54.6875 
L 18.40625 0 
L 9.421875 0 
z
M 9.421875 75.984375 
L 18.40625 75.984375 
L 18.40625 64.59375 
L 9.421875 64.59375 
z
" id="DejaVuSans-105"/>
      <path d="M 45.40625 27.984375 
Q 45.40625 37.75 41.375 43.109375 
Q 37.359375 48.484375 30.078125 48.484375 
Q 22.859375 48.484375 18.828125 43.109375 
Q 14.796875 37.75 14.796875 27.984375 
Q 14.796875 18.265625 18.828125 12.890625 
Q 22.859375 7.515625 30.078125 7.515625 
Q 37.359375 7.515625 41.375 12.890625 
Q 45.40625 18.265625 45.40625 27.984375 
z
M 54.390625 6.78125 
Q 54.390625 -7.171875 48.1875 -13.984375 
Q 42 -20.796875 29.203125 -20.796875 
Q 24.46875 -20.796875 20.265625 -20.09375 
Q 16.0625 -19.390625 12.109375 -17.921875 
L 12.109375 -9.1875 
Q 16.0625 -11.328125 19.921875 -12.34375 
Q 23.78125 -13.375 27.78125 -13.375 
Q 36.625 -13.375 41.015625 -8.765625 
Q 45.40625 -4.15625 45.40625 5.171875 
L 45.40625 9.625 
Q 42.625 4.78125 38.28125 2.390625 
Q 33.9375 0 27.875 0 
Q 17.828125 0 11.671875 7.65625 
Q 5.515625 15.328125 5.515625 27.984375 
Q 5.515625 40.671875 11.671875 48.328125 
Q 17.828125 56 27.875 56 
Q 33.9375 56 38.28125 53.609375 
Q 42.625 51.21875 45.40625 46.390625 
L 45.40625 54.6875 
L 54.390625 54.6875 
z
" id="DejaVuSans-103"/>
      <path d="M 18.3125 70.21875 
L 18.3125 54.6875 
L 36.8125 54.6875 
L 36.8125 47.703125 
L 18.3125 47.703125 
L 18.3125 18.015625 
Q 18.3125 11.328125 20.140625 9.421875 
Q 21.96875 7.515625 27.59375 7.515625 
L 36.8125 7.515625 
L 36.8125 0 
L 27.59375 0 
Q 17.1875 0 13.234375 3.875 
Q 9.28125 7.765625 9.28125 18.015625 
L 9.28125 47.703125 
L 2.6875 47.703125 
L 2.6875 54.6875 
L 9.28125 54.6875 
L 9.28125 70.21875 
z
" id="DejaVuSans-116"/>
      <path d="M 44.28125 53.078125 
L 44.28125 44.578125 
Q 40.484375 46.53125 36.375 47.5 
Q 32.28125 48.484375 27.875 48.484375 
Q 21.1875 48.484375 17.84375 46.4375 
Q 14.5 44.390625 14.5 40.28125 
Q 14.5 37.15625 16.890625 35.375 
Q 19.28125 33.59375 26.515625 31.984375 
L 29.59375 31.296875 
Q 39.15625 29.25 43.1875 25.515625 
Q 47.21875 21.78125 47.21875 15.09375 
Q 47.21875 7.46875 41.1875 3.015625 
Q 35.15625 -1.421875 24.609375 -1.421875 
Q 20.21875 -1.421875 15.453125 -0.5625 
Q 10.6875 0.296875 5.421875 2 
L 5.421875 11.28125 
Q 10.40625 8.6875 15.234375 7.390625 
Q 20.0625 6.109375 24.8125 6.109375 
Q 31.15625 6.109375 34.5625 8.28125 
Q 37.984375 10.453125 37.984375 14.40625 
Q 37.984375 18.0625 35.515625 20.015625 
Q 33.0625 21.96875 24.703125 23.78125 
L 21.578125 24.515625 
Q 13.234375 26.265625 9.515625 29.90625 
Q 5.8125 33.546875 5.8125 39.890625 
Q 5.8125 47.609375 11.28125 51.796875 
Q 16.75 56 26.8125 56 
Q 31.78125 56 36.171875 55.265625 
Q 40.578125 54.546875 44.28125 53.078125 
z
" id="DejaVuSans-115"/>
     </defs>
     <g transform="translate(107.191 244.8735)rotate(-90)scale(0.24 -0.24)">
      <use xlink:href="#DejaVuSans-119"/>
      <use x="81.787109" xlink:href="#DejaVuSans-101"/>
      <use x="143.310547" xlink:href="#DejaVuSans-105"/>
      <use x="171.09375" xlink:href="#DejaVuSans-103"/>
      <use x="234.570312" xlink:href="#DejaVuSans-104"/>
      <use x="297.949219" xlink:href="#DejaVuSans-116"/>
      <use x="337.158203" xlink:href="#DejaVuSans-115"/>
     </g>
    </g>
   </g>
   <g id="line2d_10">
    <path clip-path="url(#p425cc39ab5)" d="M 206.858045 213.209389 
L 229.422351 212.942908 
L 244.861086 212.553791 
L 257.924631 212.001692 
L 269.800581 211.269452 
L 282.864126 210.21826 
L 306.616027 208.218633 
L 314.929192 207.793166 
L 322.054762 207.67163 
L 327.992737 207.793979 
L 333.930712 208.164983 
L 338.681092 208.673054 
L 343.431472 209.399577 
L 348.181852 210.377151 
L 352.932232 211.642639 
L 356.495017 212.805054 
L 360.057802 214.170451 
L 363.620587 215.757394 
L 367.183372 217.584143 
L 370.746157 219.667811 
L 374.308942 222.023329 
L 377.871727 224.662278 
L 381.434512 227.591609 
L 384.997298 230.812361 
L 388.560083 234.318469 
L 392.122868 238.09578 
L 396.873248 243.513249 
L 401.623628 249.292468 
L 408.749198 258.404587 
L 419.437553 272.186868 
L 424.187933 277.997986 
L 428.938313 283.437059 
L 432.501098 287.21257 
L 436.063883 290.693275 
L 439.626668 293.859262 
L 443.189453 296.700921 
L 446.752238 299.218422 
L 450.315023 301.420669 
L 453.877808 303.323886 
L 457.440593 304.949945 
L 461.003378 306.324597 
L 464.566163 307.475749 
L 468.128948 308.431902 
L 472.879329 309.451216 
L 477.629709 310.233774 
L 483.567684 310.958432 
L 490.693254 311.562597 
L 499.006419 312.02772 
L 509.694774 312.398698 
L 525.133509 312.692273 
L 548.885409 312.886222 
L 561.948955 312.93203 
L 561.948955 312.93203 
" style="fill:none;stroke:#1f77b4;stroke-linecap:square;stroke-width:1.5;"/>
   </g>
   <g id="line2d_11">
    <path clip-path="url(#p425cc39ab5)" d="M 206.858045 213.191561 
L 228.234756 212.916899 
L 243.673491 212.497016 
L 255.549441 211.955901 
L 266.237796 211.243773 
L 275.738556 210.400492 
L 286.426911 209.214357 
L 298.302862 207.657273 
L 314.929192 205.236536 
L 330.367927 202.791635 
L 339.868687 201.067974 
L 346.994257 199.560762 
L 352.932232 198.09715 
L 358.870207 196.382182 
L 363.620587 194.783357 
L 368.370967 192.94016 
L 373.121347 190.809495 
L 376.684132 188.995767 
L 380.246917 186.97614 
L 383.809702 184.73295 
L 387.372488 182.250971 
L 390.935273 179.518902 
L 394.498058 176.530993 
L 398.060843 173.288669 
L 401.623628 169.80195 
L 406.374008 164.808129 
L 411.124388 159.489514 
L 418.249958 151.132142 
L 427.750718 139.953243 
L 432.501098 134.641543 
L 437.251478 129.663186 
L 440.814263 126.197002 
L 444.377048 122.985821 
L 447.939833 120.042293 
L 451.502618 117.370148 
L 455.065403 114.965349 
L 458.628188 112.817544 
L 462.190973 110.911638 
L 465.753758 109.229346 
L 469.316543 107.750613 
L 474.066924 106.060022 
L 478.817304 104.647247 
L 483.567684 103.468713 
L 489.505659 102.267209 
L 495.443634 101.310115 
L 502.569204 100.415372 
L 510.882369 99.640176 
L 520.383129 99.015734 
L 531.071484 98.548386 
L 544.135029 98.199517 
L 561.948955 97.9525 
L 561.948955 97.9525 
" style="fill:none;stroke:#ff7f0e;stroke-linecap:square;stroke-width:1.5;"/>
   </g>
   <g id="line2d_12">
    <path clip-path="url(#p425cc39ab5)" d="M 206.858045 213.230259 
L 230.609946 212.98145 
L 247.236276 212.598253 
L 261.487416 212.042902 
L 275.738556 211.24887 
L 301.865647 209.702067 
L 310.178812 209.483482 
L 317.304382 209.513946 
L 324.429952 209.782408 
L 331.555522 210.301026 
L 338.681092 211.057186 
L 346.994257 212.189594 
L 358.870207 214.089899 
L 371.933752 216.15755 
L 379.059322 217.074363 
L 384.997298 217.634112 
L 390.935273 217.956127 
L 395.685653 218.018331 
L 400.436033 217.895991 
L 405.186413 217.588655 
L 411.124388 216.958798 
L 417.062363 216.090283 
L 424.187933 214.804431 
L 433.688693 212.835602 
L 457.440593 207.798851 
L 466.941353 206.065094 
L 475.254519 204.767774 
L 483.567684 203.692892 
L 491.880849 202.834527 
L 501.381609 202.090071 
L 512.069964 201.499222 
L 523.945914 201.07032 
L 539.384649 200.747913 
L 560.76136 200.54138 
L 561.948955 200.534639 
L 561.948955 200.534639 
" style="fill:none;stroke:#2ca02c;stroke-linecap:square;stroke-width:1.5;"/>
   </g>
   <g id="line2d_13">
    <path clip-path="url(#p425cc39ab5)" d="M 206.858045 213.199205 
L 228.234756 212.937146 
L 243.673491 212.538049 
L 255.549441 212.026728 
L 266.237796 211.35979 
L 276.926151 210.471084 
L 288.802101 209.250251 
L 323.242357 205.516063 
L 335.118307 204.55352 
L 348.181852 203.720463 
L 362.432992 203.032244 
L 373.121347 202.705995 
L 381.434512 202.656019 
L 388.560083 202.850418 
L 394.498058 203.252167 
L 399.248438 203.771506 
L 403.998818 204.493298 
L 408.749198 205.432687 
L 413.499578 206.592379 
L 418.249958 207.960832 
L 424.187933 209.925066 
L 431.313503 212.553892 
L 453.877808 221.160186 
L 461.003378 223.523567 
L 466.941353 225.273363 
L 472.879329 226.811516 
L 478.817304 228.140016 
L 484.755279 229.269767 
L 491.880849 230.386696 
L 499.006419 231.275428 
L 507.319584 232.071194 
L 516.820344 232.728006 
L 527.508699 233.227743 
L 540.572244 233.604812 
L 558.38617 233.873663 
L 561.948955 233.906538 
L 561.948955 233.906538 
" style="fill:none;stroke:#d62728;stroke-linecap:square;stroke-width:1.5;"/>
   </g>
   <g id="line2d_14">
    <path clip-path="url(#p425cc39ab5)" d="M 206.858045 213.187624 
L 228.234756 212.908284 
L 243.673491 212.485018 
L 255.549441 211.946858 
L 266.237796 211.252759 
L 276.926151 210.344198 
L 291.177291 208.88014 
L 308.991217 207.064088 
L 318.491977 206.319164 
L 327.992737 205.805664 
L 337.493497 205.510588 
L 350.557042 205.347465 
L 373.121347 205.323166 
L 384.997298 205.503542 
L 393.310463 205.855438 
L 400.436033 206.379913 
L 407.561603 207.140915 
L 414.687173 208.129791 
L 423.000338 209.512085 
L 436.063883 211.949858 
L 455.065403 215.48804 
L 465.753758 217.256758 
L 475.254519 218.604502 
L 484.755279 219.705536 
L 494.256039 220.559733 
L 503.756799 221.193786 
L 514.445154 221.694185 
L 527.508699 222.082759 
L 545.322624 222.366038 
L 561.948955 222.491348 
L 561.948955 222.491348 
" style="fill:none;stroke:#9467bd;stroke-linecap:square;stroke-width:1.5;"/>
   </g>
   <g id="line2d_15">
    <path clip-path="url(#p425cc39ab5)" d="M 206.858045 213.189536 
L 228.234756 212.911881 
L 242.485896 212.53041 
L 254.361846 212.007647 
L 265.050201 211.316982 
L 274.550961 210.495459 
L 285.239316 209.334302 
L 297.115266 207.804981 
L 322.054762 204.280422 
L 363.620587 198.369799 
L 370.746157 197.063272 
L 377.871727 195.513428 
L 383.809702 193.998654 
L 389.747678 192.268859 
L 396.873248 189.928064 
L 405.186413 186.918235 
L 426.563123 179.006191 
L 433.688693 176.705988 
L 439.626668 175.015146 
L 445.564643 173.547629 
L 451.502618 172.303115 
L 457.440593 171.26856 
L 464.566163 170.273631 
L 471.691734 169.505336 
L 480.004899 168.835605 
L 489.505659 168.293155 
L 501.381609 167.846181 
L 516.820344 167.507114 
L 538.197054 167.284039 
L 561.948955 167.18943 
L 561.948955 167.18943 
" style="fill:none;stroke:#8c564b;stroke-linecap:square;stroke-width:1.5;"/>
   </g>
   <g id="line2d_16">
    <path clip-path="url(#p425cc39ab5)" d="M 206.858045 213.207531 
L 229.422351 212.940158 
L 244.861086 212.555058 
L 257.924631 212.02022 
L 270.988176 211.255397 
L 307.803622 208.881756 
L 314.929192 208.751789 
L 322.054762 208.84676 
L 327.992737 209.12663 
L 333.930712 209.61143 
L 339.868687 210.320418 
L 345.806662 211.269935 
L 351.744637 212.470522 
L 357.682612 213.922603 
L 363.620587 215.611546 
L 370.746157 217.901707 
L 380.246917 221.231539 
L 390.935273 224.960329 
L 396.873248 226.828571 
L 401.623628 228.140596 
L 406.374008 229.249047 
L 411.124388 230.125209 
L 415.874768 230.750685 
L 420.625148 231.118045 
L 425.375528 231.230773 
L 430.125908 231.10258 
L 434.876288 230.756179 
L 440.814263 230.062652 
L 446.752238 229.145422 
L 455.065403 227.630657 
L 472.879329 224.305994 
L 481.192494 223.009853 
L 489.505659 221.957476 
L 497.818824 221.144381 
L 507.319584 220.467378 
L 518.007939 219.953928 
L 531.071484 219.570416 
L 548.885409 219.30041 
L 561.948955 219.20202 
L 561.948955 219.20202 
" style="fill:none;stroke:#e377c2;stroke-linecap:square;stroke-width:1.5;"/>
   </g>
   <g id="line2d_17">
    <path clip-path="url(#p425cc39ab5)" d="M 206.858045 213.15738 
L 227.047161 212.858588 
L 241.298301 212.436813 
L 253.174251 211.86608 
L 263.862606 211.126536 
L 274.550961 210.152517 
L 287.614506 208.705501 
L 308.991217 206.302859 
L 318.491977 205.47864 
L 326.805142 204.955298 
L 335.118307 204.634899 
L 343.431472 204.528476 
L 351.744637 204.65292 
L 358.870207 204.96793 
L 365.995777 205.513987 
L 371.933752 206.188876 
L 376.684132 206.909757 
L 381.434512 207.83059 
L 386.184893 208.997172 
L 389.747678 210.066042 
L 393.310463 211.329864 
L 396.873248 212.816542 
L 400.436033 214.555006 
L 403.998818 216.574182 
L 407.561603 218.901796 
L 411.124388 221.563061 
L 414.687173 224.579291 
L 418.249958 227.966483 
L 421.812743 231.73391 
L 425.375528 235.882759 
L 428.938313 240.404889 
L 432.501098 245.281788 
L 436.063883 250.483834 
L 440.814263 257.853208 
L 446.752238 267.576675 
L 462.190973 293.26873 
L 466.941353 300.605841 
L 470.504138 305.766829 
L 474.066924 310.58567 
L 477.629709 315.032477 
L 481.192494 319.090654 
L 484.755279 322.755996 
L 488.318064 326.035118 
L 491.880849 328.943449 
L 495.443634 331.503048 
L 499.006419 333.740457 
L 502.569204 335.684752 
L 506.131989 337.365896 
L 509.694774 338.813447 
L 513.257559 340.05561 
L 518.007939 341.437331 
L 522.758319 342.555909 
L 527.508699 343.459156 
L 533.446674 344.346034 
L 540.572244 345.137127 
L 548.885409 345.786577 
L 558.38617 346.281325 
L 561.948955 346.418045 
L 561.948955 346.418045 
" style="fill:none;stroke:#7f7f7f;stroke-linecap:square;stroke-width:1.5;"/>
   </g>
   <g id="line2d_18">
    <path clip-path="url(#p425cc39ab5)" d="M 206.858045 213.148167 
L 227.047161 212.83561 
L 241.298301 212.393099 
L 253.174251 211.791534 
L 263.862606 211.006334 
L 273.363366 210.088485 
L 284.051721 208.825771 
L 299.490457 206.741851 
L 322.054762 203.729337 
L 342.243877 201.056245 
L 350.557042 199.750155 
L 357.682612 198.426918 
L 363.620587 197.130491 
L 369.558562 195.621478 
L 375.496537 193.875711 
L 381.434512 191.885654 
L 387.372488 189.666627 
L 394.498058 186.762089 
L 415.874768 177.792707 
L 421.812743 175.646165 
L 426.563123 174.141246 
L 431.313503 172.853743 
L 436.063883 171.80059 
L 440.814263 170.990508 
L 445.564643 170.42526 
L 450.315023 170.100968 
L 455.065403 170.009154 
L 459.815783 170.137297 
L 464.566163 170.468916 
L 470.504138 171.137667 
L 476.442114 172.041715 
L 483.567684 173.352246 
L 512.069964 178.910486 
L 520.383129 180.136453 
L 528.696294 181.106187 
L 537.009459 181.843386 
L 546.510219 182.45185 
L 557.198574 182.911926 
L 561.948955 183.059582 
L 561.948955 183.059582 
" style="fill:none;stroke:#bcbd22;stroke-linecap:square;stroke-width:1.5;"/>
   </g>
   <g id="line2d_19">
    <path clip-path="url(#p425cc39ab5)" d="M 206.858045 213.157755 
L 227.047161 212.85912 
L 241.298301 212.436751 
L 253.174251 211.863501 
L 263.862606 211.117232 
L 274.550961 210.126713 
L 286.426911 208.776216 
L 320.867167 204.657997 
L 349.369447 201.540319 
L 360.057802 200.054099 
L 374.308942 197.7964 
L 387.372488 195.785354 
L 396.873248 194.559202 
L 405.186413 193.720276 
L 412.311983 193.213262 
L 418.249958 192.979886 
L 424.187933 192.968356 
L 428.938313 193.157456 
L 433.688693 193.55447 
L 438.439073 194.18208 
L 443.189453 195.051083 
L 447.939833 196.156355 
L 452.690213 197.475389 
L 458.628188 199.365207 
L 466.941353 202.279606 
L 478.817304 206.460502 
L 485.942874 208.7304 
L 491.880849 210.407377 
L 497.818824 211.868189 
L 503.756799 213.112183 
L 509.694774 214.151263 
L 516.820344 215.155548 
L 523.945914 215.933572 
L 532.259079 216.610406 
L 541.759839 217.15213 
L 553.635789 217.586614 
L 561.948955 217.782416 
L 561.948955 217.782416 
" style="fill:none;stroke:#17becf;stroke-linecap:square;stroke-width:1.5;"/>
   </g>
   <g id="line2d_20">
    <path clip-path="url(#p425cc39ab5)" d="M 206.858045 213.142687 
L 225.859566 212.84959 
L 240.110706 212.416803 
L 251.986656 211.825637 
L 261.487416 211.148319 
L 270.988176 210.260535 
L 281.676531 209.016358 
L 294.740076 207.245696 
L 323.242357 203.328104 
L 342.243877 200.731309 
L 350.557042 199.372803 
L 357.682612 197.983234 
L 363.620587 196.604325 
L 369.558562 194.968515 
L 374.308942 193.436378 
L 379.059322 191.67132 
L 383.809702 189.639411 
L 388.560083 187.304395 
L 392.122868 185.331094 
L 395.685653 183.14865 
L 399.248438 180.739776 
L 402.811223 178.087404 
L 406.374008 175.175471 
L 409.936793 171.989969 
L 413.499578 168.520214 
L 417.062363 164.760255 
L 420.625148 160.710247 
L 424.187933 156.377643 
L 428.938313 150.189417 
L 433.688693 143.587872 
L 439.626668 134.887524 
L 450.315023 118.63996 
L 457.440593 107.979676 
L 462.190973 101.188701 
L 466.941353 94.76798 
L 471.691734 88.793869 
L 475.254519 84.638567 
L 478.817304 80.777199 
L 482.380089 77.215642 
L 485.942874 73.953483 
L 489.505659 70.984993 
L 493.068444 68.300143 
L 496.631229 65.885605 
L 500.194014 63.725664 
L 503.756799 61.803022 
L 507.319584 60.09949 
L 510.882369 58.596556 
L 515.632749 56.873004 
L 520.383129 55.43147 
L 525.133509 54.232646 
L 529.883889 53.24063 
L 535.821864 52.242856 
L 541.759839 51.464031 
L 548.885409 50.755369 
L 557.198574 50.162499 
L 561.948955 49.908955 
L 561.948955 49.908955 
" style="fill:none;stroke:#1f77b4;stroke-linecap:square;stroke-width:1.5;"/>
   </g>
   <g id="line2d_21">
    <path clip-path="url(#p425cc39ab5)" d="M 206.858045 213.14098 
L 225.859566 212.845642 
L 240.110706 212.409533 
L 251.986656 211.813806 
L 261.487416 211.13122 
L 270.988176 210.236445 
L 281.676531 208.98223 
L 294.740076 207.196233 
L 325.617547 202.89578 
L 339.868687 200.865115 
L 348.181852 199.483519 
L 355.307422 198.103605 
L 362.432992 196.501166 
L 369.558562 194.659741 
L 376.684132 192.592637 
L 386.184893 189.568538 
L 412.311983 181.049993 
L 425.375528 176.878535 
L 431.313503 174.723619 
L 436.063883 172.764478 
L 440.814263 170.540777 
L 445.564643 168.026282 
L 450.315023 165.22567 
L 455.065403 162.175791 
L 462.190973 157.279847 
L 475.254519 148.183267 
L 481.192494 144.367232 
L 485.942874 141.566773 
L 490.693254 139.024297 
L 495.443634 136.753259 
L 500.194014 134.753598 
L 504.944394 133.015047 
L 509.694774 131.520275 
L 514.445154 130.247623 
L 519.195534 129.173316 
L 525.133509 128.072555 
L 531.071484 127.198652 
L 538.197054 126.391824 
L 546.510219 125.707977 
L 556.010979 125.172704 
L 561.948955 124.934547 
L 561.948955 124.934547 
" style="fill:none;stroke:#ff7f0e;stroke-linecap:square;stroke-width:1.5;"/>
   </g>
   <g id="line2d_22">
    <path clip-path="url(#p425cc39ab5)" d="M 206.858045 213.171923 
L 227.047161 212.894328 
L 241.298301 212.503387 
L 253.174251 211.976329 
L 263.862606 211.297453 
L 275.738556 210.303068 
L 310.178812 207.147928 
L 317.304382 206.823018 
L 324.429952 206.738657 
L 330.367927 206.891861 
L 336.305902 207.285841 
L 341.056282 207.801479 
L 345.806662 208.520567 
L 350.557042 209.468659 
L 355.307422 210.672535 
L 360.057802 212.158783 
L 363.620587 213.473581 
L 367.183372 214.969632 
L 370.746157 216.65331 
L 374.308942 218.527964 
L 379.059322 221.323203 
L 383.809702 224.443111 
L 388.560083 227.858304 
L 394.498058 232.472032 
L 401.623628 238.354029 
L 417.062363 251.274439 
L 423.000338 255.929135 
L 427.750718 259.420972 
L 432.501098 262.671479 
L 437.251478 265.660235 
L 442.001858 268.377053 
L 446.752238 270.820743 
L 451.502618 272.997753 
L 456.252998 274.920709 
L 461.003378 276.60683 
L 465.753758 278.07631 
L 471.691734 279.641463 
L 477.629709 280.943983 
L 483.567684 282.023168 
L 490.693254 283.072036 
L 497.818824 283.899876 
L 506.131989 284.641239 
L 515.632749 285.257042 
L 526.321104 285.730218 
L 540.572244 286.115189 
L 559.573765 286.372702 
L 561.948955 286.392374 
L 561.948955 286.392374 
" style="fill:none;stroke:#2ca02c;stroke-linecap:square;stroke-width:1.5;"/>
   </g>
   <g id="line2d_23">
    <path clip-path="url(#p425cc39ab5)" d="M 206.858045 213.245974 
L 231.797541 213.000811 
L 247.236276 212.652057 
L 259.112226 212.190704 
L 269.800581 211.55957 
L 279.301341 210.769643 
L 287.614506 209.861629 
L 295.927671 208.719885 
L 303.053242 207.536992 
L 310.178812 206.156504 
L 318.491977 204.300926 
L 326.805142 202.216461 
L 341.056282 198.355643 
L 351.744637 195.539971 
L 360.057802 193.581518 
L 367.183372 192.128122 
L 374.308942 190.900496 
L 381.434512 189.891748 
L 389.747678 188.962146 
L 398.060843 188.255034 
L 407.561603 187.659551 
L 419.437553 187.146868 
L 433.688693 186.760628 
L 451.502618 186.508634 
L 476.442114 186.409023 
L 561.948955 186.411264 
L 561.948955 186.411264 
" style="fill:none;stroke:#d62728;stroke-linecap:square;stroke-width:1.5;"/>
   </g>
   <g id="line2d_24">
    <path clip-path="url(#p425cc39ab5)" d="M 206.858045 213.356264 
L 269.800581 213.218203 
L 305.428432 212.908231 
L 326.805142 212.543733 
L 338.681092 212.145333 
L 348.181852 211.633095 
L 357.682612 210.896468 
L 367.183372 209.915298 
L 376.684132 208.701965 
L 387.372488 207.10988 
L 403.998818 204.365882 
L 420.625148 201.673521 
L 432.501098 199.986396 
L 443.189453 198.701247 
L 453.877808 197.649224 
L 464.566163 196.823809 
L 476.442114 196.150538 
L 489.505659 195.659141 
L 504.944394 195.32271 
L 526.321104 195.108243 
L 561.948955 195.003077 
L 561.948955 195.003077 
" style="fill:none;stroke:#9467bd;stroke-linecap:square;stroke-width:1.5;"/>
   </g>
   <g id="line2d_25">
    <path clip-path="url(#p425cc39ab5)" d="M 206.858045 213.368703 
L 281.676531 213.481473 
L 299.490457 213.707502 
L 312.554002 214.086916 
L 323.242357 214.610804 
L 333.930712 215.365873 
L 344.619067 216.34506 
L 360.057802 218.019118 
L 377.871727 219.91583 
L 388.560083 220.81982 
L 398.060843 221.40202 
L 407.561603 221.763049 
L 418.249958 221.930971 
L 431.313503 221.888199 
L 458.628188 221.487571 
L 488.318064 221.163551 
L 525.133509 221.00225 
L 561.948955 220.961091 
L 561.948955 220.961091 
" style="fill:none;stroke:#8c564b;stroke-linecap:square;stroke-width:1.5;"/>
   </g>
   <g id="line2d_26">
    <path clip-path="url(#p425cc39ab5)" d="M 206.858045 213.369045 
L 282.864126 213.276211 
L 298.302862 213.032187 
L 310.178812 212.632858 
L 320.867167 212.047064 
L 330.367927 211.31805 
L 341.056282 210.267302 
L 352.932232 208.861257 
L 367.183372 206.93541 
L 381.434512 204.783614 
L 394.498058 202.575618 
L 428.938313 196.543553 
L 437.251478 195.417356 
L 445.564643 194.498026 
L 455.065403 193.687565 
L 464.566163 193.098267 
L 476.442114 192.606332 
L 490.693254 192.268605 
L 509.694774 192.064866 
L 544.135029 191.964625 
L 561.948955 191.952127 
L 561.948955 191.952127 
" style="fill:none;stroke:#e377c2;stroke-linecap:square;stroke-width:1.5;"/>
   </g>
   <g id="line2d_27">
    <path clip-path="url(#p425cc39ab5)" d="M 206.858045 213.405267 
L 244.861086 213.579924 
L 265.050201 213.883508 
L 279.301341 214.316305 
L 289.989696 214.849315 
L 299.490457 215.552295 
L 306.616027 216.276104 
L 313.741597 217.221209 
L 319.679572 218.218134 
L 325.617547 219.442244 
L 331.555522 220.926656 
L 336.305902 222.31982 
L 341.056282 223.904665 
L 346.994257 226.154443 
L 352.932232 228.68071 
L 360.057802 232.003319 
L 382.622107 242.867139 
L 388.560083 245.327514 
L 393.310463 247.074717 
L 398.060843 248.607657 
L 402.811223 249.922015 
L 407.561603 251.022871 
L 412.311983 251.92243 
L 418.249958 252.79015 
L 424.187933 253.409676 
L 430.125908 253.823107 
L 437.251478 254.105506 
L 446.752238 254.226386 
L 459.815783 254.128253 
L 513.257559 253.487019 
L 553.635789 253.378929 
L 561.948955 253.371939 
L 561.948955 253.371939 
" style="fill:none;stroke:#7f7f7f;stroke-linecap:square;stroke-width:1.5;"/>
   </g>
   <g id="line2d_28">
    <path clip-path="url(#p425cc39ab5)" d="M 206.858045 213.366818 
L 282.864126 213.261368 
L 300.678052 213.009413 
L 314.929192 212.58287 
L 329.180332 211.926572 
L 352.932232 210.782216 
L 361.245397 210.632271 
L 368.370967 210.717623 
L 375.496537 211.045588 
L 381.434512 211.520759 
L 388.560083 212.330885 
L 395.685653 213.372182 
L 405.186413 215.009378 
L 423.000338 218.150977 
L 431.313503 219.35543 
L 438.439073 220.179122 
L 446.752238 220.8942 
L 455.065403 221.376439 
L 464.566163 221.706916 
L 477.629709 221.909415 
L 497.818824 221.952328 
L 561.948955 221.853059 
L 561.948955 221.853059 
" style="fill:none;stroke:#bcbd22;stroke-linecap:square;stroke-width:1.5;"/>
   </g>
   <g id="patch_3">
    <path d="M 189.1035 361.2435 
L 189.1035 35.0835 
" style="fill:none;stroke:#000000;stroke-linecap:square;stroke-linejoin:miter;stroke-width:0.8;"/>
   </g>
   <g id="patch_4">
    <path d="M 579.7035 361.2435 
L 579.7035 35.0835 
" style="fill:none;stroke:#000000;stroke-linecap:square;stroke-linejoin:miter;stroke-width:0.8;"/>
   </g>
   <g id="patch_5">
    <path d="M 189.1035 361.2435 
L 579.7035 361.2435 
" style="fill:none;stroke:#000000;stroke-linecap:square;stroke-linejoin:miter;stroke-width:0.8;"/>
   </g>
   <g id="patch_6">
    <path d="M 189.1035 35.0835 
L 579.7035 35.0835 
" style="fill:none;stroke:#000000;stroke-linecap:square;stroke-linejoin:miter;stroke-width:0.8;"/>
   </g>
   <g id="text_12">
    <!-- Ridge coefficients as a function of the regularization -->
    <defs>
     <path d="M 44.390625 34.1875 
Q 47.5625 33.109375 50.5625 29.59375 
Q 53.5625 26.078125 56.59375 19.921875 
L 66.609375 0 
L 56 0 
L 46.6875 18.703125 
Q 43.0625 26.03125 39.671875 28.421875 
Q 36.28125 30.8125 30.421875 30.8125 
L 19.671875 30.8125 
L 19.671875 0 
L 9.8125 0 
L 9.8125 72.90625 
L 32.078125 72.90625 
Q 44.578125 72.90625 50.734375 67.671875 
Q 56.890625 62.453125 56.890625 51.90625 
Q 56.890625 45.015625 53.6875 40.46875 
Q 50.484375 35.9375 44.390625 34.1875 
z
M 19.671875 64.796875 
L 19.671875 38.921875 
L 32.078125 38.921875 
Q 39.203125 38.921875 42.84375 42.21875 
Q 46.484375 45.515625 46.484375 51.90625 
Q 46.484375 58.296875 42.84375 61.546875 
Q 39.203125 64.796875 32.078125 64.796875 
z
" id="DejaVuSans-82"/>
     <path d="M 45.40625 46.390625 
L 45.40625 75.984375 
L 54.390625 75.984375 
L 54.390625 0 
L 45.40625 0 
L 45.40625 8.203125 
Q 42.578125 3.328125 38.25 0.953125 
Q 33.9375 -1.421875 27.875 -1.421875 
Q 17.96875 -1.421875 11.734375 6.484375 
Q 5.515625 14.40625 5.515625 27.296875 
Q 5.515625 40.1875 11.734375 48.09375 
Q 17.96875 56 27.875 56 
Q 33.9375 56 38.25 53.625 
Q 42.578125 51.265625 45.40625 46.390625 
z
M 14.796875 27.296875 
Q 14.796875 17.390625 18.875 11.75 
Q 22.953125 6.109375 30.078125 6.109375 
Q 37.203125 6.109375 41.296875 11.75 
Q 45.40625 17.390625 45.40625 27.296875 
Q 45.40625 37.203125 41.296875 42.84375 
Q 37.203125 48.484375 30.078125 48.484375 
Q 22.953125 48.484375 18.875 42.84375 
Q 14.796875 37.203125 14.796875 27.296875 
z
" id="DejaVuSans-100"/>
     <path id="DejaVuSans-32"/>
     <path d="M 48.78125 52.59375 
L 48.78125 44.1875 
Q 44.96875 46.296875 41.140625 47.34375 
Q 37.3125 48.390625 33.40625 48.390625 
Q 24.65625 48.390625 19.8125 42.84375 
Q 14.984375 37.3125 14.984375 27.296875 
Q 14.984375 17.28125 19.8125 11.734375 
Q 24.65625 6.203125 33.40625 6.203125 
Q 37.3125 6.203125 41.140625 7.25 
Q 44.96875 8.296875 48.78125 10.40625 
L 48.78125 2.09375 
Q 45.015625 0.34375 40.984375 -0.53125 
Q 36.96875 -1.421875 32.421875 -1.421875 
Q 20.0625 -1.421875 12.78125 6.34375 
Q 5.515625 14.109375 5.515625 27.296875 
Q 5.515625 40.671875 12.859375 48.328125 
Q 20.21875 56 33.015625 56 
Q 37.15625 56 41.109375 55.140625 
Q 45.0625 54.296875 48.78125 52.59375 
z
" id="DejaVuSans-99"/>
     <path d="M 30.609375 48.390625 
Q 23.390625 48.390625 19.1875 42.75 
Q 14.984375 37.109375 14.984375 27.296875 
Q 14.984375 17.484375 19.15625 11.84375 
Q 23.34375 6.203125 30.609375 6.203125 
Q 37.796875 6.203125 41.984375 11.859375 
Q 46.1875 17.53125 46.1875 27.296875 
Q 46.1875 37.015625 41.984375 42.703125 
Q 37.796875 48.390625 30.609375 48.390625 
z
M 30.609375 56 
Q 42.328125 56 49.015625 48.375 
Q 55.71875 40.765625 55.71875 27.296875 
Q 55.71875 13.875 49.015625 6.21875 
Q 42.328125 -1.421875 30.609375 -1.421875 
Q 18.84375 -1.421875 12.171875 6.21875 
Q 5.515625 13.875 5.515625 27.296875 
Q 5.515625 40.765625 12.171875 48.375 
Q 18.84375 56 30.609375 56 
z
" id="DejaVuSans-111"/>
     <path d="M 37.109375 75.984375 
L 37.109375 68.5 
L 28.515625 68.5 
Q 23.6875 68.5 21.796875 66.546875 
Q 19.921875 64.59375 19.921875 59.515625 
L 19.921875 54.6875 
L 34.71875 54.6875 
L 34.71875 47.703125 
L 19.921875 47.703125 
L 19.921875 0 
L 10.890625 0 
L 10.890625 47.703125 
L 2.296875 47.703125 
L 2.296875 54.6875 
L 10.890625 54.6875 
L 10.890625 58.5 
Q 10.890625 67.625 15.140625 71.796875 
Q 19.390625 75.984375 28.609375 75.984375 
z
" id="DejaVuSans-102"/>
     <path d="M 54.890625 33.015625 
L 54.890625 0 
L 45.90625 0 
L 45.90625 32.71875 
Q 45.90625 40.484375 42.875 44.328125 
Q 39.84375 48.1875 33.796875 48.1875 
Q 26.515625 48.1875 22.3125 43.546875 
Q 18.109375 38.921875 18.109375 30.90625 
L 18.109375 0 
L 9.078125 0 
L 9.078125 54.6875 
L 18.109375 54.6875 
L 18.109375 46.1875 
Q 21.34375 51.125 25.703125 53.5625 
Q 30.078125 56 35.796875 56 
Q 45.21875 56 50.046875 50.171875 
Q 54.890625 44.34375 54.890625 33.015625 
z
" id="DejaVuSans-110"/>
     <path d="M 8.5 21.578125 
L 8.5 54.6875 
L 17.484375 54.6875 
L 17.484375 21.921875 
Q 17.484375 14.15625 20.5 10.265625 
Q 23.53125 6.390625 29.59375 6.390625 
Q 36.859375 6.390625 41.078125 11.03125 
Q 45.3125 15.671875 45.3125 23.6875 
L 45.3125 54.6875 
L 54.296875 54.6875 
L 54.296875 0 
L 45.3125 0 
L 45.3125 8.40625 
Q 42.046875 3.421875 37.71875 1 
Q 33.40625 -1.421875 27.6875 -1.421875 
Q 18.265625 -1.421875 13.375 4.4375 
Q 8.5 10.296875 8.5 21.578125 
z
M 31.109375 56 
z
" id="DejaVuSans-117"/>
     <path d="M 41.109375 46.296875 
Q 39.59375 47.171875 37.8125 47.578125 
Q 36.03125 48 33.890625 48 
Q 26.265625 48 22.1875 43.046875 
Q 18.109375 38.09375 18.109375 28.8125 
L 18.109375 0 
L 9.078125 0 
L 9.078125 54.6875 
L 18.109375 54.6875 
L 18.109375 46.1875 
Q 20.953125 51.171875 25.484375 53.578125 
Q 30.03125 56 36.53125 56 
Q 37.453125 56 38.578125 55.875 
Q 39.703125 55.765625 41.0625 55.515625 
z
" id="DejaVuSans-114"/>
     <path d="M 5.515625 54.6875 
L 48.1875 54.6875 
L 48.1875 46.484375 
L 14.40625 7.171875 
L 48.1875 7.171875 
L 48.1875 0 
L 4.296875 0 
L 4.296875 8.203125 
L 38.09375 47.515625 
L 5.515625 47.515625 
z
" id="DejaVuSans-122"/>
    </defs>
    <g transform="translate(7.2 29.0835)scale(0.288 -0.288)">
     <use xlink:href="#DejaVuSans-82"/>
     <use x="69.482422" xlink:href="#DejaVuSans-105"/>
     <use x="97.265625" xlink:href="#DejaVuSans-100"/>
     <use x="160.742188" xlink:href="#DejaVuSans-103"/>
     <use x="224.21875" xlink:href="#DejaVuSans-101"/>
     <use x="285.742188" xlink:href="#DejaVuSans-32"/>
     <use x="317.529297" xlink:href="#DejaVuSans-99"/>
     <use x="372.509766" xlink:href="#DejaVuSans-111"/>
     <use x="433.691406" xlink:href="#DejaVuSans-101"/>
     <use x="495.214844" xlink:href="#DejaVuSans-102"/>
     <use x="530.419922" xlink:href="#DejaVuSans-102"/>
     <use x="565.625" xlink:href="#DejaVuSans-105"/>
     <use x="593.408203" xlink:href="#DejaVuSans-99"/>
     <use x="648.388672" xlink:href="#DejaVuSans-105"/>
     <use x="676.171875" xlink:href="#DejaVuSans-101"/>
     <use x="737.695312" xlink:href="#DejaVuSans-110"/>
     <use x="801.074219" xlink:href="#DejaVuSans-116"/>
     <use x="840.283203" xlink:href="#DejaVuSans-115"/>
     <use x="892.382812" xlink:href="#DejaVuSans-32"/>
     <use x="924.169922" xlink:href="#DejaVuSans-97"/>
     <use x="985.449219" xlink:href="#DejaVuSans-115"/>
     <use x="1037.548828" xlink:href="#DejaVuSans-32"/>
     <use x="1069.335938" xlink:href="#DejaVuSans-97"/>
     <use x="1130.615234" xlink:href="#DejaVuSans-32"/>
     <use x="1162.402344" xlink:href="#DejaVuSans-102"/>
     <use x="1197.607422" xlink:href="#DejaVuSans-117"/>
     <use x="1260.986328" xlink:href="#DejaVuSans-110"/>
     <use x="1324.365234" xlink:href="#DejaVuSans-99"/>
     <use x="1379.345703" xlink:href="#DejaVuSans-116"/>
     <use x="1418.554688" xlink:href="#DejaVuSans-105"/>
     <use x="1446.337891" xlink:href="#DejaVuSans-111"/>
     <use x="1507.519531" xlink:href="#DejaVuSans-110"/>
     <use x="1570.898438" xlink:href="#DejaVuSans-32"/>
     <use x="1602.685547" xlink:href="#DejaVuSans-111"/>
     <use x="1663.867188" xlink:href="#DejaVuSans-102"/>
     <use x="1699.072266" xlink:href="#DejaVuSans-32"/>
     <use x="1730.859375" xlink:href="#DejaVuSans-116"/>
     <use x="1770.068359" xlink:href="#DejaVuSans-104"/>
     <use x="1833.447266" xlink:href="#DejaVuSans-101"/>
     <use x="1894.970703" xlink:href="#DejaVuSans-32"/>
     <use x="1926.757812" xlink:href="#DejaVuSans-114"/>
     <use x="1967.839844" xlink:href="#DejaVuSans-101"/>
     <use x="2029.363281" xlink:href="#DejaVuSans-103"/>
     <use x="2092.839844" xlink:href="#DejaVuSans-117"/>
     <use x="2156.21875" xlink:href="#DejaVuSans-108"/>
     <use x="2184.001953" xlink:href="#DejaVuSans-97"/>
     <use x="2245.28125" xlink:href="#DejaVuSans-114"/>
     <use x="2286.394531" xlink:href="#DejaVuSans-105"/>
     <use x="2314.177734" xlink:href="#DejaVuSans-122"/>
     <use x="2366.667969" xlink:href="#DejaVuSans-97"/>
     <use x="2427.947266" xlink:href="#DejaVuSans-116"/>
     <use x="2467.15625" xlink:href="#DejaVuSans-105"/>
     <use x="2494.939453" xlink:href="#DejaVuSans-111"/>
     <use x="2556.121094" xlink:href="#DejaVuSans-110"/>
    </g>
   </g>
  </g>
 </g>
 <defs>
  <clipPath id="p425cc39ab5">
   <rect height="326.16" width="390.6" x="189.1035" y="35.0835"/>
  </clipPath>
 </defs>
</svg>
