<?xml version="1.0" encoding="utf-8" standalone="no"?>
<!DOCTYPE svg PUBLIC "-//W3C//DTD SVG 1.1//EN"
  "http://www.w3.org/Graphics/SVG/1.1/DTD/svg11.dtd">
<!-- Created with matplotlib (https://matplotlib.org/) -->
<svg height="310.86825pt" version="1.1" viewBox="0 0 408.10125 310.86825" width="408.10125pt" xmlns="http://www.w3.org/2000/svg" xmlns:xlink="http://www.w3.org/1999/xlink">
 <defs>
  <style type="text/css">
*{stroke-linecap:butt;stroke-linejoin:round;}
  </style>
 </defs>
 <g id="figure_1">
  <g id="patch_1">
   <path d="M 0 310.86825 
L 408.10125 310.86825 
L 408.10125 0 
L 0 0 
z
" style="fill:#ffffff;"/>
  </g>
  <g id="axes_1">
   <g id="patch_2">
    <path d="M 43.78125 273.312 
L 400.90125 273.312 
L 400.90125 7.2 
L 43.78125 7.2 
z
" style="fill:#ffffff;"/>
   </g>
   <g id="matplotlib.axis_1">
    <g id="xtick_1">
     <g id="line2d_1">
      <defs>
       <path d="M 0 0 
L 0 3.5 
" id="mdd09293c6a" style="stroke:#000000;stroke-width:0.8;"/>
      </defs>
      <g>
       <use style="stroke:#000000;stroke-width:0.8;" x="60.013977" xlink:href="#mdd09293c6a" y="273.312"/>
      </g>
     </g>
     <g id="text_1">
      <!-- 0 -->
      <defs>
       <path d="M 31.78125 66.40625 
Q 24.171875 66.40625 20.328125 58.90625 
Q 16.5 51.421875 16.5 36.375 
Q 16.5 21.390625 20.328125 13.890625 
Q 24.171875 6.390625 31.78125 6.390625 
Q 39.453125 6.390625 43.28125 13.890625 
Q 47.125 21.390625 47.125 36.375 
Q 47.125 51.421875 43.28125 58.90625 
Q 39.453125 66.40625 31.78125 66.40625 
z
M 31.78125 74.21875 
Q 44.046875 74.21875 50.515625 64.515625 
Q 56.984375 54.828125 56.984375 36.375 
Q 56.984375 17.96875 50.515625 8.265625 
Q 44.046875 -1.421875 31.78125 -1.421875 
Q 19.53125 -1.421875 13.0625 8.265625 
Q 6.59375 17.96875 6.59375 36.375 
Q 6.59375 54.828125 13.0625 64.515625 
Q 19.53125 74.21875 31.78125 74.21875 
z
" id="DejaVuSans-48"/>
      </defs>
      <g transform="translate(56.832727 287.910437)scale(0.1 -0.1)">
       <use xlink:href="#DejaVuSans-48"/>
      </g>
     </g>
    </g>
    <g id="xtick_2">
     <g id="line2d_2">
      <g>
       <use style="stroke:#000000;stroke-width:0.8;" x="112.000294" xlink:href="#mdd09293c6a" y="273.312"/>
      </g>
     </g>
     <g id="text_2">
      <!-- 200 -->
      <defs>
       <path d="M 19.1875 8.296875 
L 53.609375 8.296875 
L 53.609375 0 
L 7.328125 0 
L 7.328125 8.296875 
Q 12.9375 14.109375 22.625 23.890625 
Q 32.328125 33.6875 34.8125 36.53125 
Q 39.546875 41.84375 41.421875 45.53125 
Q 43.3125 49.21875 43.3125 52.78125 
Q 43.3125 58.59375 39.234375 62.25 
Q 35.15625 65.921875 28.609375 65.921875 
Q 23.96875 65.921875 18.8125 64.3125 
Q 13.671875 62.703125 7.8125 59.421875 
L 7.8125 69.390625 
Q 13.765625 71.78125 18.9375 73 
Q 24.125 74.21875 28.421875 74.21875 
Q 39.75 74.21875 46.484375 68.546875 
Q 53.21875 62.890625 53.21875 53.421875 
Q 53.21875 48.921875 51.53125 44.890625 
Q 49.859375 40.875 45.40625 35.40625 
Q 44.1875 33.984375 37.640625 27.21875 
Q 31.109375 20.453125 19.1875 8.296875 
z
" id="DejaVuSans-50"/>
      </defs>
      <g transform="translate(102.456544 287.910437)scale(0.1 -0.1)">
       <use xlink:href="#DejaVuSans-50"/>
       <use x="63.623047" xlink:href="#DejaVuSans-48"/>
       <use x="127.246094" xlink:href="#DejaVuSans-48"/>
      </g>
     </g>
    </g>
    <g id="xtick_3">
     <g id="line2d_3">
      <g>
       <use style="stroke:#000000;stroke-width:0.8;" x="163.98661" xlink:href="#mdd09293c6a" y="273.312"/>
      </g>
     </g>
     <g id="text_3">
      <!-- 400 -->
      <defs>
       <path d="M 37.796875 64.3125 
L 12.890625 25.390625 
L 37.796875 25.390625 
z
M 35.203125 72.90625 
L 47.609375 72.90625 
L 47.609375 25.390625 
L 58.015625 25.390625 
L 58.015625 17.1875 
L 47.609375 17.1875 
L 47.609375 0 
L 37.796875 0 
L 37.796875 17.1875 
L 4.890625 17.1875 
L 4.890625 26.703125 
z
" id="DejaVuSans-52"/>
      </defs>
      <g transform="translate(154.44286 287.910437)scale(0.1 -0.1)">
       <use xlink:href="#DejaVuSans-52"/>
       <use x="63.623047" xlink:href="#DejaVuSans-48"/>
       <use x="127.246094" xlink:href="#DejaVuSans-48"/>
      </g>
     </g>
    </g>
    <g id="xtick_4">
     <g id="line2d_4">
      <g>
       <use style="stroke:#000000;stroke-width:0.8;" x="215.972926" xlink:href="#mdd09293c6a" y="273.312"/>
      </g>
     </g>
     <g id="text_4">
      <!-- 600 -->
      <defs>
       <path d="M 33.015625 40.375 
Q 26.375 40.375 22.484375 35.828125 
Q 18.609375 31.296875 18.609375 23.390625 
Q 18.609375 15.53125 22.484375 10.953125 
Q 26.375 6.390625 33.015625 6.390625 
Q 39.65625 6.390625 43.53125 10.953125 
Q 47.40625 15.53125 47.40625 23.390625 
Q 47.40625 31.296875 43.53125 35.828125 
Q 39.65625 40.375 33.015625 40.375 
z
M 52.59375 71.296875 
L 52.59375 62.3125 
Q 48.875 64.0625 45.09375 64.984375 
Q 41.3125 65.921875 37.59375 65.921875 
Q 27.828125 65.921875 22.671875 59.328125 
Q 17.53125 52.734375 16.796875 39.40625 
Q 19.671875 43.65625 24.015625 45.921875 
Q 28.375 48.1875 33.59375 48.1875 
Q 44.578125 48.1875 50.953125 41.515625 
Q 57.328125 34.859375 57.328125 23.390625 
Q 57.328125 12.15625 50.6875 5.359375 
Q 44.046875 -1.421875 33.015625 -1.421875 
Q 20.359375 -1.421875 13.671875 8.265625 
Q 6.984375 17.96875 6.984375 36.375 
Q 6.984375 53.65625 15.1875 63.9375 
Q 23.390625 74.21875 37.203125 74.21875 
Q 40.921875 74.21875 44.703125 73.484375 
Q 48.484375 72.75 52.59375 71.296875 
z
" id="DejaVuSans-54"/>
      </defs>
      <g transform="translate(206.429176 287.910437)scale(0.1 -0.1)">
       <use xlink:href="#DejaVuSans-54"/>
       <use x="63.623047" xlink:href="#DejaVuSans-48"/>
       <use x="127.246094" xlink:href="#DejaVuSans-48"/>
      </g>
     </g>
    </g>
    <g id="xtick_5">
     <g id="line2d_5">
      <g>
       <use style="stroke:#000000;stroke-width:0.8;" x="267.959243" xlink:href="#mdd09293c6a" y="273.312"/>
      </g>
     </g>
     <g id="text_5">
      <!-- 800 -->
      <defs>
       <path d="M 31.78125 34.625 
Q 24.75 34.625 20.71875 30.859375 
Q 16.703125 27.09375 16.703125 20.515625 
Q 16.703125 13.921875 20.71875 10.15625 
Q 24.75 6.390625 31.78125 6.390625 
Q 38.8125 6.390625 42.859375 10.171875 
Q 46.921875 13.96875 46.921875 20.515625 
Q 46.921875 27.09375 42.890625 30.859375 
Q 38.875 34.625 31.78125 34.625 
z
M 21.921875 38.8125 
Q 15.578125 40.375 12.03125 44.71875 
Q 8.5 49.078125 8.5 55.328125 
Q 8.5 64.0625 14.71875 69.140625 
Q 20.953125 74.21875 31.78125 74.21875 
Q 42.671875 74.21875 48.875 69.140625 
Q 55.078125 64.0625 55.078125 55.328125 
Q 55.078125 49.078125 51.53125 44.71875 
Q 48 40.375 41.703125 38.8125 
Q 48.828125 37.15625 52.796875 32.3125 
Q 56.78125 27.484375 56.78125 20.515625 
Q 56.78125 9.90625 50.3125 4.234375 
Q 43.84375 -1.421875 31.78125 -1.421875 
Q 19.734375 -1.421875 13.25 4.234375 
Q 6.78125 9.90625 6.78125 20.515625 
Q 6.78125 27.484375 10.78125 32.3125 
Q 14.796875 37.15625 21.921875 38.8125 
z
M 18.3125 54.390625 
Q 18.3125 48.734375 21.84375 45.5625 
Q 25.390625 42.390625 31.78125 42.390625 
Q 38.140625 42.390625 41.71875 45.5625 
Q 45.3125 48.734375 45.3125 54.390625 
Q 45.3125 60.0625 41.71875 63.234375 
Q 38.140625 66.40625 31.78125 66.40625 
Q 25.390625 66.40625 21.84375 63.234375 
Q 18.3125 60.0625 18.3125 54.390625 
z
" id="DejaVuSans-56"/>
      </defs>
      <g transform="translate(258.415493 287.910437)scale(0.1 -0.1)">
       <use xlink:href="#DejaVuSans-56"/>
       <use x="63.623047" xlink:href="#DejaVuSans-48"/>
       <use x="127.246094" xlink:href="#DejaVuSans-48"/>
      </g>
     </g>
    </g>
    <g id="xtick_6">
     <g id="line2d_6">
      <g>
       <use style="stroke:#000000;stroke-width:0.8;" x="319.945559" xlink:href="#mdd09293c6a" y="273.312"/>
      </g>
     </g>
     <g id="text_6">
      <!-- 1000 -->
      <defs>
       <path d="M 12.40625 8.296875 
L 28.515625 8.296875 
L 28.515625 63.921875 
L 10.984375 60.40625 
L 10.984375 69.390625 
L 28.421875 72.90625 
L 38.28125 72.90625 
L 38.28125 8.296875 
L 54.390625 8.296875 
L 54.390625 0 
L 12.40625 0 
z
" id="DejaVuSans-49"/>
      </defs>
      <g transform="translate(307.220559 287.910437)scale(0.1 -0.1)">
       <use xlink:href="#DejaVuSans-49"/>
       <use x="63.623047" xlink:href="#DejaVuSans-48"/>
       <use x="127.246094" xlink:href="#DejaVuSans-48"/>
       <use x="190.869141" xlink:href="#DejaVuSans-48"/>
      </g>
     </g>
    </g>
    <g id="xtick_7">
     <g id="line2d_7">
      <g>
       <use style="stroke:#000000;stroke-width:0.8;" x="371.931875" xlink:href="#mdd09293c6a" y="273.312"/>
      </g>
     </g>
     <g id="text_7">
      <!-- 1200 -->
      <g transform="translate(359.206875 287.910437)scale(0.1 -0.1)">
       <use xlink:href="#DejaVuSans-49"/>
       <use x="63.623047" xlink:href="#DejaVuSans-50"/>
       <use x="127.246094" xlink:href="#DejaVuSans-48"/>
       <use x="190.869141" xlink:href="#DejaVuSans-48"/>
      </g>
     </g>
    </g>
    <g id="text_8">
     <!-- Day -->
     <defs>
      <path d="M 19.671875 64.796875 
L 19.671875 8.109375 
L 31.59375 8.109375 
Q 46.6875 8.109375 53.6875 14.9375 
Q 60.6875 21.78125 60.6875 36.53125 
Q 60.6875 51.171875 53.6875 57.984375 
Q 46.6875 64.796875 31.59375 64.796875 
z
M 9.8125 72.90625 
L 30.078125 72.90625 
Q 51.265625 72.90625 61.171875 64.09375 
Q 71.09375 55.28125 71.09375 36.53125 
Q 71.09375 17.671875 61.125 8.828125 
Q 51.171875 0 30.078125 0 
L 9.8125 0 
z
" id="DejaVuSans-68"/>
      <path d="M 34.28125 27.484375 
Q 23.390625 27.484375 19.1875 25 
Q 14.984375 22.515625 14.984375 16.5 
Q 14.984375 11.71875 18.140625 8.90625 
Q 21.296875 6.109375 26.703125 6.109375 
Q 34.1875 6.109375 38.703125 11.40625 
Q 43.21875 16.703125 43.21875 25.484375 
L 43.21875 27.484375 
z
M 52.203125 31.203125 
L 52.203125 0 
L 43.21875 0 
L 43.21875 8.296875 
Q 40.140625 3.328125 35.546875 0.953125 
Q 30.953125 -1.421875 24.3125 -1.421875 
Q 15.921875 -1.421875 10.953125 3.296875 
Q 6 8.015625 6 15.921875 
Q 6 25.140625 12.171875 29.828125 
Q 18.359375 34.515625 30.609375 34.515625 
L 43.21875 34.515625 
L 43.21875 35.40625 
Q 43.21875 41.609375 39.140625 45 
Q 35.0625 48.390625 27.6875 48.390625 
Q 23 48.390625 18.546875 47.265625 
Q 14.109375 46.140625 10.015625 43.890625 
L 10.015625 52.203125 
Q 14.9375 54.109375 19.578125 55.046875 
Q 24.21875 56 28.609375 56 
Q 40.484375 56 46.34375 49.84375 
Q 52.203125 43.703125 52.203125 31.203125 
z
" id="DejaVuSans-97"/>
      <path d="M 32.171875 -5.078125 
Q 28.375 -14.84375 24.75 -17.8125 
Q 21.140625 -20.796875 15.09375 -20.796875 
L 7.90625 -20.796875 
L 7.90625 -13.28125 
L 13.1875 -13.28125 
Q 16.890625 -13.28125 18.9375 -11.515625 
Q 21 -9.765625 23.484375 -3.21875 
L 25.09375 0.875 
L 2.984375 54.6875 
L 12.5 54.6875 
L 29.59375 11.921875 
L 46.6875 54.6875 
L 56.203125 54.6875 
z
" id="DejaVuSans-121"/>
     </defs>
     <g transform="translate(212.467813 301.588562)scale(0.1 -0.1)">
      <use xlink:href="#DejaVuSans-68"/>
      <use x="77.001953" xlink:href="#DejaVuSans-97"/>
      <use x="138.28125" xlink:href="#DejaVuSans-121"/>
     </g>
    </g>
   </g>
   <g id="matplotlib.axis_2">
    <g id="ytick_1">
     <g id="line2d_8">
      <defs>
       <path d="M 0 0 
L -3.5 0 
" id="m4f51b9dc0a" style="stroke:#000000;stroke-width:0.8;"/>
      </defs>
      <g>
       <use style="stroke:#000000;stroke-width:0.8;" x="43.78125" xlink:href="#m4f51b9dc0a" y="248.764439"/>
      </g>
     </g>
     <g id="text_9">
      <!-- 0.5 -->
      <defs>
       <path d="M 10.6875 12.40625 
L 21 12.40625 
L 21 0 
L 10.6875 0 
z
" id="DejaVuSans-46"/>
       <path d="M 10.796875 72.90625 
L 49.515625 72.90625 
L 49.515625 64.59375 
L 19.828125 64.59375 
L 19.828125 46.734375 
Q 21.96875 47.46875 24.109375 47.828125 
Q 26.265625 48.1875 28.421875 48.1875 
Q 40.625 48.1875 47.75 41.5 
Q 54.890625 34.8125 54.890625 23.390625 
Q 54.890625 11.625 47.5625 5.09375 
Q 40.234375 -1.421875 26.90625 -1.421875 
Q 22.3125 -1.421875 17.546875 -0.640625 
Q 12.796875 0.140625 7.71875 1.703125 
L 7.71875 11.625 
Q 12.109375 9.234375 16.796875 8.0625 
Q 21.484375 6.890625 26.703125 6.890625 
Q 35.15625 6.890625 40.078125 11.328125 
Q 45.015625 15.765625 45.015625 23.390625 
Q 45.015625 31 40.078125 35.4375 
Q 35.15625 39.890625 26.703125 39.890625 
Q 22.75 39.890625 18.8125 39.015625 
Q 14.890625 38.140625 10.796875 36.28125 
z
" id="DejaVuSans-53"/>
      </defs>
      <g transform="translate(20.878125 252.563658)scale(0.1 -0.1)">
       <use xlink:href="#DejaVuSans-48"/>
       <use x="63.623047" xlink:href="#DejaVuSans-46"/>
       <use x="95.410156" xlink:href="#DejaVuSans-53"/>
      </g>
     </g>
    </g>
    <g id="ytick_2">
     <g id="line2d_9">
      <g>
       <use style="stroke:#000000;stroke-width:0.8;" x="43.78125" xlink:href="#m4f51b9dc0a" y="205.508824"/>
      </g>
     </g>
     <g id="text_10">
      <!-- 1.0 -->
      <g transform="translate(20.878125 209.308043)scale(0.1 -0.1)">
       <use xlink:href="#DejaVuSans-49"/>
       <use x="63.623047" xlink:href="#DejaVuSans-46"/>
       <use x="95.410156" xlink:href="#DejaVuSans-48"/>
      </g>
     </g>
    </g>
    <g id="ytick_3">
     <g id="line2d_10">
      <g>
       <use style="stroke:#000000;stroke-width:0.8;" x="43.78125" xlink:href="#m4f51b9dc0a" y="162.25321"/>
      </g>
     </g>
     <g id="text_11">
      <!-- 1.5 -->
      <g transform="translate(20.878125 166.052429)scale(0.1 -0.1)">
       <use xlink:href="#DejaVuSans-49"/>
       <use x="63.623047" xlink:href="#DejaVuSans-46"/>
       <use x="95.410156" xlink:href="#DejaVuSans-53"/>
      </g>
     </g>
    </g>
    <g id="ytick_4">
     <g id="line2d_11">
      <g>
       <use style="stroke:#000000;stroke-width:0.8;" x="43.78125" xlink:href="#m4f51b9dc0a" y="118.997596"/>
      </g>
     </g>
     <g id="text_12">
      <!-- 2.0 -->
      <g transform="translate(20.878125 122.796815)scale(0.1 -0.1)">
       <use xlink:href="#DejaVuSans-50"/>
       <use x="63.623047" xlink:href="#DejaVuSans-46"/>
       <use x="95.410156" xlink:href="#DejaVuSans-48"/>
      </g>
     </g>
    </g>
    <g id="ytick_5">
     <g id="line2d_12">
      <g>
       <use style="stroke:#000000;stroke-width:0.8;" x="43.78125" xlink:href="#m4f51b9dc0a" y="75.741981"/>
      </g>
     </g>
     <g id="text_13">
      <!-- 2.5 -->
      <g transform="translate(20.878125 79.5412)scale(0.1 -0.1)">
       <use xlink:href="#DejaVuSans-50"/>
       <use x="63.623047" xlink:href="#DejaVuSans-46"/>
       <use x="95.410156" xlink:href="#DejaVuSans-53"/>
      </g>
     </g>
    </g>
    <g id="ytick_6">
     <g id="line2d_13">
      <g>
       <use style="stroke:#000000;stroke-width:0.8;" x="43.78125" xlink:href="#m4f51b9dc0a" y="32.486367"/>
      </g>
     </g>
     <g id="text_14">
      <!-- 3.0 -->
      <defs>
       <path d="M 40.578125 39.3125 
Q 47.65625 37.796875 51.625 33 
Q 55.609375 28.21875 55.609375 21.1875 
Q 55.609375 10.40625 48.1875 4.484375 
Q 40.765625 -1.421875 27.09375 -1.421875 
Q 22.515625 -1.421875 17.65625 -0.515625 
Q 12.796875 0.390625 7.625 2.203125 
L 7.625 11.71875 
Q 11.71875 9.328125 16.59375 8.109375 
Q 21.484375 6.890625 26.8125 6.890625 
Q 36.078125 6.890625 40.9375 10.546875 
Q 45.796875 14.203125 45.796875 21.1875 
Q 45.796875 27.640625 41.28125 31.265625 
Q 36.765625 34.90625 28.71875 34.90625 
L 20.21875 34.90625 
L 20.21875 43.015625 
L 29.109375 43.015625 
Q 36.375 43.015625 40.234375 45.921875 
Q 44.09375 48.828125 44.09375 54.296875 
Q 44.09375 59.90625 40.109375 62.90625 
Q 36.140625 65.921875 28.71875 65.921875 
Q 24.65625 65.921875 20.015625 65.03125 
Q 15.375 64.15625 9.8125 62.3125 
L 9.8125 71.09375 
Q 15.4375 72.65625 20.34375 73.4375 
Q 25.25 74.21875 29.59375 74.21875 
Q 40.828125 74.21875 47.359375 69.109375 
Q 53.90625 64.015625 53.90625 55.328125 
Q 53.90625 49.265625 50.4375 45.09375 
Q 46.96875 40.921875 40.578125 39.3125 
z
" id="DejaVuSans-51"/>
      </defs>
      <g transform="translate(20.878125 36.285586)scale(0.1 -0.1)">
       <use xlink:href="#DejaVuSans-51"/>
       <use x="63.623047" xlink:href="#DejaVuSans-46"/>
       <use x="95.410156" xlink:href="#DejaVuSans-48"/>
      </g>
     </g>
    </g>
    <g id="text_15">
     <!-- Volume -->
     <defs>
      <path d="M 28.609375 0 
L 0.78125 72.90625 
L 11.078125 72.90625 
L 34.1875 11.53125 
L 57.328125 72.90625 
L 67.578125 72.90625 
L 39.796875 0 
z
" id="DejaVuSans-86"/>
      <path d="M 30.609375 48.390625 
Q 23.390625 48.390625 19.1875 42.75 
Q 14.984375 37.109375 14.984375 27.296875 
Q 14.984375 17.484375 19.15625 11.84375 
Q 23.34375 6.203125 30.609375 6.203125 
Q 37.796875 6.203125 41.984375 11.859375 
Q 46.1875 17.53125 46.1875 27.296875 
Q 46.1875 37.015625 41.984375 42.703125 
Q 37.796875 48.390625 30.609375 48.390625 
z
M 30.609375 56 
Q 42.328125 56 49.015625 48.375 
Q 55.71875 40.765625 55.71875 27.296875 
Q 55.71875 13.875 49.015625 6.21875 
Q 42.328125 -1.421875 30.609375 -1.421875 
Q 18.84375 -1.421875 12.171875 6.21875 
Q 5.515625 13.875 5.515625 27.296875 
Q 5.515625 40.765625 12.171875 48.375 
Q 18.84375 56 30.609375 56 
z
" id="DejaVuSans-111"/>
      <path d="M 9.421875 75.984375 
L 18.40625 75.984375 
L 18.40625 0 
L 9.421875 0 
z
" id="DejaVuSans-108"/>
      <path d="M 8.5 21.578125 
L 8.5 54.6875 
L 17.484375 54.6875 
L 17.484375 21.921875 
Q 17.484375 14.15625 20.5 10.265625 
Q 23.53125 6.390625 29.59375 6.390625 
Q 36.859375 6.390625 41.078125 11.03125 
Q 45.3125 15.671875 45.3125 23.6875 
L 45.3125 54.6875 
L 54.296875 54.6875 
L 54.296875 0 
L 45.3125 0 
L 45.3125 8.40625 
Q 42.046875 3.421875 37.71875 1 
Q 33.40625 -1.421875 27.6875 -1.421875 
Q 18.265625 -1.421875 13.375 4.4375 
Q 8.5 10.296875 8.5 21.578125 
z
M 31.109375 56 
z
" id="DejaVuSans-117"/>
      <path d="M 52 44.1875 
Q 55.375 50.25 60.0625 53.125 
Q 64.75 56 71.09375 56 
Q 79.640625 56 84.28125 50.015625 
Q 88.921875 44.046875 88.921875 33.015625 
L 88.921875 0 
L 79.890625 0 
L 79.890625 32.71875 
Q 79.890625 40.578125 77.09375 44.375 
Q 74.3125 48.1875 68.609375 48.1875 
Q 61.625 48.1875 57.5625 43.546875 
Q 53.515625 38.921875 53.515625 30.90625 
L 53.515625 0 
L 44.484375 0 
L 44.484375 32.71875 
Q 44.484375 40.625 41.703125 44.40625 
Q 38.921875 48.1875 33.109375 48.1875 
Q 26.21875 48.1875 22.15625 43.53125 
Q 18.109375 38.875 18.109375 30.90625 
L 18.109375 0 
L 9.078125 0 
L 9.078125 54.6875 
L 18.109375 54.6875 
L 18.109375 46.1875 
Q 21.1875 51.21875 25.484375 53.609375 
Q 29.78125 56 35.6875 56 
Q 41.65625 56 45.828125 52.96875 
Q 50 49.953125 52 44.1875 
z
" id="DejaVuSans-109"/>
      <path d="M 56.203125 29.59375 
L 56.203125 25.203125 
L 14.890625 25.203125 
Q 15.484375 15.921875 20.484375 11.0625 
Q 25.484375 6.203125 34.421875 6.203125 
Q 39.59375 6.203125 44.453125 7.46875 
Q 49.3125 8.734375 54.109375 11.28125 
L 54.109375 2.78125 
Q 49.265625 0.734375 44.1875 -0.34375 
Q 39.109375 -1.421875 33.890625 -1.421875 
Q 20.796875 -1.421875 13.15625 6.1875 
Q 5.515625 13.8125 5.515625 26.8125 
Q 5.515625 40.234375 12.765625 48.109375 
Q 20.015625 56 32.328125 56 
Q 43.359375 56 49.78125 48.890625 
Q 56.203125 41.796875 56.203125 29.59375 
z
M 47.21875 32.234375 
Q 47.125 39.59375 43.09375 43.984375 
Q 39.0625 48.390625 32.421875 48.390625 
Q 24.90625 48.390625 20.390625 44.140625 
Q 15.875 39.890625 15.1875 32.171875 
z
" id="DejaVuSans-101"/>
     </defs>
     <g transform="translate(14.798438 159.234906)rotate(-90)scale(0.1 -0.1)">
      <use xlink:href="#DejaVuSans-86"/>
      <use x="68.298828" xlink:href="#DejaVuSans-111"/>
      <use x="129.480469" xlink:href="#DejaVuSans-108"/>
      <use x="157.263672" xlink:href="#DejaVuSans-117"/>
      <use x="220.642578" xlink:href="#DejaVuSans-109"/>
      <use x="318.054688" xlink:href="#DejaVuSans-101"/>
     </g>
    </g>
   </g>
   <g id="line2d_14">
    <path clip-path="url(#p176b98db34)" d="M 60.013977 188.959226 
L 60.53384 169.935407 
L 60.793772 181.631725 
L 61.053704 187.713465 
L 61.573567 167.011328 
L 61.833498 170.229545 
L 62.09343 191.320983 
L 62.613293 178.776855 
L 62.873225 183.188927 
L 63.133156 197.030724 
L 63.393088 200.915078 
L 63.653019 192.549442 
L 63.912951 179.962059 
L 64.172883 195.231291 
L 64.432814 201.321681 
L 64.692746 204.384179 
L 64.952677 200.352755 
L 65.212609 191.814097 
L 65.732472 198.977227 
L 65.992404 202.126235 
L 66.252335 199.00318 
L 66.512267 192.506187 
L 66.772198 192.212049 
L 67.03213 183.258136 
L 67.292062 195.802265 
L 67.551993 187.471233 
L 67.811925 173.854366 
L 68.331788 194.193156 
L 68.591719 195.637893 
L 69.111583 179.996663 
L 69.371514 180.074523 
L 69.631446 211.633819 
L 69.891377 197.567094 
L 70.151309 194.07204 
L 70.411241 195.637893 
L 70.671172 198.07751 
L 71.191035 174.286922 
L 71.450967 171.129262 
L 71.710898 183.059161 
L 71.97083 158.484781 
L 72.230762 194.591107 
L 72.750625 175.549986 
L 73.010556 142.87902 
L 73.53042 195.646544 
L 73.790351 178.326996 
L 74.050283 176.665981 
L 74.310214 185.221941 
L 74.570146 181.216471 
L 74.830077 183.457112 
L 75.090009 172.106839 
L 75.349941 168.690511 
L 75.609872 173.672692 
L 75.869804 182.427629 
L 76.129735 200.075919 
L 76.389667 175.264499 
L 76.649598 180.394615 
L 77.169462 212.957441 
L 77.429393 196.027194 
L 77.689325 126.013656 
L 77.949256 163.395158 
L 78.209188 176.207471 
L 78.46912 204.418783 
L 78.729051 186.779143 
L 78.988983 187.895138 
L 79.248914 175.645148 
L 79.508846 197.610349 
L 79.768777 182.427629 
L 80.028709 189.824339 
L 80.288641 175.904682 
L 80.548572 193.578926 
L 80.808504 198.406253 
L 81.068435 209.920897 
L 81.328367 204.963804 
L 81.588299 194.054738 
L 81.84823 200.603638 
L 82.108162 213.623578 
L 82.368093 217.776117 
L 82.628025 199.297318 
L 82.887956 170.445823 
L 83.147888 174.745432 
L 83.40782 194.193156 
L 83.667751 190.378011 
L 83.927683 182.981301 
L 84.187614 193.847111 
L 84.447546 196.797144 
L 84.707478 220.380105 
L 85.227341 191.788144 
L 85.487272 185.90538 
L 86.007135 219.65341 
L 86.267067 195.404313 
L 86.526999 200.153779 
L 86.78693 197.757418 
L 87.046862 229.195599 
L 87.306793 216.746633 
L 87.566725 193.700042 
L 87.826657 200.00671 
L 88.086588 184.495247 
L 88.34652 150.526613 
L 88.606451 195.854171 
L 88.866383 189.512898 
L 89.386246 158.202754 
L 89.646178 189.1409 
L 89.906109 201.174612 
L 90.166041 188.301741 
L 90.425972 191.485354 
L 90.685904 177.193699 
L 90.945835 133.500338 
L 91.465699 238.200553 
L 91.72563 211.140705 
L 91.985562 200.603638 
L 92.245493 201.555261 
L 92.505425 182.687162 
L 92.765357 172.279862 
L 93.025288 171.4234 
L 93.28522 194.980408 
L 93.545151 202.065678 
L 93.805083 184.910501 
L 94.065014 178.145323 
L 94.324946 175.792217 
L 94.844809 206.642122 
L 95.104741 188.319043 
L 95.364672 181.225123 
L 95.624604 187.004073 
L 95.884536 204.185203 
L 96.144467 213.372695 
L 96.66433 176.069053 
L 96.924262 186.623423 
L 97.184193 210.708149 
L 97.444125 221.798889 
L 97.704057 204.47069 
L 97.963988 194.729525 
L 98.22392 196.494354 
L 98.743783 219.558248 
L 99.263646 199.833688 
L 99.523578 200.716102 
L 100.043441 214.41083 
L 100.303372 201.909957 
L 100.563304 195.92338 
L 100.823236 206.702679 
L 101.083167 201.736935 
L 101.343099 219.125692 
L 101.60303 206.624819 
L 101.862962 208.649182 
L 102.122893 191.926562 
L 102.382825 212.421072 
L 102.902688 172.245257 
L 103.16262 174.390736 
L 103.422551 168.80211 
L 103.682483 181.579819 
L 103.942415 90.377086 
L 104.202346 149.241056 
L 104.462278 108.568667 
L 104.722209 118.582342 
L 104.982141 91.547583 
L 105.242072 140.919541 
L 105.761936 160.600846 
L 106.021867 165.108081 
L 106.281799 150.876984 
L 106.54173 190.317453 
L 106.801662 180.43787 
L 107.061594 149.224619 
L 107.321525 152.814835 
L 107.841388 207.32556 
L 108.10132 185.801567 
L 108.361251 178.482717 
L 108.621183 144.554743 
L 109.141046 203.371997 
L 109.660909 166.388447 
L 109.920841 182.765022 
L 110.180773 179.996663 
L 110.440704 196.364588 
L 110.700636 178.058812 
L 110.960567 176.423749 
L 111.220499 173.984133 
L 111.740362 196.329983 
L 112.000294 179.780385 
L 112.260225 175.013616 
L 112.520157 178.05016 
L 112.780088 194.963106 
L 113.299952 174.710827 
L 113.559883 169.926756 
L 113.819815 160.739264 
L 114.079746 197.394071 
L 114.339678 206.235519 
L 114.599609 173.491019 
L 114.859541 167.149746 
L 115.119473 166.189471 
L 115.379404 176.319936 
L 115.639336 178.102067 
L 115.899267 176.942817 
L 116.159199 202.974045 
L 116.41913 256.524496 
L 116.679062 194.279667 
L 117.198925 168.854017 
L 117.718788 175.783566 
L 117.97872 187.955696 
L 118.238652 177.954998 
L 118.498583 139.301781 
L 119.018446 184.036738 
L 119.278378 186.588819 
L 119.538309 173.741901 
L 120.058173 161.258331 
L 120.318104 178.96718 
L 120.578036 182.981301 
L 121.097899 163.55953 
L 121.357831 163.075067 
L 121.617762 145.470032 
L 121.877694 253.983661 
L 122.137625 223.58102 
L 122.397557 216.210263 
L 122.91742 210.388058 
L 123.437283 170.999495 
L 123.697215 161.128564 
L 123.957146 178.837413 
L 124.217078 183.119718 
L 124.47701 166.405749 
L 124.736941 179.641967 
L 124.996873 187.177095 
L 125.516736 172.03763 
L 125.776667 163.767157 
L 126.036599 172.625906 
L 126.296531 176.674632 
L 126.556462 178.551926 
L 126.816394 164.052644 
L 127.076325 157.685417 
L 127.596188 189.348527 
L 127.85612 135.261707 
L 128.116052 117.301976 
L 128.375983 157.32207 
L 128.635915 173.741901 
L 128.895846 167.651511 
L 129.155778 138.177135 
L 129.41571 147.909648 
L 129.675641 167.305466 
L 129.935573 173.335299 
L 130.195504 191.718935 
L 130.455436 197.359467 
L 130.715367 186.83105 
L 130.975299 181.934515 
L 131.235231 174.433991 
L 131.495162 189.080342 
L 131.755094 167.539046 
L 132.015025 172.49614 
L 132.274957 169.952709 
L 132.79482 178.759553 
L 133.054752 171.440703 
L 133.314683 171.579121 
L 133.574615 166.016449 
L 133.834546 154.095201 
L 134.094478 157.988207 
L 134.35441 158.680296 
L 134.614341 160.747915 
L 134.874273 169.866198 
L 135.134204 187.324164 
L 135.394136 179.174806 
L 135.654068 174.88385 
L 135.913999 187.44528 
L 136.173931 162.780929 
L 136.433862 190.845171 
L 136.953725 179.131551 
L 137.213657 176.164216 
L 137.473589 184.460643 
L 137.73352 200.499824 
L 137.993452 186.164914 
L 138.513315 192.739767 
L 138.773247 201.105403 
L 139.033178 190.22229 
L 139.29311 186.502308 
L 139.553041 180.956938 
L 139.812973 195.975287 
L 140.072904 197.264304 
L 140.332836 185.144081 
L 140.592768 166.760445 
L 140.852699 161.768747 
L 141.372562 195.092873 
L 141.632494 175.982542 
L 141.892425 172.902742 
L 142.152357 174.42534 
L 142.412289 189.504247 
L 142.67222 189.781083 
L 142.932152 171.899212 
L 143.192083 173.222834 
L 143.452015 160.747915 
L 143.711947 173.136323 
L 143.971878 178.283741 
L 144.23181 151.127866 
L 144.491741 166.457656 
L 145.011604 180.89638 
L 145.271536 194.902548 
L 145.791399 162.080188 
L 146.051331 192.272606 
L 146.311262 190.637544 
L 146.571194 197.84393 
L 146.831126 169.64992 
L 147.091057 169.156806 
L 147.350989 183.310043 
L 147.61092 181.770143 
L 147.870852 206.391239 
L 148.130783 188.163323 
L 148.390715 193.717344 
L 148.650647 188.820808 
L 148.910578 215.423011 
L 149.430441 198.432206 
L 149.690373 180.714706 
L 149.950305 181.519261 
L 150.210236 177.453233 
L 150.470168 165.142685 
L 150.730099 179.546805 
L 150.990031 153.47232 
L 151.249962 175.982542 
L 151.509894 185.939985 
L 151.769826 187.13384 
L 152.029757 136.67011 
L 152.289689 170.428521 
L 152.54962 158.01416 
L 152.809552 185.040268 
L 153.069483 188.803506 
L 153.329415 176.432401 
L 153.589347 171.795399 
L 153.849278 162.495442 
L 154.10921 157.702719 
L 154.369141 161.068006 
L 154.629073 117.76135 
L 154.889005 126.904722 
L 155.148936 108.875782 
L 155.408868 168.698297 
L 155.668799 134.310083 
L 155.928731 159.848198 
L 156.188662 231.5141 
L 156.448594 189.556154 
L 156.708526 175.325057 
L 156.968457 134.837802 
L 157.228389 112.035172 
L 157.48832 152.961904 
L 157.748252 69.270941 
L 158.008184 132.519301 
L 158.268115 69.988985 
L 158.528047 141.810607 
L 158.787978 62.410601 
L 159.04791 97.53762 
L 159.307841 80.844414 
L 159.567773 51.902947 
L 159.827705 82.256277 
L 160.087636 136.637235 
L 160.347568 138.146856 
L 160.607499 134.042764 
L 160.867431 114.727402 
L 161.127363 147.355977 
L 161.647226 168.698297 
L 161.907157 161.033402 
L 162.167089 163.083718 
L 162.42702 149.562013 
L 162.946884 202.351165 
L 163.466747 159.329131 
L 163.726678 161.812003 
L 163.98661 182.557396 
L 164.246542 179.572758 
L 164.506473 178.82011 
L 164.766405 174.96171 
L 165.026336 173.240136 
L 165.286268 199.323272 
L 165.546199 204.046785 
L 165.806131 178.889319 
L 166.066063 192.826278 
L 166.325994 182.05563 
L 166.585926 211.573262 
L 166.845857 180.43787 
L 167.105789 173.317996 
L 167.36572 170.791868 
L 167.625652 189.547503 
L 167.885584 194.210458 
L 168.145515 189.383131 
L 168.405447 218.779647 
L 168.665378 188.933273 
L 168.92531 182.064282 
L 169.185242 205.387709 
L 169.445173 166.699887 
L 169.705105 162.166699 
L 169.965036 160.176941 
L 170.224968 136.922722 
L 170.484899 172.539395 
L 170.744831 147.525539 
L 171.004763 149.146759 
L 171.264694 149.276526 
L 171.524626 161.621678 
L 171.784557 143.058964 
L 172.044489 137.952206 
L 172.304421 147.641464 
L 172.564352 147.157001 
L 172.824284 133.191493 
L 173.084215 155.635101 
L 173.344147 124.324092 
L 173.604078 128.943792 
L 173.86401 111.191688 
L 174.123942 131.616989 
L 174.383873 188.180625 
L 174.643805 122.80409 
L 174.903736 154.899756 
L 175.163668 137.996327 
L 175.4236 168.905924 
L 175.683531 166.838305 
L 175.943463 157.996858 
L 176.203394 154.129806 
L 176.463326 144.901653 
L 176.723257 176.060402 
L 176.983189 172.409628 
L 177.243121 159.683827 
L 177.503052 168.975133 
L 177.762984 150.029174 
L 178.022915 166.544167 
L 178.282847 149.631222 
L 178.542778 174.875198 
L 178.80271 147.200256 
L 179.062642 165.116732 
L 179.322573 166.881561 
L 179.582505 195.733056 
L 179.842436 172.88544 
L 180.3623 160.609497 
L 180.882163 181.060751 
L 181.142094 176.319936 
L 181.402026 160.756566 
L 181.661957 83.086785 
L 181.921889 151.283586 
L 182.441752 158.481321 
L 182.701684 175.203941 
L 182.961615 236.353538 
L 183.221547 152.563953 
L 183.481479 163.25674 
L 183.74141 154.562362 
L 184.001342 183.863715 
L 184.261273 184.650967 
L 184.521205 177.756022 
L 184.781136 180.714706 
L 185.041068 180.844473 
L 185.301 183.422508 
L 185.560931 176.89091 
L 185.820863 182.012375 
L 186.080794 183.725297 
L 186.340726 166.907514 
L 186.600658 172.124141 
L 186.860589 137.79389 
L 187.380452 252.371092 
L 187.640384 229.636806 
L 187.900315 226.409937 
L 188.160247 200.508475 
L 188.420179 197.852581 
L 188.68011 185.680451 
L 188.940042 194.193156 
L 189.199973 167.79858 
L 189.459905 158.342903 
L 189.719837 165.056174 
L 189.979768 157.036583 
L 190.499631 171.224425 
L 190.759563 172.686464 
L 191.019494 168.127323 
L 191.279426 159.259922 
L 191.539358 174.520502 
L 191.799289 176.510261 
L 192.319152 141.096889 
L 192.839015 167.79858 
L 193.098947 165.791519 
L 193.358879 154.000039 
L 193.61881 161.362144 
L 193.878742 155.459483 
L 194.138673 183.145672 
L 194.398605 166.440354 
L 194.658537 166.509563 
L 194.918468 168.231136 
L 195.1784 181.562516 
L 195.438331 184.90185 
L 195.698263 178.949877 
L 195.958194 182.972649 
L 196.218126 163.17888 
L 196.478058 170.506381 
L 196.997921 198.968576 
L 197.257852 188.716995 
L 197.517784 171.060053 
L 197.777716 185.680451 
L 198.037647 163.663343 
L 198.55751 180.610893 
L 198.817442 173.214183 
L 199.077373 187.436629 
L 199.337305 183.310043 
L 199.597237 176.726539 
L 199.857168 179.624665 
L 200.1171 173.629437 
L 200.377031 183.448461 
L 201.156826 134.889708 
L 201.416758 158.62839 
L 201.676689 144.91463 
L 201.936621 157.486441 
L 202.196552 164.554409 
L 202.456484 167.521744 
L 202.716416 129.057987 
L 202.976347 180.161034 
L 203.236279 176.665981 
L 203.49621 177.851185 
L 203.756142 185.360359 
L 204.016073 185.870776 
L 204.276005 162.642511 
L 204.535937 165.575241 
L 204.795868 154.484502 
L 205.0558 176.138262 
L 205.315731 184.642316 
L 205.575663 162.772277 
L 205.835595 185.144081 
L 206.095526 180.100477 
L 206.355458 181.692283 
L 206.615389 193.258835 
L 206.875321 194.175854 
L 207.135252 165.696357 
L 207.395184 154.674826 
L 207.655116 168.257089 
L 207.915047 195.239942 
L 208.174979 150.902937 
L 208.43491 147.788533 
L 208.694842 149.440897 
L 208.954774 176.458354 
L 209.214705 181.891259 
L 209.734568 137.293856 
L 209.9945 171.120611 
L 210.254431 157.55565 
L 210.514363 166.898863 
L 210.774295 149.31113 
L 211.554089 177.297513 
L 212.073953 169.33848 
L 212.333884 170.748613 
L 212.593816 161.500562 
L 212.853747 161.777398 
L 213.113679 173.006556 
L 213.37361 161.794701 
L 213.633542 165.903984 
L 213.893474 166.708538 
L 214.153405 188.120068 
L 214.413337 159.484851 
L 214.673268 157.149048 
L 214.9332 146.179424 
L 215.193132 145.91989 
L 215.453063 148.195135 
L 215.712995 166.561469 
L 215.972926 151.984327 
L 216.232858 145.547892 
L 216.492789 133.081624 
L 216.752721 178.949877 
L 217.012653 181.683632 
L 217.272584 160.522986 
L 217.532516 157.659464 
L 217.792447 182.012375 
L 218.052379 175.58459 
L 218.31231 164.009388 
L 218.572242 163.213485 
L 218.832174 159.649222 
L 219.092105 145.123987 
L 219.352037 171.068704 
L 219.611968 171.916514 
L 219.8719 165.782868 
L 220.131832 171.994374 
L 220.391763 182.341117 
L 220.651695 154.709431 
L 220.911626 165.696357 
L 221.171558 160.583543 
L 221.431489 224.895991 
L 221.691421 168.386856 
L 221.951353 156.569422 
L 222.211284 152.044885 
L 222.471216 165.220545 
L 222.731147 187.107886 
L 222.991079 166.673934 
L 223.251011 160.644101 
L 223.510942 148.238391 
L 223.770874 148.290298 
L 224.030805 173.914924 
L 224.290737 183.51767 
L 224.550668 167.469837 
L 224.8106 174.131202 
L 225.070532 157.149048 
L 225.330463 171.120611 
L 225.590395 177.081235 
L 225.850326 161.48326 
L 226.110258 171.605074 
L 226.37019 152.909997 
L 226.630121 171.717539 
L 226.890053 177.937696 
L 227.149984 175.082825 
L 227.409916 163.031811 
L 227.669847 171.830003 
L 227.929779 198.016952 
L 228.189711 203.588275 
L 228.709574 187.44528 
L 228.969505 189.348527 
L 229.229437 236.966903 
L 229.489368 194.469992 
L 229.7493 179.503549 
L 230.009232 187.272257 
L 230.269163 170.290103 
L 230.529095 178.785506 
L 230.789026 207.957092 
L 231.048958 190.049268 
L 231.30889 201.062147 
L 231.568821 191.21717 
L 231.828753 210.258291 
L 232.088684 164.805291 
L 232.348616 147.061838 
L 232.608547 166.241378 
L 232.868479 165.263801 
L 233.128411 179.616014 
L 233.388342 169.623967 
L 233.648274 155.150638 
L 233.908205 176.449703 
L 234.428069 192.419676 
L 234.688 170.627497 
L 234.947932 176.249862 
L 235.207863 162.357024 
L 235.467795 160.644101 
L 235.727726 181.389494 
L 235.987658 179.408387 
L 236.24759 157.408581 
L 236.507521 159.657873 
L 236.767453 164.632269 
L 237.027384 173.802459 
L 237.287316 154.423944 
L 237.547248 156.517516 
L 237.807179 182.211351 
L 238.067111 156.154169 
L 238.327042 203.276835 
L 238.586974 181.328936 
L 238.846905 182.799627 
L 239.106837 155.444776 
L 239.366769 196.156961 
L 239.6267 202.00512 
L 240.146563 160.427823 
L 240.926358 190.576986 
L 241.18629 162.426233 
L 241.446221 149.518757 
L 241.706153 153.230089 
L 241.966084 169.148155 
L 242.226016 173.34395 
L 242.485948 151.075959 
L 242.745879 156.837607 
L 243.005811 151.032704 
L 243.525674 172.790278 
L 243.785605 169.381735 
L 244.045537 170.748613 
L 244.305469 166.241378 
L 244.5654 167.400628 
L 244.825332 184.434689 
L 245.085263 191.45075 
L 245.345195 175.290452 
L 245.605127 172.375024 
L 245.865058 174.702176 
L 246.12499 173.127672 
L 246.644853 177.288862 
L 246.904784 177.245606 
L 247.164716 181.82205 
L 247.684579 176.640027 
L 247.944511 197.056677 
L 248.204442 249.870052 
L 248.464374 173.067114 
L 248.724306 172.357722 
L 248.984237 167.296815 
L 249.244169 165.445474 
L 249.5041 182.505489 
L 249.764032 186.571517 
L 250.023963 165.237848 
L 250.283895 167.097839 
L 250.543827 167.348721 
L 250.803758 186.208169 
L 251.06369 160.453777 
L 251.323621 158.109322 
L 251.583553 167.296815 
L 251.843485 155.340963 
L 252.103416 148.644994 
L 252.363348 183.733948 
L 252.623279 192.938743 
L 252.883211 247.202046 
L 253.143142 261.216 
L 253.403074 200.421964 
L 253.663006 204.418783 
L 253.922937 203.129766 
L 254.182869 192.255304 
L 254.4428 155.488032 
L 254.702732 162.729022 
L 255.222595 130.382473 
L 255.742458 161.370796 
L 256.00239 153.956783 
L 256.262321 160.990146 
L 256.522253 145.383521 
L 256.782185 143.125577 
L 257.042116 145.106685 
L 257.302048 139.967918 
L 257.561979 145.495985 
L 258.081842 163.931528 
L 258.601706 132.66637 
L 258.861637 125.754123 
L 259.121569 150.574194 
L 259.3815 153.671296 
L 259.641432 164.25162 
L 259.901364 150.591496 
L 260.421227 164.191062 
L 260.681158 179.252667 
L 260.94109 170.566939 
L 261.201021 145.011522 
L 261.720885 177.029328 
L 261.980816 171.207122 
L 262.240748 172.426931 
L 262.500679 156.820305 
L 263.020543 172.599953 
L 263.280474 158.481321 
L 263.540406 174.304224 
L 263.800337 172.297164 
L 264.060269 158.758156 
L 264.3202 162.504093 
L 264.580132 164.32948 
L 264.840064 176.570818 
L 265.099995 182.51414 
L 265.359927 171.060053 
L 265.619858 183.500368 
L 266.399653 128.522482 
L 266.659585 171.899212 
L 266.919516 153.550181 
L 267.179448 162.192652 
L 267.439379 163.109671 
L 267.699311 173.568879 
L 267.959243 165.938588 
L 268.219174 166.379796 
L 268.479106 165.869379 
L 268.739037 159.848198 
L 268.998969 164.701478 
L 269.2589 177.903091 
L 269.518832 170.428521 
L 269.778764 176.752492 
L 270.038695 157.001979 
L 270.298627 157.001979 
L 270.558558 151.075959 
L 270.81849 169.719129 
L 271.078422 171.103309 
L 271.338353 165.817473 
L 271.598285 188.223881 
L 271.858216 196.650075 
L 272.118148 168.897272 
L 272.378079 158.126625 
L 272.638011 156.309889 
L 272.897943 163.308647 
L 273.157874 188.647786 
L 273.677737 141.654887 
L 273.937669 133.989992 
L 274.197601 171.241727 
L 274.457532 180.368661 
L 274.717464 160.696008 
L 274.977395 131.489817 
L 275.237327 131.195679 
L 275.497258 150.600148 
L 275.75719 156.059006 
L 276.017122 148.22974 
L 276.277053 164.935058 
L 276.536985 161.448656 
L 276.796916 148.965085 
L 277.056848 126.056912 
L 277.31678 159.329131 
L 277.576711 145.158591 
L 277.836643 169.944058 
L 278.096574 176.449703 
L 278.356506 168.300345 
L 278.616437 174.970361 
L 278.876369 158.048764 
L 279.136301 187.254955 
L 279.396232 183.137021 
L 279.656164 185.82752 
L 279.916095 158.299647 
L 280.176027 173.551577 
L 280.435958 166.79505 
L 280.69589 190.576986 
L 280.955822 184.919152 
L 281.215753 183.733948 
L 281.475685 185.403615 
L 281.735616 195.53408 
L 281.995548 187.185746 
L 282.25548 189.045738 
L 282.515411 181.562516 
L 282.775343 191.615121 
L 283.035274 189.98871 
L 283.295206 175.58459 
L 283.555137 190.940334 
L 283.815069 179.840943 
L 284.075001 162.201303 
L 284.334932 194.790083 
L 284.594864 172.435582 
L 284.854795 167.080537 
L 285.114727 171.34554 
L 285.374659 135.183847 
L 285.63459 174.831943 
L 285.894522 173.067114 
L 286.154453 164.519804 
L 286.414385 162.625208 
L 286.674316 198.15537 
L 286.934248 181.000193 
L 287.19418 177.081235 
L 287.454111 170.809171 
L 287.714043 189.391783 
L 287.973974 195.594638 
L 288.233906 188.232532 
L 288.493838 165.540637 
L 288.753769 170.151685 
L 289.013701 166.552818 
L 289.273632 177.833882 
L 289.533564 166.942119 
L 289.793495 146.724445 
L 290.053427 146.61198 
L 290.313359 176.311285 
L 290.57329 169.745083 
L 290.833222 152.667766 
L 291.093153 157.55565 
L 291.353085 159.649222 
L 291.613017 179.711176 
L 291.872948 181.631725 
L 292.13288 176.242076 
L 292.652743 171.129262 
L 292.912674 160.436474 
L 293.172606 198.068859 
L 293.692469 170.004616 
L 293.952401 170.463126 
L 294.212332 190.360708 
L 294.472264 187.670209 
L 294.732195 182.341117 
L 294.992127 181.069402 
L 295.252059 183.932924 
L 295.51199 188.21523 
L 295.771922 203.614229 
L 296.291785 188.881366 
L 296.811648 218.88346 
L 297.07158 219.082436 
L 297.331511 193.552973 
L 297.591443 193.215579 
L 297.851374 195.265895 
L 298.111306 212.068971 
L 298.371238 186.960817 
L 298.631169 184.201109 
L 298.891101 173.387205 
L 299.151032 182.912092 
L 299.410964 179.572758 
L 299.670896 187.817278 
L 299.930827 183.36195 
L 300.190759 195.655196 
L 300.45069 168.949179 
L 300.710622 188.414206 
L 300.970553 177.392675 
L 301.230485 172.643209 
L 301.490417 180.74066 
L 301.750348 183.413857 
L 302.01028 182.713116 
L 302.270211 171.198471 
L 302.530143 170.65345 
L 302.790075 140.798425 
L 303.050006 155.141987 
L 303.309938 159.311828 
L 303.569869 169.312526 
L 303.829801 169.459595 
L 304.089732 166.79505 
L 304.349664 180.28215 
L 304.609596 210.370756 
L 305.129459 158.256391 
L 305.38939 163.161578 
L 305.649322 149.700431 
L 305.909253 173.214183 
L 306.169185 141.706793 
L 306.429117 146.188075 
L 306.689048 147.286768 
L 306.94898 164.883151 
L 307.208911 172.591302 
L 307.468843 146.214028 
L 307.728775 141.326144 
L 308.508569 171.259029 
L 308.768501 148.497925 
L 309.028432 139.111456 
L 309.288364 137.796486 
L 309.548296 142.84009 
L 309.808227 174.477247 
L 310.32809 161.881212 
L 310.588022 171.509912 
L 310.847954 159.519455 
L 311.367817 173.984133 
L 311.627748 146.317842 
L 311.88768 165.999146 
L 312.147611 159.952011 
L 312.407543 171.535865 
L 312.667475 168.456065 
L 312.927406 192.566745 
L 313.187338 248.368217 
L 313.447269 172.764324 
L 313.967133 138.652947 
L 314.227064 138.471273 
L 314.746927 174.849245 
L 315.006859 159.320479 
L 315.26679 160.073127 
L 315.526722 151.46526 
L 315.786654 167.123792 
L 316.046585 167.781278 
L 316.82638 136.82756 
L 317.086312 90.016334 
L 317.346243 168.931877 
L 317.606175 163.663343 
L 317.866106 171.700236 
L 318.126038 209.306667 
L 318.385969 212.2567 
L 318.645901 206.979515 
L 318.905833 211.919307 
L 319.165764 220.233036 
L 319.425696 223.944367 
L 319.685627 161.318889 
L 319.945559 143.134229 
L 320.20549 141.585678 
L 320.465422 156.275284 
L 320.725354 164.165108 
L 320.985285 163.083718 
L 321.245217 163.222136 
L 321.505148 156.880863 
L 321.76508 161.362144 
L 322.025012 176.492958 
L 322.284943 153.878923 
L 322.544875 162.365675 
L 322.804806 145.643054 
L 323.064738 149.838849 
L 323.324669 162.720371 
L 323.584601 152.70237 
L 323.844533 150.496334 
L 324.104464 153.550181 
L 324.624327 146.698491 
L 324.884259 146.509897 
L 325.144191 156.912007 
L 325.404122 157.541809 
L 325.664054 149.435706 
L 325.923985 175.46607 
L 326.443848 161.298126 
L 326.70378 162.973849 
L 326.963712 156.863561 
L 327.223643 180.404996 
L 327.483575 159.910486 
L 327.743506 163.109671 
L 328.003438 155.32193 
L 328.26337 157.823835 
L 328.523301 141.06315 
L 328.783233 162.158913 
L 329.043164 160.631125 
L 329.303096 160.204624 
L 329.563027 136.690872 
L 329.822959 144.253684 
L 330.082891 156.323731 
L 330.342822 152.197145 
L 330.602754 150.416744 
L 330.862685 163.219541 
L 331.122617 160.255666 
L 331.382548 144.521004 
L 331.64248 153.254312 
L 331.902412 166.594344 
L 332.162343 167.666218 
L 332.422275 161.082713 
L 332.682206 149.000555 
L 332.942138 155.165345 
L 333.20207 89.205724 
L 333.462001 134.618063 
L 333.721933 109.094655 
L 333.981864 97.640569 
L 334.241796 143.07194 
L 334.501727 140.952415 
L 334.761659 99.683964 
L 335.021591 110.59649 
L 335.281522 100.464295 
L 335.541454 104.404017 
L 335.801385 112.096595 
L 336.061317 130.174847 
L 336.321249 136.524771 
L 336.58118 127.595082 
L 336.841112 148.296354 
L 337.101043 160.063611 
L 337.360975 120.742527 
L 337.620906 114.694527 
L 338.14077 59.308308 
L 338.400701 103.367612 
L 338.660633 106.652443 
L 339.180496 92.303691 
L 339.700359 136.729802 
L 340.220222 105.889414 
L 340.480154 103.229194 
L 340.740085 87.649387 
L 341.000017 120.72436 
L 341.51988 92.483634 
L 342.039743 144.328084 
L 342.299675 131.366971 
L 342.559607 128.543245 
L 342.819538 133.274544 
L 343.339401 102.682443 
L 343.599333 131.380813 
L 343.859264 128.750872 
L 344.119196 95.957925 
L 344.379128 138.388223 
L 344.639059 150.855356 
L 344.898991 146.579971 
L 345.158922 146.594678 
L 345.418854 141.301921 
L 345.678785 148.920965 
L 345.938717 172.510847 
L 346.198649 132.780565 
L 346.45858 135.426078 
L 346.718512 135.106852 
L 346.978443 151.221298 
L 347.238375 158.176801 
L 347.498307 131.85576 
L 347.758238 143.610905 
L 348.01817 134.213191 
L 348.278101 148.049797 
L 348.538033 148.294623 
L 348.797964 145.11101 
L 349.057896 132.801327 
L 349.317828 138.372651 
L 349.577759 83.755517 
L 349.837691 143.693956 
L 350.097622 143.160182 
L 350.357554 134.288455 
L 350.617486 116.40918 
L 350.877417 82.766693 
L 351.137349 141.609901 
L 351.39728 138.686686 
L 351.657212 138.957466 
L 351.917143 109.525481 
L 352.177075 154.136727 
L 352.437007 135.796346 
L 352.95687 123.11207 
L 353.476733 132.294372 
L 353.736665 124.879494 
L 353.996596 135.218451 
L 354.256528 114.783634 
L 354.516459 143.53218 
L 354.776391 155.150638 
L 355.036322 115.426412 
L 355.296254 113.517975 
L 355.556186 107.764978 
L 355.816117 139.155577 
L 356.076049 143.430097 
L 356.33598 124.691765 
L 356.595912 123.686504 
L 356.855843 118.852257 
L 357.115775 137.199558 
L 357.375707 143.49152 
L 357.635638 115.267232 
L 357.89557 118.999326 
L 358.155501 120.622277 
L 358.415433 125.029159 
L 358.675365 135.941685 
L 358.935296 127.863266 
L 359.195228 104.089981 
L 359.975022 156.813384 
L 360.234954 134.534147 
L 360.494886 131.182702 
L 360.754817 135.593045 
L 361.014749 157.167215 
L 361.534612 146.800574 
L 361.794544 124.984173 
L 362.054475 156.101397 
L 362.314407 158.698464 
L 362.574338 153.649668 
L 363.094201 87.376877 
L 363.354133 99.112125 
L 363.614065 150.127796 
L 363.873996 124.872573 
L 364.133928 113.140786 
L 364.393859 122.857727 
L 364.653791 119.641239 
L 364.913723 124.356966 
L 365.173654 111.872531 
L 365.433586 120.14387 
L 365.693517 112.133795 
L 365.953449 19.296 
L 366.21338 112.376026 
L 366.733244 71.576466 
L 366.993175 82.254547 
L 367.253107 121.331669 
L 367.513038 117.075316 
L 367.77297 121.050507 
L 368.032902 109.742625 
L 368.292833 103.761238 
L 368.552765 110.561021 
L 368.812696 110.563616 
L 369.592491 50.478107 
L 369.852423 108.09026 
L 370.112354 102.04226 
L 370.372286 93.127278 
L 370.632217 76.496359 
L 371.412012 114.276678 
L 371.671944 101.954019 
L 371.931875 58.12916 
L 372.191807 65.59854 
L 372.451738 78.257728 
L 372.71167 101.88654 
L 373.231533 78.531969 
L 373.491465 84.793651 
L 373.751396 86.175236 
L 374.011328 69.905069 
L 374.271259 79.38843 
L 374.531191 62.930534 
L 374.791123 57.001054 
L 375.051054 114.627914 
L 375.310986 120.072065 
L 375.570917 122.021163 
L 376.090781 86.256556 
L 376.350712 138.623533 
L 376.610644 127.667751 
L 376.870575 87.908055 
L 377.130507 108.479561 
L 377.65037 79.782921 
L 377.910302 108.845503 
L 378.170233 93.786493 
L 378.430165 120.26066 
L 378.690096 229.304603 
L 378.950028 117.535556 
L 379.20996 95.783173 
L 379.469891 86.582703 
L 379.729823 65.807897 
L 379.989754 108.133516 
L 380.249686 90.808777 
L 380.509617 109.417342 
L 380.769549 110.880247 
L 381.029481 103.572644 
L 381.289412 127.969675 
L 381.549344 129.677407 
L 381.809275 85.256486 
L 382.069207 106.408482 
L 382.329138 103.374533 
L 382.58907 68.458601 
L 382.849002 100.933186 
L 383.108933 119.283948 
L 383.368865 113.359659 
L 383.628796 128.643598 
L 383.888728 180.78305 
L 384.14866 158.752101 
L 384.408591 168.969942 
L 384.668523 172.414819 
L 384.668523 172.414819 
" style="fill:none;stroke:#1f77b4;stroke-linecap:square;stroke-width:1.5;"/>
   </g>
   <g id="patch_3">
    <path d="M 43.78125 273.312 
L 43.78125 7.2 
" style="fill:none;stroke:#000000;stroke-linecap:square;stroke-linejoin:miter;stroke-width:0.8;"/>
   </g>
   <g id="patch_4">
    <path d="M 400.90125 273.312 
L 400.90125 7.2 
" style="fill:none;stroke:#000000;stroke-linecap:square;stroke-linejoin:miter;stroke-width:0.8;"/>
   </g>
   <g id="patch_5">
    <path d="M 43.78125 273.312 
L 400.90125 273.312 
" style="fill:none;stroke:#000000;stroke-linecap:square;stroke-linejoin:miter;stroke-width:0.8;"/>
   </g>
   <g id="patch_6">
    <path d="M 43.78125 7.2 
L 400.90125 7.2 
" style="fill:none;stroke:#000000;stroke-linecap:square;stroke-linejoin:miter;stroke-width:0.8;"/>
   </g>
  </g>
 </g>
 <defs>
  <clipPath id="p176b98db34">
   <rect height="266.112" width="357.12" x="43.78125" y="7.2"/>
  </clipPath>
 </defs>
</svg>
