<?xml version="1.0" encoding="utf-8" standalone="no"?>
<!DOCTYPE svg PUBLIC "-//W3C//DTD SVG 1.1//EN"
  "http://www.w3.org/Graphics/SVG/1.1/DTD/svg11.dtd">
<!-- Created with matplotlib (https://matplotlib.org/) -->
<svg height="398.015pt" version="1.1" viewBox="0 0 454.4975 398.015" width="454.4975pt" xmlns="http://www.w3.org/2000/svg" xmlns:xlink="http://www.w3.org/1999/xlink">
 <defs>
  <style type="text/css">
*{stroke-linecap:butt;stroke-linejoin:round;}
  </style>
 </defs>
 <g id="figure_1">
  <g id="patch_1">
   <path d="M 0 398.015 
L 454.4975 398.015 
L 454.4975 0 
L 0 0 
z
" style="fill:#ffffff;"/>
  </g>
  <g id="axes_1">
   <g id="patch_2">
    <path d="M 56.6975 333.36 
L 447.2975 333.36 
L 447.2975 7.2 
L 56.6975 7.2 
z
" style="fill:#ffffff;"/>
   </g>
   <g id="matplotlib.axis_1">
    <g id="xtick_1">
     <g id="line2d_1">
      <defs>
       <path d="M 0 0 
L 0 3.5 
" id="m101780faf5" style="stroke:#000000;stroke-width:0.8;"/>
      </defs>
      <g>
       <use style="stroke:#000000;stroke-width:0.8;" x="74.452045" xlink:href="#m101780faf5" y="333.36"/>
      </g>
     </g>
     <g id="text_1">
      <!-- 0 -->
      <defs>
       <path d="M 31.78125 66.40625 
Q 24.171875 66.40625 20.328125 58.90625 
Q 16.5 51.421875 16.5 36.375 
Q 16.5 21.390625 20.328125 13.890625 
Q 24.171875 6.390625 31.78125 6.390625 
Q 39.453125 6.390625 43.28125 13.890625 
Q 47.125 21.390625 47.125 36.375 
Q 47.125 51.421875 43.28125 58.90625 
Q 39.453125 66.40625 31.78125 66.40625 
z
M 31.78125 74.21875 
Q 44.046875 74.21875 50.515625 64.515625 
Q 56.984375 54.828125 56.984375 36.375 
Q 56.984375 17.96875 50.515625 8.265625 
Q 44.046875 -1.421875 31.78125 -1.421875 
Q 19.53125 -1.421875 13.0625 8.265625 
Q 6.59375 17.96875 6.59375 36.375 
Q 6.59375 54.828125 13.0625 64.515625 
Q 19.53125 74.21875 31.78125 74.21875 
z
" id="DejaVuSans-48"/>
      </defs>
      <g transform="translate(66.817045 358.59625)scale(0.24 -0.24)">
       <use xlink:href="#DejaVuSans-48"/>
      </g>
     </g>
    </g>
    <g id="xtick_2">
     <g id="line2d_2">
      <g>
       <use style="stroke:#000000;stroke-width:0.8;" x="216.602129" xlink:href="#m101780faf5" y="333.36"/>
      </g>
     </g>
     <g id="text_2">
      <!-- 500 -->
      <defs>
       <path d="M 10.796875 72.90625 
L 49.515625 72.90625 
L 49.515625 64.59375 
L 19.828125 64.59375 
L 19.828125 46.734375 
Q 21.96875 47.46875 24.109375 47.828125 
Q 26.265625 48.1875 28.421875 48.1875 
Q 40.625 48.1875 47.75 41.5 
Q 54.890625 34.8125 54.890625 23.390625 
Q 54.890625 11.625 47.5625 5.09375 
Q 40.234375 -1.421875 26.90625 -1.421875 
Q 22.3125 -1.421875 17.546875 -0.640625 
Q 12.796875 0.140625 7.71875 1.703125 
L 7.71875 11.625 
Q 12.109375 9.234375 16.796875 8.0625 
Q 21.484375 6.890625 26.703125 6.890625 
Q 35.15625 6.890625 40.078125 11.328125 
Q 45.015625 15.765625 45.015625 23.390625 
Q 45.015625 31 40.078125 35.4375 
Q 35.15625 39.890625 26.703125 39.890625 
Q 22.75 39.890625 18.8125 39.015625 
Q 14.890625 38.140625 10.796875 36.28125 
z
" id="DejaVuSans-53"/>
      </defs>
      <g transform="translate(193.697129 358.59625)scale(0.24 -0.24)">
       <use xlink:href="#DejaVuSans-53"/>
       <use x="63.623047" xlink:href="#DejaVuSans-48"/>
       <use x="127.246094" xlink:href="#DejaVuSans-48"/>
      </g>
     </g>
    </g>
    <g id="xtick_3">
     <g id="line2d_3">
      <g>
       <use style="stroke:#000000;stroke-width:0.8;" x="358.752213" xlink:href="#m101780faf5" y="333.36"/>
      </g>
     </g>
     <g id="text_3">
      <!-- 1000 -->
      <defs>
       <path d="M 12.40625 8.296875 
L 28.515625 8.296875 
L 28.515625 63.921875 
L 10.984375 60.40625 
L 10.984375 69.390625 
L 28.421875 72.90625 
L 38.28125 72.90625 
L 38.28125 8.296875 
L 54.390625 8.296875 
L 54.390625 0 
L 12.40625 0 
z
" id="DejaVuSans-49"/>
      </defs>
      <g transform="translate(328.212213 358.59625)scale(0.24 -0.24)">
       <use xlink:href="#DejaVuSans-49"/>
       <use x="63.623047" xlink:href="#DejaVuSans-48"/>
       <use x="127.246094" xlink:href="#DejaVuSans-48"/>
       <use x="190.869141" xlink:href="#DejaVuSans-48"/>
      </g>
     </g>
    </g>
    <g id="text_4">
     <!-- Day -->
     <defs>
      <path d="M 19.671875 64.796875 
L 19.671875 8.109375 
L 31.59375 8.109375 
Q 46.6875 8.109375 53.6875 14.9375 
Q 60.6875 21.78125 60.6875 36.53125 
Q 60.6875 51.171875 53.6875 57.984375 
Q 46.6875 64.796875 31.59375 64.796875 
z
M 9.8125 72.90625 
L 30.078125 72.90625 
Q 51.265625 72.90625 61.171875 64.09375 
Q 71.09375 55.28125 71.09375 36.53125 
Q 71.09375 17.671875 61.125 8.828125 
Q 51.171875 0 30.078125 0 
L 9.8125 0 
z
" id="DejaVuSans-68"/>
      <path d="M 34.28125 27.484375 
Q 23.390625 27.484375 19.1875 25 
Q 14.984375 22.515625 14.984375 16.5 
Q 14.984375 11.71875 18.140625 8.90625 
Q 21.296875 6.109375 26.703125 6.109375 
Q 34.1875 6.109375 38.703125 11.40625 
Q 43.21875 16.703125 43.21875 25.484375 
L 43.21875 27.484375 
z
M 52.203125 31.203125 
L 52.203125 0 
L 43.21875 0 
L 43.21875 8.296875 
Q 40.140625 3.328125 35.546875 0.953125 
Q 30.953125 -1.421875 24.3125 -1.421875 
Q 15.921875 -1.421875 10.953125 3.296875 
Q 6 8.015625 6 15.921875 
Q 6 25.140625 12.171875 29.828125 
Q 18.359375 34.515625 30.609375 34.515625 
L 43.21875 34.515625 
L 43.21875 35.40625 
Q 43.21875 41.609375 39.140625 45 
Q 35.0625 48.390625 27.6875 48.390625 
Q 23 48.390625 18.546875 47.265625 
Q 14.109375 46.140625 10.015625 43.890625 
L 10.015625 52.203125 
Q 14.9375 54.109375 19.578125 55.046875 
Q 24.21875 56 28.609375 56 
Q 40.484375 56 46.34375 49.84375 
Q 52.203125 43.703125 52.203125 31.203125 
z
" id="DejaVuSans-97"/>
      <path d="M 32.171875 -5.078125 
Q 28.375 -14.84375 24.75 -17.8125 
Q 21.140625 -20.796875 15.09375 -20.796875 
L 7.90625 -20.796875 
L 7.90625 -13.28125 
L 13.1875 -13.28125 
Q 16.890625 -13.28125 18.9375 -11.515625 
Q 21 -9.765625 23.484375 -3.21875 
L 25.09375 0.875 
L 2.984375 54.6875 
L 12.5 54.6875 
L 29.59375 11.921875 
L 46.6875 54.6875 
L 56.203125 54.6875 
z
" id="DejaVuSans-121"/>
     </defs>
     <g transform="translate(228.30125 385.82375)scale(0.24 -0.24)">
      <use xlink:href="#DejaVuSans-68"/>
      <use x="77.001953" xlink:href="#DejaVuSans-97"/>
      <use x="138.28125" xlink:href="#DejaVuSans-121"/>
     </g>
    </g>
   </g>
   <g id="matplotlib.axis_2">
    <g id="ytick_1">
     <g id="line2d_4">
      <defs>
       <path d="M 0 0 
L -3.5 0 
" id="m0739959588" style="stroke:#000000;stroke-width:0.8;"/>
      </defs>
      <g>
       <use style="stroke:#000000;stroke-width:0.8;" x="56.6975" xlink:href="#m0739959588" y="250.257082"/>
      </g>
     </g>
     <g id="text_5">
      <!-- 1 -->
      <g transform="translate(34.4275 259.375207)scale(0.24 -0.24)">
       <use xlink:href="#DejaVuSans-49"/>
      </g>
     </g>
    </g>
    <g id="ytick_2">
     <g id="line2d_5">
      <g>
       <use style="stroke:#000000;stroke-width:0.8;" x="56.6975" xlink:href="#m0739959588" y="144.224651"/>
      </g>
     </g>
     <g id="text_6">
      <!-- 2 -->
      <defs>
       <path d="M 19.1875 8.296875 
L 53.609375 8.296875 
L 53.609375 0 
L 7.328125 0 
L 7.328125 8.296875 
Q 12.9375 14.109375 22.625 23.890625 
Q 32.328125 33.6875 34.8125 36.53125 
Q 39.546875 41.84375 41.421875 45.53125 
Q 43.3125 49.21875 43.3125 52.78125 
Q 43.3125 58.59375 39.234375 62.25 
Q 35.15625 65.921875 28.609375 65.921875 
Q 23.96875 65.921875 18.8125 64.3125 
Q 13.671875 62.703125 7.8125 59.421875 
L 7.8125 69.390625 
Q 13.765625 71.78125 18.9375 73 
Q 24.125 74.21875 28.421875 74.21875 
Q 39.75 74.21875 46.484375 68.546875 
Q 53.21875 62.890625 53.21875 53.421875 
Q 53.21875 48.921875 51.53125 44.890625 
Q 49.859375 40.875 45.40625 35.40625 
Q 44.1875 33.984375 37.640625 27.21875 
Q 31.109375 20.453125 19.1875 8.296875 
z
" id="DejaVuSans-50"/>
      </defs>
      <g transform="translate(34.4275 153.342776)scale(0.24 -0.24)">
       <use xlink:href="#DejaVuSans-50"/>
      </g>
     </g>
    </g>
    <g id="ytick_3">
     <g id="line2d_6">
      <g>
       <use style="stroke:#000000;stroke-width:0.8;" x="56.6975" xlink:href="#m0739959588" y="38.192219"/>
      </g>
     </g>
     <g id="text_7">
      <!-- 3 -->
      <defs>
       <path d="M 40.578125 39.3125 
Q 47.65625 37.796875 51.625 33 
Q 55.609375 28.21875 55.609375 21.1875 
Q 55.609375 10.40625 48.1875 4.484375 
Q 40.765625 -1.421875 27.09375 -1.421875 
Q 22.515625 -1.421875 17.65625 -0.515625 
Q 12.796875 0.390625 7.625 2.203125 
L 7.625 11.71875 
Q 11.71875 9.328125 16.59375 8.109375 
Q 21.484375 6.890625 26.8125 6.890625 
Q 36.078125 6.890625 40.9375 10.546875 
Q 45.796875 14.203125 45.796875 21.1875 
Q 45.796875 27.640625 41.28125 31.265625 
Q 36.765625 34.90625 28.71875 34.90625 
L 20.21875 34.90625 
L 20.21875 43.015625 
L 29.109375 43.015625 
Q 36.375 43.015625 40.234375 45.921875 
Q 44.09375 48.828125 44.09375 54.296875 
Q 44.09375 59.90625 40.109375 62.90625 
Q 36.140625 65.921875 28.71875 65.921875 
Q 24.65625 65.921875 20.015625 65.03125 
Q 15.375 64.15625 9.8125 62.3125 
L 9.8125 71.09375 
Q 15.4375 72.65625 20.34375 73.4375 
Q 25.25 74.21875 29.59375 74.21875 
Q 40.828125 74.21875 47.359375 69.109375 
Q 53.90625 64.015625 53.90625 55.328125 
Q 53.90625 49.265625 50.4375 45.09375 
Q 46.96875 40.921875 40.578125 39.3125 
z
" id="DejaVuSans-51"/>
      </defs>
      <g transform="translate(34.4275 47.310344)scale(0.24 -0.24)">
       <use xlink:href="#DejaVuSans-51"/>
      </g>
     </g>
    </g>
    <g id="text_8">
     <!-- Volume -->
     <defs>
      <path d="M 28.609375 0 
L 0.78125 72.90625 
L 11.078125 72.90625 
L 34.1875 11.53125 
L 57.328125 72.90625 
L 67.578125 72.90625 
L 39.796875 0 
z
" id="DejaVuSans-86"/>
      <path d="M 30.609375 48.390625 
Q 23.390625 48.390625 19.1875 42.75 
Q 14.984375 37.109375 14.984375 27.296875 
Q 14.984375 17.484375 19.15625 11.84375 
Q 23.34375 6.203125 30.609375 6.203125 
Q 37.796875 6.203125 41.984375 11.859375 
Q 46.1875 17.53125 46.1875 27.296875 
Q 46.1875 37.015625 41.984375 42.703125 
Q 37.796875 48.390625 30.609375 48.390625 
z
M 30.609375 56 
Q 42.328125 56 49.015625 48.375 
Q 55.71875 40.765625 55.71875 27.296875 
Q 55.71875 13.875 49.015625 6.21875 
Q 42.328125 -1.421875 30.609375 -1.421875 
Q 18.84375 -1.421875 12.171875 6.21875 
Q 5.515625 13.875 5.515625 27.296875 
Q 5.515625 40.765625 12.171875 48.375 
Q 18.84375 56 30.609375 56 
z
" id="DejaVuSans-111"/>
      <path d="M 9.421875 75.984375 
L 18.40625 75.984375 
L 18.40625 0 
L 9.421875 0 
z
" id="DejaVuSans-108"/>
      <path d="M 8.5 21.578125 
L 8.5 54.6875 
L 17.484375 54.6875 
L 17.484375 21.921875 
Q 17.484375 14.15625 20.5 10.265625 
Q 23.53125 6.390625 29.59375 6.390625 
Q 36.859375 6.390625 41.078125 11.03125 
Q 45.3125 15.671875 45.3125 23.6875 
L 45.3125 54.6875 
L 54.296875 54.6875 
L 54.296875 0 
L 45.3125 0 
L 45.3125 8.40625 
Q 42.046875 3.421875 37.71875 1 
Q 33.40625 -1.421875 27.6875 -1.421875 
Q 18.265625 -1.421875 13.375 4.4375 
Q 8.5 10.296875 8.5 21.578125 
z
M 31.109375 56 
z
" id="DejaVuSans-117"/>
      <path d="M 52 44.1875 
Q 55.375 50.25 60.0625 53.125 
Q 64.75 56 71.09375 56 
Q 79.640625 56 84.28125 50.015625 
Q 88.921875 44.046875 88.921875 33.015625 
L 88.921875 0 
L 79.890625 0 
L 79.890625 32.71875 
Q 79.890625 40.578125 77.09375 44.375 
Q 74.3125 48.1875 68.609375 48.1875 
Q 61.625 48.1875 57.5625 43.546875 
Q 53.515625 38.921875 53.515625 30.90625 
L 53.515625 0 
L 44.484375 0 
L 44.484375 32.71875 
Q 44.484375 40.625 41.703125 44.40625 
Q 38.921875 48.1875 33.109375 48.1875 
Q 26.21875 48.1875 22.15625 43.53125 
Q 18.109375 38.875 18.109375 30.90625 
L 18.109375 0 
L 9.078125 0 
L 9.078125 54.6875 
L 18.109375 54.6875 
L 18.109375 46.1875 
Q 21.1875 51.21875 25.484375 53.609375 
Q 29.78125 56 35.6875 56 
Q 41.65625 56 45.828125 52.96875 
Q 50 49.953125 52 44.1875 
z
" id="DejaVuSans-109"/>
      <path d="M 56.203125 29.59375 
L 56.203125 25.203125 
L 14.890625 25.203125 
Q 15.484375 15.921875 20.484375 11.0625 
Q 25.484375 6.203125 34.421875 6.203125 
Q 39.59375 6.203125 44.453125 7.46875 
Q 49.3125 8.734375 54.109375 11.28125 
L 54.109375 2.78125 
Q 49.265625 0.734375 44.1875 -0.34375 
Q 39.109375 -1.421875 33.890625 -1.421875 
Q 20.796875 -1.421875 13.15625 6.1875 
Q 5.515625 13.8125 5.515625 26.8125 
Q 5.515625 40.234375 12.765625 48.109375 
Q 20.015625 56 32.328125 56 
Q 43.359375 56 49.78125 48.890625 
Q 56.203125 41.796875 56.203125 29.59375 
z
M 47.21875 32.234375 
Q 47.125 39.59375 43.09375 43.984375 
Q 39.0625 48.390625 32.421875 48.390625 
Q 24.90625 48.390625 20.390625 44.140625 
Q 15.875 39.890625 15.1875 32.171875 
z
" id="DejaVuSans-101"/>
     </defs>
     <g transform="translate(25.43625 215.829375)rotate(-90)scale(0.24 -0.24)">
      <use xlink:href="#DejaVuSans-86"/>
      <use x="68.298828" xlink:href="#DejaVuSans-111"/>
      <use x="129.480469" xlink:href="#DejaVuSans-108"/>
      <use x="157.263672" xlink:href="#DejaVuSans-117"/>
      <use x="220.642578" xlink:href="#DejaVuSans-109"/>
      <use x="318.054688" xlink:href="#DejaVuSans-101"/>
     </g>
    </g>
   </g>
   <g id="line2d_7">
    <path clip-path="url(#p8dc5559acc)" d="M 74.452045 229.973078 
L 75.020646 206.656546 
L 75.304946 220.992131 
L 75.589246 228.446211 
L 76.157846 203.07265 
L 76.442147 207.017056 
L 76.726447 232.867763 
L 77.295047 217.493061 
L 77.579347 222.900715 
L 77.863647 239.865904 
L 78.147948 244.62676 
L 78.432248 234.373424 
L 78.716548 218.945705 
L 79.000848 237.660429 
L 79.285148 245.125112 
L 79.569448 248.87866 
L 79.853749 243.937549 
L 80.138049 233.472148 
L 80.706649 242.251633 
L 80.990949 246.111214 
L 81.275249 242.283443 
L 81.55955 234.320408 
L 81.84385 233.959897 
L 82.12815 222.985541 
L 82.41245 238.360243 
L 82.69675 228.14932 
L 82.98105 211.459815 
L 83.549651 236.38804 
L 83.833951 238.158782 
L 84.402551 218.988118 
L 84.686851 219.083547 
L 84.971152 257.764178 
L 85.255452 240.523305 
L 85.539752 236.239595 
L 85.824052 238.158782 
L 86.108352 241.148896 
L 86.676953 211.989978 
L 86.961253 208.119794 
L 87.245553 222.741666 
L 87.529853 192.622094 
L 87.814153 236.875789 
L 88.382754 213.538051 
L 88.667054 173.494903 
L 89.235654 238.169385 
L 89.519954 216.941692 
L 89.804254 214.905869 
L 90.088555 225.392477 
L 90.372855 220.483175 
L 90.657155 223.229415 
L 90.941455 209.31796 
L 91.225755 205.13074 
L 91.510055 211.237147 
L 91.794356 221.967629 
L 92.078656 243.598245 
L 92.362956 213.188144 
L 92.647256 219.475867 
L 93.215857 259.386474 
L 93.500157 238.635927 
L 93.784457 152.823881 
L 94.068757 198.640494 
L 94.353057 214.343897 
L 94.637357 248.921073 
L 94.921658 227.301061 
L 95.205958 228.668879 
L 95.490258 213.654687 
L 95.774558 240.576321 
L 96.058858 221.967629 
L 96.343158 231.033402 
L 96.627459 213.972784 
L 96.911759 235.63521 
L 97.196059 241.551819 
L 97.480359 255.664736 
L 97.764659 249.589078 
L 98.048959 236.218388 
L 98.33326 244.245043 
L 98.61756 260.202924 
L 98.90186 265.292481 
L 99.18616 242.643953 
L 99.47046 207.282138 
L 99.75476 212.551949 
L 100.039061 236.38804 
L 100.323361 231.71201 
L 100.607661 222.646237 
L 100.891961 235.96391 
L 101.176261 239.579616 
L 101.460561 268.484057 
L 102.029162 233.440338 
L 102.313462 226.230133 
L 102.882062 267.593384 
L 103.166362 237.872494 
L 103.450663 243.693674 
L 103.734963 240.756576 
L 104.019263 279.288762 
L 104.303563 264.030695 
L 104.587863 235.783655 
L 104.872163 243.513419 
L 105.156464 224.501804 
L 105.440764 182.86817 
L 105.725064 238.423863 
L 106.009364 230.651685 
L 106.577964 192.276428 
L 106.862265 230.195746 
L 107.146565 244.944857 
L 107.430865 229.167231 
L 107.715165 233.069225 
L 107.999465 215.552667 
L 108.283765 161.999927 
L 108.852366 290.325677 
L 109.136666 257.159793 
L 109.420966 244.245043 
L 109.705266 245.4114 
L 109.989566 222.285727 
L 110.273867 209.530025 
L 110.558167 208.480304 
L 110.842467 237.352935 
L 111.126767 246.036991 
L 111.411067 225.01076 
L 111.695367 216.719024 
L 111.979668 213.834942 
L 112.548268 251.646107 
L 112.832568 229.188438 
L 113.116868 220.493778 
L 113.401168 227.576745 
L 113.685469 248.634786 
L 113.969769 259.89543 
L 114.538369 214.174246 
L 114.822669 227.110202 
L 115.106969 256.629631 
L 115.39127 270.222989 
L 115.67557 248.984693 
L 115.95987 237.045441 
L 116.24417 239.208503 
L 116.81277 267.476749 
L 117.381371 243.301354 
L 117.665671 244.382885 
L 118.234271 261.167819 
L 118.518571 245.846133 
L 118.802872 238.508689 
L 119.087172 251.72033 
L 119.371472 245.634068 
L 119.655772 266.946587 
L 119.940072 251.6249 
L 120.224372 254.106059 
L 120.508673 233.60999 
L 120.792973 258.729073 
L 121.361573 209.487612 
L 121.645873 212.117216 
L 121.930173 205.267521 
L 122.214474 220.928511 
L 122.498774 109.145941 
L 122.783074 181.292528 
L 123.067374 131.442441 
L 123.351674 143.715695 
L 123.635974 110.58056 
L 123.920275 171.093269 
L 124.488875 195.215647 
L 124.773175 200.739937 
L 125.057475 183.297602 
L 125.341775 231.637787 
L 125.626076 219.528883 
L 125.910376 181.272382 
L 126.194676 185.672728 
L 126.763276 252.483763 
L 127.047576 226.102894 
L 127.331877 217.13255 
L 127.616177 175.548752 
L 128.184777 247.638081 
L 128.753377 202.309217 
L 129.037678 222.381156 
L 129.321978 218.988118 
L 129.606278 239.049454 
L 129.890578 216.612992 
L 130.174878 214.608979 
L 130.459178 211.618864 
L 131.027779 239.007041 
L 131.312079 218.723037 
L 131.596379 212.88065 
L 131.880679 216.602388 
L 132.164979 237.331729 
L 132.44928 221.8722 
L 133.30218 195.385299 
L 133.58648 240.31124 
L 133.87078 251.147754 
L 134.155081 211.014479 
L 134.439381 203.242302 
L 134.723681 202.065342 
L 135.007981 214.48174 
L 135.292281 216.666008 
L 135.576581 215.245173 
L 135.860882 247.150332 
L 136.145182 312.784407 
L 136.429482 236.494072 
L 136.998082 205.331141 
L 137.566683 213.824339 
L 137.850983 228.743102 
L 138.135283 216.485753 
L 138.419583 169.110462 
L 138.988183 223.939833 
L 139.272484 227.067789 
L 139.556784 211.321973 
L 140.125384 196.021493 
L 140.409684 217.726332 
L 140.693984 222.646237 
L 140.978285 212.721601 
L 141.262585 198.841956 
L 141.546885 198.248174 
L 141.831185 176.670575 
L 142.115485 309.670234 
L 142.399785 272.407257 
L 142.684086 263.373294 
L 143.252686 256.237311 
L 143.821286 207.960745 
L 144.105586 195.862445 
L 144.389887 217.567283 
L 144.674187 222.815889 
L 144.958487 202.330423 
L 145.242787 218.553385 
L 145.527087 227.78881 
L 146.095688 209.233134 
L 146.379988 199.096434 
L 146.664288 209.954155 
L 146.948588 214.916473 
L 147.232888 217.217376 
L 147.517188 199.446341 
L 147.801489 191.642354 
L 148.370089 230.450224 
L 148.654389 164.158748 
L 148.938689 142.146415 
L 149.222989 191.197018 
L 149.50729 211.321973 
L 149.79159 203.85729 
L 150.07589 167.732041 
L 150.36019 179.660689 
L 150.64449 203.43316 
L 150.92879 210.823621 
L 151.213091 233.355512 
L 151.497391 240.268827 
L 151.781691 227.36468 
L 152.065991 221.363244 
L 152.350291 212.170233 
L 152.634591 230.121523 
L 152.918892 203.719448 
L 153.203192 209.795106 
L 153.487492 206.677753 
L 154.056092 217.471854 
L 154.340392 208.501511 
L 154.624693 208.671162 
L 154.908993 201.853277 
L 155.193293 187.242008 
L 155.477593 192.013467 
L 155.761893 192.861727 
L 156.046194 195.395902 
L 156.330494 206.57172 
L 156.614794 227.969065 
L 156.899094 217.98081 
L 157.183394 212.721601 
L 157.467694 228.11751 
L 157.751995 197.887664 
L 158.036295 232.284585 
L 158.320595 223.218812 
L 158.889195 214.290881 
L 159.173495 224.459391 
L 159.457796 244.117804 
L 159.742096 226.54823 
L 160.310696 234.606695 
L 160.594996 244.860031 
L 160.879296 231.521151 
L 161.163597 226.961757 
L 161.447897 220.165078 
L 161.732197 238.572308 
L 162.016497 240.152191 
L 162.300797 225.297048 
L 162.585097 202.765156 
L 162.869398 196.647085 
L 163.437998 237.490777 
L 163.722298 214.068213 
L 164.006598 210.293459 
L 164.290898 212.159629 
L 164.575199 230.641082 
L 164.859499 230.980386 
L 165.143799 209.063482 
L 165.428099 210.685779 
L 165.712399 195.395902 
L 165.996699 210.579746 
L 166.281 216.888676 
L 166.5653 183.605096 
L 166.8496 202.394042 
L 167.4182 220.090855 
L 167.7025 237.257506 
L 168.271101 197.028801 
L 168.555401 234.03412 
L 168.839701 232.030107 
L 169.124001 240.862609 
L 169.408301 206.306639 
L 169.692602 205.702254 
L 169.976902 223.04916 
L 170.261202 221.161783 
L 170.545502 251.338613 
L 170.829802 228.997579 
L 171.114102 235.804862 
L 171.398403 229.803426 
L 171.682703 262.408399 
L 172.251303 241.583629 
L 172.535603 219.868187 
L 172.819903 220.854289 
L 173.104204 215.870764 
L 173.388504 200.78235 
L 173.672804 218.436749 
L 173.957104 186.478575 
L 174.241404 214.068213 
L 174.525704 226.272546 
L 174.810005 227.735794 
L 175.094305 165.884956 
L 175.378605 207.260931 
L 175.662905 192.045277 
L 175.947205 225.169809 
L 176.231505 229.782219 
L 176.515806 214.619582 
L 176.800106 208.936243 
L 177.084406 197.537757 
L 177.368706 191.66356 
L 177.653006 195.788222 
L 177.937306 142.709447 
L 178.221607 153.916015 
L 178.505907 131.818856 
L 178.790207 205.140282 
L 179.074507 162.992391 
L 179.358807 194.293165 
L 179.643107 282.130431 
L 179.927408 230.704702 
L 180.211708 213.262367 
L 180.496008 163.639189 
L 180.780308 135.691161 
L 181.064608 185.852983 
L 181.348908 83.277209 
L 181.633209 160.79752 
L 181.917509 84.157278 
L 182.201809 172.185403 
L 182.486109 74.868837 
L 182.770409 117.922246 
L 183.054709 97.462228 
L 183.33901 61.990138 
L 183.62331 99.192677 
L 183.90761 165.844663 
L 184.19191 167.694929 
L 184.47621 162.664751 
L 184.76051 138.99089 
L 185.044811 178.982082 
L 185.613411 205.140282 
L 185.897711 195.745809 
L 186.182011 198.258778 
L 186.466311 181.685909 
L 187.034912 246.386898 
L 187.603512 193.65697 
L 187.887812 196.700101 
L 188.172112 222.126678 
L 188.456413 218.468559 
L 188.740713 217.546077 
L 189.025013 212.81703 
L 189.309313 210.706985 
L 189.593613 242.675763 
L 189.877913 248.465134 
L 190.162214 217.630903 
L 190.446514 234.712728 
L 190.730814 221.51169 
L 191.015114 257.689955 
L 191.299414 219.528883 
L 191.583714 210.802414 
L 191.868015 207.706267 
L 192.152315 230.694098 
L 192.436615 236.409246 
L 192.720915 230.492637 
L 193.005215 266.522457 
L 193.289515 229.941268 
L 193.573816 221.522293 
L 193.858116 250.108637 
L 194.142416 202.690933 
L 194.426716 197.134834 
L 194.711016 194.696088 
L 194.995316 166.19457 
L 195.279617 209.848122 
L 195.563917 179.189905 
L 195.848217 181.176953 
L 196.132517 181.336002 
L 196.416817 196.46683 
L 196.701117 173.715451 
L 196.985418 167.456356 
L 197.269718 179.331989 
L 197.554018 178.738207 
L 197.838318 161.621392 
L 198.122618 189.129385 
L 198.406918 150.753067 
L 198.691219 156.415199 
L 198.975519 134.657344 
L 199.259819 159.691601 
L 199.544119 229.018786 
L 199.828419 148.890078 
L 200.112719 188.22811 
L 200.39702 167.510433 
L 200.68132 205.39476 
L 200.96562 202.860585 
L 201.24992 192.024071 
L 201.53422 187.284421 
L 201.81852 175.973942 
L 202.102821 214.163642 
L 202.387121 209.689074 
L 202.671421 194.091703 
L 202.955721 205.479586 
L 203.240021 182.258484 
L 203.524321 202.500075 
L 203.808622 181.770735 
L 204.092922 212.710998 
L 204.377222 178.791223 
L 204.661522 200.75054 
L 204.945822 202.913601 
L 205.230122 238.275417 
L 205.514423 210.272252 
L 206.083023 195.22625 
L 206.651623 220.292317 
L 206.935923 214.48174 
L 207.220224 195.406505 
L 207.504524 100.210588 
L 207.788824 183.795954 
L 208.073124 189.394466 
L 208.357424 192.617852 
L 208.641724 213.113921 
L 208.926025 288.061885 
L 209.210325 185.365234 
L 209.494625 198.470843 
L 209.778925 187.814583 
L 210.063225 223.727768 
L 210.347525 224.692663 
L 210.631826 216.241878 
L 210.916126 219.868187 
L 211.200426 220.027236 
L 211.484726 223.187002 
L 211.769026 215.181554 
L 212.053326 221.458674 
L 212.337627 223.558116 
L 212.621927 202.945411 
L 212.906227 209.339167 
L 213.190527 167.262317 
L 213.759127 307.69379 
L 214.043428 279.829527 
L 214.327728 275.874517 
L 214.612028 244.128407 
L 214.896328 240.873212 
L 215.180628 225.954449 
L 215.464928 236.38804 
L 215.749229 204.037545 
L 216.033529 192.4482 
L 216.317829 200.676317 
L 216.602129 190.847111 
L 217.170729 208.236429 
L 217.45503 210.028378 
L 217.73933 204.440468 
L 218.02363 193.572144 
L 218.30793 212.276265 
L 218.59223 214.715011 
L 219.160831 171.310635 
L 219.729431 204.037545 
L 220.013731 201.577593 
L 220.298031 187.125372 
L 220.582332 196.148732 
L 220.866632 188.914139 
L 221.150932 222.847698 
L 221.435232 202.372836 
L 221.719532 202.457662 
L 222.003832 204.567707 
L 222.288133 220.907305 
L 222.572433 225.000157 
L 222.856733 217.705126 
L 223.141033 222.635634 
L 223.425333 198.375413 
L 223.709633 207.35636 
L 224.278234 242.24103 
L 224.562534 229.676187 
L 224.846834 208.034968 
L 225.131134 225.954449 
L 225.415434 198.969195 
L 225.984035 219.740948 
L 226.268335 210.675175 
L 226.552635 228.106907 
L 226.836935 223.04916 
L 227.121235 214.980092 
L 227.405536 218.532179 
L 227.689836 211.184131 
L 227.974136 223.218812 
L 228.827036 163.702808 
L 229.111337 192.798107 
L 229.395637 175.989846 
L 229.679937 191.398479 
L 229.964237 200.061329 
L 230.248537 203.698241 
L 230.532837 156.555162 
L 230.817138 219.18958 
L 231.101438 214.905869 
L 231.385738 216.358514 
L 231.670038 225.562129 
L 231.954338 226.18772 
L 232.238638 197.718012 
L 232.522939 201.312512 
L 232.807239 187.719154 
L 233.091539 214.259072 
L 233.375839 224.68206 
L 233.660139 197.877061 
L 233.944439 225.297048 
L 234.22874 219.115357 
L 234.51304 221.066354 
L 234.79734 235.24289 
L 235.08164 236.366833 
L 235.36594 201.460957 
L 235.65024 187.952425 
L 235.934541 204.599517 
L 236.218841 237.671032 
L 236.503141 183.329411 
L 236.787441 179.512244 
L 237.071741 181.537463 
L 237.356041 214.651392 
L 237.640342 221.310228 
L 238.208942 166.64945 
L 238.493242 208.109191 
L 238.777542 191.483305 
L 239.061842 202.934808 
L 239.346143 181.378415 
L 240.199043 215.679906 
L 240.767643 205.924922 
L 241.051944 207.653251 
L 241.336244 196.318384 
L 241.620544 196.657688 
L 241.904844 210.420698 
L 242.189144 196.678894 
L 242.473444 201.715435 
L 242.757745 202.701537 
L 243.042045 228.944563 
L 243.326345 193.847829 
L 243.610645 190.984953 
L 243.894945 177.540041 
L 244.179245 177.221943 
L 244.463546 180.010596 
L 244.747846 202.521281 
L 245.032146 184.654817 
L 245.316446 176.766004 
L 245.600746 161.48673 
L 245.885046 217.705126 
L 246.169347 221.05575 
L 246.453647 195.120218 
L 246.737947 191.610544 
L 247.022247 221.458674 
L 247.306547 213.580464 
L 247.590847 199.393325 
L 247.875148 198.417826 
L 248.159448 194.04929 
L 248.443748 176.246445 
L 248.728048 208.045571 
L 249.012348 209.084689 
L 249.296648 201.56699 
L 249.580949 209.180118 
L 249.865249 221.861597 
L 250.149549 187.994838 
L 250.433849 201.460957 
L 250.718149 195.19444 
L 251.002449 274.01895 
L 251.28675 204.758566 
L 251.57105 190.274536 
L 251.85535 184.729039 
L 252.13965 200.877779 
L 252.42395 227.703984 
L 252.70825 202.659124 
L 252.992551 195.268663 
L 253.276851 180.063612 
L 253.561151 180.127232 
L 253.845451 211.534038 
L 254.129751 223.303638 
L 254.414051 203.634622 
L 254.698352 211.799119 
L 254.982652 190.984953 
L 255.266952 208.109191 
L 255.551252 215.414825 
L 255.835552 196.297178 
L 256.119852 208.702972 
L 256.404153 185.789364 
L 256.688453 208.840814 
L 256.972753 216.464546 
L 257.257053 212.965476 
L 257.541353 198.195158 
L 257.825653 208.978656 
L 258.109954 241.074673 
L 258.394254 247.903162 
L 258.962854 228.11751 
L 259.247154 230.450224 
L 259.531454 288.813655 
L 259.815755 236.727344 
L 260.100055 218.383733 
L 260.384355 227.905445 
L 260.668655 207.091279 
L 260.952955 217.503664 
L 261.237255 253.2578 
L 261.521556 231.309086 
L 261.805856 244.807015 
L 262.090156 232.740524 
L 262.374456 256.078262 
L 262.658756 200.368823 
L 262.943056 178.621571 
L 263.227357 202.128961 
L 263.511657 200.930795 
L 263.795957 218.521575 
L 264.080257 206.274829 
L 264.364557 188.535604 
L 264.648857 214.640788 
L 265.217458 234.214375 
L 265.501758 207.504806 
L 265.786058 214.395853 
L 266.070358 197.368105 
L 266.354658 195.268663 
L 266.638959 220.69524 
L 266.923259 218.267097 
L 267.207559 191.30305 
L 267.491859 194.059893 
L 267.776159 200.156758 
L 268.060459 211.396196 
L 268.34476 187.644931 
L 268.62906 190.210916 
L 268.91336 221.702548 
L 269.19766 189.76558 
L 269.48196 247.521445 
L 269.76626 220.621017 
L 270.050561 222.423569 
L 270.334861 188.896114 
L 270.619161 238.794976 
L 270.903461 245.962768 
L 271.472061 195.003582 
L 272.324962 231.955884 
L 272.609262 197.452931 
L 272.893562 181.632892 
L 273.177862 186.181684 
L 273.462163 205.691651 
L 273.746463 210.834224 
L 274.030763 183.541476 
L 274.315063 190.603236 
L 274.599363 183.48846 
L 275.167964 210.155616 
L 275.452264 205.977939 
L 275.736564 207.653251 
L 276.020864 202.128961 
L 276.305164 203.549796 
L 276.589464 224.427582 
L 276.873765 233.026812 
L 277.158065 213.219954 
L 277.442365 209.646661 
L 277.726665 212.498933 
L 278.010965 210.569143 
L 278.295265 212.689792 
L 278.579566 215.669303 
L 278.863866 215.616287 
L 279.148166 221.225402 
L 279.716766 214.87406 
L 280.001066 239.897713 
L 280.285367 304.628392 
L 280.569667 210.49492 
L 280.853967 209.625454 
L 281.138267 203.422557 
L 281.422567 201.153463 
L 281.706867 222.063058 
L 281.991168 227.046583 
L 282.275468 200.898985 
L 282.559768 203.178682 
L 282.844068 203.486177 
L 283.128368 226.601247 
L 283.412668 195.035392 
L 283.696969 192.161913 
L 283.981269 203.422557 
L 284.265569 188.768875 
L 284.549869 180.561965 
L 284.834169 223.568719 
L 285.11847 234.85057 
L 285.40277 301.358352 
L 285.68707 318.534545 
L 285.97137 244.022375 
L 286.25567 248.921073 
L 286.53997 247.34119 
L 286.824271 234.012913 
L 287.108571 188.94913 
L 287.392871 197.824045 
L 287.961471 158.178519 
L 288.245771 173.839509 
L 288.530072 196.159336 
L 288.814372 187.072356 
L 289.098672 195.692793 
L 289.382972 176.564542 
L 289.667272 173.797096 
L 289.951572 176.225238 
L 290.235873 169.926912 
L 290.520173 176.702384 
L 290.804473 190.751682 
L 291.088773 199.297895 
L 291.657373 160.977775 
L 291.941674 152.505784 
L 292.225974 182.926488 
L 292.510274 186.722449 
L 292.794574 199.690215 
L 293.078874 182.947695 
L 293.647475 199.615993 
L 293.931775 218.076239 
L 294.216075 207.430583 
L 294.500375 176.108603 
L 294.784675 201.026224 
L 295.068975 215.351206 
L 295.353276 208.215223 
L 295.637576 209.71028 
L 295.921876 190.58203 
L 296.490476 209.922345 
L 296.774776 192.617852 
L 297.059077 212.011184 
L 297.343377 209.551232 
L 297.627677 192.957156 
L 297.911977 197.54836 
L 298.196277 199.785645 
L 298.480577 214.789234 
L 298.764878 222.073662 
L 299.049178 208.034968 
L 299.333478 223.282431 
L 299.617778 197.304486 
L 299.902078 181.505654 
L 300.186378 155.898821 
L 300.470679 209.063482 
L 300.754979 186.574004 
L 301.039279 197.166644 
L 301.323579 198.290587 
L 301.607879 211.109908 
L 301.892179 201.757848 
L 302.17648 202.298613 
L 302.46078 201.673022 
L 302.74508 194.293165 
L 303.02938 200.241584 
L 303.31368 216.422133 
L 303.59798 207.260931 
L 303.882281 215.011902 
L 304.166581 190.804698 
L 304.450881 190.804698 
L 304.735181 183.541476 
L 305.019481 206.391465 
L 305.303781 208.087984 
L 305.588082 201.609402 
L 305.872382 229.071802 
L 306.156682 239.399361 
L 306.440982 205.384157 
L 306.725282 192.183119 
L 307.009582 189.956438 
L 307.293883 198.534462 
L 307.578183 229.591361 
L 308.146783 171.994544 
L 308.431083 162.600071 
L 308.715383 208.257636 
L 308.999684 219.444057 
L 309.283984 195.332283 
L 309.568284 159.535734 
L 309.852584 159.175223 
L 310.136884 182.958298 
L 310.421184 189.648944 
L 310.705485 180.053009 
L 310.989785 200.527872 
L 311.274085 196.254765 
L 311.558385 180.954285 
L 311.842685 152.876897 
L 312.126985 193.65697 
L 312.411286 176.288858 
L 312.695586 206.667149 
L 312.979886 214.640788 
L 313.264186 204.652533 
L 313.548486 212.827634 
L 313.832786 192.08769 
L 314.117087 227.884239 
L 314.401387 222.837095 
L 314.685687 226.134704 
L 314.969987 192.395184 
L 315.254287 211.088702 
L 315.538587 202.807569 
L 315.822888 231.955884 
L 316.107188 225.021363 
L 316.391488 223.568719 
L 316.675788 225.615145 
L 316.960088 238.031543 
L 317.244388 227.799413 
L 317.528689 230.07911 
L 317.812989 220.907305 
L 318.097289 233.228273 
L 318.381589 231.234864 
L 318.665889 213.580464 
L 318.950189 232.401221 
L 319.23449 218.79726 
L 319.51879 197.177247 
L 319.80309 237.119664 
L 320.08739 209.720883 
L 320.37169 203.157476 
L 320.65599 208.384875 
L 320.940291 164.063319 
L 321.224591 212.657982 
L 321.508891 210.49492 
L 321.793191 200.018916 
L 322.077491 197.696806 
L 322.361791 241.244325 
L 322.646092 220.218094 
L 322.930392 215.414825 
L 323.214692 207.727474 
L 323.498992 230.50324 
L 323.783292 238.105765 
L 324.067592 229.082405 
L 324.351893 201.270099 
L 324.636193 206.921627 
L 324.920493 202.510678 
L 325.204793 216.337307 
L 325.489093 202.987824 
L 325.773393 178.208045 
L 326.057694 178.070203 
L 326.341994 214.471136 
L 326.626294 206.423275 
L 326.910594 185.492473 
L 327.194894 191.483305 
L 327.479194 194.04929 
L 327.763495 218.638211 
L 328.047795 220.992131 
L 328.332095 214.38631 
L 328.900695 208.119794 
L 329.184995 195.014185 
L 329.469296 241.138293 
L 330.037896 206.741372 
L 330.322196 207.303344 
L 330.606496 231.690803 
L 330.890796 228.393195 
L 331.175097 221.861597 
L 331.459397 220.30292 
L 331.743697 223.812594 
L 332.027997 229.061199 
L 332.312297 247.934972 
L 332.596597 240.449082 
L 332.880898 229.877649 
L 333.449498 266.649696 
L 333.733798 266.89357 
L 334.018098 235.6034 
L 334.302398 235.189873 
L 334.586699 237.702842 
L 334.870999 258.297521 
L 335.155299 227.523729 
L 335.439599 224.141294 
L 335.723899 210.88724 
L 336.008199 222.561411 
L 336.2925 218.468559 
L 336.5768 228.57345 
L 336.8611 223.11278 
L 337.1454 238.179988 
L 337.4297 205.447776 
L 337.714 229.305074 
L 337.998301 215.796542 
L 338.282601 209.975361 
L 338.566901 219.899997 
L 338.851201 223.176399 
L 339.135501 222.317536 
L 339.419801 208.20462 
L 339.704102 207.536615 
L 339.988402 170.944823 
L 340.272702 188.525 
L 340.557002 193.635764 
L 340.841302 205.893113 
L 341.125602 206.073368 
L 341.409903 202.807569 
L 341.694203 219.338025 
L 341.978503 256.216105 
L 342.262803 216.316101 
L 342.547103 192.342168 
L 342.831403 198.354207 
L 343.115704 181.855561 
L 343.400004 210.675175 
L 343.684304 172.058164 
L 343.968604 177.550644 
L 344.252904 178.897256 
L 344.537204 200.464252 
L 344.821505 209.911742 
L 345.105805 177.582454 
L 345.390105 171.591621 
L 346.243005 208.278842 
L 346.527306 180.38171 
L 346.811606 168.877191 
L 347.095906 167.265498 
L 347.380206 173.447189 
L 347.664506 212.223249 
L 347.948806 202.457662 
L 348.233107 196.784927 
L 348.517407 208.586336 
L 348.801707 193.890241 
L 349.370307 211.618864 
L 349.654608 177.709692 
L 349.938908 201.832071 
L 350.223208 194.420404 
L 350.507508 208.618146 
L 350.791808 204.843392 
L 351.076108 234.39463 
L 351.360409 302.787669 
L 351.644709 210.123807 
L 352.213309 168.315219 
L 352.497609 168.092551 
L 353.06621 212.679188 
L 353.35051 193.646367 
L 353.63481 194.568849 
L 353.91911 184.018622 
L 354.20341 203.210492 
L 354.48771 204.016339 
L 354.772011 192.533026 
L 355.340611 166.077935 
L 355.624911 108.703786 
L 355.909211 205.42657 
L 356.193511 198.969195 
L 356.477812 208.819608 
L 356.762112 254.911906 
L 357.046412 258.527612 
L 357.330712 252.059633 
L 357.615012 258.114085 
L 357.899312 268.303802 
L 358.183613 272.852593 
L 358.467913 196.095716 
L 358.752213 173.807699 
L 359.036513 171.909718 
L 359.320813 189.914025 
L 359.605113 199.584183 
L 359.889414 198.258778 
L 360.173714 198.42843 
L 360.458014 190.656252 
L 360.742314 196.148732 
L 361.026614 214.693805 
L 361.310914 186.976927 
L 361.595215 197.378708 
L 361.879515 176.882639 
L 362.163815 182.025212 
L 362.448115 197.813441 
L 362.732415 185.534886 
L 363.016715 182.831059 
L 363.301016 186.574004 
L 363.869616 178.176235 
L 364.153916 177.945084 
L 364.438216 190.694424 
L 364.722516 191.46634 
L 365.006817 181.531101 
L 365.291117 213.4352 
L 365.859717 196.070268 
L 366.144017 198.124116 
L 366.428317 190.635046 
L 366.712618 219.488591 
L 366.996918 194.369508 
L 367.281218 198.290587 
L 367.565518 188.745548 
L 367.849818 191.812006 
L 368.134118 171.269283 
L 368.418419 197.125291 
L 368.702719 195.252758 
L 368.987019 194.730018 
L 369.271319 165.910404 
L 369.555619 175.179759 
L 369.839919 189.973403 
L 370.12422 184.915656 
L 370.40852 182.733509 
L 370.69282 198.425249 
L 370.97712 194.792577 
L 371.26142 175.507399 
L 371.54572 186.211373 
L 371.830021 202.561574 
L 372.114321 203.875316 
L 372.398621 195.806248 
L 372.682921 180.997758 
L 372.967221 188.553629 
L 373.251521 107.710262 
L 373.535822 163.369866 
L 373.820122 132.087118 
L 374.104422 118.048424 
L 374.388722 173.731356 
L 374.673022 171.133561 
L 374.957322 120.55291 
L 375.241623 133.927841 
L 375.525923 121.509323 
L 375.810223 126.33804 
L 376.094523 135.766444 
L 376.378823 157.924041 
L 376.663123 165.706821 
L 376.947424 154.762154 
L 377.231724 180.134654 
L 377.516024 194.557185 
L 377.800324 146.363325 
L 378.084624 138.950598 
L 378.653225 71.066514 
L 378.937525 125.067771 
L 379.221825 129.093823 
L 379.790425 111.507284 
L 380.359026 165.958118 
L 380.927626 128.158617 
L 381.211926 124.898119 
L 381.496226 105.802739 
L 381.780526 146.341058 
L 382.349127 111.727831 
L 382.917727 175.270947 
L 383.202027 159.385168 
L 383.486327 155.924269 
L 383.770628 161.723183 
L 384.339228 124.227994 
L 384.623528 159.402133 
L 384.907828 156.178747 
L 385.192128 115.986094 
L 385.476429 167.99076 
L 385.760729 183.271093 
L 386.045029 178.030971 
L 386.329329 178.048996 
L 386.613629 171.561932 
L 386.897929 180.900208 
L 387.18223 209.813132 
L 387.46653 161.117738 
L 387.75083 164.360209 
L 388.03513 163.96895 
L 388.31943 183.719611 
L 388.60373 192.244618 
L 388.888031 159.984251 
L 389.172331 174.391938 
L 389.456631 162.873635 
L 389.740931 179.832462 
L 390.025231 180.132534 
L 390.309531 176.23054 
L 390.593832 161.143185 
L 390.878132 167.971674 
L 391.162432 101.030219 
L 391.446732 174.493729 
L 391.731032 173.839509 
L 392.015332 162.965883 
L 392.299633 141.05216 
L 392.583933 99.818268 
L 392.868233 171.939408 
L 393.152533 168.356572 
L 393.436833 168.688453 
L 393.721133 132.61516 
L 394.005434 187.292904 
L 394.289734 164.814028 
L 394.858334 149.267553 
L 395.426934 160.521835 
L 395.711235 151.433796 
L 395.995535 164.105732 
L 396.279835 139.059811 
L 396.564135 174.295448 
L 396.848435 188.535604 
L 397.132735 139.847632 
L 397.417036 137.508556 
L 397.701336 130.4574 
L 397.985636 168.931267 
L 398.269936 174.17033 
L 398.554236 151.203705 
L 398.838536 149.971608 
L 399.122837 144.046516 
L 399.407137 166.533874 
L 399.691437 174.245613 
L 399.975737 139.652532 
L 400.260037 144.226771 
L 400.544337 146.21594 
L 400.828638 151.617232 
L 401.112938 164.992163 
L 401.397238 155.090854 
L 401.681538 125.953142 
L 402.534439 190.573547 
L 402.818739 163.267015 
L 403.103039 159.159319 
L 403.387339 164.564852 
L 403.671639 191.00722 
L 404.24024 178.301353 
L 404.52454 151.562095 
L 404.80884 189.7009 
L 405.09314 192.883994 
L 405.37744 186.695941 
L 405.66174 153.08154 
L 405.946041 105.468737 
L 406.230341 119.852036 
L 406.514641 182.379361 
L 406.798941 151.425313 
L 407.083241 137.046255 
L 407.367541 148.955818 
L 407.651842 145.013532 
L 407.936142 150.79336 
L 408.220442 135.49182 
L 408.504742 145.62958 
L 408.789042 135.812038 
L 409.073342 22.025455 
L 409.357643 136.108928 
L 409.926243 86.102973 
L 410.210543 99.190556 
L 410.494843 147.085406 
L 410.779143 141.86861 
L 411.063444 146.7408 
L 411.347744 132.881301 
L 411.632044 125.550219 
L 411.916344 133.884368 
L 412.200644 133.887549 
L 413.053545 60.243784 
L 413.337845 130.856082 
L 413.622145 123.443354 
L 413.906445 112.516712 
L 414.190746 92.133038 
L 415.043646 138.438461 
L 415.327946 123.335201 
L 415.612246 69.621292 
L 415.896547 78.776132 
L 416.180847 94.291858 
L 416.465147 123.252496 
L 417.033747 94.627981 
L 417.318047 102.302608 
L 417.602348 103.995946 
L 417.886648 84.054427 
L 418.170948 95.677702 
L 418.455248 75.506092 
L 418.739548 68.238629 
L 419.023848 138.868953 
L 419.308149 145.541573 
L 419.592449 147.930484 
L 420.161049 104.095617 
L 420.445349 168.279168 
L 420.729649 154.851221 
L 421.01395 106.119776 
L 421.29825 131.333228 
L 421.86685 96.16121 
L 422.15115 131.781745 
L 422.43545 113.32468 
L 422.719751 145.772724 
L 423.004051 279.422363 
L 423.288351 142.432703 
L 423.572651 115.771908 
L 423.856951 104.495359 
L 424.141251 79.032731 
L 424.425552 130.909098 
L 424.709852 109.675043 
L 424.994152 132.482619 
L 425.278452 134.275628 
L 425.562752 125.319068 
L 425.847052 155.221274 
L 426.131353 157.314354 
L 426.415653 102.869882 
L 426.699953 128.794811 
L 426.984253 125.076254 
L 427.268553 82.281565 
L 427.552853 122.084019 
L 427.837154 144.575618 
L 428.121454 137.314517 
L 428.405754 156.047267 
L 428.690054 219.951953 
L 428.974354 192.949734 
L 429.258654 205.473224 
L 429.542955 209.695436 
L 429.542955 209.695436 
" style="fill:none;stroke:#1f77b4;stroke-linecap:square;stroke-width:1.5;"/>
   </g>
   <g id="patch_3">
    <path d="M 56.6975 333.36 
L 56.6975 7.2 
" style="fill:none;stroke:#000000;stroke-linecap:square;stroke-linejoin:miter;stroke-width:0.8;"/>
   </g>
   <g id="patch_4">
    <path d="M 447.2975 333.36 
L 447.2975 7.2 
" style="fill:none;stroke:#000000;stroke-linecap:square;stroke-linejoin:miter;stroke-width:0.8;"/>
   </g>
   <g id="patch_5">
    <path d="M 56.6975 333.36 
L 447.2975 333.36 
" style="fill:none;stroke:#000000;stroke-linecap:square;stroke-linejoin:miter;stroke-width:0.8;"/>
   </g>
   <g id="patch_6">
    <path d="M 56.6975 7.2 
L 447.2975 7.2 
" style="fill:none;stroke:#000000;stroke-linecap:square;stroke-linejoin:miter;stroke-width:0.8;"/>
   </g>
  </g>
 </g>
 <defs>
  <clipPath id="p8dc5559acc">
   <rect height="326.16" width="390.6" x="56.6975" y="7.2"/>
  </clipPath>
 </defs>
</svg>
